<?xml version="1.0" encoding="UTF-8"?>
<!DOCTYPE svg PUBLIC "-//W3C//DTD SVG 1.1//EN" "http://www.w3.org/Graphics/SVG/1.1/DTD/svg11.dtd">
<!-- Creator: CorelDRAW X7 -->
<svg xmlns="http://www.w3.org/2000/svg" xml:space="preserve" width="34px" height="34px" version="1.1" style="shape-rendering:geometricPrecision; text-rendering:geometricPrecision; image-rendering:optimizeQuality; fill-rule:evenodd; clip-rule:evenodd"
viewBox="0 0 3077 3077"
 xmlns:xlink="http://www.w3.org/1999/xlink">
 <defs>
  <style type="text/css">
   <![CDATA[
    .fil0 {fill:#1CB0BA}
    .fil1 {fill:white}
   ]]>
  </style>
 </defs>
 <g id="Plan_x0020_1">
  <metadata id="CorelCorpID_0Corel-Layer"/>
  <g id="_569169488">
   <path class="fil0" d="M1538 0c-849,0 -1538,689 -1538,1538 0,850 689,1539 1538,1539 850,0 1539,-689 1539,-1539 0,-849 -689,-1538 -1539,-1538z"/>
   <path class="fil1" d="M1566 1957c-63,-51 -120,-77 -175,-77 -46,1 -85,18 -123,45 21,-60 46,-117 71,-157 13,-23 15,-55 4,-80 -12,-25 -34,-38 -55,-30 -139,47 -263,144 -358,262 41,-143 96,-280 168,-401 14,-23 16,-55 4,-79 -10,-25 -32,-38 -53,-32 -209,58 -386,311 -464,522 -12,34 -1,75 23,92 25,16 56,2 68,-33 43,-121 138,-271 246,-364 -91,212 -144,444 -180,659 -6,35 9,72 35,81 5,2 10,3 14,3 22,0 41,-18 48,-46 40,-160 171,-357 342,-468 -29,80 -52,163 -65,236 -4,29 5,58 23,73 18,16 42,14 58,-4 88,-95 142,-143 194,-142 31,0 69,15 124,58 24,19 55,8 69,-24 14,-33 6,-75 -18,-94l0 0z"/>
   <path class="fil1" d="M2469 715c-84,-48 -333,227 -499,504 -8,15 -4,34 11,42l259 150c14,8 32,3 41,-13 157,-282 271,-635 188,-683z"/>
   <path class="fil1" d="M1669 2014c-36,82 -52,141 -37,150 15,9 59,-35 110,-107 98,-45 221,-166 438,-543l-260 -149c-216,376 -260,543 -251,649l0 0z"/>
  </g>
 </g>
</svg>
