<?xml version="1.0" encoding="UTF-8"?>
<!DOCTYPE svg PUBLIC "-//W3C//DTD SVG 1.1//EN" "http://www.w3.org/Graphics/SVG/1.1/DTD/svg11.dtd">
<!-- Creator: CorelDRAW X7 -->
<svg xmlns="http://www.w3.org/2000/svg" xml:space="preserve" width="34px" height="34px" version="1.1" style="shape-rendering:geometricPrecision; text-rendering:geometricPrecision; image-rendering:optimizeQuality; fill-rule:evenodd; clip-rule:evenodd"
viewBox="0 0 2460 2460"
 xmlns:xlink="http://www.w3.org/1999/xlink">
 <defs>
  <style type="text/css">
   <![CDATA[
    .fil0 {fill:#006A77}
    .fil1 {fill:white}
   ]]>
  </style>
 </defs>
 <g id="Plan_x0020_1">
  <metadata id="CorelCorpID_0Corel-Layer"/>
  <path class="fil0" d="M1230 0c-680,0 -1230,550 -1230,1230 0,679 550,1230 1230,1230 679,0 1230,-551 1230,-1230 0,-680 -551,-1230 -1230,-1230z"/>
  <g id="_575739168">
   <path class="fil1" d="M1764 770l0 1172c0,20 -17,37 -37,37l-994 0c-21,0 -37,-17 -37,-37l0 -1425c0,-20 16,-36 37,-36l741 0c1,0 3,0 4,0 0,0 0,0 0,0 0,0 0,0 0,0 1,0 1,0 1,0 0,0 0,0 0,0l0 0c1,0 3,0 4,1 0,0 0,0 0,0l0 0c6,1 12,4 17,9 0,0 0,0 0,0 0,0 0,0 0,0 0,0 0,0 0,0 0,0 0,0 0,0 0,0 0,0 0,0 0,0 0,0 0,0 0,0 0,0 0,0l253 253c0,0 0,0 0,0 0,0 0,0 0,0 0,0 0,0 0,0 0,0 0,0 0,0 0,0 0,0 0,0 0,0 0,0 0,0 0,0 0,0 0,0l0 0c5,5 8,10 9,16 0,0 0,0 0,0 0,0 0,0 0,0 0,0 0,0 0,0 0,0 0,0 0,0 0,0 0,0 0,1 0,0 0,0 0,0 1,1 1,3 1,5 0,0 0,0 0,0 0,0 0,0 0,0 0,0 0,0 0,0 0,0 0,0 0,0 1,1 1,3 1,4z"/>
   <path class="fil0" d="M1506 1432l-140 0c-20,0 -37,17 -37,37 0,20 17,37 37,37l140 0c20,0 37,-17 37,-37 0,-20 -17,-37 -37,-37z"/>
   <path class="fil0" d="M1506 1691l-140 0c-20,0 -37,16 -37,37 0,20 17,36 37,36l140 0c20,0 37,-16 37,-36 0,-21 -17,-37 -37,-37z"/>
   <path class="fil0" d="M1506 1291l-140 0c-20,0 -37,16 -37,37 0,20 17,36 37,36l140 0c20,0 37,-16 37,-36 0,-21 -17,-37 -37,-37z"/>
   <polygon class="fil0" points="1511,733 1638,733 1511,606 "/>
   <path class="fil0" d="M917 1186c0,21 16,37 37,37l552 0c20,0 37,-16 37,-37 0,-20 -17,-37 -37,-37l-552 0c-21,0 -37,17 -37,37z"/>
   <path class="fil0" d="M951 855l64 0 0 63c0,21 16,37 37,37 20,0 36,-16 36,-37l0 -63 64 0c21,0 37,-17 37,-37 0,-21 -16,-37 -37,-37l-64 0 0 -64c0,-20 -16,-37 -36,-37 -21,0 -37,17 -37,37l0 64 -64 0c-20,0 -37,16 -37,37 0,20 17,37 37,37z"/>
   <path class="fil0" d="M1206 1432l-252 0c-21,0 -37,17 -37,37 0,20 16,37 37,37l252 0c21,0 37,-17 37,-37 0,-20 -16,-37 -37,-37z"/>
   <path class="fil0" d="M1243 1328c0,20 -16,36 -37,36l-252 0c-21,0 -37,-16 -37,-36 0,-21 16,-37 37,-37l252 0c21,0 37,16 37,37z"/>
  </g>
 </g>
</svg>
