<?xml version="1.0" encoding="UTF-8"?>
<!DOCTYPE svg PUBLIC "-//W3C//DTD SVG 1.1//EN" "http://www.w3.org/Graphics/SVG/1.1/DTD/svg11.dtd">
<!-- Creator: CorelDRAW X7 -->
<svg xmlns="http://www.w3.org/2000/svg" xml:space="preserve" width="46px" height="46px" version="1.1" style="shape-rendering:geometricPrecision; text-rendering:geometricPrecision; image-rendering:optimizeQuality; fill-rule:evenodd; clip-rule:evenodd"
viewBox="0 0 963 963"
 xmlns:xlink="http://www.w3.org/1999/xlink">
 <defs>
  <style type="text/css">
   <![CDATA[
    .fil0 {fill:#0087CF}
    .fil1 {fill:white}
   ]]>
  </style>
 </defs>
 <g id="Plan_x0020_1">
  <metadata id="CorelCorpID_0Corel-Layer"/>
  <g id="_559429288">
   <circle class="fil0" cx="482" cy="482" r="482"/>
   <path class="fil1" d="M658 321c-5,-6 -14,-6 -19,0l-205 204c-5,5 -14,5 -20,0l-89 -91c-3,-4 -7,-5 -10,-5 -4,0 -7,1 -10,5l-40 35c-2,3 -4,6 -4,10 0,3 2,7 4,10l91 95c5,5 14,14 20,19l38 40c6,5 15,5 20,0l264 -263c5,-6 5,-15 0,-20l-40 -39 0 0 0 0z"/>
  </g>
 </g>
</svg>
