<?xml version="1.0" encoding="utf-8"?>
<!-- Generator: Adobe Illustrator 16.0.0, SVG Export Plug-In . SVG Version: 6.00 Build 0)  -->
<!DOCTYPE svg PUBLIC "-//W3C//DTD SVG 1.1//EN" "http://www.w3.org/Graphics/SVG/1.1/DTD/svg11.dtd">
<svg version="1.1" id="Calque_1" xmlns="http://www.w3.org/2000/svg" xmlns:xlink="http://www.w3.org/1999/xlink" x="0px" y="0px"
	 width="34px" height="34px" viewBox="0 0 34 34" enable-background="new 0 0 34 34" xml:space="preserve">
<g id="Plan_x0020_1">
	<ellipse fill="#EDEDED" cx="17" cy="16.99" rx="17" ry="16.888"/>
	<path id="document-file-xls" fill="#DE9F00" d="M8.556,11.571c-1.114,0-1.986,0.891-1.986,1.967v6.942
		c0,1.076,0.891,1.967,1.986,1.967h16.907c1.096,0,1.986-0.891,1.986-1.967v-6.942c0-1.076-0.891-1.967-1.986-1.967H8.556
		L8.556,11.571z"/>
</g>
<g>
	<path fill="#FFFFFF" d="M8.12,12.983c0.527-0.108,1.283-0.168,2.003-0.168c1.115,0,1.835,0.204,2.338,0.66
		c0.408,0.36,0.636,0.912,0.636,1.535c0,1.067-0.671,1.775-1.523,2.063v0.036c0.624,0.216,0.995,0.792,1.187,1.632
		c0.264,1.127,0.456,1.906,0.624,2.219h-1.08c-0.132-0.229-0.312-0.924-0.54-1.932c-0.24-1.115-0.672-1.535-1.619-1.571H9.163v3.502
		H8.12V12.983z M9.163,16.665h1.067c1.115,0,1.823-0.612,1.823-1.535c0-1.043-0.755-1.5-1.859-1.511
		c-0.504,0-0.863,0.048-1.031,0.096V16.665z"/>
	<path fill="#FFFFFF" d="M18.762,17.168h-3.143v2.915h3.502v0.876h-4.545v-8.084h4.366v0.875h-3.322v2.555h3.143V17.168z"/>
	<path fill="#FFFFFF" d="M26.129,20.695c-0.385,0.191-1.152,0.383-2.135,0.383c-2.279,0-3.994-1.439-3.994-4.089
		c0-2.531,1.715-4.246,4.221-4.246c1.008,0,1.645,0.216,1.92,0.36l-0.252,0.852c-0.396-0.192-0.959-0.336-1.631-0.336
		c-1.895,0-3.154,1.211-3.154,3.334c0,1.979,1.139,3.25,3.105,3.25c0.637,0,1.283-0.133,1.703-0.336L26.129,20.695z"/>
</g>
</svg>
