<?xml version="1.0" encoding="UTF-8"?>
<!DOCTYPE svg PUBLIC "-//W3C//DTD SVG 1.1//EN" "http://www.w3.org/Graphics/SVG/1.1/DTD/svg11.dtd">
<!-- Creator: CorelDRAW X7 -->
<svg xmlns="http://www.w3.org/2000/svg" xml:space="preserve" width="34px" height="34px" version="1.1" style="shape-rendering:geometricPrecision; text-rendering:geometricPrecision; image-rendering:optimizeQuality; fill-rule:evenodd; clip-rule:evenodd"
viewBox="0 0 22033 21963"
 xmlns:xlink="http://www.w3.org/1999/xlink">
 <defs>
  <style type="text/css">
   <![CDATA[
    .fil1 {fill:#0087CF}
    .fil0 {fill:#EDEDED}
   ]]>
  </style>
 </defs>
 <g id="Plan_x0020_1">
  <metadata id="CorelCorpID_0Corel-Layer"/>
  <g id="_707885736">
   <ellipse class="fil0" cx="11016" cy="10981" rx="11016" ry="10981"/>
   <path class="fil1" d="M13654 13853c3,4 6,6 8,11 266,459 109,1045 -350,1310 -460,264 -1048,107 -1314,-353 -2,-4 -3,-8 -6,-12 -2702,1458 -3634,1419 -3937,895 -95,-164 -113,-359 -18,-598 449,-2120 1046,-1949 -152,-4018 -799,-1379 -1475,-2676 60,-3863 -77,-57 -144,-130 -196,-218 -199,-344 -81,-784 263,-983 345,-198 786,-79 985,265 51,88 81,182 92,278 1798,-732 2587,500 3386,1879 1202,2076 1348,1463 3433,2146 244,40 401,150 493,309 303,523 -147,1358 -2747,2952z"/>
  </g>
 </g>
</svg>
