<?xml version="1.0" encoding="UTF-8"?>
<!DOCTYPE svg PUBLIC "-//W3C//DTD SVG 1.1//EN" "http://www.w3.org/Graphics/SVG/1.1/DTD/svg11.dtd">
<!-- Creator: CorelDRAW X7 -->
<svg xmlns="http://www.w3.org/2000/svg" xml:space="preserve" width="34px" height="34px" version="1.1" style="shape-rendering:geometricPrecision; text-rendering:geometricPrecision; image-rendering:optimizeQuality; fill-rule:evenodd; clip-rule:evenodd"
viewBox="0 0 3077 3077"
 xmlns:xlink="http://www.w3.org/1999/xlink"
 enable-background="new 85.14 176.445 454 502">
 <defs>
  <style type="text/css">
   <![CDATA[
    .fil0 {fill:#1CB0BA}
    .fil1 {fill:white}
   ]]>
  </style>
 </defs>
 <g id="Plan_x0020_1">
  <metadata id="CorelCorpID_0Corel-Layer"/>
  <path class="fil0" d="M1538 0c-849,0 -1538,689 -1538,1538 0,850 689,1539 1538,1539 850,0 1539,-689 1539,-1539 0,-849 -689,-1538 -1539,-1538z"/>
  <g id="_521008888">
   <g>
    <path class="fil1" d="M2355 1342c0,-131 -105,-236 -236,-236 -131,0 -236,105 -236,236 0,105 65,190 164,223l-33 459c0,150 -125,275 -275,275l-99 0c-157,0 -282,-118 -295,-269 210,-72 459,-406 459,-740 0,-236 -92,-440 -249,-557l0 -27c0,-32 -26,-65 -66,-65 -32,0 -65,26 -65,65l0 125c0,33 26,65 65,65 14,0 27,-6 33,-13 99,99 151,249 151,420 0,327 -282,629 -413,629 -170,0 -413,-315 -413,-629 0,-171 59,-321 151,-420 13,7 20,13 33,13 32,0 65,-26 65,-65l0 -125c0,-32 -26,-65 -65,-65 -33,0 -66,26 -66,65l0 33c-6,13 -26,26 -46,46 -124,124 -196,308 -196,518 0,347 242,707 491,747 20,216 203,386 420,386l91 0c223,0 407,-183 407,-399l32 -459c105,-26 191,-125 191,-236zm-236 111c-59,0 -112,-52 -112,-111 0,-59 53,-111 112,-111 59,0 111,52 111,111 -7,66 -52,111 -111,111z"/>
   </g>
  </g>
 </g>
</svg>
