<?xml version="1.0" encoding="UTF-8"?>
<!DOCTYPE svg PUBLIC "-//W3C//DTD SVG 1.1//EN" "http://www.w3.org/Graphics/SVG/1.1/DTD/svg11.dtd">
<!-- Creator: CorelDRAW X7 -->
<svg xmlns="http://www.w3.org/2000/svg" xml:space="preserve" width="34px" height="34px" version="1.1" style="shape-rendering:geometricPrecision; text-rendering:geometricPrecision; image-rendering:optimizeQuality; fill-rule:evenodd; clip-rule:evenodd"
viewBox="0 0 2460 2460"
 xmlns:xlink="http://www.w3.org/1999/xlink">
 <defs>
  <style type="text/css">
   <![CDATA[
    .fil0 {fill:#006A77}
    .fil1 {fill:#FEFEFE;fill-rule:nonzero}
   ]]>
  </style>
 </defs>
 <g id="Plan_x0020_1">
  <metadata id="CorelCorpID_0Corel-Layer"/>
  <path class="fil0" d="M1229 0c-679,0 -1229,551 -1229,1230 0,679 550,1230 1229,1230 680,0 1231,-551 1231,-1230 0,-679 -551,-1230 -1231,-1230z"/>
  <g id="_569163848">
   <polygon class="fil1" points="581,881 593,874 605,866 617,858 629,849 642,840 654,830 667,820 680,809 693,798 706,787 720,776 733,763 746,751 760,739 773,726 786,713 800,699 813,686 825,673 837,659 850,646 861,632 872,620 883,606 894,593 904,581 913,568 923,555 932,543 940,531 948,519 955,508 956,506 957,505 958,503 960,501 961,500 962,499 963,498 965,497 966,496 968,495 969,494 971,493 974,492 978,491 981,491 984,490 986,490 988,490 989,490 991,491 993,491 995,491 997,492 998,492 1000,493 1001,494 1003,495 1004,495 1006,496 1007,498 1009,499 1010,500 1012,501 1013,502 1014,504 1015,505 1016,507 1017,508 1018,510 1019,511 1020,514 1021,518 1021,521 1022,525 1022,526 1022,528 1021,530 1021,532 1021,533 1021,535 1020,537 1020,538 1019,540 1018,541 1017,544 1016,545 1010,555 1003,566 996,576 989,586 981,597 973,608 965,619 956,630 1046,720 1055,709 1064,698 1073,687 1081,677 1090,666 1098,656 1106,645 1114,634 1122,624 1129,614 1136,604 1143,594 1150,584 1156,574 1163,564 1168,555 1169,553 1171,552 1172,550 1173,549 1174,548 1175,547 1177,545 1178,544 1180,543 1181,543 1183,541 1184,541 1187,539 1191,538 1194,538 1198,537 1199,537 1201,537 1203,538 1204,538 1206,538 1208,538 1209,539 1211,539 1213,540 1215,541 1216,542 1218,543 1220,544 1221,545 1222,546 1224,547 1225,549 1226,550 1227,551 1228,553 1229,554 1230,555 1231,557 1232,558 1233,562 1234,565 1235,569 1235,572 1235,574 1235,575 1235,577 1235,579 1235,581 1234,582 1234,584 1233,586 1232,587 1232,589 1231,591 1230,592 1225,600 1220,607 1215,615 1210,623 1204,631 1199,639 1194,647 1188,655 1182,663 1176,671 1170,680 1164,688 1158,696 1151,704 1145,713 1138,721 1644,1227 1650,1234 1656,1241 1662,1248 1667,1256 1672,1263 1675,1271 1680,1279 1683,1286 1686,1295 1688,1302 1690,1311 1691,1319 1693,1327 1694,1335 1694,1342 1694,1350 1694,1358 1694,1366 1693,1373 1692,1381 1691,1388 1689,1395 1687,1402 1685,1408 1683,1415 1681,1421 1678,1427 1674,1432 1671,1437 1668,1442 1664,1446 1661,1450 1654,1457 1716,1518 1719,1521 1721,1524 1723,1526 1725,1530 1727,1532 1728,1535 1730,1538 1731,1541 1733,1544 1734,1548 1735,1551 1735,1554 1736,1557 1736,1561 1737,1564 1737,1567 1737,1571 1736,1574 1736,1577 1735,1580 1735,1583 1734,1587 1733,1590 1731,1593 1730,1596 1728,1599 1727,1602 1725,1605 1723,1608 1721,1611 1719,1613 1716,1616 1716,1616 1890,1791 1892,1792 1893,1794 1893,1795 1894,1797 1895,1799 1895,1800 1895,1802 1895,1804 1895,1805 1895,1807 1895,1809 1894,1811 1893,1812 1893,1814 1892,1815 1890,1816 1889,1818 1888,1819 1886,1820 1885,1820 1883,1821 1881,1821 1879,1822 1877,1822 1876,1822 1874,1821 1873,1821 1871,1820 1869,1820 1868,1819 1866,1818 1865,1816 1690,1642 1690,1643 1687,1645 1685,1647 1682,1649 1679,1651 1676,1653 1673,1655 1670,1656 1667,1657 1664,1659 1661,1660 1657,1661 1654,1662 1651,1662 1648,1662 1645,1663 1641,1663 1638,1663 1634,1662 1631,1662 1628,1662 1625,1661 1622,1660 1618,1659 1615,1657 1612,1656 1609,1655 1606,1653 1603,1651 1600,1649 1598,1647 1595,1645 1592,1643 1531,1580 1524,1587 1520,1590 1516,1594 1511,1597 1506,1600 1500,1604 1495,1607 1488,1609 1482,1611 1476,1613 1469,1615 1462,1617 1454,1618 1447,1619 1440,1620 1432,1620 1424,1620 1416,1620 1409,1620 1401,1619 1393,1618 1385,1616 1376,1614 1369,1612 1360,1609 1353,1606 1345,1602 1337,1597 1330,1593 1322,1588 1315,1582 1308,1576 1301,1570 1296,1565 1283,1552 1261,1531 1234,1503 1201,1469 1163,1432 1122,1391 1079,1348 1036,1304 992,1261 949,1218 909,1178 873,1142 841,1110 815,1084 795,1064 787,1071 778,1077 770,1084 762,1090 754,1096 745,1102 737,1108 729,1114 721,1120 713,1125 705,1131 697,1136 689,1141 681,1146 674,1151 666,1156 665,1157 663,1158 661,1159 660,1159 658,1160 656,1160 655,1161 653,1161 651,1161 649,1161 647,1161 646,1161 642,1161 639,1160 636,1159 632,1158 631,1157 629,1156 628,1155 626,1154 625,1153 624,1152 622,1151 621,1150 620,1148 619,1147 618,1146 617,1144 616,1143 615,1141 614,1139 613,1137 613,1136 612,1134 612,1132 612,1131 611,1129 611,1127 611,1125 611,1124 612,1120 612,1117 613,1113 614,1110 615,1109 617,1107 617,1106 618,1104 619,1103 620,1101 622,1100 623,1099 624,1098 625,1097 627,1095 629,1095 638,1089 648,1082 658,1076 668,1069 678,1062 688,1055 698,1048 708,1040 719,1032 730,1024 740,1016 751,1007 761,999 772,990 783,981 794,972 704,882 693,891 682,899 672,907 660,915 650,922 639,929 629,936 619,943 617,943 616,944 614,945 612,946 610,946 609,947 607,947 605,947 604,947 602,948 600,948 599,948 595,947 592,947 588,946 585,945 584,944 582,943 581,942 579,941 578,940 576,939 575,938 574,936 573,935 571,933 570,932 569,931 568,929 568,927 567,926 566,924 566,922 565,921 565,919 565,917 564,915 564,914 564,912 564,910 565,907 565,904 566,900 567,897 568,895 569,894 570,892 571,891 572,890 573,888 574,887 575,886 577,885 578,883 580,882 581,881 "/>
   <g>
    <rect class="fil0" transform="matrix(0.707107 -0.707107 0.707107 0.707107 1102.07 1314.01)" width="166.205" height="50.3803"/>
    <rect class="fil0" transform="matrix(0.707107 -0.707107 0.707107 0.707107 968.519 1180.47)" width="166.205" height="50.3803"/>
    <rect class="fil0" transform="matrix(0.707107 -0.707107 0.707107 0.707107 1235.61 1447.56)" width="166.205" height="50.3803"/>
   </g>
  </g>
 </g>
</svg>
