<?xml version="1.0" encoding="UTF-8"?>
<!DOCTYPE svg PUBLIC "-//W3C//DTD SVG 1.1//EN" "http://www.w3.org/Graphics/SVG/1.1/DTD/svg11.dtd">
<!-- Creator: CorelDRAW X7 -->
<svg xmlns="http://www.w3.org/2000/svg" xml:space="preserve" width="34px" height="34px" version="1.1" style="shape-rendering:geometricPrecision; text-rendering:geometricPrecision; image-rendering:optimizeQuality; fill-rule:evenodd; clip-rule:evenodd"
viewBox="0 0 2460 2460"
 xmlns:xlink="http://www.w3.org/1999/xlink"
 enable-background="new 85.14 176.445 454 502">
 <defs>
  <style type="text/css">
   <![CDATA[
    .fil0 {fill:#006A77}
    .fil1 {fill:white}
   ]]>
  </style>
 </defs>
 <g id="Plan_x0020_1">
  <metadata id="CorelCorpID_0Corel-Layer"/>
  <path class="fil0" d="M1230 0c-680,0 -1230,550 -1230,1230 0,679 550,1230 1230,1230 679,0 1230,-551 1230,-1230 0,-680 -551,-1230 -1230,-1230z"/>
  <g id="_569179376">
   <g>
    <path class="fil1" d="M1882 1073c0,-105 -84,-189 -189,-189 -104,0 -188,84 -188,189 0,83 52,152 131,178l-26 366c0,121 -100,220 -220,220l-79 0c-126,0 -225,-94 -236,-214 168,-58 367,-325 367,-592 0,-189 -73,-351 -199,-446l0 -20c0,-27 -21,-53 -53,-53 -26,0 -52,21 -52,53l0 99c0,26 21,52 52,52 11,0 21,-5 27,-10 78,79 120,199 120,335 0,262 -225,503 -330,503 -136,0 -330,-251 -330,-503 0,-136 47,-256 121,-335 10,5 15,10 26,10 26,0 52,-21 52,-52l0 -99c0,-27 -21,-53 -52,-53 -26,0 -53,21 -53,53l0 26c-5,10 -21,21 -36,36 -100,100 -157,247 -157,414 0,278 193,566 392,597 16,173 163,309 336,309l73 0c178,0 325,-146 325,-319l26 -367c84,-21 152,-99 152,-188zm-189 89c-47,0 -89,-42 -89,-89 0,-48 42,-89 89,-89 47,0 89,41 89,89 -5,52 -42,89 -89,89z"/>
   </g>
  </g>
 </g>
</svg>
