<?xml version="1.0" encoding="UTF-8"?>
<!DOCTYPE svg PUBLIC "-//W3C//DTD SVG 1.1//EN" "http://www.w3.org/Graphics/SVG/1.1/DTD/svg11.dtd">
<!-- Creator: CorelDRAW X7 -->
<svg xmlns="http://www.w3.org/2000/svg" xml:space="preserve" width="34px" height="34px" version="1.1" style="shape-rendering:geometricPrecision; text-rendering:geometricPrecision; image-rendering:optimizeQuality; fill-rule:evenodd; clip-rule:evenodd"
viewBox="0 0 2460 2460"
 xmlns:xlink="http://www.w3.org/1999/xlink"
 enable-background="new 0 0 595.281 841.891">
 <defs>
  <style type="text/css">
   <![CDATA[
    .fil0 {fill:#006A77}
    .fil1 {fill:white}
   ]]>
  </style>
 </defs>
 <g id="Plan_x0020_1">
  <metadata id="CorelCorpID_0Corel-Layer"/>
  <path class="fil0" d="M1230 0c-679,0 -1230,551 -1230,1230 0,679 551,1230 1230,1230 679,0 1230,-551 1230,-1230 0,-679 -551,-1230 -1230,-1230z"/>
  <g id="_601389544">
   <g>
    <path class="fil1" d="M1260 549c0,0 -83,-95 -159,-72 -65,23 -88,69 -118,148 -19,61 -23,126 -69,130 -42,4 -72,-15 -72,-15 0,0 76,76 125,79 57,0 103,-7 149,-106 38,-88 61,-91 87,-103 27,-7 57,-49 57,-61z"/>
    <path class="fil1" d="M1078 1672c0,0 -46,-114 -88,-160 -46,-46 -114,-110 -84,-171 31,-61 99,-160 99,-160 0,0 38,107 57,179 16,68 46,160 42,205 -7,42 -7,115 -26,107z"/>
    <g>
     <path class="fil1" d="M1005 1995c0,0 -34,-53 -26,-87 4,-34 15,-61 15,-61 0,0 -15,-53 0,-76 15,-27 30,-72 -8,-107 -38,-34 -110,-106 -144,-141 -35,-34 -80,-95 -69,-137 15,-41 69,-159 103,-232 38,-76 68,-198 107,-251 34,-57 68,-87 114,-122 45,-34 110,-76 129,-114 19,-38 15,-95 53,-129 38,-34 122,-91 213,-69 69,19 111,111 122,160 12,50 8,69 -11,88 -19,23 -19,30 -34,57 -16,26 -23,15 -42,19 -19,4 -19,15 -27,49 -8,35 -23,23 -38,12 -15,-12 -11,4 -23,23 -11,15 -30,15 -45,19 -16,3 -35,26 -46,15 -15,-12 -46,-69 -46,-69 0,0 -64,42 -53,84 11,42 72,118 114,148 53,42 99,46 95,118 -4,46 -76,69 -64,99 7,27 117,65 171,99 80,50 133,145 122,236 -12,92 -61,141 -107,191 -46,53 -148,87 -160,125 -7,38 -7,53 -7,53l-408 0z"/>
    </g>
   </g>
  </g>
 </g>
</svg>
