<?xml version="1.0" encoding="UTF-8"?>
<!DOCTYPE svg PUBLIC "-//W3C//DTD SVG 1.1//EN" "http://www.w3.org/Graphics/SVG/1.1/DTD/svg11.dtd">
<!-- Creator: CorelDRAW X7 -->
<svg xmlns="http://www.w3.org/2000/svg" xml:space="preserve" width="119944px" height="119944px" version="1.1" style="shape-rendering:geometricPrecision; text-rendering:geometricPrecision; image-rendering:optimizeQuality; fill-rule:evenodd; clip-rule:evenodd"
viewBox="0 0 6434661 6434661"
 xmlns:xlink="http://www.w3.org/1999/xlink">
 <defs>
  <style type="text/css">
   <![CDATA[
    .fil1 {fill:#0087CF}
    .fil0 {fill:#EDEDED}
   ]]>
  </style>
 </defs>
 <g id="Plan_x0020_1">
  <metadata id="CorelCorpID_0Corel-Layer"/>
  <ellipse class="fil0" cx="3217307" cy="3217337" rx="3217332" ry="3217283"/>
  <path class="fil1" d="M4126409 2215857l-910273 0 -907883 0c-46687,0 -89139,9338 -123665,45275 -39954,40932 -44189,86315 -44189,138321l0 144076 0 47664 46035 0 1029702 0 1031439 0 46687 0 0 -47664 0 -144076c0,-52114 -4235,-97389 -44298,-138321 -35069,-35937 -79366,-45275 -123555,-45275z"/>
  <path class="fil1" d="M2973042 1785801l243094 0 245374 0c32138,0 64927,9338 90984,35395 27795,29206 34526,62755 34526,98041l0 217905 -46686 0 -113893 0 -46686 0 0 -121601 0 -38435c0,-9988 -2389,-14331 -7166,-21714 -7274,-7492 -14006,-7492 -20629,-7492l-135824 0 -132675 0c-7275,0 -14006,0 -21172,7492 -7274,7383 -7274,11726 -7274,21714l0 38435 0 121601 -46687 0 -114544 0 -46034 0 0 -217905c0,-35286 6622,-68835 34526,-98041 26057,-26057 58846,-35395 91526,-35395l-543 0 -217 0z"/>
  <path class="fil1" d="M2265801 2670016l0 1795139c0,49726 9663,97498 46577,135933 37566,40280 84361,47772 133327,47772l772820 0 770322 0c49075,0 95761,-7492 132676,-47772 37566,-38435 46686,-86315 46686,-135933l0 -1795139 -1902408 0 0 0zm319963 197928l139950 0 0 1494176c0,23668 -27795,42777 -58086,42777l-23669 0c-32680,0 -58195,-19217 -58195,-42777l0 -1494176 0 0zm562406 0l137561 0 0 1494176c0,23668 -25406,42777 -58086,42777l-20629 0c-33332,0 -58846,-19217 -58846,-42777l0 -1494176 0 0zm560668 0l139950 0 0 1494176c0,23668 -26057,42777 -58846,42777l-23017 0c-30292,0 -58847,-19217 -58847,-42777l0 -1494176 652 0 108 0z"/>
 </g>
</svg>
