<?xml version="1.0" encoding="UTF-8"?>
<!DOCTYPE svg PUBLIC "-//W3C//DTD SVG 1.1//EN" "http://www.w3.org/Graphics/SVG/1.1/DTD/svg11.dtd">
<!-- Creator: CorelDRAW X7 -->
<svg xmlns="http://www.w3.org/2000/svg" xml:space="preserve" width="154px" height="65px" version="1.1" style="shape-rendering:geometricPrecision; text-rendering:geometricPrecision; image-rendering:optimizeQuality; fill-rule:evenodd; clip-rule:evenodd"
viewBox="0 0 51807 21881"
 xmlns:xlink="http://www.w3.org/1999/xlink">
 <defs>
  <style type="text/css">
   <![CDATA[
    .fil0 {fill:#546E7A}
    .fil1 {fill:#87BE2E}
    .fil2 {fill:#B0BEC5}
    .fil3 {fill:#2B2A29;fill-rule:nonzero}
   ]]>
  </style>
 </defs>
 <g id="Plan_x0020_1">
  <metadata id="CorelCorpID_0Corel-Layer"/>
  <g id="_396259504">
   <path class="fil0" d="M6189 11235c-1787,0 -3235,-1435 -3235,-3204 0,-1770 1448,-3204 3235,-3204 1786,0 3234,1434 3234,3204 0,1769 -1448,3204 -3234,3204zm0 -7552c-2425,0 -4390,1946 -4390,4348 0,2401 1965,4348 4390,4348 2424,0 4389,-1947 4389,-4348 0,-2402 -1965,-4348 -4389,-4348z"/>
   <polygon class="fil1" points="8904,7493 8880,7392 7421,7605 5318,7912 5397,8243 5476,8574 7500,7936 "/>
   <polygon class="fil2" points="1097,4546 2690,2968 3261,3534 1668,5112 "/>
   <polygon class="fil2" points="2134,4784 2930,3995 3438,4498 2642,5287 "/>
   <polygon class="fil2" points="11304,4548 9710,2970 9139,3536 10731,5114 "/>
   <polygon class="fil2" points="10266,4786 9470,3997 8962,4500 9758,5289 "/>
   <polygon class="fil2" points="6692,3574 5604,3574 5604,2486 6692,2486 "/>
   <path class="fil2" d="M6189 0c-957,0 -1733,768 -1733,1717 0,707 431,1314 1048,1576l0 -565c-329,-219 -545,-591 -545,-1011 0,-673 551,-1218 1230,-1218 679,0 1229,545 1229,1218 0,454 -252,850 -624,1059l0 550c658,-243 1129,-872 1129,-1609 0,-949 -777,-1717 -1734,-1717l0 0z"/>
  </g>
  <g id="_577093944">
   <path class="fil3" d="M0 17996l0 -2450 1096 0c220,0 388,22 503,66 114,44 206,122 274,233 69,111 102,234 102,369 0,173 -56,320 -170,439 -113,119 -288,195 -525,227 87,41 152,83 197,122 96,87 186,196 271,326l428 668 -409 0 -327 -510c-95,-148 -174,-260 -235,-338 -63,-78 -118,-133 -167,-164 -48,-31 -98,-53 -149,-65 -37,-8 -97,-11 -182,-11l-378 0 0 1088 -329 0 0 0zm328 -1369l702 0c150,0 266,-15 350,-46 84,-31 148,-80 191,-147 44,-68 66,-141 66,-220 0,-116 -42,-211 -126,-286 -86,-74 -219,-112 -401,-112l-782 0 0 811z"/>
   <path id="_1" class="fil3" d="M2216 17996l949 -2450 360 0 1007 2450 -373 0 -286 -743 -1042 0 -268 743 -347 0zm711 -1006l843 0 -257 -679c-78,-207 -137,-378 -178,-512 -34,160 -79,316 -136,472l-271 719 -1 0z"/>
   <path id="_2" class="fil3" d="M4791 17996l0 -2450 934 0c164,0 289,8 376,23 122,20 224,59 307,115 82,56 148,135 198,235 50,101 75,213 75,334 0,207 -67,383 -202,527 -133,144 -375,216 -725,216l-635 0 0 1000 -328 0 0 0zm328 -1287l639 0c212,0 361,-39 451,-117 89,-78 133,-187 133,-329 0,-103 -25,-190 -78,-263 -53,-73 -121,-122 -207,-145 -55,-15 -157,-22 -305,-22l-633 0 0 876 0 0z"/>
   <polygon id="_3" class="fil3" points="7150,17996 7150,15546 7478,15546 7478,17996 "/>
   <path id="_4" class="fil3" d="M8054 17996l0 -2450 853 0c192,0 339,11 440,35 142,33 263,91 363,176 130,109 228,248 292,418 65,170 97,364 97,583 0,185 -22,350 -66,494 -43,144 -99,263 -168,357 -69,94 -144,168 -225,222 -82,54 -180,95 -295,123 -116,28 -249,42 -398,42l-893 0 0 0zm329 -288l527 0c163,0 291,-15 384,-45 92,-30 166,-73 221,-127 77,-77 137,-181 181,-311 43,-130 65,-287 65,-472 0,-257 -43,-455 -127,-593 -85,-138 -188,-230 -309,-277 -88,-33 -229,-50 -423,-50l-519 0 0 1875 0 0z"/>
   <polygon id="_5" class="fil3" points="10556,17996 10556,15546 12341,15546 12341,15833 10884,15833 10884,16586 12249,16586 12249,16873 10884,16873 10884,17708 12400,17708 12400,17996 "/>
  </g>
  <g id="_577093824">
   <path class="fil2" d="M29013 7795c201,-427 315,-904 315,-1407 0,-1841 -1507,-3332 -3364,-3332 -1859,0 -3364,1491 -3364,3332 0,1839 1505,3331 3364,3331 509,0 991,-112 1423,-312l-322 -842c-332,166 -706,258 -1101,258 -1356,0 -2460,-1092 -2460,-2435 0,-1343 1104,-2437 2460,-2437 1356,0 2459,1094 2459,2437 0,389 -94,758 -259,1085l849 322z"/>
   <path class="fil0" d="M24832 6388c0,619 507,1120 1132,1120 624,0 1131,-501 1131,-1120 0,-618 -507,-1121 -1131,-1121 -625,0 -1132,503 -1132,1121z"/>
   <path class="fil2" d="M25964 11093c-2620,0 -4751,-2111 -4751,-4705 0,-2595 2131,-4706 4751,-4706 2619,0 4750,2111 4750,4706 0,675 -145,1318 -405,1899l847 322c298,-681 464,-1431 464,-2221 0,-3095 -2533,-5602 -5656,-5602 -3124,0 -5656,2507 -5656,5602 0,3094 2532,5602 5656,5602 796,0 1553,-164 2240,-458l-323 -841c-587,258 -1235,402 -1917,402l0 0z"/>
   <path class="fil1" d="M31630 11308c26,-26 26,-68 0,-94l-1221 -1214c-26,-26 -22,-63 11,-81l1087 -640c32,-19 30,-45 -5,-58l-4270 -1622c-36,-13 -53,4 -40,39l1625 4233c13,35 40,37 59,5l649 -1074c19,-33 56,-37 83,-11l1221 1214c26,26 69,26 95,0l706 -696 0 -1z"/>
  </g>
  <g id="_577085328">
   <path class="fil3" d="M19817 17209l307 -28c15,123 48,224 102,303 53,79 136,143 248,192 113,49 239,74 380,74 125,0 235,-19 331,-56 95,-37 166,-88 213,-152 46,-65 69,-135 69,-210 0,-76 -22,-143 -67,-200 -44,-58 -119,-106 -223,-145 -66,-25 -212,-65 -440,-119 -227,-54 -386,-105 -477,-153 -118,-62 -206,-138 -263,-229 -59,-90 -87,-192 -87,-304 0,-125 36,-241 106,-348 71,-108 174,-189 310,-245 137,-56 288,-84 454,-84 183,0 345,29 485,88 140,58 247,144 323,258 75,114 116,242 121,386l-314 25c-17,-155 -74,-272 -171,-351 -97,-79 -241,-118 -431,-118 -198,0 -343,36 -433,107 -91,72 -136,159 -136,260 0,88 32,161 96,218 63,56 227,115 493,174 266,60 449,111 548,156 143,66 250,149 318,249 69,101 103,217 103,348 0,130 -37,252 -113,368 -76,115 -183,204 -324,268 -141,64 -300,96 -476,96 -224,0 -411,-33 -562,-97 -151,-65 -269,-162 -354,-292 -87,-129 -132,-276 -136,-439l0 0z"/>
   <polygon id="_1_0" class="fil3" points="22283,17996 22283,15546 22611,15546 22611,17996 "/>
   <path id="_2_1" class="fil3" d="M23180 17996l0 -2450 491 0 585 1734c53,161 92,282 117,363 29,-89 73,-220 133,-394l595 -1703 438 0 0 2450 -314 0 0 -2050 -723 2050 -294 0 -714 -2087 0 2087 -314 0 0 0z"/>
   <path id="_3_2" class="fil3" d="M26064 17996l0 -2450 934 0c164,0 289,8 376,23 122,20 224,59 306,115 82,56 148,135 198,235 51,101 75,213 75,334 0,207 -66,383 -201,527 -133,144 -376,216 -725,216l-635 0 0 1000 -328 0 0 0zm328 -1287l639 0c212,0 361,-39 451,-117 89,-78 133,-187 133,-329 0,-103 -26,-190 -78,-263 -53,-73 -122,-122 -207,-145 -55,-15 -157,-22 -305,-22l-633 0 0 876 0 0z"/>
   <polygon id="_4_3" class="fil3" points="28354,17996 28354,15546 28683,15546 28683,17708 29898,17708 29898,17996 "/>
   <polygon id="_5_4" class="fil3" points="30296,17996 30296,15546 32082,15546 32082,15833 30624,15833 30624,16586 31988,16586 31988,16873 30624,16873 30624,17708 32140,17708 32140,17996 "/>
  </g>
  <g id="_577085952">
   <path class="fil3" d="M40919 18059l0 -299 1267 -1570c90,-111 176,-209 257,-293l-1379 0 0 -287 1769 0 0 287 -1390 1699 -148 176 1579 0 0 287 -1955 0z"/>
   <path id="_1_5" class="fil3" d="M43233 18059l0 -2449 1786 0 0 287 -1458 0 0 753 1364 0 0 287 -1364 0 0 835 1516 0 0 287 -1844 0zm673 -2599l222 -470 400 0 -370 470 -252 0z"/>
   <path id="_2_6" class="fil3" d="M45537 18059l0 -2449 1095 0c221,0 388,22 503,66 115,44 206,121 275,233 68,111 102,234 102,369 0,173 -56,320 -171,439 -112,119 -288,194 -525,227 87,41 153,82 198,122 95,87 186,196 270,326l428 667 -409 0 -326 -509c-96,-148 -175,-260 -236,-339 -62,-77 -117,-132 -166,-163 -49,-31 -99,-53 -150,-65 -37,-7 -97,-11 -182,-11l-378 0 0 1087 -328 0zm328 -1368l702 0c150,0 266,-15 350,-46 84,-30 148,-79 191,-147 44,-68 66,-140 66,-220 0,-116 -42,-212 -127,-286 -85,-75 -218,-112 -400,-112l-782 0 0 811z"/>
   <path id="_3_7" class="fil3" d="M47924 16867c0,-406 111,-724 331,-954 221,-229 505,-344 854,-344 228,0 434,54 617,162 184,108 324,258 420,451 96,193 144,412 144,657 0,247 -51,471 -152,666 -101,196 -245,344 -430,444 -186,101 -386,152 -601,152 -233,0 -441,-56 -625,-168 -182,-110 -322,-262 -416,-455 -95,-192 -142,-396 -142,-611zm339 6c0,295 79,526 239,696 161,169 362,254 603,254 247,0 448,-85 608,-256 159,-171 239,-414 239,-729 0,-199 -35,-373 -103,-521 -67,-148 -167,-264 -297,-345 -132,-81 -278,-122 -441,-122 -232,0 -431,79 -598,235 -167,158 -250,420 -250,788l0 0z"/>
   <path id="_4_8" class="fil3" d="M39707 21881l0 -2449 934 0c164,0 289,8 376,23 122,20 224,58 306,114 82,56 148,135 198,236 50,101 75,212 75,334 0,207 -66,383 -201,527 -134,145 -375,216 -725,216l-635 0 0 999 -328 0 0 0zm328 -1286l639 0c212,0 361,-39 451,-117 89,-78 133,-188 133,-330 0,-102 -26,-189 -79,-262 -52,-74 -121,-122 -206,-145 -55,-15 -157,-22 -305,-22l-633 0 0 876 0 0z"/>
   <path id="_5_9" class="fil3" d="M41484 21881l948 -2449 360 0 1006 2449 -372 0 -286 -742 -1041 0 -269 742 -346 0 0 0zm711 -1006l843 0 -258 -679c-78,-206 -137,-377 -178,-511 -33,160 -79,317 -136,471l-271 719z"/>
   <path id="_6" class="fil3" d="M44058 21881l0 -2449 934 0c164,0 290,8 377,23 121,20 223,58 305,114 82,56 149,135 199,236 50,101 74,212 74,334 0,207 -66,383 -200,527 -134,145 -377,216 -726,216l-634 0 0 999 -329 0 0 0zm329 -1286l638 0c212,0 362,-39 451,-117 89,-78 133,-188 133,-330 0,-102 -26,-189 -78,-262 -53,-74 -122,-122 -207,-145 -55,-15 -157,-22 -305,-22l-632 0 0 876 0 0z"/>
   <polygon id="_7" class="fil3" points="46417,21881 46417,19432 46745,19432 46745,21881 "/>
   <polygon id="_8" class="fil3" points="47328,21881 47328,19432 49114,19432 49114,19719 47657,19719 47657,20472 49021,20472 49021,20759 47657,20759 47657,21594 49173,21594 49173,21881 "/>
   <path id="_9" class="fil3" d="M49632 21881l0 -2449 1096 0c221,0 388,22 503,66 114,44 206,121 275,233 67,110 102,234 102,369 0,173 -57,320 -171,439 -113,119 -288,194 -525,227 86,41 152,82 197,122 96,87 186,196 271,326l427 667 -408 0 -327 -510c-95,-147 -174,-259 -235,-338 -62,-78 -118,-132 -167,-163 -49,-31 -99,-53 -149,-65 -37,-7 -97,-12 -182,-12l-378 0 0 1088 -329 0zm329 -1368l702 0c150,0 266,-15 349,-47 85,-30 149,-79 191,-146 44,-68 66,-140 66,-220 0,-116 -42,-212 -126,-287 -85,-74 -219,-111 -401,-111l-781 0 0 811z"/>
  </g>
  <g id="_577082760">
   <g>
    <path class="fil1" d="M47069 7678c-339,-353 -808,-589 -1317,-711 164,388 82,817 268,1200 151,309 499,707 946,628 -146,-473 -378,-949 -703,-1353 375,378 732,735 936,1198 497,-229 137,-685 -130,-962 -466,-484 299,311 0,0z"/>
    <path class="fil1" d="M48374 6338c-166,-463 -523,-850 -976,-1132 -28,437 -312,825 -328,1263 -13,365 87,957 589,1019 91,-518 147,-1128 18,-1642 195,503 263,1061 241,1588 601,-74 595,-710 456,-1096 -229,-636 147,407 0,0z"/>
    <path class="fil1" d="M50266 6241c-175,435 -75,912 -281,1340 -163,340 -538,775 -1029,694 149,-525 401,-1054 754,-1504 -409,421 -793,878 -1011,1392 -554,-246 -100,-998 199,-1297 455,-455 808,-485 1368,-625z"/>
    <path class="fil1" d="M51027 8288c-267,218 -398,526 -662,747 -235,196 -696,437 -1015,239 314,-304 689,-582 1100,-784 -437,170 -851,309 -1203,589 -166,-300 223,-622 510,-738 548,-222 842,-106 1270,-53z"/>
    <path class="fil1" d="M46147 9915c-305,-214 -518,-508 -610,-836 348,115 733,95 1081,209 267,88 728,326 612,629 -441,-113 -885,-276 -1264,-502 352,255 725,507 1152,653 -252,295 -719,24 -971,-153 -440,-309 282,199 0,0z"/>
    <path class="fil0" d="M48559 9910c135,-124 10,0 611,-601 -68,45 -567,371 -616,403 -3,-141 -5,-267 -7,-372l236 -954 -288 555c-15,-29 -33,-64 -54,-103 -138,-270 -373,-759 -285,-1033 -176,290 -29,897 55,1229 -6,73 -19,238 -36,464 -1010,-468 -976,-693 -976,-693 0,0 -69,269 959,905 -11,138 -23,292 -36,456 -269,-217 -516,-296 -819,-301 336,61 607,227 792,566 -84,1033 -10,848 -99,1503 -35,257 803,184 668,-51 -43,-588 -73,-851 -105,-1973z"/>
   </g>
   <path class="fil0" d="M48464 1102l-6648 0c-734,0 -1329,589 -1329,1317l0 7900c0,726 595,1316 1329,1316l5212 0 94 -659 -5305 0c-366,0 -665,-294 -665,-657l0 -7900c0,-364 299,-659 665,-659l6647 0c366,0 664,295 664,659l0 3411 665 -414 0 -2997c0,-728 -595,-1317 -1329,-1317l0 0z"/>
   <g>
    <polygon class="fil2" points="44973,10055 42640,10055 42640,9396 44973,9396 "/>
    <polygon class="fil2" points="47572,3463 42640,3463 42640,2805 47572,2805 "/>
    <polygon class="fil2" points="47572,4781 42640,4781 42640,4123 47572,4123 "/>
    <polygon class="fil2" points="46069,6100 42640,6100 42640,5441 46069,5441 "/>
    <polygon class="fil2" points="45106,7418 42640,7418 42640,6760 45106,6760 "/>
    <polygon class="fil2" points="44973,8737 42640,8737 42640,8078 44973,8078 "/>
   </g>
  </g>
 </g>
</svg>
