<?xml version="1.0" encoding="UTF-8"?>
<!DOCTYPE svg PUBLIC "-//W3C//DTD SVG 1.1//EN" "http://www.w3.org/Graphics/SVG/1.1/DTD/svg11.dtd">
<!-- Creator: CorelDRAW X7 -->
<svg xmlns="http://www.w3.org/2000/svg" xml:space="preserve" width="44px" height="44px" version="1.1" style="shape-rendering:geometricPrecision; text-rendering:geometricPrecision; image-rendering:optimizeQuality; fill-rule:evenodd; clip-rule:evenodd"
viewBox="0 0 3211 3211"
 xmlns:xlink="http://www.w3.org/1999/xlink">
 <defs>
  <style type="text/css">
   <![CDATA[
    .fil1 {fill:none}
    .fil0 {fill:#C3CC1E}
    .fil2 {fill:white}
   ]]>
  </style>
    <clipPath id="id0">
     <path d="M1605 0c-886,0 -1605,719 -1605,1605 0,887 719,1606 1605,1606 887,0 1606,-719 1606,-1606 0,-886 -719,-1605 -1606,-1605z"/>
    </clipPath>
 </defs>
 <g id="popin">
  <metadata id="CorelCorpID_0Corel-Layer"/>
  <g id="_640802192">
   <path class="fil0" d="M1605 0c-886,0 -1605,719 -1605,1605 0,887 719,1606 1605,1606 887,0 1606,-719 1606,-1606 0,-886 -719,-1605 -1606,-1605z"/>
   <g style="clip-path:url(#id0)">
   </g>
   <path id="1" class="fil1" d="M1605 0c-886,0 -1605,719 -1605,1605 0,887 719,1606 1605,1606 887,0 1606,-719 1606,-1606 0,-886 -719,-1605 -1606,-1605z"/>
   <g>
    <path class="fil2" d="M1634 2042c-66,-53 -125,-80 -182,-80 -48,1 -89,19 -129,47 22,-63 48,-122 74,-164 14,-24 16,-58 4,-84 -12,-26 -35,-39 -57,-31 -145,49 -274,150 -374,273 43,-149 101,-292 176,-418 14,-24 16,-57 4,-82 -11,-26 -33,-40 -55,-34 -218,61 -403,325 -484,545 -13,35 -2,78 24,96 26,17 58,2 71,-34 44,-127 143,-283 256,-380 -95,221 -150,463 -188,687 -6,37 10,75 37,85 5,2 10,3 15,3 22,0 42,-19 50,-48 41,-167 178,-373 356,-488 -30,83 -54,170 -67,246 -5,30 5,60 24,76 18,17 43,15 60,-4 92,-99 148,-149 203,-148 32,0 72,15 129,60 25,20 57,9 72,-25 15,-34 6,-78 -19,-98z"/>
    <g>
     <path class="fil2" d="M2576 746c-87,-50 -347,237 -520,526 -9,16 -4,35 11,44l270 156c15,9 34,3 43,-13 164,-294 283,-663 196,-713z"/>
     <path class="fil2" d="M1742 2102c-38,85 -55,147 -39,156 16,9 61,-36 115,-112 102,-47 230,-173 457,-566l-271 -156c-226,393 -272,567 -262,678z"/>
    </g>
   </g>
  </g>
 </g>
</svg>
