<?xml version="1.0" encoding="UTF-8"?>
<!DOCTYPE svg PUBLIC "-//W3C//DTD SVG 1.1//EN" "http://www.w3.org/Graphics/SVG/1.1/DTD/svg11.dtd">
<!-- Creator: CorelDRAW X7 -->
<svg xmlns="http://www.w3.org/2000/svg" xml:space="preserve" width="44px" height="44px" version="1.1" style="shape-rendering:geometricPrecision; text-rendering:geometricPrecision; image-rendering:optimizeQuality; fill-rule:evenodd; clip-rule:evenodd"
viewBox="0 0 3213 3213"
 xmlns:xlink="http://www.w3.org/1999/xlink">
 <defs>
  <style type="text/css">
   <![CDATA[
    .fil1 {fill:none}
    .fil2 {fill:#FEFEFE}
    .fil0 {fill:#DE9F00}
   ]]>
  </style>
    <clipPath id="id0">
     <path d="M1607 0c-888,0 -1607,719 -1607,1607 0,887 719,1606 1607,1606 887,0 1606,-719 1606,-1606 0,-888 -719,-1607 -1606,-1607z"/>
    </clipPath>
 </defs>
 <g id="popin">
  <metadata id="CorelCorpID_0Corel-Layer"/>
  <g id="_640808984">
   <path class="fil0" d="M1607 0c-888,0 -1607,719 -1607,1607 0,887 719,1606 1607,1606 887,0 1606,-719 1606,-1606 0,-888 -719,-1607 -1606,-1607z"/>
   <g style="clip-path:url(#id0)">
   </g>
   <path id="1" class="fil1" d="M1607 0c-888,0 -1607,719 -1607,1607 0,887 719,1606 1607,1606 887,0 1606,-719 1606,-1606 0,-888 -719,-1607 -1606,-1607z"/>
   <path class="fil2" d="M2225 1153l-371 0c-23,0 -41,-18 -41,-41l0 -371 -742 0c-46,0 -83,37 -83,83l0 1566c0,45 37,82 83,82l1071 0c46,0 83,-37 83,-82l0 -1237z"/>
   <path class="fil2" d="M2079 2442l-945 0c-80,0 -145,-65 -145,-145l0 -1381c0,-80 65,-145 145,-145l689 0c1,0 1,0 1,0l0 0 0 0c12,0 22,6 29,15l357 357c8,6 14,16 14,28l0 0 0 1c0,0 0,0 0,0l0 1125c0,80 -65,145 -145,145z"/>
   <path class="fil0" d="M1977 1565l-741 0c-23,0 -42,-18 -42,-41 0,-22 19,-41 42,-41l741 0c23,0 42,19 42,41 0,23 -19,41 -42,41z"/>
   <path class="fil0" d="M1977 1895l-741 0c-23,0 -42,-18 -42,-41 0,-23 19,-41 42,-41l741 0c23,0 42,18 42,41 0,23 -19,41 -42,41z"/>
   <path class="fil0" d="M1977 2225l-741 0c-23,0 -42,-19 -42,-41 0,-23 19,-42 42,-42l741 0c23,0 42,19 42,42 0,22 -19,41 -42,41z"/>
   <polygon class="fil0" points="1895,798 1895,1071 2168,1071 "/>
  </g>
 </g>
</svg>
