<?xml version="1.0" encoding="UTF-8"?>
<!DOCTYPE svg PUBLIC "-//W3C//DTD SVG 1.1//EN" "http://www.w3.org/Graphics/SVG/1.1/DTD/svg11.dtd">
<!-- Creator: CorelDRAW X7 -->
<svg xmlns="http://www.w3.org/2000/svg" xml:space="preserve" width="44px" height="44px" version="1.1" style="shape-rendering:geometricPrecision; text-rendering:geometricPrecision; image-rendering:optimizeQuality; fill-rule:evenodd; clip-rule:evenodd"
viewBox="0 0 4787 4787"
 xmlns:xlink="http://www.w3.org/1999/xlink">
 <defs>
  <style type="text/css">
   <![CDATA[
    .fil1 {fill:none}
    .fil0 {fill:#D46E00}
    .fil2 {fill:white}
   ]]>
  </style>
    <clipPath id="id0">
     <path d="M2393 0c-1322,0 -2393,1072 -2393,2393 0,1322 1071,2394 2393,2394 1322,0 2394,-1072 2394,-2394 0,-1321 -1072,-2393 -2394,-2393z"/>
    </clipPath>
 </defs>
 <g id="popin">
  <metadata id="CorelCorpID_0Corel-Layer"/>
  <g id="_643062024">
   <path class="fil0" d="M2393 0c-1322,0 -2393,1072 -2393,2393 0,1322 1071,2394 2393,2394 1322,0 2394,-1072 2394,-2394 0,-1321 -1072,-2393 -2394,-2393z"/>
   <g style="clip-path:url(#id0)">
   </g>
   <path id="1" class="fil1" d="M2393 0c-1322,0 -2393,1072 -2393,2393 0,1322 1071,2394 2393,2394 1322,0 2394,-1072 2394,-2394 0,-1321 -1072,-2393 -2394,-2393z"/>
   <path class="fil2" d="M2886 1724l0 -192 -1803 0 0 1271 -78 0 0 153 214 0 95 149 28 0c21,183 177,325 365,325 189,0 344,-142 366,-325l985 0c21,183 177,325 365,325 189,0 344,-142 365,-325l103 0 0 -116 -11 0 0 -478 -292 -187 -221 -490c-28,-61 -104,-110 -170,-110l-311 0zm-1179 1525c-103,0 -187,-84 -187,-187 0,-104 84,-188 187,-188 104,0 188,84 188,188 0,103 -84,187 -188,187zm779 -710c0,66 -54,120 -120,120l-742 0c-66,0 -120,-54 -120,-120l0 -742c0,-66 54,-120 120,-120l742 0c66,0 120,54 120,120l0 742zm400 -275l0 -420 311 0c18,0 52,22 60,39l172 381 -543 0zm537 985c-103,0 -187,-84 -187,-187 0,-104 84,-188 187,-188 104,0 188,84 188,188 0,103 -84,187 -188,187z"/>
   <polygon class="fil2" points="2279,2273 2100,2273 2100,2453 1890,2453 1890,2273 1711,2273 1711,2063 1890,2063 1890,1884 2100,1884 2100,2063 2279,2063 "/>
   <path class="fil2" d="M3188 1664l0 -27c0,-55 -45,-100 -100,-100 -55,0 -100,45 -100,100l0 27 200 0z"/>
  </g>
 </g>
</svg>
