<?xml version="1.0" encoding="UTF-8"?>
<!DOCTYPE svg PUBLIC "-//W3C//DTD SVG 1.1//EN" "http://www.w3.org/Graphics/SVG/1.1/DTD/svg11.dtd">
<!-- Creator: CorelDRAW X7 -->
<svg xmlns="http://www.w3.org/2000/svg" xml:space="preserve" width="254px" height="36px" version="1.1" style="shape-rendering:geometricPrecision; text-rendering:geometricPrecision; image-rendering:optimizeQuality; fill-rule:evenodd; clip-rule:evenodd"
viewBox="0 0 2052589 293161"
 xmlns:xlink="http://www.w3.org/1999/xlink">
 <defs>
  <style type="text/css">
   <![CDATA[
    .fil1 {fill:#FEFEFE}
    .fil4 {fill:#9D9E9E}
    .fil3 {fill:#2A9CA9}
    .fil2 {fill:#575653}
    .fil0 {fill:#2B2A29;fill-rule:nonzero}
   ]]>
  </style>
 </defs>
 <g id="Plan_x0020_1">
  <metadata id="CorelCorpID_0Corel-Layer"/>
  <g id="_650925008">
   <polygon class="fil0" points="788899,111341 788899,51139 795898,51139 795898,105021 822437,105021 822437,111341 "/>
   <path id="1" class="fil0" d="M850688 112182c-6682,0 -11931,-2036 -15784,-6099 -3862,-4054 -5793,-9704 -5793,-16932 0,-7275 1787,-13050 5372,-17342 3586,-4284 8385,-6416 14427,-6416 5650,0 10134,1855 13423,5574 3289,3729 4943,8633 4943,14714l0 4331 -31081 0c143,5296 1472,9311 4006,12065 2543,2744 6109,4120 10736,4120 4847,0 9656,-1013 14408,-3049l0 6099c-2419,1052 -4714,1798 -6865,2266 -2151,449 -4751,669 -7792,669zm-1854 -41062c-3633,0 -6511,1186 -8662,3547 -2161,2342 -3432,5602 -3805,9780l23576 0c0,-4302 -956,-7600 -2878,-9895 -1931,-2294 -4665,-3432 -8231,-3432z"/>
   <path id="2" class="fil0" d="M921818 112182c-2935,0 -5621,-545 -8050,-1625 -2419,-1080 -4464,-2753 -6109,-5010l-497 0c325,2629 497,5134 497,7496l0 18537 -6836 0 0 -65345 5555 0 956 6157 325 0c1759,-2476 3805,-4264 6138,-5354 2333,-1100 5000,-1645 8021,-1645 5995,0 10612,2046 13872,6138 3251,4092 4876,9819 4876,17219 0,7419 -1654,13174 -4962,17275 -3317,4111 -7897,6157 -13786,6157zm-985 -40976c-4608,0 -7944,1281 -10000,3824 -2065,2553 -3117,6616 -3174,12200l0 1520c0,6329 1052,10870 3174,13595 2103,2743 5507,4101 10173,4101 3891,0 6960,-1568 9158,-4732 2209,-3165 3318,-7505 3318,-13050 0,-5622 -1109,-9934 -3318,-12945 -2198,-3012 -5325,-4513 -9331,-4513z"/>
   <path id="3" class="fil0" d="M973072 65393c1998,0 3795,163 5382,488l-937 6367c-1874,-411 -3518,-621 -4952,-621 -3633,0 -6759,1482 -9360,4445 -2581,2964 -3872,6655 -3872,11071l0 24198 -6845 0 0 -45106 5650 0 775 8327 334 0c1673,-2935 3681,-5191 6042,-6778 2362,-1597 4943,-2391 7783,-2391z"/>
   <path id="4" class="fil0" d="M1024172 88750c0,7361 -1854,13107 -5545,17237 -3709,4130 -8824,6195 -15363,6195 -4035,0 -7611,-937 -10746,-2839 -3117,-1893 -5536,-4618 -7238,-8165 -1711,-3537 -2562,-7686 -2562,-12428 0,-7371 1845,-13098 5526,-17209 3671,-4102 8786,-6148 15306,-6148 6320,0 11320,2094 15049,6291 3719,4207 5573,9895 5573,17066zm-34370 0c0,5755 1157,10153 3461,13174 2304,3021 5689,4522 10173,4522 4464,0 7868,-1501 10182,-4503 2323,-3012 3480,-7409 3480,-13193 0,-5737 -1157,-10096 -3480,-13070 -2314,-2982 -5746,-4474 -10268,-4474 -4484,0 -7859,1463 -10134,4398 -2276,2935 -3414,7323 -3414,13146z"/>
   <path id="5" class="fil0" d="M1073093 66235l0 4331 -8346 975c755,956 1443,2227 2055,3767 603,1548 899,3288 899,5248 0,4408 -1511,7935 -4532,10565 -3021,2629 -7160,3948 -12428,3948 -1348,0 -2601,-115 -3796,-325 -2906,1530 -4359,3470 -4359,5803 0,1243 506,2151 1520,2744 1023,593 2763,880 5239,880l7983 0c4895,0 8643,1032 11272,3097 2610,2046 3919,5039 3919,8968 0,4981 -1998,8796 -6004,11406 -4015,2629 -9866,3938 -17552,3938 -5899,0 -10450,-1099 -13643,-3288 -3203,-2199 -4800,-5306 -4800,-9293 0,-2744 880,-5115 2639,-7123 1759,-1998 4226,-3355 7400,-4063 -1147,-535 -2113,-1338 -2887,-2428 -794,-1109 -1186,-2390 -1186,-3834 0,-1663 449,-3098 1319,-4331 890,-1243 2266,-2428 4159,-3585 -2332,-966 -4225,-2600 -5698,-4905 -1463,-2304 -2208,-4942 -2208,-7906 0,-4933 1491,-8748 4455,-11415 2964,-2687 7170,-4016 12601,-4016 2361,0 4483,278 6386,842l15593 0zm-35985 52678c0,2438 1023,4292 3088,5554 2055,1253 5009,1884 8853,1884 5736,0 9990,-861 12744,-2572 2753,-1702 4149,-4034 4149,-6960 0,-2447 -755,-4130 -2276,-5067 -1501,-946 -4340,-1424 -8518,-1424l-8193 0c-3107,0 -5517,745 -7247,2218 -1730,1481 -2600,3604 -2600,6367zm3709 -38252c0,3165 889,5555 2667,7171 1788,1616 4274,2428 7467,2428 6673,0 10000,-3241 10000,-9723 0,-6788 -3375,-10172 -10134,-10172 -3212,0 -5688,870 -7419,2600 -1721,1731 -2581,4303 -2581,7696z"/>
   <path id="6" class="fil0" d="M1102922 65393c1998,0 3795,163 5382,488l-937 6367c-1874,-411 -3518,-621 -4952,-621 -3633,0 -6759,1482 -9360,4445 -2581,2964 -3872,6655 -3872,11071l0 24198 -6845 0 0 -45106 5650 0 775 8327 334 0c1673,-2935 3681,-5191 6042,-6778 2362,-1597 4943,-2391 7783,-2391z"/>
   <path id="7" class="fil0" d="M1142827 111341l-1367 -6425 -335 0c-2247,2830 -4484,4752 -6721,5765 -2247,995 -5029,1501 -8375,1501 -4474,0 -7973,-1147 -10516,-3451 -2534,-2323 -3815,-5593 -3815,-9866 0,-9121 7295,-13901 21855,-14332l7658 -258 0 -2791c0,-3528 -765,-6148 -2275,-7830 -1530,-1683 -3968,-2534 -7314,-2534 -3757,0 -8002,1157 -12754,3461l-2093 -5230c2218,-1204 4646,-2160 7294,-2849 2649,-688 5306,-1032 7964,-1032 5383,0 9360,1195 11960,3585 2601,2390 3891,6214 3891,11482l0 30804 -5057 0zm-15440 -4809c4254,0 7600,-1166 10019,-3499 2429,-2333 3652,-5593 3652,-9790l0 -4073 -6845 287c-5421,191 -9350,1033 -11750,2534 -2399,1491 -3595,3824 -3595,6969 0,2476 746,4360 2247,5631 1492,1300 3585,1941 6272,1941z"/>
   <path id="8" class="fil0" d="M1219473 111341l0 -29351c0,-3585 -765,-6281 -2314,-8088 -1529,-1797 -3919,-2696 -7151,-2696 -4254,0 -7390,1224 -9426,3671 -2027,2448 -3050,6196 -3050,11272l0 25192 -6826 0 0 -29351c0,-3585 -775,-6281 -2304,-8088 -1530,-1797 -3939,-2696 -7209,-2696 -4273,0 -7409,1281 -9407,3853 -1979,2553 -2974,6769 -2974,12620l0 23662 -6835 0 0 -45106 5554 0 1109 6157 335 0c1281,-2199 3107,-3911 5459,-5144 2342,-1243 4971,-1855 7878,-1855 7046,0 11663,2553 13834,7658l315 0c1358,-2361 3308,-4235 5851,-5612 2553,-1357 5469,-2046 8729,-2046 5095,0 8920,1301 11463,3930 2533,2619 3805,6816 3805,12581l0 29437 -6836 0z"/>
   <path id="9" class="fil0" d="M1297897 111341l0 -29351c0,-3585 -764,-6281 -2313,-8088 -1530,-1797 -3920,-2696 -7151,-2696 -4255,0 -7391,1224 -9427,3671 -2027,2448 -3050,6196 -3050,11272l0 25192 -6826 0 0 -29351c0,-3585 -774,-6281 -2304,-8088 -1530,-1797 -3939,-2696 -7209,-2696 -4273,0 -7409,1281 -9407,3853 -1979,2553 -2973,6769 -2973,12620l0 23662 -6836 0 0 -45106 5554 0 1109 6157 335 0c1281,-2199 3107,-3911 5459,-5144 2342,-1243 4972,-1855 7878,-1855 7046,0 11664,2553 13834,7658l315 0c1358,-2361 3308,-4235 5851,-5612 2553,-1357 5469,-2046 8729,-2046 5096,0 8920,1301 11463,3930 2534,2619 3805,6816 3805,12581l0 29437 -6836 0z"/>
   <path id="10" class="fil0" d="M1337889 112182c-6683,0 -11932,-2036 -15785,-6099 -3862,-4054 -5793,-9704 -5793,-16932 0,-7275 1788,-13050 5373,-17342 3585,-4284 8384,-6416 14426,-6416 5651,0 10135,1855 13423,5574 3289,3729 4943,8633 4943,14714l0 4331 -31081 0c143,5296 1472,9311 4006,12065 2543,2744 6109,4120 10736,4120 4847,0 9656,-1013 14408,-3049l0 6099c-2419,1052 -4713,1798 -6865,2266 -2151,449 -4751,669 -7791,669zm-1855 -41062c-3633,0 -6511,1186 -8662,3547 -2160,2342 -3432,5602 -3805,9780l23576 0c0,-4302 -956,-7600 -2877,-9895 -1932,-2294 -4666,-3432 -8232,-3432z"/>
   <path id="11" class="fil0" d="M1418741 105299l-363 0c-3155,4598 -7878,6883 -14159,6883 -5908,0 -10497,-2017 -13786,-6051 -3279,-4035 -4924,-9781 -4924,-17219 0,-7447 1645,-13222 4953,-17343 3288,-4110 7877,-6176 13757,-6176 6109,0 10803,2218 14073,6674l535 0 -277 -3260 -172 -3165 0 -18375 6836 0 0 64074 -5555 0 -918 -6042zm-13671 1147c4665,0 8059,-1262 10163,-3805 2093,-2543 3145,-6635 3145,-12295l0 -1434c0,-6396 -1061,-10956 -3184,-13681 -2141,-2744 -5535,-4111 -10201,-4111 -4005,0 -7074,1559 -9206,4685 -2123,3107 -3193,7505 -3193,13193 0,5765 1051,10106 3174,13041 2113,2935 5220,4407 9302,4407z"/>
   <path id="12" class="fil0" d="M1458761 112182c-6682,0 -11931,-2036 -15784,-6099 -3862,-4054 -5793,-9704 -5793,-16932 0,-7275 1787,-13050 5372,-17342 3586,-4284 8385,-6416 14427,-6416 5650,0 10134,1855 13423,5574 3289,3729 4943,8633 4943,14714l0 4331 -31081 0c143,5296 1472,9311 4006,12065 2543,2744 6109,4120 10736,4120 4847,0 9656,-1013 14408,-3049l0 6099c-2419,1052 -4714,1798 -6865,2266 -2151,449 -4751,669 -7792,669zm-1854 -41062c-3633,0 -6511,1186 -8662,3547 -2161,2342 -3432,5602 -3805,9780l23576 0c0,-4302 -956,-7600 -2878,-9895 -1931,-2294 -4665,-3432 -8231,-3432z"/>
   <path id="13" class="fil0" d="M1516095 99046c0,4197 -1567,7448 -4684,9723 -3136,2276 -7524,3413 -13184,3413 -5975,0 -10641,-937 -13997,-2839l0 -6348c2180,1099 4494,1969 6980,2600 2495,631 4875,937 7179,937 3576,0 6310,-574 8242,-1711 1921,-1138 2877,-2868 2877,-5201 0,-1759 -755,-3260 -2285,-4513 -1520,-1243 -4484,-2724 -8910,-4426 -4207,-1568 -7180,-2935 -8958,-4102 -1769,-1166 -3088,-2485 -3949,-3977 -870,-1472 -1290,-3241 -1290,-5306 0,-3690 1491,-6577 4484,-8719 2992,-2122 7093,-3184 12313,-3184 4848,0 9590,985 14236,2964l-2438 5564c-4522,-1873 -8623,-2801 -12295,-2801 -3241,0 -5688,507 -7333,1520 -1644,1023 -2476,2419 -2476,4207 0,1204 316,2227 928,3088 621,841 1615,1654 2992,2428 1367,765 4006,1884 7897,3337 5354,1950 8968,3920 10851,5880 1884,1988 2820,4474 2820,7466z"/>
   <path id="14" class="fil0" d="M1563697 106532c1204,0 2371,-86 3499,-268 1119,-181 2008,-363 2667,-554l0 5239c-745,354 -1826,641 -3279,880 -1424,239 -2734,353 -3891,353 -8719,0 -13079,-4589 -13079,-13795l0 -26846 -6463 0 0 -3289 6463 -2849 2878 -9627 3949 0 0 10459 13097 0 0 5306 -13097 0 0 26549c0,2725 650,4809 1940,6262 1291,1453 3060,2180 5316,2180z"/>
   <path id="15" class="fil0" d="M1597942 112182c-6682,0 -11931,-2036 -15784,-6099 -3862,-4054 -5794,-9704 -5794,-16932 0,-7275 1788,-13050 5373,-17342 3586,-4284 8385,-6416 14427,-6416 5650,0 10134,1855 13423,5574 3289,3729 4943,8633 4943,14714l0 4331 -31081 0c143,5296 1472,9311 4006,12065 2543,2744 6109,4120 10736,4120 4847,0 9656,-1013 14408,-3049l0 6099c-2419,1052 -4714,1798 -6865,2266 -2151,449 -4751,669 -7792,669zm-1854 -41062c-3633,0 -6511,1186 -8662,3547 -2161,2342 -3432,5602 -3805,9780l23576 0c0,-4302 -956,-7600 -2878,-9895 -1931,-2294 -4665,-3432 -8231,-3432zm-5077 -11903c1319,-1692 2744,-3747 4254,-6166 1530,-2419 2725,-4513 3605,-6291l8317 0 0 851c-1214,1788 -3011,3977 -5401,6597 -2371,2600 -4455,4617 -6205,6042l-4570 0 0 -1033z"/>
   <polygon id="16" class="fil0" points="1633010,111341 1626174,111341 1626174,47267 1633010,47267 "/>
   <path id="17" class="fil0" d="M1666567 112182c-6682,0 -11931,-2036 -15784,-6099 -3862,-4054 -5794,-9704 -5794,-16932 0,-7275 1788,-13050 5373,-17342 3585,-4284 8385,-6416 14427,-6416 5650,0 10134,1855 13423,5574 3289,3729 4943,8633 4943,14714l0 4331 -31081 0c143,5296 1472,9311 4005,12065 2544,2744 6110,4120 10737,4120 4847,0 9656,-1013 14407,-3049l0 6099c-2418,1052 -4713,1798 -6864,2266 -2151,449 -4752,669 -7792,669zm-1854 -41062c-3633,0 -6511,1186 -8662,3547 -2161,2342 -3432,5602 -3805,9780l23576 0c0,-4302 -956,-7600 -2878,-9895 -1931,-2294 -4665,-3432 -8231,-3432zm-5077 -11903c1319,-1692 2744,-3747 4254,-6166 1530,-2419 2725,-4513 3605,-6291l8317 0 0 851c-1214,1788 -3011,3977 -5401,6597 -2371,2600 -4456,4617 -6205,6042l-4570 0 0 -1033z"/>
   <path id="18" class="fil0" d="M1723901 99046c0,4197 -1568,7448 -4684,9723 -3136,2276 -7524,3413 -13184,3413 -5975,0 -10641,-937 -13997,-2839l0 -6348c2180,1099 4494,1969 6979,2600 2496,631 4876,937 7180,937 3576,0 6310,-574 8241,-1711 1922,-1138 2878,-2868 2878,-5201 0,-1759 -755,-3260 -2285,-4513 -1520,-1243 -4484,-2724 -8910,-4426 -4207,-1568 -7180,-2935 -8958,-4102 -1769,-1166 -3088,-2485 -3949,-3977 -870,-1472 -1290,-3241 -1290,-5306 0,-3690 1491,-6577 4483,-8719 2993,-2122 7094,-3184 12314,-3184 4847,0 9589,985 14236,2964l-2438 5564c-4522,-1873 -8624,-2801 -12295,-2801 -3241,0 -5688,507 -7333,1520 -1644,1023 -2476,2419 -2476,4207 0,1204 316,2227 927,3088 622,841 1616,1654 2993,2428 1367,765 4006,1884 7897,3337 5354,1950 8968,3920 10851,5880 1883,1988 2820,4474 2820,7466z"/>
   <path id="19" class="fil0" d="M1754084 112182c-6683,0 -11932,-2036 -15785,-6099 -3862,-4054 -5793,-9704 -5793,-16932 0,-7275 1787,-13050 5373,-17342 3585,-4284 8384,-6416 14426,-6416 5651,0 10134,1855 13423,5574 3289,3729 4943,8633 4943,14714l0 4331 -31081 0c143,5296 1472,9311 4006,12065 2543,2744 6109,4120 10736,4120 4847,0 9656,-1013 14408,-3049l0 6099c-2419,1052 -4714,1798 -6865,2266 -2151,449 -4751,669 -7791,669zm-1855 -41062c-3633,0 -6511,1186 -8662,3547 -2161,2342 -3432,5602 -3805,9780l23576 0c0,-4302 -956,-7600 -2878,-9895 -1931,-2294 -4665,-3432 -8231,-3432z"/>
   <path id="20" class="fil0" d="M1802890 65393c1998,0 3795,163 5382,488l-937 6367c-1874,-411 -3518,-621 -4952,-621 -3633,0 -6759,1482 -9360,4445 -2581,2964 -3872,6655 -3872,11071l0 24198 -6845 0 0 -45106 5650 0 775 8327 334 0c1673,-2935 3681,-5191 6042,-6778 2362,-1597 4943,-2391 7783,-2391z"/>
   <path id="21" class="fil0" d="M1826619 111341l-17133 -45106 7333 0 9714 26750c2189,6252 3480,10316 3862,12189l335 0c296,-1462 1252,-4474 2858,-9034 1616,-4570 5211,-14551 10804,-29905l7332 0 -17122 45106 -7983 0z"/>
   <path id="22" class="fil0" d="M1865807 111341l-6836 0 0 -45106 6836 0 0 45106zm-7409 -57363c0,-1558 382,-2696 1156,-3422 775,-737 1721,-1100 2878,-1100 1100,0 2056,363 2840,1109 803,746 1195,1884 1195,3413 0,1549 -392,2696 -1195,3442 -784,765 -1740,1138 -2840,1138 -1157,0 -2103,-373 -2878,-1138 -774,-746 -1156,-1893 -1156,-3442z"/>
   <path id="23" class="fil0" d="M1898332 112182c-6530,0 -11588,-2007 -15173,-6023 -3585,-4034 -5373,-9723 -5373,-17075 0,-7562 1817,-13394 5459,-17515 3633,-4110 8805,-6176 15536,-6176 2170,0 4331,239 6511,698 2160,469 3862,1014 5095,1664l-2103 5803c-1501,-612 -3145,-1099 -4933,-1510 -1788,-392 -3356,-584 -4733,-584 -9168,0 -13748,5842 -13748,17534 0,5536 1109,9790 3347,12763 2246,2964 5554,4436 9952,4436 3748,0 7610,-812 11559,-2428l0 6071c-3021,1558 -6817,2342 -11396,2342z"/>
   <path id="24" class="fil0" d="M1939499 112182c-6683,0 -11932,-2036 -15784,-6099 -3863,-4054 -5794,-9704 -5794,-16932 0,-7275 1788,-13050 5373,-17342 3585,-4284 8384,-6416 14427,-6416 5650,0 10134,1855 13422,5574 3289,3729 4943,8633 4943,14714l0 4331 -31081 0c144,5296 1473,9311 4006,12065 2543,2744 6109,4120 10736,4120 4848,0 9656,-1013 14408,-3049l0 6099c-2419,1052 -4713,1798 -6864,2266 -2151,449 -4752,669 -7792,669zm-1855 -41062c-3633,0 -6511,1186 -8662,3547 -2160,2342 -3432,5602 -3805,9780l23576 0c0,-4302 -956,-7600 -2877,-9895 -1932,-2294 -4666,-3432 -8232,-3432z"/>
   <path id="25" class="fil0" d="M1996833 99046c0,4197 -1568,7448 -4685,9723 -3136,2276 -7524,3413 -13184,3413 -5975,0 -10640,-937 -13996,-2839l0 -6348c2180,1099 4493,1969 6979,2600 2495,631 4876,937 7180,937 3576,0 6310,-574 8241,-1711 1922,-1138 2878,-2868 2878,-5201 0,-1759 -756,-3260 -2285,-4513 -1520,-1243 -4484,-2724 -8911,-4426 -4206,-1568 -7179,-2935 -8958,-4102 -1768,-1166 -3088,-2485 -3948,-3977 -870,-1472 -1291,-3241 -1291,-5306 0,-3690 1492,-6577 4484,-8719 2992,-2122 7094,-3184 12314,-3184 4847,0 9589,985 14235,2964l-2438 5564c-4522,-1873 -8623,-2801 -12294,-2801 -3241,0 -5689,507 -7333,1520 -1645,1023 -2476,2419 -2476,4207 0,1204 315,2227 927,3088 622,841 1616,1654 2992,2428 1368,765 4006,1884 7897,3337 5354,1950 8968,3920 10852,5880 1883,1988 2820,4474 2820,7466z"/>
   <path id="26" class="fil0" d="M808861 227003c-2935,0 -5621,-545 -8049,-1625 -2419,-1080 -4465,-2753 -6110,-5010l-497 0c325,2629 497,5134 497,7496l0 18537 -6835 0 0 -65345 5554 0 956 6157 325 0c1760,-2477 3806,-4264 6138,-5354 2333,-1100 5000,-1645 8021,-1645 5995,0 10613,2046 13873,6138 3250,4092 4876,9819 4876,17219 0,7418 -1654,13174 -4962,17275 -3318,4111 -7897,6157 -13787,6157zm-984 -40976c-4608,0 -7945,1281 -10000,3824 -2066,2553 -3117,6616 -3175,12199l0 1521c0,6329 1052,10870 3175,13595 2103,2743 5506,4101 10172,4101 3891,0 6960,-1568 9159,-4732 2208,-3165 3317,-7505 3317,-13050 0,-5622 -1109,-9934 -3317,-12945 -2199,-3012 -5325,-4513 -9331,-4513z"/>
   <path id="27" class="fil0" d="M878481 203571c0,7361 -1855,13107 -5545,17237 -3710,4130 -8825,6195 -15364,6195 -4035,0 -7610,-937 -10746,-2839 -3117,-1893 -5535,-4618 -7237,-8165 -1712,-3537 -2562,-7686 -2562,-12428 0,-7372 1845,-13098 5525,-17209 3672,-4102 8787,-6148 15307,-6148 6319,0 11319,2094 15048,6291 3719,4207 5574,9895 5574,17066zm-34370 0c0,5755 1157,10153 3461,13174 2304,3021 5688,4522 10172,4522 4465,0 7868,-1501 10182,-4503 2323,-3012 3480,-7409 3480,-13193 0,-5737 -1157,-10096 -3480,-13070 -2314,-2982 -5746,-4474 -10268,-4474 -4484,0 -7859,1463 -10134,4398 -2275,2935 -3413,7323 -3413,13146z"/>
   <path id="28" class="fil0" d="M896894 181056l0 29264c0,3671 832,6425 2514,8241 1674,1807 4303,2706 7869,2706 4723,0 8164,-1291 10363,-3862 2170,-2582 3270,-6798 3270,-12649l0 -23700 6826 0 0 45106 -5631 0 -985 -6033 -382 0c-1386,2228 -3337,3930 -5832,5106 -2467,1175 -5306,1768 -8499,1768 -5488,0 -9599,-1310 -12333,-3900 -2725,-2620 -4092,-6788 -4092,-12525l0 -29522 6912 0z"/>
   <path id="29" class="fil0" d="M962794 180214c1998,0 3796,163 5383,488l-937 6367c-1874,-411 -3518,-621 -4952,-621 -3633,0 -6760,1482 -9360,4445 -2581,2964 -3872,6654 -3872,11071l0 24198 -6845 0 0 -45106 5650 0 774 8327 335 0c1673,-2935 3681,-5191 6042,-6778 2361,-1597 4943,-2391 7782,-2391z"/>
   <polygon id="30" class="fil0" points="1005376,226162 998541,226162 998541,162088 1005376,162088 "/>
   <path id="31" class="fil0" d="M1038934 227003c-6683,0 -11932,-2036 -15785,-6099 -3862,-4054 -5793,-9704 -5793,-16932 0,-7275 1787,-13050 5373,-17343 3585,-4283 8384,-6415 14426,-6415 5651,0 10134,1855 13423,5574 3289,3729 4943,8633 4943,14714l0 4331 -31081 0c143,5296 1472,9311 4006,12065 2543,2744 6109,4120 10736,4120 4847,0 9656,-1013 14408,-3049l0 6099c-2419,1052 -4714,1798 -6865,2266 -2151,449 -4751,669 -7791,669zm-1855 -41062c-3633,0 -6511,1186 -8662,3547 -2161,2342 -3432,5602 -3805,9780l23576 0c0,-4302 -956,-7600 -2878,-9895 -1931,-2294 -4665,-3432 -8231,-3432z"/>
   <path id="32" class="fil0" d="M1096268 213867c0,4197 -1568,7448 -4685,9723 -3136,2276 -7524,3413 -13184,3413 -5975,0 -10641,-937 -13996,-2839l0 -6348c2179,1099 4493,1969 6979,2600 2495,631 4876,937 7180,937 3575,0 6310,-574 8241,-1711 1921,-1138 2877,-2868 2877,-5201 0,-1759 -755,-3260 -2285,-4513 -1520,-1243 -4483,-2724 -8910,-4426 -4206,-1568 -7180,-2935 -8958,-4102 -1769,-1166 -3088,-2485 -3948,-3977 -870,-1472 -1291,-3241 -1291,-5306 0,-3690 1491,-6577 4484,-8719 2992,-2122 7094,-3184 12314,-3184 4847,0 9589,985 14235,2964l-2438 5564c-4522,-1874 -8623,-2801 -12295,-2801 -3241,0 -5688,507 -7332,1520 -1645,1023 -2477,2419 -2477,4207 0,1204 316,2227 928,3088 621,841 1616,1654 2992,2428 1367,765 4006,1884 7897,3337 5354,1950 8968,3920 10851,5879 1884,1989 2821,4475 2821,7467z"/>
   <path id="33" class="fil0" d="M1150284 227003c-2935,0 -5621,-545 -8050,-1625 -2419,-1080 -4465,-2753 -6109,-5010l-497 0c325,2629 497,5134 497,7496l0 18537 -6836 0 0 -65345 5555 0 956 6157 325 0c1759,-2477 3805,-4264 6138,-5354 2333,-1100 5000,-1645 8021,-1645 5995,0 10612,2046 13872,6138 3251,4092 4876,9819 4876,17219 0,7418 -1654,13174 -4962,17275 -3317,4111 -7897,6157 -13786,6157zm-985 -40976c-4608,0 -7944,1281 -10000,3824 -2065,2553 -3117,6616 -3174,12199l0 1521c0,6329 1052,10870 3174,13595 2103,2743 5507,4101 10172,4101 3892,0 6960,-1568 9159,-4732 2209,-3165 3318,-7505 3318,-13050 0,-5622 -1109,-9934 -3318,-12945 -2199,-3012 -5325,-4513 -9331,-4513z"/>
   <path id="34" class="fil0" d="M1201538 180214c1998,0 3795,163 5382,488l-937 6367c-1874,-411 -3518,-621 -4952,-621 -3633,0 -6759,1482 -9360,4445 -2581,2964 -3872,6654 -3872,11071l0 24198 -6845 0 0 -45106 5650 0 775 8327 334 0c1673,-2935 3681,-5191 6042,-6778 2362,-1597 4943,-2391 7783,-2391z"/>
   <path id="35" class="fil0" d="M1252638 203571c0,7361 -1854,13107 -5545,17237 -3709,4130 -8824,6195 -15363,6195 -4035,0 -7611,-937 -10746,-2839 -3117,-1893 -5536,-4618 -7238,-8165 -1711,-3537 -2562,-7686 -2562,-12428 0,-7372 1845,-13098 5526,-17209 3671,-4102 8786,-6148 15306,-6148 6320,0 11320,2094 15048,6291 3720,4207 5574,9895 5574,17066zm-34370 0c0,5755 1157,10153 3461,13174 2304,3021 5689,4522 10173,4522 4464,0 7868,-1501 10181,-4503 2324,-3012 3481,-7409 3481,-13193 0,-5737 -1157,-10096 -3481,-13070 -2313,-2982 -5745,-4474 -10267,-4474 -4484,0 -7859,1463 -10134,4398 -2276,2935 -3414,7323 -3414,13146z"/>
   <path id="36" class="fil0" d="M1284962 186362l-11482 0 0 39800 -6836 0 0 -39800 -8069 0 0 -3088 8069 -2476 0 -2515c0,-11080 4847,-16625 14542,-16625 2390,0 5181,478 8384,1453l-1768 5478c-2630,-861 -4876,-1281 -6741,-1281 -2590,0 -4483,860 -5726,2572 -1234,1720 -1855,4474 -1855,8250l0 2926 11482 0 0 5306z"/>
   <path id="37" class="fil0" d="M1312257 227003c-6683,0 -11931,-2036 -15784,-6099 -3863,-4054 -5794,-9704 -5794,-16932 0,-7275 1788,-13050 5373,-17343 3585,-4283 8385,-6415 14427,-6415 5650,0 10134,1855 13423,5574 3289,3729 4943,8633 4943,14714l0 4331 -31081 0c143,5296 1472,9311 4005,12065 2543,2744 6109,4120 10737,4120 4847,0 9656,-1013 14407,-3049l0 6099c-2418,1052 -4713,1798 -6864,2266 -2151,449 -4752,669 -7792,669zm-1855 -41062c-3633,0 -6510,1186 -8661,3547 -2161,2342 -3433,5602 -3805,9780l23576 0c0,-4302 -956,-7600 -2878,-9895 -1931,-2294 -4666,-3432 -8232,-3432z"/>
   <path id="38" class="fil0" d="M1369591 213867c0,4197 -1568,7448 -4684,9723 -3136,2276 -7525,3413 -13184,3413 -5976,0 -10641,-937 -13997,-2839l0 -6348c2180,1099 4494,1969 6979,2600 2496,631 4876,937 7180,937 3576,0 6310,-574 8241,-1711 1922,-1138 2878,-2868 2878,-5201 0,-1759 -755,-3260 -2285,-4513 -1520,-1243 -4484,-2724 -8910,-4426 -4207,-1568 -7180,-2935 -8958,-4102 -1769,-1166 -3088,-2485 -3949,-3977 -870,-1472 -1291,-3241 -1291,-5306 0,-3690 1492,-6577 4484,-8719 2993,-2122 7094,-3184 12314,-3184 4847,0 9589,985 14236,2964l-2438 5564c-4522,-1874 -8624,-2801 -12295,-2801 -3241,0 -5688,507 -7333,1520 -1644,1023 -2476,2419 -2476,4207 0,1204 316,2227 927,3088 622,841 1616,1654 2993,2428 1367,765 4006,1884 7897,3337 5354,1950 8967,3920 10851,5879 1883,1989 2820,4475 2820,7467z"/>
   <path id="39" class="fil0" d="M1409812 213867c0,4197 -1568,7448 -4685,9723 -3135,2276 -7524,3413 -13184,3413 -5975,0 -10640,-937 -13996,-2839l0 -6348c2180,1099 4493,1969 6979,2600 2495,631 4876,937 7180,937 3576,0 6310,-574 8241,-1711 1922,-1138 2878,-2868 2878,-5201 0,-1759 -755,-3260 -2285,-4513 -1520,-1243 -4484,-2724 -8910,-4426 -4207,-1568 -7180,-2935 -8959,-4102 -1768,-1166 -3088,-2485 -3948,-3977 -870,-1472 -1291,-3241 -1291,-5306 0,-3690 1492,-6577 4484,-8719 2993,-2122 7094,-3184 12314,-3184 4847,0 9589,985 14235,2964l-2437 5564c-4523,-1874 -8624,-2801 -12295,-2801 -3241,0 -5689,507 -7333,1520 -1644,1023 -2476,2419 -2476,4207 0,1204 315,2227 927,3088 622,841 1616,1654 2993,2428 1367,765 4005,1884 7897,3337 5353,1950 8967,3920 10851,5879 1883,1989 2820,4475 2820,7467z"/>
   <path id="40" class="fil0" d="M1427766 226162l-6835 0 0 -45106 6835 0 0 45106zm-7409 -57363c0,-1558 383,-2696 1157,-3422 774,-737 1721,-1100 2878,-1100 1099,0 2055,363 2839,1109 803,746 1195,1884 1195,3413 0,1549 -392,2696 -1195,3442 -784,765 -1740,1138 -2839,1138 -1157,0 -2104,-373 -2878,-1138 -774,-746 -1157,-1893 -1157,-3442z"/>
   <path id="41" class="fil0" d="M1481200 203571c0,7361 -1855,13107 -5545,17237 -3710,4130 -8825,6195 -15364,6195 -4034,0 -7610,-937 -10746,-2839 -3117,-1893 -5535,-4618 -7237,-8165 -1711,-3537 -2562,-7686 -2562,-12428 0,-7372 1845,-13098 5526,-17209 3671,-4102 8786,-6148 15306,-6148 6319,0 11319,2094 15048,6291 3719,4207 5574,9895 5574,17066zm-34370 0c0,5755 1157,10153 3461,13174 2304,3021 5688,4522 10172,4522 4465,0 7868,-1501 10182,-4503 2323,-3012 3480,-7409 3480,-13193 0,-5737 -1157,-10096 -3480,-13070 -2314,-2982 -5746,-4474 -10268,-4474 -4484,0 -7859,1463 -10134,4398 -2275,2935 -3413,7323 -3413,13146z"/>
   <path id="42" class="fil0" d="M1524078 226162l0 -29188c0,-3681 -831,-6425 -2514,-8232 -1673,-1816 -4302,-2715 -7868,-2715 -4723,0 -8184,1281 -10373,3824 -2209,2553 -3299,6769 -3299,12649l0 23662 -6835 0 0 -45106 5554 0 1109 6157 335 0c1405,-2228 3365,-3949 5889,-5173 2534,-1223 5344,-1826 8452,-1826 5430,0 9522,1301 12266,3930 2753,2619 4111,6816 4111,12581l0 29437 -6827 0z"/>
   <path id="43" class="fil0" d="M1575829 226162l0 -29188c0,-3681 -832,-6425 -2514,-8232 -1673,-1816 -4303,-2715 -7869,-2715 -4722,0 -8183,1281 -10373,3824 -2208,2553 -3298,6769 -3298,12649l0 23662 -6836 0 0 -45106 5555 0 1109 6157 335 0c1405,-2228 3365,-3949 5889,-5173 2533,-1223 5344,-1826 8451,-1826 5431,0 9522,1301 12266,3930 2754,2619 4111,6816 4111,12581l0 29437 -6826 0z"/>
   <path id="44" class="fil0" d="M1615754 227003c-6683,0 -11932,-2036 -15785,-6099 -3862,-4054 -5793,-9704 -5793,-16932 0,-7275 1787,-13050 5373,-17343 3585,-4283 8384,-6415 14426,-6415 5650,0 10134,1855 13423,5574 3289,3729 4943,8633 4943,14714l0 4331 -31081 0c143,5296 1472,9311 4006,12065 2543,2744 6109,4120 10736,4120 4847,0 9656,-1013 14408,-3049l0 6099c-2419,1052 -4714,1798 -6865,2266 -2151,449 -4751,669 -7791,669zm-1855 -41062c-3633,0 -6511,1186 -8662,3547 -2161,2342 -3432,5602 -3805,9780l23576 0c0,-4302 -956,-7600 -2878,-9895 -1931,-2294 -4665,-3432 -8231,-3432z"/>
   <polygon id="45" class="fil0" points="1650821,226162 1643986,226162 1643986,162088 1650821,162088 "/>
   <path id="46" class="fil0" d="M1694417 213867c0,4197 -1568,7448 -4685,9723 -3136,2276 -7524,3413 -13184,3413 -5975,0 -10640,-937 -13996,-2839l0 -6348c2180,1099 4493,1969 6979,2600 2495,631 4876,937 7180,937 3576,0 6310,-574 8241,-1711 1922,-1138 2878,-2868 2878,-5201 0,-1759 -756,-3260 -2285,-4513 -1520,-1243 -4484,-2724 -8911,-4426 -4206,-1568 -7179,-2935 -8958,-4102 -1768,-1166 -3088,-2485 -3948,-3977 -870,-1472 -1291,-3241 -1291,-5306 0,-3690 1492,-6577 4484,-8719 2992,-2122 7094,-3184 12314,-3184 4847,0 9589,985 14235,2964l-2438 5564c-4522,-1874 -8623,-2801 -12294,-2801 -3241,0 -5689,507 -7333,1520 -1645,1023 -2476,2419 -2476,4207 0,1204 315,2227 927,3088 621,841 1616,1654 2992,2428 1368,765 4006,1884 7897,3337 5354,1950 8968,3920 10852,5879 1883,1989 2820,4475 2820,7467z"/>
   <path id="47" class="fil0" d="M1758156 220120l-363 0c-3155,4598 -7878,6883 -14159,6883 -5908,0 -10497,-2017 -13786,-6052 -3279,-4034 -4924,-9780 -4924,-17218 0,-7447 1645,-13222 4953,-17343 3288,-4111 7877,-6176 13757,-6176 6109,0 10803,2218 14073,6674l535 0 -277 -3261 -172 -3164 0 -18375 6836 0 0 64074 -5555 0 -918 -6042zm-13671 1147c4665,0 8059,-1262 10163,-3805 2093,-2543 3145,-6635 3145,-12295l0 -1434c0,-6396 -1061,-10956 -3184,-13681 -2141,-2744 -5535,-4111 -10201,-4111 -4005,0 -7074,1558 -9206,4685 -2123,3107 -3193,7505 -3193,13193 0,5765 1051,10106 3174,13041 2112,2935 5220,4407 9302,4407z"/>
   <path id="48" class="fil0" d="M1798176 227003c-6682,0 -11931,-2036 -15784,-6099 -3862,-4054 -5794,-9704 -5794,-16932 0,-7275 1788,-13050 5373,-17343 3586,-4283 8385,-6415 14427,-6415 5650,0 10134,1855 13423,5574 3289,3729 4943,8633 4943,14714l0 4331 -31081 0c143,5296 1472,9311 4006,12065 2543,2744 6109,4120 10736,4120 4847,0 9656,-1013 14408,-3049l0 6099c-2419,1052 -4714,1798 -6865,2266 -2151,449 -4751,669 -7792,669zm-1854 -41062c-3633,0 -6511,1186 -8662,3547 -2161,2342 -3432,5602 -3805,9780l23576 0c0,-4302 -956,-7600 -2878,-9895 -1931,-2294 -4665,-3432 -8231,-3432z"/>
   <path id="49" class="fil0" d="M1877413 213867c0,4197 -1568,7448 -4684,9723 -3136,2276 -7524,3413 -13184,3413 -5975,0 -10641,-937 -13997,-2839l0 -6348c2180,1099 4494,1969 6979,2600 2496,631 4876,937 7180,937 3576,0 6310,-574 8241,-1711 1922,-1138 2878,-2868 2878,-5201 0,-1759 -755,-3260 -2285,-4513 -1520,-1243 -4484,-2724 -8910,-4426 -4207,-1568 -7180,-2935 -8958,-4102 -1769,-1166 -3088,-2485 -3949,-3977 -870,-1472 -1290,-3241 -1290,-5306 0,-3690 1491,-6577 4483,-8719 2993,-2122 7094,-3184 12314,-3184 4847,0 9589,985 14236,2964l-2438 5564c-4522,-1874 -8624,-2801 -12295,-2801 -3241,0 -5688,507 -7333,1520 -1644,1023 -2476,2419 -2476,4207 0,1204 316,2227 928,3088 621,841 1615,1654 2992,2428 1367,765 4006,1884 7897,3337 5354,1950 8968,3920 10851,5879 1883,1989 2820,4475 2820,7467z"/>
   <path id="50" class="fil0" d="M1916277 226162l-1368 -6425 -334 0c-2247,2830 -4484,4752 -6721,5765 -2247,995 -5029,1501 -8375,1501 -4474,0 -7974,-1147 -10517,-3451 -2533,-2323 -3814,-5593 -3814,-9866 0,-9121 7294,-13901 21855,-14332l7658 -258 0 -2791c0,-3528 -765,-6148 -2276,-7830 -1529,-1683 -3967,-2534 -7313,-2534 -3758,0 -8002,1157 -12754,3461l-2094 -5230c2218,-1204 4647,-2160 7295,-2849 2648,-688 5306,-1032 7964,-1032 5382,0 9359,1195 11960,3585 2600,2390 3891,6214 3891,11482l0 30804 -5057 0zm-15441 -4809c4255,0 7601,-1166 10020,-3499 2428,-2333 3652,-5593 3652,-9790l0 -4073 -6845 287c-5421,191 -9351,1033 -11750,2534 -2400,1491 -3595,3824 -3595,6969 0,2476 746,4360 2247,5631 1491,1300 3585,1941 6271,1941z"/>
   <path id="51" class="fil0" d="M1966316 226162l0 -29188c0,-3681 -832,-6425 -2514,-8232 -1674,-1816 -4303,-2715 -7869,-2715 -4723,0 -8183,1281 -10373,3824 -2208,2553 -3298,6769 -3298,12649l0 23662 -6836 0 0 -45106 5555 0 1109 6157 334 0c1406,-2228 3366,-3949 5890,-5173 2533,-1223 5344,-1826 8451,-1826 5430,0 9522,1301 12266,3930 2753,2619 4111,6816 4111,12581l0 29437 -6826 0z"/>
   <path id="52" class="fil0" d="M2001756 221353c1205,0 2371,-86 3500,-268 1118,-181 2007,-363 2667,-554l0 5239c-746,354 -1826,640 -3279,879 -1425,239 -2735,354 -3891,354 -8719,0 -13079,-4589 -13079,-13796l0 -26845 -6463 0 0 -3289 6463 -2849 2878 -9627 3948 0 0 10459 13098 0 0 5306 -13098 0 0 26549c0,2725 650,4809 1941,6262 1291,1453 3059,2180 5315,2180z"/>
   <path id="53" class="fil0" d="M2036002 227003c-6683,0 -11931,-2036 -15784,-6099 -3863,-4054 -5794,-9704 -5794,-16932 0,-7275 1788,-13050 5373,-17343 3585,-4283 8385,-6415 14427,-6415 5650,0 10134,1855 13423,5574 3288,3729 4942,8633 4942,14714l0 4331 -31081 0c144,5296 1473,9311 4006,12065 2543,2744 6109,4120 10737,4120 4847,0 9656,-1013 14407,-3049l0 6099c-2419,1052 -4713,1798 -6864,2266 -2151,449 -4752,669 -7792,669zm-1855 -41062c-3633,0 -6510,1186 -8661,3547 -2161,2342 -3433,5602 -3806,9780l23577 0c0,-4302 -957,-7600 -2878,-9895 -1931,-2294 -4666,-3432 -8232,-3432zm-5076 -11903c1319,-1692 2744,-3747 4254,-6166 1530,-2419 2725,-4513 3604,-6291l8318 0 0 851c-1214,1788 -3012,3977 -5402,6597 -2371,2600 -4455,4617 -6204,6042l-4570 0 0 -1033z"/>
   <g>
    <path class="fil1" d="M437888 10c-69916,0 -126600,56674 -126600,126599 0,69916 56684,126590 126600,126590 69915,0 126599,-56674 126599,-126590 0,-69925 -56684,-126599 -126599,-126599z"/>
    <path class="fil2" d="M92650 179612c-7897,4570 -19312,6836 -34197,6836 -17420,0 -31512,-5249 -42277,-15832 -10774,-10545 -16176,-24140 -16176,-40843 0,-19273 5784,-34417 17304,-45526 11569,-11110 27018,-16664 46359,-16664 13337,0 23012,1778 28987,5287l0 29694c-7294,-5478 -15459,-8193 -24446,-8193 -10057,0 -17993,2907 -23882,8805 -5860,5851 -8805,13939 -8805,24293 0,10010 2840,17907 8423,23615 5593,5746 13346,8575 23127,8575 8728,0 17227,-2724 25583,-8202l0 28155zm112699 4073l-33098 0 0 -16282 -450 0c-7591,12697 -18853,19045 -33777,19045 -10994,0 -19647,-3098 -25956,-9331 -6310,-6234 -9446,-14589 -9446,-24982 0,-21989 13031,-34675 39064,-38079l30794 -4082c0,-12391 -6721,-18586 -20173,-18586 -13489,0 -26339,4006 -38499,12046l0 -26329c4875,-2534 11520,-4723 19981,-6654 8432,-1922 16138,-2868 23088,-2868 32305,0 48472,16128 48472,48357l0 67745zm-32869 -46053l0 -7629 -20593 2639c-11368,1472 -17037,6615 -17037,15421 0,3967 1358,7246 4121,9780 2791,2533 6529,3815 11252,3815 6578,0 11903,-2266 16062,-6798 4120,-4532 6195,-10277 6195,-17228zm79648 46053l-34953 0 0 -167796 34953 0 0 167796zm29016 -131294c-5889,0 -10727,-1740 -14465,-5248 -3786,-3519 -5669,-7783 -5669,-12888 0,-5249 1883,-9522 5669,-12849 3738,-3318 8576,-4981 14465,-4981 6014,0 10842,1663 14589,4981 3700,3327 5593,7600 5593,12849 0,5287 -1893,9675 -5593,13079 -3747,3355 -8575,5057 -14589,5057zm17266 131294l-34943 0 0 -113349 34943 0 0 113349z"/>
    <path class="fil2" d="M634967 187021c-18892,0 -33739,-5286 -44543,-15870 -10803,-10574 -16214,-24972 -16214,-43108 0,-18738 5593,-33433 16817,-44016 11224,-10574 26415,-15871 45488,-15871 18815,0 33596,5297 44284,15871 10698,10583 16062,24599 16062,42018 0,18815 -5517,33700 -16549,44619 -11033,10918 -26148,16357 -45345,16357zm908 -92076c-8270,0 -14695,2839 -19265,8499 -4579,5708 -6883,13757 -6883,24150 0,21759 8805,32639 26377,32639 16741,0 25125,-11176 25125,-33509 0,-21196 -8461,-31779 -25354,-31779z"/>
    <path class="fil1" d="M365668 124831l0 9159c0,7887 2065,14340 6262,19331 4149,5000 9646,7476 16434,7476 8012,0 14265,-3088 18691,-9302 4427,-6224 6673,-15029 6673,-26435 0,-20134 -7858,-30173 -23490,-30173 -7208,0 -13126,2744 -17696,8203 -4580,5498 -6874,12744 -6874,21741z"/>
    <path class="fil3" d="M365668 124831l0 9159c0,7887 2065,14340 6262,19331 4159,5000 9646,7476 16434,7476 8012,0 14265,-3088 18691,-9302 4427,-6214 6673,-15029 6673,-26435 10,-20134 -7849,-30173 -23499,-30173 -7209,0 -13117,2744 -17687,8203 -4580,5498 -6874,12735 -6874,21741zm104983 -120481c67516,18088 107593,87497 89505,155023 -18098,67525 -87507,107602 -155032,89505 -14303,-3834 -27372,-9972 -38921,-17907l0 -59227 459 0c7247,10755 17735,16100 31511,16100 15632,0 28185,-5765 37602,-17314 9417,-11559 14149,-26856 14149,-45929 0,-17505 -4034,-31348 -12123,-41492 -8088,-10191 -19532,-15259 -34369,-15259 -15794,0 -28032,6674 -36770,19982l-459 0 0 -17199 -35278 0 0 123654c-18232,-28834 -24828,-64896 -15306,-100442 18098,-67525 87497,-107593 155032,-89495zm-15363 178474l841 -28805c12706,6998 24704,10449 36043,10449 12400,0 18681,-3451 18882,-10449 95,-3069 -1320,-5603 -4217,-7524 -2954,-1951 -9350,-4647 -19235,-8108 -11473,-3986 -19379,-8594 -23758,-13900 -4417,-5297 -6511,-11941 -6272,-19963 326,-11099 5450,-20010 15288,-26692 9885,-6645 22887,-9982 39102,-9982 10488,0 20937,1540 31349,4609l-804 27457c-9665,-5258 -19914,-7878 -30746,-7878 -10325,0 -15583,3232 -15775,9676 -86,3231 1062,5841 3499,7877 2400,1999 7706,4341 15880,6951 12534,4073 21282,8757 26244,14130 4962,5373 7352,12027 7122,19972 -334,11635 -5516,20851 -15488,27725 -10019,6874 -23748,10297 -41262,10297 -13165,0 -25374,-1960 -36693,-5842z"/>
    <path class="fil4" d="M302846 223447l16693 -12706 1682 2208 -14732 11215 6252 8212 -1960 1492 -7935 -10421zm19953 3327l2495 -3079 2620 -2323 1940 2199 -2629 2314 -3384 2074 -1042 -1185zm-8327 11606l20325 -9570 2199 2113 -8356 21043 -2285 -2180 2658 -6272 -6377 -6109 -6042 3012 -2122 -2037zm10315 -2046l5154 4953 2447 -5708c746,-1731 1405,-3136 1950,-4207 -1156,794 -2361,1492 -3633,2113l-5918 2849zm8767 10909l2190 1443c-564,899 -880,1759 -947,2572 -67,803 144,1673 622,2591 487,918 1195,1759 2132,2495 822,669 1654,1128 2485,1386 832,259 1568,287 2218,106 660,-182 1186,-526 1587,-1033 412,-516 622,-1080 631,-1702 10,-621 -229,-1329 -707,-2141 -306,-516 -1061,-1568 -2285,-3126 -1214,-1568 -1998,-2744 -2342,-3547 -459,-1042 -631,-2018 -526,-2926 95,-918 449,-1749 1052,-2505 669,-831 1520,-1415 2562,-1759 1042,-344 2160,-344 3365,0 1205,344 2352,966 3461,1845 1204,966 2122,2018 2744,3146 612,1137 870,2275 755,3441 -105,1157 -526,2238 -1252,3222l-2218 -1501c717,-1118 965,-2208 736,-3241 -220,-1051 -966,-2074 -2218,-3078 -1320,-1052 -2467,-1578 -3452,-1568 -975,0 -1740,344 -2285,1023 -468,583 -640,1243 -525,1960 124,707 898,1969 2342,3776 1444,1807 2371,3117 2792,3939 602,1205 870,2314 783,3356 -86,1032 -478,1988 -1175,2868 -698,870 -1597,1491 -2716,1864 -1118,364 -2304,402 -3585,77 -1271,-316 -2495,-937 -3661,-1874 -1482,-1186 -2553,-2390 -3213,-3623 -650,-1224 -918,-2505 -793,-3825 114,-1319 602,-2543 1443,-3661zm14609 11205l2323 1195c-459,956 -679,1845 -660,2657 19,813 316,1654 899,2515 583,860 1367,1615 2380,2256 890,574 1760,937 2620,1109 851,163 1587,124 2218,-134 631,-248 1119,-650 1472,-1195 345,-554 488,-1138 440,-1759 -67,-612 -373,-1300 -937,-2055 -353,-478 -1223,-1435 -2600,-2869 -1377,-1424 -2285,-2514 -2715,-3269 -564,-985 -832,-1931 -832,-2849 0,-928 258,-1788 784,-2601 564,-898 1357,-1577 2352,-2027 1004,-458 2113,-573 3346,-363 1233,220 2447,708 3633,1463 1310,832 2333,1778 3069,2839 736,1062 1109,2171 1118,3337 19,1166 -287,2275 -898,3346l-2362 -1262c593,-1195 717,-2294 383,-3308 -335,-1013 -1176,-1950 -2543,-2820 -1415,-899 -2610,-1300 -3586,-1186 -984,106 -1701,526 -2170,1253 -401,640 -507,1310 -315,2008 200,697 1099,1873 2734,3508 1625,1645 2696,2849 3203,3624 717,1128 1099,2208 1128,3250 28,1033 -258,2027 -861,2973 -602,947 -1424,1654 -2495,2142 -1071,488 -2256,650 -3556,468 -1301,-181 -2582,-669 -3844,-1472 -1596,-1023 -2791,-2103 -3575,-3260 -784,-1157 -1186,-2390 -1205,-3719 -19,-1329 335,-2591 1052,-3795zm34714 2571l2543 1148 -5000 11032c-861,1922 -1779,3356 -2715,4293 -947,927 -2142,1491 -3595,1683 -1453,200 -3098,-115 -4943,-947 -1778,-813 -3107,-1778 -3958,-2906 -860,-1138 -1272,-2390 -1224,-3786 48,-1386 526,-3098 1434,-5115l5000 -11042 2534 1147 -4991 11033c-755,1663 -1147,2963 -1195,3881 -57,928 201,1769 756,2534 554,765 1376,1396 2457,1883 1854,841 3365,1013 4531,526 1167,-488 2295,-1931 3375,-4331l4991 -11033zm-2180 22114l5650 -20202 8949 2505c1797,507 3116,1071 3948,1692 842,622 1406,1473 1712,2553 305,1071 296,2161 -20,3270 -401,1434 -1204,2514 -2399,3241 -1205,717 -2811,937 -4819,669 612,535 1052,1023 1329,1453 583,937 1071,2036 1463,3308l1950 6482 -3336 -937 -1492 -4952c-440,-1434 -822,-2543 -1147,-3327 -325,-784 -650,-1358 -985,-1731 -325,-363 -679,-650 -1061,-870 -287,-143 -774,-315 -1463,-506l-3097 -870 -2505 8967 -2677 -745zm5832 -10536l5736 1606c1224,344 2209,478 2964,421 755,-58 1396,-316 1902,-784 517,-450 861,-1004 1042,-1654 268,-956 144,-1845 -372,-2648 -517,-813 -1530,-1425 -3012,-1846l-6386 -1778 -1874 6683zm13279 15928l11740 -19159 2993 554 4579 22180 -3107 -573 -1224 -6693 -8690 -1606 -3394 5832 -2897 -535zm7505 -7371l7027 1300 -1090 -6109c-325,-1865 -545,-3385 -679,-4589 -535,1300 -1156,2543 -1873,3766l-3385 5632zm13624 10755l1596 -20918 2840 220 9723 17247 1252 -16416 2658 201 -1597 20918 -2839 -219 -9723 -17247 -1252 16415 -2658 -201zm35096 -7467l2830 488c-411,2323 -1319,4130 -2734,5430 -1415,1310 -3203,2046 -5383,2218 -2246,172 -4111,-153 -5602,-965 -1472,-803 -2648,-2046 -3518,-3729 -870,-1692 -1377,-3528 -1530,-5526 -163,-2170 105,-4101 813,-5784 707,-1692 1797,-3011 3269,-3967 1463,-957 3127,-1511 4962,-1645 2094,-162 3891,230 5392,1195 1511,956 2620,2371 3327,4255l-2667 850c-602,-1481 -1386,-2533 -2362,-3154 -975,-631 -2160,-890 -3556,-784 -1606,124 -2916,611 -3939,1462 -1013,851 -1692,1951 -2027,3280 -344,1328 -459,2686 -353,4063 133,1778 516,3308 1128,4598 621,1291 1501,2209 2638,2792 1138,574 2343,803 3614,707 1549,-114 2821,-659 3824,-1634 1004,-976 1626,-2362 1874,-4150zm6387 6607l-3825 -20622 14886 -2763 449 2419 -12151 2256 1176 6338 11377 -2112 449 2418 -11377 2113 1301 7027 12638 -2342 450 2419 -15373 2849zm26912 -6033l-7820 -19465 3862 -1549 10134 11932c937,1109 1635,1950 2084,2504 -57,-793 -133,-1979 -210,-3537l-755 -15421 3451 -1386 7821 19465 -2476 994 -6540 -16281 861 18566 -2324 927 -12275 -14321 6654 16578 -2467 994zm20316 -7916l-3528 -22180 2639 -1530 17888 13882 -2735 1587 -5277 -4293 -7648 4427 1214 6635 -2553 1472zm918 -10469l6186 -3585 -4809 -3939c-1453,-1195 -2610,-2208 -3490,-3030 440,1319 775,2676 1023,4072l1090 6482zm17496 -277l-12180 -17075 2265 -1616 10746 15077 8404 -5994 1425 2007 -10660 7601zm11367 -7696l-7849 -21052 2294 -2018 20278 10068 -2371 2093 -6023 -3155 -6625 5842 2504 6272 -2208 1950zm-1176 -10450l5363 -4732 -5487 -2916c-1664,-889 -3002,-1654 -4025,-2285 688,1214 1291,2476 1807,3795l2342 6138zm17371 -3661l-15927 -13653 4703 -5487c1062,-1243 1941,-2123 2658,-2639 995,-736 2037,-1186 3146,-1358 1434,-239 2868,-86 4331,450 1462,526 2906,1405 4330,2619 1205,1033 2151,2094 2849,3174 689,1090 1157,2113 1387,3079 229,965 296,1864 200,2686 -95,822 -372,1692 -831,2591 -459,899 -1100,1826 -1922,2792l-4924 5746zm-57 -3719l2906 -3394c899,-1052 1511,-1951 1826,-2716 316,-774 450,-1481 392,-2141 -66,-927 -411,-1893 -1023,-2897 -602,-1004 -1501,-2017 -2705,-3050 -1673,-1434 -3193,-2256 -4551,-2476 -1367,-229 -2533,-76 -3509,440 -707,382 -1587,1195 -2667,2447l-2859 3337 12190 10450zm13700 -12525l-16472 -12983 1720 -2189 16473 12983 -1721 2189zm4541 -5755l-17696 -11262 8126 -12782 2075 1328 -6635 10431 5440 3461 6214 -9771 2075 1319 -6214 9771 6032 3834 6903 -10851 2074 1319 -8394 13203z"/>
   </g>
  </g>
 </g>
</svg>
