<?xml version="1.0" encoding="UTF-8"?>
<!DOCTYPE svg PUBLIC "-//W3C//DTD SVG 1.1//EN" "http://www.w3.org/Graphics/SVG/1.1/DTD/svg11.dtd">
<!-- Creator: CorelDRAW X7 -->
<svg xmlns="http://www.w3.org/2000/svg" xml:space="preserve" width="95px" height="32px" version="1.1" style="shape-rendering:geometricPrecision; text-rendering:geometricPrecision; image-rendering:optimizeQuality; fill-rule:evenodd; clip-rule:evenodd"
viewBox="0 0 93892 31660"
 xmlns:xlink="http://www.w3.org/1999/xlink">
 <defs>
  <style type="text/css">
   <![CDATA[
    .fil1 {fill:#089E93}
    .fil0 {fill:#C4DEF2}
    .fil2 {fill:white}
    .fil5 {fill:white}
    .fil3 {fill:#397BAD;fill-rule:nonzero}
    .fil4 {fill:white;fill-rule:nonzero}
   ]]>
  </style>
 </defs>
 <g id="Plan_x0020_1">
  <metadata id="CorelCorpID_0Corel-Layer"/>
  <g id="_604239040">
   <path class="fil0" d="M93892 15833l0 0zm-93892 -2c0,-8706 6590,-15831 14643,-15831l32303 0 32303 0c8054,0 14643,7125 14643,15833 0,8705 -6589,15827 -14643,15827l-32303 0 -32303 0c-8053,0 -14643,-7122 -14643,-15829z"/>
   <path class="fil1" d="M46946 1601l31388 0c7825,0 14227,6404 14227,14230l0 2c0,7824 -6402,14226 -14227,14226l-31388 0 0 -28458z"/>
   <path class="fil2" d="M46946 1601l-31388 0c-7824,0 -14227,6404 -14227,14230l0 2c0,7824 6403,14226 14227,14226l31388 0 0 -28458z"/>
   <path class="fil3" d="M8106 17790l947 -104c44,465 148,846 313,1147 165,296 421,537 765,723 346,183 737,276 1169,276 385,0 723,-69 1017,-209 294,-141 512,-332 656,-575 143,-243 215,-509 215,-793 0,-288 -67,-541 -206,-758 -138,-215 -367,-396 -686,-545 -204,-94 -656,-245 -1356,-449 -700,-206 -1189,-398 -1469,-578 -363,-232 -633,-521 -810,-863 -180,-343 -268,-728 -268,-1153 0,-469 110,-906 328,-1312 219,-406 535,-715 956,-925 418,-212 883,-317 1396,-317 564,0 1061,110 1493,332 430,220 762,544 994,974 231,429 355,917 373,1459l-968 91c-50,-584 -226,-1026 -526,-1323 -300,-299 -742,-447 -1327,-447 -610,0 -1054,135 -1333,406 -279,271 -418,599 -418,982 0,332 100,605 296,821 195,213 700,435 1519,659 818,226 1380,422 1684,591 442,246 770,559 982,940 210,379 315,816 315,1311 0,494 -115,955 -348,1390 -233,435 -563,773 -998,1014 -434,241 -922,362 -1465,362 -687,0 -1264,-122 -1728,-367 -466,-243 -829,-608 -1093,-1099 -267,-490 -405,-1043 -419,-1661z"/>
   <polygon id="1" class="fil3" points="17464,20762 17464,12595 14954,12595 14954,11509 20983,11509 20983,12595 18474,12595 18474,20762 "/>
   <path id="2" class="fil3" d="M21525 16258c0,-1533 340,-2734 1019,-3602 678,-869 1554,-1301 2628,-1301 702,0 1336,204 1901,611 564,408 994,976 1291,1706 295,728 445,1554 445,2479 0,937 -157,1777 -469,2516 -312,741 -752,1300 -1324,1679 -572,382 -1188,571 -1850,571 -717,0 -1358,-211 -1923,-631 -563,-420 -992,-993 -1283,-1721 -290,-726 -435,-1495 -435,-2307zm1041 23c0,1113 247,1990 740,2629 492,639 1111,960 1856,960 757,0 1379,-322 1871,-968 488,-647 733,-1564 733,-2754 0,-751 -105,-1408 -313,-1967 -210,-560 -516,-996 -918,-1303 -405,-309 -857,-463 -1358,-463 -713,0 -1325,297 -1840,891 -514,594 -771,1585 -771,2975z"/>
   <path id="3" class="fil3" d="M30102 20762l0 -9253 2876 0c505,0 892,31 1158,89 374,76 689,220 942,431 253,213 457,510 611,892 155,381 230,800 230,1260 0,784 -205,1449 -618,1992 -411,545 -1157,816 -2234,816l-1954 0 0 3773 -1011 0zm1011 -4859l1968 0c652,0 1113,-146 1387,-442 274,-294 410,-708 410,-1244 0,-386 -79,-718 -242,-992 -161,-276 -374,-460 -635,-548 -171,-54 -484,-82 -940,-82l-1948 0 0 3308z"/>
   <path id="4" class="fil3" d="M37196 20762l0 -9253 2874 0c505,0 892,31 1159,89 374,76 688,220 942,431 253,213 456,510 611,892 155,381 231,800 231,1260 0,784 -207,1449 -620,1992 -411,545 -1157,816 -2234,816l-1953 0 0 3773 -1010 0zm1010 -4859l1967 0c652,0 1113,-146 1388,-442 274,-294 409,-708 409,-1244 0,-386 -79,-718 -240,-992 -162,-276 -374,-460 -637,-548 -171,-54 -484,-82 -940,-82l-1947 0 0 3308z"/>
   <path class="fil4" d="M51683 17791l946 -104c44,466 149,847 314,1147 164,297 420,537 766,723 346,184 735,276 1168,276 385,0 722,-69 1017,-209 294,-140 512,-332 655,-575 144,-243 217,-508 217,-792 0,-289 -69,-541 -207,-759 -139,-215 -368,-396 -686,-544 -204,-95 -656,-246 -1356,-450 -700,-206 -1189,-398 -1470,-578 -363,-232 -632,-521 -808,-863 -180,-343 -269,-728 -269,-1152 0,-470 110,-907 328,-1313 217,-406 535,-715 956,-925 417,-212 883,-317 1395,-317 565,0 1063,110 1493,332 431,220 761,545 994,975 233,428 356,916 374,1458l-968 91c-51,-584 -226,-1026 -525,-1323 -301,-299 -744,-447 -1329,-447 -609,0 -1054,135 -1332,406 -278,272 -417,599 -417,982 0,332 98,605 294,822 195,212 700,434 1519,659 819,225 1380,421 1685,590 442,246 769,559 981,940 211,379 315,816 315,1312 0,493 -114,954 -348,1389 -231,435 -563,774 -997,1014 -435,241 -922,363 -1465,363 -687,0 -1263,-123 -1729,-367 -466,-243 -829,-609 -1092,-1100 -267,-490 -406,-1042 -419,-1661z"/>
   <polygon id="1" class="fil4" points="61040,20763 61040,12596 58530,12596 58530,11510 64560,11510 64560,12596 62051,12596 62051,20763 "/>
   <path id="2" class="fil4" d="M63976 20763l2921 -9253 1108 0 3099 9253 -1145 0 -881 -2804 -3207 0 -826 2804 -1069 0zm2191 -3799l2595 0 -795 -2565c-239,-779 -419,-1423 -545,-1932 -105,603 -244,1196 -421,1781l-834 2716z"/>
   <path id="3" class="fil4" d="M71925 20763l0 -9253 3375 0c679,0 1195,85 1547,250 352,166 634,460 845,879 211,421 316,886 316,1394 0,657 -177,1210 -525,1661 -349,450 -888,734 -1618,856 267,156 469,310 609,461 293,328 571,740 832,1233l1317 2519 -1259 0 -1006 -1926c-292,-557 -537,-981 -726,-1277 -190,-294 -361,-499 -511,-617 -149,-117 -303,-199 -460,-246 -113,-29 -299,-43 -560,-43l-1166 0 0 4109 -1010 0zm1010 -5168l2163 0c461,0 818,-59 1076,-175 260,-114 456,-300 589,-556 135,-253 202,-529 202,-829 0,-438 -128,-799 -389,-1081 -260,-282 -673,-422 -1234,-422l-2407 0 0 3063z"/>
   <polygon id="4" class="fil4" points="81327,20763 81327,12596 78818,12596 78818,11510 84846,11510 84846,12596 82337,12596 82337,20763 "/>
   <path class="fil5" d="M50104 3744l27041 0c6743,0 12259,5517 12259,12258l0 3 -7 402c-214,-6141 -5643,-11103 -12252,-11103l-27041 0 0 -1560z"/>
  </g>
 </g>
</svg>
