<?xml version="1.0" encoding="UTF-8"?>
<!DOCTYPE svg PUBLIC "-//W3C//DTD SVG 1.1//EN" "http://www.w3.org/Graphics/SVG/1.1/DTD/svg11.dtd">
<!-- Creator: CorelDRAW X7 -->
<svg xmlns="http://www.w3.org/2000/svg" xml:space="preserve" width="24px" height="30px" version="1.1" style="shape-rendering:geometricPrecision; text-rendering:geometricPrecision; image-rendering:optimizeQuality; fill-rule:evenodd; clip-rule:evenodd"
viewBox="0 0 1214 1518"
 xmlns:xlink="http://www.w3.org/1999/xlink">
 <defs>
  <style type="text/css">
   <![CDATA[
    .fil0 {fill:white}
   ]]>
  </style>
 </defs>
 <g id="Plan_x0020_1">
  <metadata id="CorelCorpID_0Corel-Layer"/>
  <g id="_608072136">
   <path class="fil0" d="M59 143c-41,73 -94,209 -28,340 44,91 246,85 249,-54 2,-117 21,-154 113,-227 117,-92 -4,-222 -138,-199 -119,20 -196,140 -196,140z"/>
   <path class="fil0" d="M1154 143c41,73 94,209 29,340 -45,91 -247,85 -250,-54 -2,-117 -20,-154 -112,-227 -117,-92 4,-222 138,-199 118,20 195,140 195,140z"/>
   <path class="fil0" d="M1022 837c-41,-110 -140,-99 -181,-140 -69,-69 -56,-188 6,-229 62,-41 -17,-145 -52,-140 -52,7 -144,160 -121,277 13,66 20,135 191,208 149,62 31,190 -14,228 -48,-88 -172,-106 -244,-106 -72,0 -196,18 -245,106 -44,-38 -162,-166 -14,-228 172,-73 179,-142 192,-208 23,-117 -70,-270 -121,-277 -35,-5 -115,99 -53,140 63,41 76,160 7,229 -41,41 -140,30 -181,140 -46,158 134,256 152,265 -2,18 -3,37 0,58 20,155 207,256 207,256 8,5 14,15 14,24l0 57c0,11 17,21 39,21 1,0 2,0 3,0 1,0 1,0 2,0 22,0 40,-10 40,-21l0 -57c0,-9 6,-19 14,-24 0,0 186,-101 207,-256 2,-21 2,-40 0,-58 17,-9 198,-107 152,-265z"/>
  </g>
 </g>
</svg>
