<?xml version="1.0" encoding="UTF-8"?>
<!DOCTYPE svg PUBLIC "-//W3C//DTD SVG 1.1//EN" "http://www.w3.org/Graphics/SVG/1.1/DTD/svg11.dtd">
<!-- Creator: CorelDRAW X7 -->
<svg xmlns="http://www.w3.org/2000/svg" xml:space="preserve" width="35px" height="30px" version="1.1" style="shape-rendering:geometricPrecision; text-rendering:geometricPrecision; image-rendering:optimizeQuality; fill-rule:evenodd; clip-rule:evenodd"
viewBox="0 0 6494 5629"
 xmlns:xlink="http://www.w3.org/1999/xlink">
 <defs>
  <style type="text/css">
   <![CDATA[
    .fil0 {fill:#0092A8}
   ]]>
  </style>
 </defs>
 <g id="Plan_x0020_1">
  <metadata id="CorelCorpID_0Corel-Layer"/>
  <path class="fil0" d="M6400 1281c-317,-1010 -1017,-1254 -1676,-1280 -749,-29 -1352,508 -1478,508 -125,0 -728,-537 -1477,-508 -659,26 -1358,270 -1676,1280 -142,454 -112,887 26,1292l1407 0c65,0 128,24 178,66l330 283 394 -372c51,-49 117,-75 187,-75 15,0 30,1 45,4 83,13 157,65 197,140l118 219 202 -690c34,-116 138,-195 259,-198 123,0 228,76 265,190l230 704 223 -677c-61,-90 -93,-194 -93,-301 0,-300 243,-543 543,-543 300,0 543,243 543,543 0,253 -178,471 -421,527l-470 1566c-20,116 -123,208 -249,217l-19 1c-119,0 -224,-76 -261,-189l-272 -835 -141 481c-31,107 -123,184 -234,196 -10,1 -19,1 -28,1 -101,0 -195,-55 -242,-144l-266 -493 -313 296c-51,48 -118,74 -188,74 -66,0 -129,-23 -179,-66l-439 -376 -1050 0c852,1420 2861,2502 2871,2507 11,-5 1940,-1052 2819,-2421l216 -394c215,-473 290,-989 119,-1533z"/>
 </g>
</svg>
