<?xml version="1.0" encoding="UTF-8"?>
<!DOCTYPE svg PUBLIC "-//W3C//DTD SVG 1.1//EN" "http://www.w3.org/Graphics/SVG/1.1/DTD/svg11.dtd">
<!-- Creator: CorelDRAW X7 -->
<svg xmlns="http://www.w3.org/2000/svg" xml:space="preserve" width="12px" height="30px" version="1.1" style="shape-rendering:geometricPrecision; text-rendering:geometricPrecision; image-rendering:optimizeQuality; fill-rule:evenodd; clip-rule:evenodd"
viewBox="0 0 878 2196"
 xmlns:xlink="http://www.w3.org/1999/xlink">
 <defs>
  <style type="text/css">
   <![CDATA[
    .fil0 {fill:#0092A8}
   ]]>
  </style>
 </defs>
 <g id="Plan_x0020_1">
  <metadata id="CorelCorpID_0Corel-Layer"/>
  <g id="_604241512">
   <path class="fil0" d="M759 993c-43,7 -132,30 -208,-59 -28,-32 -56,-45 -81,-43 -24,2 -50,20 -71,56 -60,101 -151,94 -195,94 -139,0 -187,-146 -100,-291 87,-146 109,-240 109,-335 0,-55 -36,-347 -36,-348 -4,-24 13,-45 38,-47l110 -10 111 -10c25,-2 51,17 58,41 0,0 62,239 78,332 36,118 124,187 235,315 111,128 89,281 -48,305z"/>
   <path class="fil0" d="M832 1144c-75,-33 -227,18 -269,-41 -18,-27 -43,-42 -69,-46 -26,4 -51,19 -69,46 -42,59 -194,8 -269,41 -74,34 -52,161 37,260 143,160 129,304 139,363 7,39 19,354 19,354 0,1 0,1 0,1 2,25 23,46 48,46l190 0c25,0 46,-21 48,-46 0,0 0,0 0,-1 0,0 13,-317 19,-354 10,-59 -4,-203 139,-363 89,-99 111,-226 37,-260z"/>
   <path class="fil0" d="M186 1633c0,-2 -1,-2 -1,-1 -16,-43 -41,-89 -85,-138 -28,-31 -50,-64 -67,-98 -29,62 -52,154 -10,247 29,63 103,532 101,507 2,25 25,46 51,46l5 0c25,0 45,-21 43,-46l0 0c0,0 -37,-470 -37,-517z"/>
  </g>
 </g>
</svg>
