<?xml version="1.0" encoding="utf-8"?>
<!-- Generator: Adobe Illustrator 16.0.0, SVG Export Plug-In . SVG Version: 6.00 Build 0)  -->
<!DOCTYPE svg PUBLIC "-//W3C//DTD SVG 1.1//EN" "http://www.w3.org/Graphics/SVG/1.1/DTD/svg11.dtd">
<svg version="1.1" id="Calque_1" xmlns="http://www.w3.org/2000/svg" xmlns:xlink="http://www.w3.org/1999/xlink" x="0px" y="0px"
	 width="32px" height="32px" viewBox="0 0 32 32" enable-background="new 0 0 32 32" xml:space="preserve">
<path fill="#31B7EA" d="M11.32,15.027c-0.176,0-0.316,0.153-0.316,0.332c0,0.187,0.141,0.333,0.316,0.333h7.271
	c0.175,0,0.317-0.146,0.317-0.333c0-0.179-0.143-0.332-0.317-0.332H11.32z"/>
<path fill="#31B7EA" d="M11.32,13.442c-0.176,0-0.316,0.152-0.316,0.339c0,0.18,0.141,0.333,0.316,0.333h7.271
	c0.175,0,0.317-0.153,0.317-0.333c0-0.187-0.143-0.339-0.317-0.339H11.32z"/>
<path fill="#31B7EA" d="M18.592,16.607H11.32c-0.176,0-0.316,0.146-0.316,0.338c0,0.183,0.141,0.327,0.316,0.327h7.271
	c0.175,0,0.317-0.145,0.317-0.327C18.909,16.753,18.767,16.607,18.592,16.607"/>
<path fill="#31B7EA" d="M18.592,18.191H11.32c-0.176,0-0.316,0.147-0.316,0.333c0,0.182,0.141,0.333,0.316,0.333h7.271
	c0.175,0,0.317-0.151,0.317-0.333C18.909,18.339,18.767,18.191,18.592,18.191"/>
<path fill="#31B7EA" d="M18.542,19.772h-3.64c-0.169,0-0.311,0.146-0.311,0.333s0.141,0.332,0.311,0.332h3.64
	c0.175,0,0.314-0.145,0.314-0.332S18.717,19.772,18.542,19.772"/>
<path fill="#31B7EA" d="M18.479,10.808h-2.543c-0.176,0-0.321,0.146-0.321,0.333s0.145,0.333,0.321,0.333h2.543
	c0.176,0,0.316-0.147,0.316-0.333S18.654,10.808,18.479,10.808"/>
<path fill="#31B7EA" d="M21.734,25.285H9.492c-0.575,0-1.044-0.447-1.044-0.993V8.274c0-0.553,0.469-0.998,1.044-0.998h12.243
	c0.576,0,1.044,0.445,1.044,0.998v4.654c0,0.193-0.153,0.344-0.343,0.344c-0.193,0-0.352-0.151-0.352-0.344V8.274
	c0-0.164-0.157-0.299-0.35-0.299H9.492c-0.186,0-0.344,0.135-0.344,0.299v16.018c0,0.158,0.158,0.299,0.344,0.299h12.243
	c0.192,0,0.35-0.141,0.35-0.299V19.53c0-0.192,0.158-0.351,0.352-0.351c0.189,0,0.343,0.158,0.343,0.351v4.762
	C22.778,24.838,22.311,25.285,21.734,25.285"/>
<path fill="#31B7EA" d="M16.003,0.725L16.003,0.725c-8.43,0-15.279,6.85-15.279,15.28c0,8.423,6.85,15.279,15.279,15.279
	c8.424,0,15.279-6.855,15.279-15.279C31.282,7.575,24.427,0.725,16.003,0.725 M16.003,31.976c-8.813,0-15.978-7.166-15.978-15.971
	c0-8.813,7.166-15.979,15.978-15.979c8.808,0,15.973,7.166,15.973,15.979C31.976,24.81,24.811,31.976,16.003,31.976z"/>
<path fill="#31B7EA" d="M27.563,13.425L23.62,17.37l-0.739,0.738c-0.096,0.101-0.23,0.152-0.366,0.152
	c-0.143,0-0.277-0.052-0.375-0.152l-0.738-0.738l-1.974-1.976c-0.096-0.096-0.151-0.231-0.151-0.367
	c0-0.135,0.056-0.277,0.151-0.372l0.74-0.739c0.101-0.102,0.235-0.153,0.37-0.153s0.271,0.051,0.373,0.153l1.604,1.608l3.571-3.583
	c0.094-0.095,0.23-0.151,0.371-0.151c0.135,0,0.271,0.057,0.367,0.151l0.738,0.746c0.102,0.095,0.152,0.231,0.152,0.367
	C27.715,13.188,27.664,13.33,27.563,13.425"/>
</svg>
