<?xml version="1.0" encoding="UTF-8"?>
<!DOCTYPE svg PUBLIC "-//W3C//DTD SVG 1.1//EN" "http://www.w3.org/Graphics/SVG/1.1/DTD/svg11.dtd">
<!-- Creator: CorelDRAW X7 -->
<svg xmlns="http://www.w3.org/2000/svg" xml:space="preserve" width="12px" height="30px" version="1.1" style="shape-rendering:geometricPrecision; text-rendering:geometricPrecision; image-rendering:optimizeQuality; fill-rule:evenodd; clip-rule:evenodd"
viewBox="0 0 290 726"
 xmlns:xlink="http://www.w3.org/1999/xlink">
 <defs>
  <style type="text/css">
   <![CDATA[
    .fil0 {fill:white}
   ]]>
  </style>
 </defs>
 <g id="Plan_x0020_1">
  <metadata id="CorelCorpID_0Corel-Layer"/>
  <g id="_682842096">
   <path class="fil0" d="M251 328c-14,3 -44,10 -69,-19 -9,-11 -18,-15 -26,-15 -9,1 -17,7 -24,19 -20,33 -50,31 -65,31 -46,0 -61,-48 -33,-96 29,-48 36,-80 36,-111 0,-18 -12,-115 -12,-115 -1,-8 5,-15 13,-16l36 -3 37 -3c9,-1 17,5 19,14 0,0 21,79 26,109 12,39 41,62 78,104 36,43 29,93 -16,101z"/>
   <path class="fil0" d="M275 378c-25,-11 -75,6 -89,-14 -6,-8 -14,-13 -23,-15 -8,2 -17,7 -23,15 -13,20 -64,3 -88,14 -25,11 -17,53 12,86 47,53 42,100 46,120 2,13 6,117 6,117 0,0 0,0 0,1 1,8 8,15 16,15l63 0c8,0 15,-7 15,-15 0,-1 0,-1 0,-1 0,0 5,-105 7,-117 3,-20 -2,-67 46,-120 29,-33 37,-75 12,-86z"/>
   <path class="fil0" d="M61 540c0,-1 0,-1 0,-1 -5,-14 -14,-29 -28,-45 -9,-10 -17,-21 -22,-33 -10,21 -17,51 -3,82 9,21 34,176 33,168 1,8 8,15 17,15l1 0c9,0 15,-7 15,-15l0 0c0,0 -13,-156 -13,-171z"/>
  </g>
 </g>
</svg>
