<?xml version="1.0" encoding="utf-8"?>
<!-- Generator: Adobe Illustrator 16.0.0, SVG Export Plug-In . SVG Version: 6.00 Build 0)  -->
<!DOCTYPE svg PUBLIC "-//W3C//DTD SVG 1.1//EN" "http://www.w3.org/Graphics/SVG/1.1/DTD/svg11.dtd">
<svg version="1.1" id="Calque_1" xmlns="http://www.w3.org/2000/svg" xmlns:xlink="http://www.w3.org/1999/xlink" x="0px" y="0px"
	 width="22.031px" height="22.063px" viewBox="0 0 22.031 22.063" enable-background="new 0 0 22.031 22.063" xml:space="preserve">
<circle fill="#FFFFFF" stroke="#32B6E9" stroke-width="0.4799" stroke-miterlimit="22.9256" cx="11.05" cy="11.083" r="10.8"/>
<path fill="#32B6E9" d="M8.587,11.552c0.041,0.018,0.06,0.052,0.057,0.104c-0.003,0.051-0.037,0.134-0.105,0.248
	c-0.067,0.119-0.123,0.189-0.165,0.216c-0.042,0.027-0.081,0.027-0.117,0L7.32,11.438l0.123,1.151
	c0.009,0.044-0.011,0.078-0.057,0.103c-0.046,0.022-0.138,0.034-0.273,0.034c-0.133,0-0.225-0.012-0.271-0.034
	c-0.046-0.024-0.066-0.059-0.057-0.103l0.123-1.151l-0.932,0.681c-0.036,0.027-0.075,0.027-0.118,0
	c-0.045-0.027-0.101-0.097-0.168-0.216c-0.067-0.114-0.102-0.197-0.104-0.248c-0.001-0.051,0.02-0.085,0.06-0.104l1.06-0.47
	l-1.06-0.465c-0.041-0.021-0.062-0.057-0.06-0.108c0.001-0.051,0.036-0.134,0.104-0.249c0.068-0.114,0.123-0.184,0.168-0.21
	c0.043-0.027,0.082-0.027,0.118,0l0.932,0.677L6.785,9.58c-0.009-0.048,0.01-0.083,0.057-0.106C6.888,9.451,6.98,9.439,7.113,9.439
	c0.135,0,0.227,0.012,0.273,0.034C7.433,9.498,7.452,9.532,7.443,9.58L7.32,10.727l0.936-0.677c0.037-0.027,0.075-0.027,0.117,0
	c0.042,0.027,0.098,0.098,0.165,0.215c0.068,0.112,0.102,0.193,0.105,0.245c0.003,0.051-0.016,0.087-0.057,0.108l-1.06,0.465
	L8.587,11.552z"/>
<path fill="#32B6E9" d="M10.36,13.747v-1.01h0.921v1.01H10.36z M11.281,12.391H10.36c-0.003-0.133-0.004-0.213-0.004-0.242
	c0-0.297,0.049-0.542,0.148-0.734c0.099-0.192,0.295-0.408,0.591-0.649c0.296-0.24,0.473-0.397,0.531-0.472
	c0.09-0.118,0.134-0.248,0.134-0.39c0-0.195-0.079-0.363-0.237-0.502c-0.157-0.14-0.37-0.21-0.638-0.21
	c-0.258,0-0.473,0.074-0.647,0.22c-0.173,0.147-0.292,0.371-0.357,0.672L8.952,9.965c0.027-0.431,0.21-0.796,0.55-1.097
	c0.341-0.301,0.788-0.451,1.341-0.451c0.582,0,1.046,0.152,1.39,0.456c0.344,0.303,0.516,0.656,0.516,1.06
	c0,0.222-0.063,0.435-0.188,0.634c-0.127,0.199-0.396,0.471-0.811,0.814c-0.214,0.177-0.346,0.321-0.397,0.429
	C11.3,11.919,11.276,12.111,11.281,12.391z"/>
<path fill="#32B6E9" d="M4.852,11.552c0.041,0.018,0.06,0.052,0.057,0.104c-0.003,0.051-0.038,0.134-0.105,0.248
	c-0.068,0.119-0.124,0.189-0.166,0.216c-0.042,0.027-0.081,0.027-0.117,0l-0.937-0.681l0.123,1.151
	c0.009,0.044-0.011,0.078-0.057,0.103c-0.046,0.022-0.138,0.034-0.273,0.034c-0.134,0-0.225-0.012-0.271-0.034
	c-0.047-0.024-0.066-0.059-0.057-0.103l0.123-1.151l-0.932,0.681c-0.037,0.027-0.076,0.027-0.119,0
	c-0.045-0.027-0.101-0.097-0.168-0.216c-0.067-0.114-0.102-0.197-0.104-0.248c-0.001-0.051,0.02-0.085,0.06-0.104l1.06-0.47
	l-1.06-0.465c-0.041-0.021-0.062-0.057-0.06-0.108c0.001-0.051,0.036-0.134,0.104-0.249c0.067-0.114,0.123-0.184,0.168-0.21
	c0.043-0.027,0.083-0.027,0.119,0l0.932,0.677L3.049,9.58C3.04,9.532,3.06,9.498,3.106,9.474c0.046-0.022,0.138-0.034,0.271-0.034
	c0.135,0,0.227,0.012,0.273,0.034C3.697,9.498,3.717,9.532,3.708,9.58l-0.123,1.146l0.937-0.677c0.036-0.027,0.075-0.027,0.117,0
	s0.098,0.098,0.166,0.215c0.067,0.112,0.102,0.193,0.105,0.245c0.002,0.051-0.017,0.087-0.057,0.108l-1.06,0.465L4.852,11.552z"/>
<path fill="#32B6E9" d="M19.793,11.552c0.04,0.018,0.06,0.052,0.057,0.104c-0.003,0.051-0.037,0.134-0.104,0.248
	c-0.068,0.119-0.123,0.189-0.166,0.216c-0.042,0.027-0.081,0.027-0.116,0l-0.937-0.681l0.123,1.151
	c0.009,0.044-0.011,0.078-0.058,0.103c-0.046,0.022-0.138,0.034-0.272,0.034c-0.134,0-0.226-0.012-0.271-0.034
	c-0.047-0.024-0.066-0.059-0.058-0.103l0.123-1.151l-0.932,0.681c-0.036,0.027-0.075,0.027-0.119,0
	c-0.045-0.027-0.1-0.097-0.168-0.216c-0.067-0.114-0.102-0.197-0.104-0.248c-0.001-0.051,0.02-0.085,0.061-0.104l1.06-0.47
	l-1.06-0.465c-0.041-0.021-0.062-0.057-0.061-0.108c0.002-0.051,0.036-0.134,0.104-0.249c0.068-0.114,0.123-0.184,0.168-0.21
	c0.044-0.027,0.083-0.027,0.119,0l0.932,0.677L17.99,9.58c-0.009-0.048,0.011-0.083,0.058-0.106
	c0.046-0.022,0.138-0.034,0.271-0.034c0.135,0,0.227,0.012,0.272,0.034c0.047,0.024,0.066,0.059,0.058,0.106l-0.123,1.146
	l0.937-0.677c0.035-0.027,0.074-0.027,0.116,0c0.043,0.027,0.098,0.098,0.166,0.215c0.067,0.112,0.102,0.193,0.104,0.245
	c0.003,0.051-0.017,0.087-0.057,0.108l-1.06,0.465L19.793,11.552z"/>
<path fill="#32B6E9" d="M16.057,11.552c0.041,0.018,0.061,0.052,0.058,0.104c-0.003,0.051-0.037,0.134-0.105,0.248
	c-0.067,0.119-0.123,0.189-0.164,0.216c-0.042,0.027-0.081,0.027-0.117,0l-0.937-0.681l0.123,1.151
	c0.009,0.044-0.011,0.078-0.058,0.103c-0.046,0.022-0.138,0.034-0.272,0.034c-0.134,0-0.226-0.012-0.271-0.034
	c-0.047-0.024-0.066-0.059-0.058-0.103l0.123-1.151l-0.932,0.681c-0.036,0.027-0.075,0.027-0.118,0
	c-0.046-0.027-0.102-0.097-0.169-0.216c-0.067-0.114-0.102-0.197-0.104-0.248c-0.001-0.051,0.021-0.085,0.061-0.104l1.06-0.47
	l-1.06-0.465c-0.04-0.021-0.062-0.057-0.061-0.108c0.002-0.051,0.036-0.134,0.104-0.249c0.067-0.114,0.123-0.184,0.169-0.21
	c0.043-0.027,0.082-0.027,0.118,0l0.932,0.677L14.255,9.58c-0.009-0.048,0.011-0.083,0.058-0.106
	c0.046-0.022,0.138-0.034,0.271-0.034c0.135,0,0.227,0.012,0.272,0.034c0.047,0.024,0.066,0.059,0.058,0.106l-0.123,1.146
	l0.937-0.677c0.036-0.027,0.075-0.027,0.117,0c0.041,0.027,0.097,0.098,0.164,0.215c0.068,0.112,0.103,0.193,0.105,0.245
	c0.003,0.051-0.017,0.087-0.058,0.108l-1.059,0.465L16.057,11.552z"/>
</svg>
