<?xml version="1.0" encoding="UTF-8"?>
<!DOCTYPE svg PUBLIC "-//W3C//DTD SVG 1.1//EN" "http://www.w3.org/Graphics/SVG/1.1/DTD/svg11.dtd">
<!-- Creator: CorelDRAW X7 -->
<svg xmlns="http://www.w3.org/2000/svg" xml:space="preserve" width="15px" height="11px" version="1.1" style="shape-rendering:geometricPrecision; text-rendering:geometricPrecision; image-rendering:optimizeQuality; fill-rule:evenodd; clip-rule:evenodd"
viewBox="0 0 5064 3797"
 xmlns:xlink="http://www.w3.org/1999/xlink">
 <defs>
  <style type="text/css">
   <![CDATA[
    .fil0 {fill:white}
   ]]>
  </style>
 </defs>
 <g id="Plan_x0020_1">
  <metadata id="CorelCorpID_0Corel-Layer"/>
  <path class="fil0" d="M4569 47c-62,-62 -162,-62 -224,0l-2360 2348c-61,63 -162,63 -224,0l-1033 -1052c-31,-32 -71,-47 -111,-48 -41,0 -82,16 -113,48l-457 410c-30,31 -47,71 -47,111 0,41 17,84 47,115l1042 1094c62,62 163,163 225,226l448 451c61,62 162,62 224,0l3031 -3025c62,-63 62,-165 0,-227l-448 -451z"/>
 </g>
</svg>
