<?xml version="1.0" encoding="UTF-8"?>
<!DOCTYPE svg PUBLIC "-//W3C//DTD SVG 1.1//EN" "http://www.w3.org/Graphics/SVG/1.1/DTD/svg11.dtd">
<!-- Creator: CorelDRAW X7 -->
<svg xmlns="http://www.w3.org/2000/svg" xml:space="preserve" width="37px" height="30px" version="1.1" style="shape-rendering:geometricPrecision; text-rendering:geometricPrecision; image-rendering:optimizeQuality; fill-rule:evenodd; clip-rule:evenodd"
viewBox="0 0 2959 2406"
 xmlns:xlink="http://www.w3.org/1999/xlink">
 <defs>
  <style type="text/css">
   <![CDATA[
    .fil0 {fill:white}
   ]]>
  </style>
 </defs>
 <g id="Plan_x0020_1">
  <metadata id="CorelCorpID_0Corel-Layer"/>
  <path class="fil0" d="M2724 763c-264,-543 -677,-488 -774,-266 -26,62 -49,144 -68,237 -123,-54 -232,-159 -232,-251 0,-216 0,-277 0,-483 -60,0 -281,0 -341,0 0,206 0,267 0,483 0,91 -112,188 -235,241 -18,-89 -40,-167 -65,-227 -96,-222 -510,-277 -774,266 -241,498 -276,1152 -197,1606 7,41 51,43 69,27 288,-249 672,-377 930,-410 103,-14 122,-102 122,-216 0,-233 -12,-533 -44,-795 123,-52 313,-160 359,-233 46,72 244,188 369,241 -31,260 -43,556 -43,787 0,114 19,202 122,216 258,33 642,161 930,410 18,16 62,14 69,-27 79,-454 44,-1108 -197,-1606z"/>
 </g>
</svg>
