<?xml version="1.0" encoding="UTF-8"?>
<!DOCTYPE svg PUBLIC "-//W3C//DTD SVG 1.1//EN" "http://www.w3.org/Graphics/SVG/1.1/DTD/svg11.dtd">
<!-- Creator: CorelDRAW X7 -->
<svg xmlns="http://www.w3.org/2000/svg" xml:space="preserve" width="24px" height="24px" version="1.1" style="shape-rendering:geometricPrecision; text-rendering:geometricPrecision; image-rendering:optimizeQuality; fill-rule:evenodd; clip-rule:evenodd"
viewBox="0 0 747 747"
 xmlns:xlink="http://www.w3.org/1999/xlink">
 <defs>
  <style type="text/css">
   <![CDATA[
    .fil0 {fill:#B35A00}
    .fil1 {fill:white;fill-rule:nonzero}
   ]]>
  </style>
 </defs>
 <g id="Plan_x0020_1">
  <metadata id="CorelCorpID_0Corel-Layer"/>
  <g id="_651220928">
   <circle class="fil0" cx="373" cy="373" r="373"/>
   <path class="fil1" d="M410 439l-69 0 -17 -275 99 0 -13 275zm-86 99c0,-17 4,-29 13,-37 8,-8 20,-13 36,-13 17,0 29,5 37,13 9,8 13,20 13,37 0,12 -4,24 -13,32 -8,9 -20,13 -37,13 -16,0 -28,-4 -36,-13 -9,-8 -13,-20 -13,-32z"/>
  </g>
 </g>
</svg>
