<?xml version="1.0" encoding="UTF-8"?>
<!DOCTYPE svg PUBLIC "-//W3C//DTD SVG 1.1//EN" "http://www.w3.org/Graphics/SVG/1.1/DTD/svg11.dtd">
<!-- Creator: CorelDRAW X7 -->
<svg xmlns="http://www.w3.org/2000/svg" xml:space="preserve" width="44px" height="44px" version="1.1" style="shape-rendering:geometricPrecision; text-rendering:geometricPrecision; image-rendering:optimizeQuality; fill-rule:evenodd; clip-rule:evenodd"
viewBox="0 0 2966 2966"
 xmlns:xlink="http://www.w3.org/1999/xlink">
 <defs>
  <style type="text/css">
   <![CDATA[
    .fil2 {fill:none}
    .fil1 {fill:#A65B00}
    .fil0 {fill:#BD6902}
    .fil3 {fill:white}
   ]]>
  </style>
    <clipPath id="id0">
     <path d="M1483 0l0 0c816,0 1483,667 1483,1483l0 0c0,816 -667,1483 -1483,1483l0 0c-816,0 -1483,-667 -1483,-1483l0 0c0,-816 667,-1483 1483,-1483z"/>
    </clipPath>
 </defs>
 <g id="Plan_x0020_1">
  <metadata id="CorelCorpID_0Corel-Layer"/>
  <g id="_528648672">
   <path class="fil0" d="M1483 0l0 0c816,0 1483,667 1483,1483l0 0c0,816 -667,1483 -1483,1483l0 0c-816,0 -1483,-667 -1483,-1483l0 0c0,-816 667,-1483 1483,-1483z"/>
   <g style="clip-path:url(#id0)">
    <g>
     <rect class="fil1" x="-972" y="990" width="2966" height="2966" rx="1707" ry="1707"/>
    </g>
   </g>
   <path class="fil2" d="M1483 0l0 0c816,0 1483,667 1483,1483l0 0c0,816 -667,1483 -1483,1483l0 0c-816,0 -1483,-667 -1483,-1483l0 0c0,-816 667,-1483 1483,-1483z"/>
   <g id="Icon">
    <path class="fil3" d="M1645 2084l60 150c-71,20 -145,31 -222,31 -443,0 -803,-359 -803,-803 0,-443 360,-802 803,-802 443,0 803,359 803,802 0,77 -11,152 -32,222l-150 -60c14,-51 21,-106 21,-162 0,-354 -287,-642 -642,-642 -355,0 -642,288 -642,642 0,355 287,643 642,643 56,0 110,-8 162,-21zm-162 -301c-177,0 -321,-143 -321,-321 0,-177 144,-321 321,-321 177,0 321,144 321,321 0,14 -1,28 -3,41l153 61c7,-33 11,-67 11,-102 0,-266 -216,-481 -482,-481 -266,0 -482,215 -482,481 0,266 216,482 482,482 35,0 69,-4 102,-11l-61 -152c-14,1 -27,2 -41,2zm0 -160c89,0 160,-72 160,-161 0,-88 -71,-160 -160,-160 -89,0 -161,72 -161,160 0,89 72,161 161,161zm493 199l203 -92 -696 -268 267 696 93 -202 229 229 133 -134 -229 -229z"/>
   </g>
  </g>
 </g>
</svg>
