<?xml version="1.0" encoding="UTF-8"?>
<!DOCTYPE svg PUBLIC "-//W3C//DTD SVG 1.0//EN" "http://www.w3.org/TR/2001/REC-SVG-20010904/DTD/svg10.dtd">
<!-- Creator: CorelDRAW X7 -->
<svg xmlns="http://www.w3.org/2000/svg" xml:space="preserve" width="40px" height="40px" version="1.0" style="shape-rendering:geometricPrecision; text-rendering:geometricPrecision; image-rendering:optimizeQuality; fill-rule:evenodd; clip-rule:evenodd"
viewBox="0 0 3624 3624"
 xmlns:xlink="http://www.w3.org/1999/xlink">
 <defs>
  <style type="text/css">
   <![CDATA[
    .fil1 {fill:#CCCCCC}
    .fil0 {fill:#EDEDED}
    .fil2 {fill:white;fill-rule:nonzero}
   ]]>
  </style>
 </defs>
 <g id="Plan_x0020_1">
  <metadata id="CorelCorpID_0Corel-Layer"/>
  <g id="_466290920">
   <g>
    <circle class="fil0" cx="1812" cy="1812" r="1812"/>
    <path id="document-file-xls" class="fil1" d="M938 1247c-113,0 -205,93 -205,205l0 721c0,113 93,204 205,204l1748 0c113,0 205,-92 205,-204l0 -721c0,-113 -93,-205 -205,-205l-1748 0 0 0z"/>
   </g>
   <path class="fil2" d="M1362 1901l96 0c-9,86 -35,154 -79,203 -45,49 -101,74 -170,74 -80,0 -143,-33 -188,-98 -46,-64 -69,-154 -69,-268 0,-115 23,-204 69,-268 45,-65 108,-97 188,-97 63,0 115,20 158,61 42,41 69,96 80,166l-95 0c-10,-45 -28,-81 -53,-106 -25,-26 -55,-39 -90,-39 -49,0 -89,25 -117,76 -29,50 -44,119 -44,207 0,88 15,156 44,206 29,51 68,76 117,76 41,0 75,-17 102,-51 27,-34 44,-81 51,-142zm282 29c0,51 15,90 44,120 30,29 70,44 120,44 45,0 82,-12 109,-35 28,-22 42,-53 42,-91 0,-51 -49,-90 -147,-117 -19,-5 -35,-9 -45,-12 -79,-22 -131,-46 -155,-73 -26,-27 -38,-64 -38,-113 0,-61 20,-111 61,-149 41,-37 94,-56 160,-56 75,0 133,19 175,58 41,39 61,94 61,164l0 2 -91 0c-3,-46 -17,-81 -42,-106 -24,-24 -58,-37 -101,-37 -39,0 -70,10 -94,30 -23,20 -35,47 -35,80 0,33 9,58 26,73 18,16 65,33 141,50 88,21 146,45 174,73 27,29 41,69 41,123 0,67 -22,121 -66,160 -44,40 -104,60 -180,60 -77,0 -137,-22 -181,-65 -43,-42 -66,-104 -70,-183l91 0zm933 -465l95 0 -219 694 -100 0 -224 -694 95 0 179 590 174 -590z"/>
  </g>
 </g>
</svg>
