<?xml version="1.0" encoding="UTF-8"?>
<!DOCTYPE svg PUBLIC "-//W3C//DTD SVG 1.0//EN" "http://www.w3.org/TR/2001/REC-SVG-20010904/DTD/svg10.dtd">
<!-- Creator: CorelDRAW X7 -->
<svg xmlns="http://www.w3.org/2000/svg" xml:space="preserve" width="40px" height="40px" version="1.0" style="shape-rendering:geometricPrecision; text-rendering:geometricPrecision; image-rendering:optimizeQuality; fill-rule:evenodd; clip-rule:evenodd"
viewBox="0 0 3624 3624"
 xmlns:xlink="http://www.w3.org/1999/xlink">
 <defs>
  <style type="text/css">
   <![CDATA[
    .fil1 {fill:#CCCCCC}
    .fil0 {fill:#EDEDED}
    .fil2 {fill:white}
   ]]>
  </style>
 </defs>
 <g id="Plan_x0020_1">
  <metadata id="CorelCorpID_0Corel-Layer"/>
  <g id="_595075632">
   <circle class="fil0" cx="1812" cy="1812" r="1812"/>
   <path id="document-file-pdf" class="fil1" d="M963 1263c-110,0 -199,90 -199,199l0 700c0,110 90,199 199,199l1698 0c110,0 199,-89 199,-199l0 -700c0,-110 -89,-199 -199,-199l-1698 0 0 0z"/>
   <path id="document-file-pdf_0" class="fil2" d="M964 1662l0 500 99 0 0 -300 200 0c110,0 200,-88 200,-200 0,-110 -89,-199 -200,-199l-299 0 0 199 0 0zm99 -99l0 199 200 0c55,0 100,-44 100,-100 0,-55 -44,-99 -100,-99l-200 0 0 0z"/>
   <polygon id="document-file-pdf_1" class="fil2" points="2261,1762 2261,1563 2661,1563 2661,1463 2162,1463 2162,2162 2261,2162 2261,1862 2561,1862 2561,1762 2261,1762 "/>
   <path id="document-file-pdf_2" class="fil2" d="M1563 1463l0 699 299 0c110,0 200,-89 200,-201l0 -298c0,-111 -89,-200 -200,-200l-299 0 0 0zm99 100l0 499 200 0c55,0 100,-45 100,-100l0 -300c0,-55 -44,-99 -100,-99l-200 0 0 0z"/>
  </g>
 </g>
</svg>
