<?xml version="1.0" encoding="UTF-8"?>
<!DOCTYPE svg PUBLIC "-//W3C//DTD SVG 1.1//EN" "http://www.w3.org/Graphics/SVG/1.1/DTD/svg11.dtd">
<!-- Creator: CorelDRAW X7 -->
<svg xmlns="http://www.w3.org/2000/svg" xml:space="preserve" width="44px" height="44px" version="1.1" style="shape-rendering:geometricPrecision; text-rendering:geometricPrecision; image-rendering:optimizeQuality; fill-rule:evenodd; clip-rule:evenodd"
viewBox="0 0 2539 2539"
 xmlns:xlink="http://www.w3.org/1999/xlink">
 <defs>
  <style type="text/css">
   <![CDATA[
    .fil2 {fill:none}
    .fil1 {fill:#057A80}
    .fil0 {fill:#098A91}
    .fil3 {fill:white}
   ]]>
  </style>
    <clipPath id="id0">
     <path d="M1269 0l0 0c699,0 1270,571 1270,1269l0 0c0,699 -571,1270 -1270,1270l0 0c-698,0 -1269,-571 -1269,-1270l0 0c0,-698 571,-1269 1269,-1269z"/>
    </clipPath>
 </defs>
 <g id="Plan_x0020_1">
  <metadata id="CorelCorpID_0Corel-Layer"/>
  <g id="_528651888">
   <path class="fil0" d="M1269 0l0 0c699,0 1270,571 1270,1269l0 0c0,699 -571,1270 -1270,1270l0 0c-698,0 -1269,-571 -1269,-1270l0 0c0,-698 571,-1269 1269,-1269z"/>
   <g style="clip-path:url(#id0)">
    <g>
     <rect class="fil1" x="-893" y="848" width="2539" height="2539" rx="1461" ry="1461"/>
    </g>
   </g>
   <path class="fil2" d="M1269 0l0 0c699,0 1270,571 1270,1269l0 0c0,699 -571,1270 -1270,1270l0 0c-698,0 -1269,-571 -1269,-1270l0 0c0,-698 571,-1269 1269,-1269z"/>
   <g>
    <path class="fil3" d="M1326 1192c-18,0 -37,0 -55,0 -20,1 -39,1 -58,2l0 370 0 3c0,1 2,52 -29,84 -19,20 -49,30 -88,30l-78 0c-32,0 -57,26 -57,57 0,31 25,56 57,56l78 0c72,0 129,-22 170,-65 61,-64 60,-149 60,-166l0 -371z"/>
    <path class="fil3" d="M1668 822c-94,-72 -215,-114 -349,-122l-29 -113c0,0 -5,-23 -21,-23 -16,0 -19,24 -19,24l-28 112c-135,8 -257,50 -351,122 -141,93 -226,241 -226,420 0,19 15,34 34,34 19,0 34,-15 34,-34 0,-9 0,-18 1,-27 27,-18 68,-38 121,-46 77,-11 131,2 151,8 0,8 0,17 0,25 0,19 14,34 33,34 18,0 33,-15 33,-34 0,-11 0,-22 1,-34 13,-12 52,-37 160,-44 8,0 17,-1 26,-1 10,0 20,0 30,0 11,0 21,0 30,0 10,0 18,1 27,1 134,9 156,46 158,51 1,1 1,1 2,1 0,9 1,17 1,26 0,19 15,34 33,34 18,0 33,-15 33,-34 0,-8 0,-17 0,-25 20,-6 74,-19 150,-8 53,8 95,28 122,46 0,9 1,18 1,27 0,19 15,34 34,34 18,0 34,-15 34,-34 0,-179 -85,-327 -226,-420z"/>
   </g>
  </g>
 </g>
</svg>
