<?xml version="1.0" encoding="UTF-8"?>
<!DOCTYPE svg PUBLIC "-//W3C//DTD SVG 1.1//EN" "http://www.w3.org/Graphics/SVG/1.1/DTD/svg11.dtd">
<!-- Creator: CorelDRAW X7 -->
<svg xmlns="http://www.w3.org/2000/svg" xml:space="preserve" width="32px" height="32px" version="1.1" style="shape-rendering:geometricPrecision; text-rendering:geometricPrecision; image-rendering:optimizeQuality; fill-rule:evenodd; clip-rule:evenodd"
viewBox="0 0 74482 74482"
 xmlns:xlink="http://www.w3.org/1999/xlink">
 <defs>
  <style type="text/css">
   <![CDATA[
    .fil0 {fill:#A4C242}
    .fil1 {fill:#A4C242;fill-rule:nonzero}
    .fil2 {fill:white;fill-rule:nonzero}
   ]]>
  </style>
 </defs>
 <g id="Plan_x0020_1">
  <metadata id="CorelCorpID_0Corel-Layer"/>
  <g id="_464169328">
   <circle class="fil0" cx="37240" cy="37240" r="36222"/>
   <path class="fil1" d="M72445 37240c0,-9724 -3939,-18524 -10309,-24891 -6370,-6372 -15170,-10312 -24896,-10312 -9724,0 -18524,3940 -24891,10309 -6372,6370 -10312,15170 -10312,24894 0,9726 3940,18526 10309,24893 6370,6373 15167,10312 24894,10312 9726,0 18526,-3939 24893,-10309 6373,-6370 10312,-15170 10312,-24896zm-8874 -26331c6738,6735 10911,16049 10911,26331 0,10276 -4170,19593 -10908,26331 -6736,6738 -16055,10911 -26334,10911 -10276,0 -19591,-4170 -26329,-10908 -6738,-6736 -10911,-16055 -10911,-26334 0,-10279 4170,-19591 10909,-26329 6735,-6738 16055,-10911 26331,-10911 10276,0 19593,4170 26331,10909z"/>
   <path class="fil2" d="M33322 44014l0 -1532c0,-1756 319,-3222 957,-4382 641,-1171 1759,-2375 3354,-3626 1897,-1495 3126,-2666 3681,-3491 550,-836 828,-1826 828,-2969 0,-1342 -451,-2373 -1342,-3093 -899,-720 -2186,-1080 -3863,-1080 -1512,0 -2919,214 -4211,646 -1292,434 -2560,948 -3789,1564l-2012 -4223c3241,-1798 6716,-2699 10422,-2699 3134,0 5611,769 7453,2298 1831,1531 2755,3651 2755,6348 0,1195 -179,2265 -531,3200 -352,932 -882,1822 -1594,2666 -704,850 -1930,1947 -3673,3305 -1490,1171 -2480,2136 -2986,2903 -500,761 -753,1792 -753,3084l0 1081 -4696 0zm-981 7648c0,-2414 1171,-3624 3519,-3624 1152,0 2029,319 2642,949 605,629 907,1520 907,2675 0,1130 -311,2029 -924,2691 -613,663 -1490,998 -2625,998 -1130,0 -2004,-327 -2612,-973 -605,-646 -907,-1556 -907,-2716z"/>
  </g>
 </g>
</svg>
