<?xml version="1.0" encoding="UTF-8"?>
<!DOCTYPE svg PUBLIC "-//W3C//DTD SVG 1.1//EN" "http://www.w3.org/Graphics/SVG/1.1/DTD/svg11.dtd">
<!-- Creator: CorelDRAW X7 -->
<svg xmlns="http://www.w3.org/2000/svg" xml:space="preserve" width="34px" height="34px" version="1.1" style="shape-rendering:geometricPrecision; text-rendering:geometricPrecision; image-rendering:optimizeQuality; fill-rule:evenodd; clip-rule:evenodd"
viewBox="0 0 3077 3077"
 xmlns:xlink="http://www.w3.org/1999/xlink">
 <defs>
  <style type="text/css">
   <![CDATA[
    .fil0 {fill:#1CB0BA}
    .fil1 {fill:white}
   ]]>
  </style>
 </defs>
 <g id="Plan_x0020_1">
  <metadata id="CorelCorpID_0Corel-Layer"/>
  <path class="fil0" d="M1539 0c-850,0 -1539,689 -1539,1539 0,850 689,1538 1539,1538 850,0 1538,-688 1538,-1538 0,-850 -688,-1539 -1538,-1539z"/>
  <g id="_569160944">
   <path class="fil1" d="M2207 964l0 1466c0,25 -21,46 -47,46l-1243 0c-26,0 -46,-21 -46,-46l0 -1783c0,-25 20,-46 46,-46l927 0c2,0 4,0 5,1 1,0 1,0 1,0 0,0 0,0 0,0 0,0 0,0 0,0 0,0 0,0 0,0l0 0c2,0 4,0 6,1 0,0 0,0 0,0l0 0c8,2 15,6 21,11 0,0 0,0 0,0 0,0 0,0 0,0 0,0 0,0 0,0 0,0 0,0 0,1 0,0 0,0 0,0 0,0 0,0 0,0 0,0 0,0 0,0l316 316c0,0 0,0 0,0 0,0 0,0 0,0 0,0 0,0 0,0 0,0 0,0 0,0 0,0 0,0 0,0 0,0 0,0 0,0 0,0 0,0 0,0l0 0c6,6 10,13 12,20 0,0 0,0 0,0 0,0 0,0 0,0 0,0 0,0 0,0 0,0 0,0 0,0 0,0 0,0 0,1 0,0 0,0 0,0 1,2 1,4 1,6 0,0 0,0 0,0 0,0 0,0 0,0 0,0 0,0 0,0 0,0 0,0 0,0 0,2 1,4 1,6z"/>
   <path class="fil0" d="M1884 1792l-175 0c-25,0 -46,20 -46,46 0,25 21,46 46,46l175 0c25,0 46,-21 46,-46 0,-26 -21,-46 -46,-46z"/>
   <path class="fil0" d="M1884 2115l-175 0c-25,0 -46,21 -46,46 0,26 21,46 46,46l175 0c25,0 46,-20 46,-46 0,-25 -21,-46 -46,-46z"/>
   <path class="fil0" d="M1884 1615l-175 0c-25,0 -46,21 -46,46 0,25 21,46 46,46l175 0c25,0 46,-21 46,-46 0,-25 -21,-46 -46,-46z"/>
   <polygon class="fil0" points="1891,917 2049,917 1891,759 "/>
   <path class="fil0" d="M1147 1484c0,26 21,46 46,46l691 0c25,0 46,-20 46,-46 0,-25 -21,-46 -46,-46l-691 0c-25,0 -46,21 -46,46z"/>
   <path class="fil0" d="M1190 1069l80 0 0 80c0,25 20,46 46,46 25,0 46,-21 46,-46l0 -80 80 0c25,0 46,-20 46,-46 0,-25 -21,-46 -46,-46l-80 0 0 -80c0,-25 -21,-46 -46,-46 -26,0 -46,21 -46,46l0 80 -80 0c-25,0 -46,21 -46,46 0,26 21,46 46,46z"/>
   <path class="fil0" d="M1509 1792l-316 0c-25,0 -46,20 -46,46 0,25 21,46 46,46l316 0c26,0 46,-21 46,-46 0,-26 -20,-46 -46,-46z"/>
   <path class="fil0" d="M1555 1661c0,25 -20,46 -46,46l-316 0c-25,0 -46,-21 -46,-46 0,-25 21,-46 46,-46l316 0c26,0 46,21 46,46z"/>
  </g>
 </g>
</svg>
