<?xml version="1.0" encoding="UTF-8"?>
<!DOCTYPE svg PUBLIC "-//W3C//DTD SVG 1.1//EN" "http://www.w3.org/Graphics/SVG/1.1/DTD/svg11.dtd">
<!-- Creator: CorelDRAW X7 -->
<svg xmlns="http://www.w3.org/2000/svg" xml:space="preserve" width="34px" height="34px" version="1.1" style="shape-rendering:geometricPrecision; text-rendering:geometricPrecision; image-rendering:optimizeQuality; fill-rule:evenodd; clip-rule:evenodd"
viewBox="0 0 7523 7499"
 xmlns:xlink="http://www.w3.org/1999/xlink">
 <defs>
  <style type="text/css">
   <![CDATA[
    .fil0 {fill:#0087CF}
    .fil1 {fill:white}
   ]]>
  </style>
 </defs>
 <g id="Plan_x0020_1">
  <metadata id="CorelCorpID_0Corel-Layer"/>
  <g id="_271667856">
   <ellipse class="fil0" cx="3761" cy="3749" rx="3761" ry="3749"/>
   <path class="fil1" d="M4662 4730c1,1 2,2 3,4 91,156 37,357 -120,447 -157,90 -358,36 -448,-120 -1,-2 -1,-3 -2,-5 -923,498 -1241,485 -1345,306 -32,-56 -38,-123 -6,-204 153,-724 357,-666 -52,-1372 -273,-471 -503,-914 21,-1319 -27,-20 -50,-44 -67,-75 -68,-117 -28,-267 90,-335 117,-68 268,-27 336,90 17,30 28,63 31,95 614,-250 884,171 1157,642 410,708 460,500 1172,732 83,14 136,52 168,106 103,179 -50,464 -938,1008z"/>
  </g>
 </g>
</svg>
