<?xml version="1.0" encoding="UTF-8"?>
<!DOCTYPE svg PUBLIC "-//W3C//DTD SVG 1.1//EN" "http://www.w3.org/Graphics/SVG/1.1/DTD/svg11.dtd">
<!-- Creator: CorelDRAW X7 -->
<svg xmlns="http://www.w3.org/2000/svg" xml:space="preserve" width="119944px" height="119944px" version="1.1" style="shape-rendering:geometricPrecision; text-rendering:geometricPrecision; image-rendering:optimizeQuality; fill-rule:evenodd; clip-rule:evenodd"
viewBox="0 0 5586062 5550847"
 xmlns:xlink="http://www.w3.org/1999/xlink">
 <defs>
  <style type="text/css">
   <![CDATA[
    .fil0 {fill:#8F2422}
    .fil1 {fill:white}
   ]]>
  </style>
 </defs>
 <g id="Plan_x0020_1">
  <metadata id="CorelCorpID_0Corel-Layer"/>
  <ellipse class="fil0" cx="2793041" cy="2775388" rx="2793009" ry="2775423"/>
  <path id="document-file-pdf" class="fil1" d="M1484390 1934981c-169146,0 -307105,137115 -307105,305232l0 1072575c0,168117 137959,302985 307105,302985l2617282 0c169147,0 307105,-137116 307105,-302985l0 -1072575c0,-168117 -137958,-305232 -307105,-305232l-2617282 0 0 0z"/>
  <path id="document-file-pdf_0" class="fil0" d="M1484390 2545352l0 765188 153600 0 0 -457708 307106 0c171394,0 309353,-137116 309353,-307480 0,-168023 -137959,-305139 -309353,-305139l-460706 0 0 305139 0 0zm153600 -152570l0 305233 309353 0c84574,0 153600,-66310 153600,-152570 0,-84011 -69026,-152569 -153600,-152569l-309353 0 0 0 0 -94z"/>
  <polygon id="document-file-pdf_1" class="fil0" points="3485213,2698015 3485213,2392782 4101672,2392782 4101672,2240213 3331613,2240213 3331613,3310540 3485213,3310540 3485213,2852832 3948072,2852832 3948072,2698015 "/>
  <path id="document-file-pdf_2" class="fil0" d="M2408049 2240213l0 1070327 460705 0c171395,0 309353,-134868 309353,-307386l0 -455554c0,-170271 -137958,-307387 -309353,-307387l-460705 0 0 0zm153506 152569l0 765189 309353 0c84573,0 153600,-68558 153600,-152570l0 -459956c0,-84011 -69027,-152569 -153600,-152569l-309353 0 0 0 0 -94z"/>
 </g>
</svg>
