<?xml version="1.0" encoding="UTF-8"?>
<!DOCTYPE svg PUBLIC "-//W3C//DTD SVG 1.1//EN" "http://www.w3.org/Graphics/SVG/1.1/DTD/svg11.dtd">
<!-- Creator: CorelDRAW X7 -->
<svg xmlns="http://www.w3.org/2000/svg" xml:space="preserve" width="34px" height="34px" version="1.1" style="shape-rendering:geometricPrecision; text-rendering:geometricPrecision; image-rendering:optimizeQuality; fill-rule:evenodd; clip-rule:evenodd"
viewBox="0 0 1832 1821"
 xmlns:xlink="http://www.w3.org/1999/xlink">
 <defs>
  <style type="text/css">
   <![CDATA[
    .fil1 {fill:#9E292B}
    .fil0 {fill:#EDEDED}
    .fil2 {fill:white}
   ]]>
  </style>
 </defs>
 <g id="Plan_x0020_1">
  <metadata id="CorelCorpID_0Corel-Layer"/>
  <ellipse class="fil0" cx="916" cy="910" rx="916" ry="910"/>
  <path id="document-file-pdf" class="fil1" d="M487 635c-55,0 -101,45 -101,100l0 351c0,56 46,101 101,101l859 0c56,0 101,-45 101,-101l0 -351c0,-55 -46,-100 -101,-100l-859 0 0 0z"/>
  <path id="document-file-pdf_0" class="fil2" d="M487 835l0 251 51 0 0 -150 101 0c56,0 101,-44 101,-101 0,-55 -45,-100 -101,-100l-152 0 0 100 0 0zm51 -50l0 101 101 0c27,0 50,-23 50,-51 0,-27 -22,-50 -50,-50l-101 0 0 0z"/>
  <polygon id="document-file-pdf_1" class="fil2" points="1143,886 1143,785 1346,785 1346,735 1093,735 1093,1086 1143,1086 1143,936 1295,936 1295,886 "/>
  <path id="document-file-pdf_2" class="fil2" d="M790 735l0 351 152 0c56,0 101,-44 101,-100l0 -150c0,-56 -45,-101 -101,-101l-152 0 0 0 0 0zm50 50l0 251 102 0c28,0 50,-22 50,-50l0 -151c0,-27 -22,-50 -50,-50l-102 0 0 0z"/>
 </g>
</svg>
