<?xml version="1.0" encoding="UTF-8"?>
<!DOCTYPE svg PUBLIC "-//W3C//DTD SVG 1.1//EN" "http://www.w3.org/Graphics/SVG/1.1/DTD/svg11.dtd">
<!-- Creator: CorelDRAW X7 -->
<svg xmlns="http://www.w3.org/2000/svg" xml:space="preserve" width="26px" height="30px" version="1.1" style="shape-rendering:geometricPrecision; text-rendering:geometricPrecision; image-rendering:optimizeQuality; fill-rule:evenodd; clip-rule:evenodd"
viewBox="0 0 1113 1271"
 xmlns:xlink="http://www.w3.org/1999/xlink">
 <defs>
  <style type="text/css">
   <![CDATA[
    .fil0 {fill:#0087CF}
    .fil1 {fill:white}
   ]]>
  </style>
 </defs>
 <g id="Plan_x0020_1">
  <metadata id="CorelCorpID_0Corel-Layer"/>
  <g id="_716540008">
   <rect class="fil0" width="1113" height="1271"/>
   <g>
    <path class="fil1" d="M300 668l0 266c0,7 5,12 12,12l286 0 0 -241 134 0 0 241 80 0c7,0 12,-5 12,-12l0 -266 -262 -261 -262 261zm213 149l-121 0 0 -112 121 0 0 112z"/>
    <path class="fil1" d="M877 572l-315 -316 -149 149 0 -65c0,-16 -12,-28 -28,-28 -15,0 -27,12 -27,28l0 121 -112 111c-13,13 -13,35 0,49 7,7 16,10 25,10 9,0 18,-3 24,-10l267 -267 266 267c14,13 36,13 49,0 14,-14 14,-36 0,-49z"/>
   </g>
  </g>
 </g>
</svg>
