<?xml version="1.0" encoding="UTF-8"?>
<!DOCTYPE svg PUBLIC "-//W3C//DTD SVG 1.1//EN" "http://www.w3.org/Graphics/SVG/1.1/DTD/svg11.dtd">
<!-- Creator: CorelDRAW X7 -->
<svg xmlns="http://www.w3.org/2000/svg" xml:space="preserve" width="34px" height="34px" version="1.1" style="shape-rendering:geometricPrecision; text-rendering:geometricPrecision; image-rendering:optimizeQuality; fill-rule:evenodd; clip-rule:evenodd"
viewBox="0 0 3077 3077"
 xmlns:xlink="http://www.w3.org/1999/xlink">
 <defs>
  <style type="text/css">
   <![CDATA[
    .fil0 {fill:#1CB0BA}
    .fil1 {fill:#FEFEFE;fill-rule:nonzero}
   ]]>
  </style>
 </defs>
 <g id="Plan_x0020_1">
  <metadata id="CorelCorpID_0Corel-Layer"/>
  <path class="fil0" d="M1538 0c-850,0 -1538,689 -1538,1538 0,850 688,1539 1538,1539 850,0 1539,-689 1539,-1539 0,-849 -689,-1538 -1539,-1538z"/>
  <g id="_573100792">
   <polygon class="fil1" points="658,1102 672,1093 687,1084 703,1073 718,1062 733,1050 749,1038 766,1026 782,1012 798,999 814,985 831,971 848,955 865,940 881,924 898,908 915,892 931,875 947,858 963,841 978,825 994,808 1008,791 1022,775 1036,759 1049,742 1062,726 1073,710 1085,695 1097,679 1107,664 1117,649 1126,635 1127,633 1128,631 1129,629 1131,627 1133,626 1135,624 1136,623 1138,622 1140,620 1142,620 1144,618 1146,617 1149,616 1154,614 1158,614 1162,613 1164,613 1167,613 1169,613 1171,614 1173,614 1175,614 1178,615 1180,616 1181,616 1183,618 1185,619 1187,620 1189,621 1191,623 1193,624 1195,625 1196,627 1198,629 1200,631 1201,632 1202,634 1203,636 1204,638 1205,640 1207,643 1208,648 1209,652 1209,656 1209,658 1209,661 1209,663 1209,665 1209,667 1208,669 1207,672 1207,674 1205,676 1205,677 1203,680 1202,682 1194,694 1186,708 1177,721 1168,733 1158,748 1148,761 1138,775 1127,789 1239,901 1251,887 1262,874 1273,860 1284,847 1294,833 1304,820 1315,807 1324,794 1334,781 1343,768 1352,755 1361,743 1369,730 1377,718 1385,706 1392,694 1394,692 1396,690 1397,688 1398,687 1400,685 1401,684 1403,682 1405,681 1407,679 1409,679 1410,677 1412,677 1416,675 1421,674 1425,673 1429,672 1431,672 1434,672 1436,673 1437,673 1440,673 1442,674 1444,674 1446,675 1448,676 1450,677 1452,678 1455,679 1457,680 1458,682 1460,683 1462,685 1463,686 1464,688 1466,690 1468,692 1469,693 1470,695 1471,697 1472,699 1473,703 1475,707 1475,712 1476,715 1476,718 1476,720 1475,722 1475,724 1475,726 1475,728 1474,731 1474,733 1472,735 1472,737 1470,739 1469,741 1463,751 1457,760 1451,770 1445,780 1438,789 1431,800 1424,809 1417,820 1410,830 1402,840 1395,850 1387,861 1379,871 1371,881 1363,892 1355,902 1988,1536 1995,1544 2003,1553 2010,1562 2017,1571 2022,1581 2027,1590 2032,1600 2036,1610 2040,1620 2043,1629 2045,1640 2047,1650 2049,1660 2050,1670 2051,1680 2051,1689 2051,1700 2050,1709 2050,1718 2048,1728 2046,1736 2044,1745 2042,1754 2039,1762 2037,1770 2033,1777 2030,1785 2026,1791 2022,1798 2017,1804 2013,1809 2008,1815 2001,1822 2078,1899 2082,1903 2084,1907 2087,1910 2089,1914 2091,1917 2093,1921 2095,1925 2097,1928 2098,1932 2100,1936 2101,1941 2102,1944 2102,1948 2103,1953 2103,1957 2103,1961 2103,1965 2103,1969 2102,1973 2102,1977 2101,1981 2100,1986 2098,1989 2097,1993 2095,1997 2093,2001 2091,2005 2089,2008 2087,2012 2084,2015 2082,2018 2078,2022 2077,2022 2296,2241 2298,2242 2299,2244 2300,2246 2301,2249 2301,2251 2302,2252 2302,2254 2302,2257 2302,2259 2302,2261 2301,2263 2301,2265 2300,2267 2299,2269 2298,2271 2296,2272 2294,2274 2293,2276 2291,2277 2289,2278 2287,2278 2284,2279 2282,2279 2280,2279 2278,2279 2276,2279 2274,2278 2271,2278 2269,2277 2267,2276 2266,2274 2264,2272 2046,2055 2045,2055 2042,2058 2039,2061 2035,2063 2032,2066 2028,2068 2024,2071 2021,2072 2017,2074 2013,2075 2008,2076 2004,2078 2001,2079 1997,2079 1992,2080 1988,2080 1984,2080 1980,2080 1976,2080 1972,2079 1968,2079 1963,2078 1959,2076 1956,2075 1952,2074 1948,2072 1944,2071 1940,2068 1936,2066 1933,2063 1930,2061 1926,2058 1923,2055 1846,1977 1838,1985 1833,1990 1828,1994 1821,1999 1815,2002 1808,2006 1801,2010 1793,2013 1785,2016 1777,2018 1768,2021 1759,2023 1750,2025 1742,2026 1732,2027 1722,2027 1713,2027 1703,2027 1693,2027 1683,2026 1673,2024 1663,2022 1653,2019 1643,2017 1633,2013 1623,2009 1614,2004 1604,1999 1594,1993 1585,1987 1576,1980 1567,1972 1559,1964 1553,1958 1536,1941 1509,1915 1475,1880 1433,1838 1386,1792 1335,1740 1281,1687 1227,1632 1172,1577 1119,1524 1068,1474 1023,1428 983,1388 950,1356 926,1331 915,1340 905,1348 894,1356 884,1363 874,1372 863,1379 853,1387 843,1394 833,1401 823,1408 813,1415 803,1421 793,1428 783,1434 774,1440 764,1446 762,1447 760,1448 758,1450 756,1450 754,1451 752,1451 750,1452 748,1452 745,1453 743,1453 741,1453 739,1453 734,1452 730,1451 726,1450 722,1449 720,1448 718,1446 716,1446 714,1444 713,1443 711,1442 709,1440 708,1439 707,1437 705,1435 703,1433 703,1431 701,1430 700,1428 699,1425 698,1423 698,1421 697,1419 696,1417 696,1415 696,1412 696,1410 696,1408 696,1406 696,1401 697,1397 698,1393 699,1389 701,1387 702,1385 703,1383 704,1381 705,1380 707,1378 709,1377 710,1375 712,1374 713,1372 715,1370 718,1370 729,1362 741,1354 754,1346 766,1338 779,1329 791,1320 804,1311 817,1301 831,1291 844,1282 857,1271 870,1261 883,1250 897,1239 910,1228 924,1216 812,1104 798,1115 784,1125 771,1135 757,1145 744,1154 730,1163 718,1171 705,1179 703,1180 701,1181 699,1182 697,1183 694,1184 692,1185 691,1185 688,1185 686,1185 684,1186 682,1186 680,1186 675,1185 671,1185 667,1183 663,1182 661,1181 659,1179 657,1179 655,1177 653,1176 652,1175 650,1173 649,1172 647,1170 646,1168 644,1167 643,1165 642,1162 641,1160 640,1158 639,1156 638,1154 638,1152 638,1150 637,1147 637,1145 637,1143 637,1141 637,1139 637,1134 638,1131 639,1126 640,1122 642,1120 642,1118 644,1116 645,1115 646,1113 648,1111 649,1109 651,1108 653,1107 654,1105 656,1103 658,1102 "/>
   <g>
    <rect class="fil0" transform="matrix(0.707107 -0.707107 0.707107 0.707107 1309.59 1644.03)" width="207.948" height="63.0333"/>
    <rect class="fil0" transform="matrix(0.707107 -0.707107 0.707107 0.707107 1142.5 1476.94)" width="207.948" height="63.0333"/>
    <rect class="fil0" transform="matrix(0.707107 -0.707107 0.707107 0.707107 1476.67 1811.12)" width="207.948" height="63.0333"/>
   </g>
  </g>
 </g>
</svg>
