<?xml version="1.0" encoding="UTF-8"?>
<!DOCTYPE svg PUBLIC "-//W3C//DTD SVG 1.1//EN" "http://www.w3.org/Graphics/SVG/1.1/DTD/svg11.dtd">
<!-- Creator: CorelDRAW X7 -->
<svg xmlns="http://www.w3.org/2000/svg" xml:space="preserve" width="32px" height="32px" version="1.1" style="shape-rendering:geometricPrecision; text-rendering:geometricPrecision; image-rendering:optimizeQuality; fill-rule:evenodd; clip-rule:evenodd"
viewBox="0 0 6828 6828"
 xmlns:xlink="http://www.w3.org/1999/xlink">
 <defs>
  <style type="text/css">
   <![CDATA[
    .fil0 {fill:white}
    .fil1 {fill:#A4C242;fill-rule:nonzero}
   ]]>
  </style>
 </defs>
 <g id="Plan_x0020_1">
  <metadata id="CorelCorpID_0Corel-Layer"/>
  <g id="_464155000">
   <circle class="fil0" cx="3414" cy="3414" r="3321"/>
   <path class="fil1" d="M6642 3414c0,-891 -362,-1698 -946,-2282 -584,-584 -1390,-945 -2282,-945 -891,0 -1698,361 -2282,945 -584,584 -945,1391 -945,2282 0,892 361,1698 945,2282 584,584 1391,946 2282,946 892,0 1698,-362 2282,-946 584,-584 946,-1390 946,-2282zm-814 -2414c618,618 1000,1471 1000,2414 0,942 -382,1796 -1000,2414 -617,618 -1471,1000 -2414,1000 -942,0 -1796,-382 -2414,-1000 -617,-617 -1000,-1472 -1000,-2414 0,-942 382,-1796 1000,-2414 618,-617 1472,-1000 2414,-1000 942,0 1796,382 2414,1000z"/>
   <path class="fil1" d="M3055 4035l0 -140c0,-161 29,-296 88,-402 58,-107 161,-218 307,-333 174,-137 287,-244 338,-320 50,-76 75,-167 75,-272 0,-123 -41,-217 -123,-283 -82,-66 -200,-99 -353,-99 -139,0 -268,19 -387,59 -118,40 -234,87 -347,143l-184 -387c297,-165 615,-247 955,-247 287,0 515,70 683,210 168,141 253,335 253,582 0,110 -16,208 -49,294 -32,85 -81,167 -146,244 -64,78 -177,179 -337,303 -136,107 -227,196 -274,266 -45,70 -68,165 -68,283l0 99 -431 0zm-90 701c0,-221 107,-332 323,-332 105,0 186,29 242,87 55,58 83,139 83,245 0,104 -29,186 -85,247 -56,61 -136,91 -240,91 -104,0 -184,-30 -240,-89 -55,-59 -83,-142 -83,-249z"/>
  </g>
 </g>
</svg>
