<?xml version="1.0" encoding="UTF-8"?>
<!DOCTYPE svg PUBLIC "-//W3C//DTD SVG 1.1//EN" "http://www.w3.org/Graphics/SVG/1.1/DTD/svg11.dtd">
<!-- Creator: CorelDRAW X7 -->
<svg xmlns="http://www.w3.org/2000/svg" xml:space="preserve" width="34px" height="34px" version="1.1" style="shape-rendering:geometricPrecision; text-rendering:geometricPrecision; image-rendering:optimizeQuality; fill-rule:evenodd; clip-rule:evenodd"
viewBox="0 0 2460 2460"
 xmlns:xlink="http://www.w3.org/1999/xlink">
 <defs>
  <style type="text/css">
   <![CDATA[
    .fil0 {fill:#006A77}
    .fil1 {fill:white}
   ]]>
  </style>
 </defs>
 <g id="Plan_x0020_1">
  <metadata id="CorelCorpID_0Corel-Layer"/>
  <g id="_520987984">
   <path class="fil0" d="M1229 0c-678,0 -1229,551 -1229,1229 0,680 551,1231 1229,1231 680,0 1231,-551 1231,-1231 0,-678 -551,-1229 -1231,-1229z"/>
   <path class="fil1" d="M1252 1564c-51,-41 -96,-61 -140,-61 -37,1 -68,14 -99,36 17,-48 37,-94 57,-126 11,-18 12,-44 3,-64 -9,-20 -27,-30 -44,-24 -111,38 -209,115 -286,209 33,-114 77,-223 135,-320 10,-18 12,-44 3,-63 -9,-20 -25,-30 -42,-26 -167,47 -309,249 -371,418 -10,26 -2,59 18,73 20,13 45,2 55,-26 33,-97 109,-217 196,-291 -73,169 -115,355 -144,526 -5,29 7,58 28,65 4,2 8,3 12,3 16,0 32,-15 38,-37 31,-128 136,-286 273,-374 -23,64 -42,130 -52,189 -4,23 4,46 19,58 13,13 33,11 46,-3 70,-76 113,-114 155,-114 25,0 55,12 99,46 19,16 44,7 55,-19 12,-26 5,-60 -15,-75l1 0z"/>
   <path class="fil1" d="M1973 571c-67,-38 -266,182 -398,403 -7,13 -3,27 8,34l207 119c12,7 26,3 33,-9 126,-226 217,-508 150,-547z"/>
   <path class="fil1" d="M1334 1610c-29,65 -42,113 -30,120 13,6 47,-28 89,-86 78,-36 176,-133 350,-434l-208 -119c-173,301 -208,434 -201,519l0 0z"/>
  </g>
 </g>
</svg>
