<?xml version="1.0" encoding="UTF-8"?>
<!DOCTYPE svg PUBLIC "-//W3C//DTD SVG 1.1//EN" "http://www.w3.org/Graphics/SVG/1.1/DTD/svg11.dtd">
<!-- Creator: CorelDRAW X7 -->
<svg xmlns="http://www.w3.org/2000/svg" xml:space="preserve" width="34px" height="34px" version="1.1" style="shape-rendering:geometricPrecision; text-rendering:geometricPrecision; image-rendering:optimizeQuality; fill-rule:evenodd; clip-rule:evenodd"
viewBox="0 0 3077 3077"
 xmlns:xlink="http://www.w3.org/1999/xlink">
 <defs>
  <style type="text/css">
   <![CDATA[
    .fil0 {fill:#01B9F5}
    .fil1 {fill:white}
   ]]>
  </style>
 </defs>
 <g id="Plan_x0020_1">
  <metadata id="CorelCorpID_0Corel-Layer"/>
  <g id="_567986240">
   <path class="fil0" d="M1539 0c-850,0 -1539,689 -1539,1539 0,849 689,1538 1539,1538 849,0 1538,-689 1538,-1538 0,-850 -689,-1539 -1538,-1539z"/>
   <path class="fil1" d="M1072 2211l189 0 0 -674 -189 190 0 484 0 0zm-261 -223l0 223 189 0 0 -413 -131 131 -58 59zm522 223l189 0 0 -521 -189 -190 0 711 0 0zm261 -499l0 499 189 0 0 -689 -148 149 -41 41 0 0zm261 499l189 0 0 -950 -189 190 0 760zm-76 -1336l126 126 1 1 -337 337 -254 -254 -645 646 134 134 511 -512 254 254 471 -471 125 125 41 -427 -427 41 0 0z"/>
  </g>
 </g>
</svg>
