<?xml version="1.0" encoding="UTF-8"?>
<!DOCTYPE svg PUBLIC "-//W3C//DTD SVG 1.1//EN" "http://www.w3.org/Graphics/SVG/1.1/DTD/svg11.dtd">
<!-- Creator: CorelDRAW X7 -->
<svg xmlns="http://www.w3.org/2000/svg" xml:space="preserve" width="34px" height="34px" version="1.1" style="shape-rendering:geometricPrecision; text-rendering:geometricPrecision; image-rendering:optimizeQuality; fill-rule:evenodd; clip-rule:evenodd"
viewBox="0 0 3077 3077"
 xmlns:xlink="http://www.w3.org/1999/xlink">
 <defs>
  <style type="text/css">
   <![CDATA[
    .fil0 {fill:#01B9F5}
    .fil1 {fill:white}
   ]]>
  </style>
 </defs>
 <g id="Plan_x0020_1">
  <metadata id="CorelCorpID_0Corel-Layer"/>
  <path class="fil0" d="M1539 0c-850,0 -1539,689 -1539,1539 0,849 689,1538 1539,1538 849,0 1538,-689 1538,-1538 0,-850 -689,-1539 -1538,-1539z"/>
  <g id="_521002960">
   <path class="fil1" d="M1648 1438l171 -253c5,-8 7,-18 5,-27 -3,-10 -9,-18 -17,-23l-628 -353 151 -81 666 381c5,3 11,4 17,4 0,0 1,0 1,0l267 -5 -633 357z"/>
   <polygon class="fil1" points="1553,599 2317,1030 2048,1035 1284,605 "/>
   <rect class="fil1" transform="matrix(0.974027 0.57735 -0 1 721.716 1102.3)" width="802" height="914"/>
   <polygon class="fil1" points="949,710 1765,1170 1543,1493 738,1028 "/>
   <rect class="fil1" transform="matrix(-0.988158 0.57735 -0 1 2355.55 1102.3)" width="802" height="914"/>
   <path class="fil0" d="M2124 1541l-95 -66c-8,-5 -18,-7 -28,-5 -10,2 -18,8 -23,17l-98 175c-9,16 -3,38 13,47 6,3 12,5 18,5 12,0 24,-7 30,-18l33 -59 0 435c0,20 16,35 35,35 19,0 35,-15 35,-35l0 -501 40 28c16,11 38,7 49,-9 11,-16 7,-38 -9,-49z"/>
  </g>
 </g>
</svg>
