<?xml version="1.0" encoding="UTF-8"?>
<!DOCTYPE svg PUBLIC "-//W3C//DTD SVG 1.1//EN" "http://www.w3.org/Graphics/SVG/1.1/DTD/svg11.dtd">
<!-- Creator: CorelDRAW X7 -->
<svg xmlns="http://www.w3.org/2000/svg" xml:space="preserve" width="34px" height="34px" version="1.1" style="shape-rendering:geometricPrecision; text-rendering:geometricPrecision; image-rendering:optimizeQuality; fill-rule:evenodd; clip-rule:evenodd"
viewBox="0 0 1823 1823"
 xmlns:xlink="http://www.w3.org/1999/xlink">
 <defs>
  <style type="text/css">
   <![CDATA[
    .fil1 {fill:#0087CF}
    .fil0 {fill:#EDEDED}
   ]]>
  </style>
 </defs>
 <g id="Plan_x0020_1">
  <metadata id="CorelCorpID_0Corel-Layer"/>
  <circle class="fil0" cx="912" cy="912" r="912"/>
  <g id="_606946304">
   <path id="User_2_copie_1_" class="fil1" d="M962 454c117,0 125,154 125,154l0 145c0,0 1,111 -73,152 -2,10 -3,20 -1,30 4,-2 -21,146 106,165 92,15 178,57 247,120 23,23 40,186 40,186l-988 0c0,0 -2,-132 40,-186 73,-62 162,-104 257,-120 128,-19 85,-160 89,-158 2,-10 1,-21 -1,-31 0,0 -69,-89 -68,-169 1,-81 0,-134 0,-134 0,0 -4,-190 126,-190l101 36z"/>
  </g>
 </g>
</svg>
