<?xml version="1.0" encoding="UTF-8"?>
<!DOCTYPE svg PUBLIC "-//W3C//DTD SVG 1.1//EN" "http://www.w3.org/Graphics/SVG/1.1/DTD/svg11.dtd">
<!-- Creator: CorelDRAW X7 -->
<svg xmlns="http://www.w3.org/2000/svg" xml:space="preserve" width="34px" height="34px" version="1.1" style="shape-rendering:geometricPrecision; text-rendering:geometricPrecision; image-rendering:optimizeQuality; fill-rule:evenodd; clip-rule:evenodd"
viewBox="0 0 3077 3077"
 xmlns:xlink="http://www.w3.org/1999/xlink">
 <defs>
  <style type="text/css">
   <![CDATA[
    .fil0 {fill:#1CB0BA}
    .fil1 {fill:white}
   ]]>
  </style>
 </defs>
 <g id="Plan_x0020_1">
  <metadata id="CorelCorpID_0Corel-Layer"/>
  <path class="fil0" d="M1538 0c-850,0 -1538,689 -1538,1538 0,850 688,1539 1538,1539 850,0 1539,-689 1539,-1539 0,-849 -689,-1538 -1539,-1538z"/>
  <g id="_520989112">
   <path class="fil1" d="M1855 1052l0 -123 -1159 0 0 817 -50 0 0 98 138 0 61 96 18 0c13,117 113,209 234,209 122,0 221,-92 236,-209l633 0c13,117 114,209 234,209 122,0 222,-92 235,-209l66 0 0 -75 -7 0 0 -307 -187 -120 -143 -315c-18,-39 -66,-71 -109,-71l-200 0 0 0z"/>
   <path class="fil0" d="M2200 2032c-66,0 -120,-54 -120,-120 0,-67 54,-121 120,-121 67,0 121,54 121,121 0,66 -54,120 -121,120z"/>
   <path class="fil0" d="M1855 1399l0 -270 200 0c12,0 34,14 39,25l110 245 -349 0z"/>
   <path class="fil0" d="M1097 2032c-66,0 -120,-54 -120,-120 0,-67 54,-121 120,-121 67,0 121,54 121,121 0,66 -54,120 -121,120z"/>
   <polygon class="fil0" points="1523,1426 1371,1426 1371,1578 1194,1578 1194,1426 1042,1426 1042,1249 1194,1249 1194,1097 1371,1097 1371,1249 1523,1249 "/>
   <path class="fil1" d="M2049 1013l0 -17c0,-35 -29,-64 -64,-64 -35,0 -64,29 -64,64l0 17 128 0z"/>
  </g>
 </g>
</svg>
