<?xml version="1.0" encoding="UTF-8"?>
<!DOCTYPE svg PUBLIC "-//W3C//DTD SVG 1.1//EN" "http://www.w3.org/Graphics/SVG/1.1/DTD/svg11.dtd">
<!-- Creator: CorelDRAW X7 -->
<svg xmlns="http://www.w3.org/2000/svg" xml:space="preserve" width="26px" height="30px" version="1.1" style="shape-rendering:geometricPrecision; text-rendering:geometricPrecision; image-rendering:optimizeQuality; fill-rule:evenodd; clip-rule:evenodd"
viewBox="0 0 1381 1576"
 xmlns:xlink="http://www.w3.org/1999/xlink">
 <defs>
  <style type="text/css">
   <![CDATA[
    .fil0 {fill:#01B9F5}
    .fil1 {fill:white}
   ]]>
  </style>
 </defs>
 <g id="Plan_x0020_1">
  <metadata id="CorelCorpID_0Corel-Layer"/>
  <g id="_699288600">
   <rect class="fil0" width="1381" height="1576"/>
   <g>
    <path class="fil1" d="M372 828l0 330c0,9 6,15 15,15l354 0 0 -299 167 0 0 299 99 0c8,0 15,-6 15,-15l0 -330 -325 -324 -325 324zm264 186l-150 0 0 -140 150 0 0 140z"/>
    <path class="fil1" d="M1088 709l-391 -391 -185 185 0 -82c0,-19 -15,-34 -34,-34 -19,0 -34,15 -34,34l0 150 -138 138c-17,17 -17,44 0,61 8,8 19,12 30,12 11,0 22,-4 30,-12l331 -330 330 330c17,17 44,17 61,0 16,-17 16,-44 0,-61z"/>
   </g>
  </g>
 </g>
</svg>
