<?xml version="1.0" encoding="UTF-8"?>
<!DOCTYPE svg PUBLIC "-//W3C//DTD SVG 1.1//EN" "http://www.w3.org/Graphics/SVG/1.1/DTD/svg11.dtd">
<!-- Creator: CorelDRAW X7 -->
<svg xmlns="http://www.w3.org/2000/svg" xml:space="preserve" width="34px" height="34px" version="1.1" style="shape-rendering:geometricPrecision; text-rendering:geometricPrecision; image-rendering:optimizeQuality; fill-rule:evenodd; clip-rule:evenodd"
viewBox="0 0 3077 3077"
 xmlns:xlink="http://www.w3.org/1999/xlink">
 <defs>
  <style type="text/css">
   <![CDATA[
    .fil0 {fill:#1CB0BA}
    .fil1 {fill:#FEFEFE;fill-rule:nonzero}
   ]]>
  </style>
 </defs>
 <g id="Plan_x0020_1">
  <metadata id="CorelCorpID_0Corel-Layer"/>
  <g id="_569169728">
   <path class="fil0" d="M1539 0c-850,0 -1539,688 -1539,1539 0,850 689,1538 1539,1538 850,0 1538,-688 1538,-1538 0,-851 -688,-1539 -1538,-1539z"/>
   <path class="fil1" d="M2321 1534l-355 -151c-28,-11 -60,-7 -84,9l-196 133 -113 -269c0,0 0,0 0,-1 71,-28 162,-70 247,-150 102,-97 154,-189 156,-193 19,-33 8,-75 -25,-92 -33,-20 -74,-8 -93,25 -1,0 -46,78 -134,160 -73,72 -156,105 -224,131 0,0 -189,74 -266,102 -165,61 -215,49 -225,46 -23,-16 -79,-109 -119,-200 -16,-34 -56,-49 -91,-34 -34,15 -49,56 -34,90 1,3 25,55 57,112 64,115 103,143 130,156 23,10 51,16 84,16 62,0 142,-19 246,-57 0,0 0,0 1,0 35,85 132,306 172,399 0,2 1,3 1,4 10,15 27,27 47,35 31,10 62,7 85,-7 27,-16 354,-231 354,-231l309 131c46,19 98,-2 117,-47 19,-46 -2,-98 -47,-118l0 1z"/>
   <path class="fil1" d="M1350 1129c93,-13 159,-98 147,-191 -13,-93 -98,-159 -191,-146 -93,11 -159,98 -147,190 13,93 98,158 191,147z"/>
   <path class="fil1" d="M1982 1880c-11,-21 -27,-38 -49,-47l-163 -69c-61,39 -123,79 -146,93 -14,9 -31,15 -48,19l255 108 125 288c14,34 47,54 81,54 13,0 25,-2 36,-7 46,-21 66,-73 47,-117l-139 -322 1 0z"/>
   <path class="fil1" d="M1189 1967c0,0 0,0 0,0 -3,-8 -11,-15 -21,-15 0,0 0,0 0,0 0,0 0,0 0,0l-177 0c0,0 0,0 0,0 -11,0 -21,9 -21,22 0,1 1,2 1,4 0,0 0,0 0,0 0,0 0,0 0,0 57,249 302,380 724,336 -258,-39 -440,-142 -506,-347l0 0z"/>
  </g>
 </g>
</svg>
