<?xml version="1.0" encoding="UTF-8"?>
<!DOCTYPE svg PUBLIC "-//W3C//DTD SVG 1.1//EN" "http://www.w3.org/Graphics/SVG/1.1/DTD/svg11.dtd">
<!-- Creator: CorelDRAW X7 -->
<svg xmlns="http://www.w3.org/2000/svg" xml:space="preserve" width="70px" height="70px" version="1.1" style="shape-rendering:geometricPrecision; text-rendering:geometricPrecision; image-rendering:optimizeQuality; fill-rule:evenodd; clip-rule:evenodd"
viewBox="0 0 3234 3234"
 xmlns:xlink="http://www.w3.org/1999/xlink">
 <defs>
  <style type="text/css">
   <![CDATA[
    .fil0 {fill:#0087CF}
    .fil1 {fill:white}
   ]]>
  </style>
 </defs>
 <g id="Plan_x0020_1">
  <metadata id="CorelCorpID_0Corel-Layer"/>
  <circle class="fil0" cx="1617" cy="1617" r="1617"/>
  <path class="fil1" d="M1299 2391c111,0 223,-45 309,-132l738 -756 -74 -77 -739 756c-127,130 -329,134 -451,10 -122,-125 -118,-332 9,-462l702 -719c78,-80 206,-80 285,0 79,81 79,212 0,293l-714 731c-32,33 -89,33 -122,0 -16,-17 -25,-39 -25,-63 0,-24 9,-46 25,-63l640 -655 -75 -76 -640 655c-36,37 -56,87 -56,139 0,53 20,102 56,139 37,37 85,58 136,58 51,0 100,-21 136,-58l726 -744 -1 -1c107,-123 104,-313 -11,-431 -116,-118 -301,-121 -421,-11l-2 -2 -12 13 -702 718c-168,172 -172,448 -9,615 80,82 186,123 292,123l0 0z"/>
 </g>
</svg>
