<?xml version="1.0" encoding="UTF-8"?>
<!DOCTYPE svg PUBLIC "-//W3C//DTD SVG 1.1//EN" "http://www.w3.org/Graphics/SVG/1.1/DTD/svg11.dtd">
<!-- Creator: CorelDRAW X7 -->
<svg xmlns="http://www.w3.org/2000/svg" xml:space="preserve" width="119944px" height="119944px" version="1.1" style="shape-rendering:geometricPrecision; text-rendering:geometricPrecision; image-rendering:optimizeQuality; fill-rule:evenodd; clip-rule:evenodd"
viewBox="0 0 5541519 5541519"
 xmlns:xlink="http://www.w3.org/1999/xlink">
 <defs>
  <style type="text/css">
   <![CDATA[
    .fil0 {fill:#0087CF}
    .fil1 {fill:#FEFEFE}
   ]]>
  </style>
 </defs>
 <g id="Plan_x0020_1">
  <metadata id="CorelCorpID_0Corel-Layer"/>
  <ellipse class="fil0" cx="2770696" cy="2770785" rx="2770784" ry="2770776"/>
  <path class="fil1" d="M3553656 1908386l-784018 0 -781962 0c-40299,0 -76391,8228 -106499,39084 -34409,35063 -38243,74148 -38243,119309l0 123704 0 41048 40113 0 886497 0 888648 0 40112 0 0 -41048 0 -123704c0,-45161 -4020,-84339 -38242,-119309 -30108,-30762 -68351,-39084 -106500,-39084l94 0z"/>
  <path class="fil1" d="M2560566 1537836l209072 0 211128 0c28051,0 56289,8228 78355,30855 24217,24779 30108,53671 30108,84527l0 187285 -40113 0 -98458 0 -40112 0 0 -104910 0 -33006c0,-8228 -2151,-12342 -6171,-18513 -6078,-6265 -12062,-6265 -18046,-6265l-116691 0 -114448 0c-6077,0 -12061,0 -18233,6265 -5984,6171 -5984,10285 -5984,18513l0 33006 0 104910 -40206 0 -98458 0 -40206 0 0 -187285c0,-30856 6171,-59748 30108,-84527 22160,-22627 50304,-30855 78542,-30855l-187 0 0 0z"/>
  <path class="fil1" d="M1951397 2299507l0 1545877c0,43104 8135,84339 40206,117158 32165,35064 72371,41235 114541,41235l665457 0 663400 0c42263,0 82376,-6265 114634,-41235 32072,-32819 40113,-74054 40113,-117158l0 -1545877 -1638538 0 187 0 0 0zm275459 170829l120524 0 0 1286407c0,20664 -24123,37121 -50211,37121l-20196 0c-28051,0 -50304,-16457 -50304,-37121l0 -1286407 187 0 0 0zm484436 0l118655 0 0 1286407c0,20664 -22160,37121 -50305,37121l-18046 0c-28237,0 -50304,-16457 -50304,-37121l0 -1286407 0 0zm482566 0l120525 0 0 1286407c0,20664 -22067,37121 -50304,37121l-20103 0c-26088,0 -50305,-16457 -50305,-37121l0 -1286407 94 0 93 0z"/>
 </g>
</svg>
