<?xml version="1.0" encoding="UTF-8"?>
<!DOCTYPE svg PUBLIC "-//W3C//DTD SVG 1.1//EN" "http://www.w3.org/Graphics/SVG/1.1/DTD/svg11.dtd">
<!-- Creator: CorelDRAW X7 -->
<svg xmlns="http://www.w3.org/2000/svg" xml:space="preserve" width="34px" height="34px" version="1.1" style="shape-rendering:geometricPrecision; text-rendering:geometricPrecision; image-rendering:optimizeQuality; fill-rule:evenodd; clip-rule:evenodd"
viewBox="0 0 3077 3077"
 xmlns:xlink="http://www.w3.org/1999/xlink"
 enable-background="new 0 0 595.281 841.891">
 <defs>
  <style type="text/css">
   <![CDATA[
    .fil0 {fill:#1CB0BA}
    .fil1 {fill:white}
   ]]>
  </style>
 </defs>
 <g id="Plan_x0020_1">
  <metadata id="CorelCorpID_0Corel-Layer"/>
  <path class="fil0" d="M1539 0c-850,0 -1539,689 -1539,1539 0,849 689,1538 1539,1538 849,0 1538,-689 1538,-1538 0,-850 -689,-1539 -1538,-1539z"/>
  <g id="_601374352">
   <g>
    <path class="fil1" d="M1577 687c0,0 -105,-119 -200,-90 -81,28 -110,86 -148,185 -23,77 -28,158 -85,162 -53,5 -91,-19 -91,-19 0,0 95,96 157,100 72,0 129,-9 186,-133 48,-110 76,-114 109,-129 34,-9 72,-61 72,-76z"/>
    <path class="fil1" d="M1348 2092c0,0 -57,-143 -109,-200 -57,-57 -143,-138 -105,-214 38,-77 124,-200 124,-200 0,0 47,133 71,223 19,86 57,200 53,257 -10,53 -10,143 -34,134z"/>
    <g>
     <path class="fil1" d="M1258 2497c0,0 -43,-67 -33,-110 4,-43 19,-76 19,-76 0,0 -19,-67 0,-95 19,-34 38,-91 -10,-134 -48,-43 -138,-133 -181,-176 -43,-43 -100,-119 -86,-171 19,-53 86,-200 129,-291 48,-95 86,-247 133,-314 43,-71 86,-109 143,-152 57,-43 138,-96 162,-143 24,-48 19,-119 67,-162 47,-43 152,-114 266,-86 86,24 138,138 153,200 14,62 9,86 -15,110 -23,28 -23,38 -42,71 -20,33 -29,19 -53,24 -24,5 -24,19 -33,62 -10,43 -29,28 -48,14 -19,-14 -14,5 -28,29 -15,19 -38,19 -58,24 -19,4 -42,33 -57,19 -19,-15 -57,-86 -57,-86 0,0 -81,52 -66,105 14,52 90,147 142,185 67,53 124,57 119,148 -4,57 -95,86 -81,124 10,33 148,81 215,123 100,62 166,181 152,296 -14,114 -76,176 -133,238 -57,66 -186,109 -200,157 -10,47 -10,67 -10,67l-509 0z"/>
    </g>
   </g>
  </g>
 </g>
</svg>
