<?xml version="1.0" encoding="UTF-8"?>
<!DOCTYPE svg PUBLIC "-//W3C//DTD SVG 1.1//EN" "http://www.w3.org/Graphics/SVG/1.1/DTD/svg11.dtd">
<!-- Creator: CorelDRAW X7 -->
<svg xmlns="http://www.w3.org/2000/svg" xml:space="preserve" width="119944px" height="119944px" version="1.1" style="shape-rendering:geometricPrecision; text-rendering:geometricPrecision; image-rendering:optimizeQuality; fill-rule:evenodd; clip-rule:evenodd"
viewBox="0 0 8676592 8676592"
 xmlns:xlink="http://www.w3.org/1999/xlink">
 <defs>
  <style type="text/css">
   <![CDATA[
    .fil0 {fill:#005DA8}
    .fil1 {fill:white}
    .fil2 {fill:#005DA8;fill-rule:nonzero}
   ]]>
  </style>
 </defs>
 <g id="Plan_x0020_1">
  <metadata id="CorelCorpID_0Corel-Layer"/>
  <g id="_521015488">
   <path class="fil0" d="M4338296 0c-2396143,0 -4338296,1942153 -4338296,4338296 0,2395849 1942153,4338296 4338296,4338296 2395996,0 4338296,-1942447 4338296,-4338296 0,-2396143 -1942300,-4338296 -4338296,-4338296z"/>
   <path class="fil1" d="M2602275 4632122c139813,832582 863618,1466790 1736021,1466790 872256,0 1595915,-634208 1735874,-1466790 -336721,611956 -988205,1026270 -1735874,1026270 -748108,0 -1399153,-414314 -1736021,-1026270l0 0zm0 660122c139813,832288 863618,1466936 1736021,1466936 872256,0 1595915,-634648 1735874,-1466936 -336721,611955 -988205,1026562 -1735874,1026562 -748108,0 -1399153,-414607 -1736021,-1026562l0 0zm3496491 -1614070c0,-972394 -788222,-1760323 -1760470,-1760323 -972394,0 -1760324,787929 -1760324,1760323 0,972248 787930,1760617 1760324,1760617 972248,0 1760470,-788369 1760470,-1760617zm-1676436 -770507l0 152257c51826,9809 94575,30012 127515,60463 33087,30598 64709,77300 94721,140692l-129272 84326c-38649,-82716 -89304,-124148 -151964,-124148 -38649,0 -71004,13323 -96771,40261 -25620,26791 -38064,60317 -38064,100870 0,36746 10395,67344 30891,91647 20203,23717 61635,51826 122976,84619 53437,28402 97503,55194 132640,80082 34550,25034 60902,49483 78470,72615 49630,63098 74811,139227 74811,228678 0,87987 -22399,165725 -67198,232777 -44945,66466 -104383,111704 -178755,135128l0 160309 -115657 0 0 -155624c-86523,-16544 -152403,-51680 -197787,-104823 -45385,-53290 -78910,-135421 -100578,-246686l145376 -35575c20057,78324 44067,134542 72762,168068 30012,32208 69979,48166 119755,48166 48752,0 89305,-18447 121952,-55193 32209,-35868 48166,-82863 48166,-140252 0,-51094 -13469,-92379 -40260,-123270 -13762,-14786 -34111,-31915 -60464,-50801 -26498,-18885 -60902,-39528 -102187,-61634 -85791,-45238 -142009,-86231 -168654,-124148 -43042,-56511 -64416,-123709 -64416,-202473 0,-37332 5124,-71883 15518,-104091 9955,-31915 24595,-61049 43920,-87255 19032,-25913 42749,-48605 71151,-67783 28109,-18886 60317,-33819 96039,-44799l0 -152257 115657 0 -293 -146z"/>
   <path class="fil1" d="M6098766 3678174c0,-972394 -788222,-1760323 -1760470,-1760323 -972687,0 -1760617,787929 -1760617,1760323 0,972248 787930,1760617 1760617,1760617 972248,0 1760470,-788369 1760470,-1760617z"/>
   <path class="fil1" d="M2601982 5292244c140106,832581 864204,1466936 1736314,1466936 872256,0 1595915,-634355 1735874,-1466936 -336721,611955 -988205,1026562 -1735874,1026562 -748108,0 -1399153,-414607 -1736314,-1026562l0 0z"/>
   <path class="fil1" d="M2601982 4632122c140106,832582 864204,1466790 1736314,1466790 872256,0 1595915,-634208 1735874,-1466790 -336721,611956 -988205,1026270 -1735874,1026270 -748108,0 -1399153,-414314 -1736314,-1026270l0 0z"/>
   <path class="fil1" d="M4422330 2907667l0 152257c51826,9809 94575,30012 127515,60463 33087,30598 64709,77300 94721,140692l-128979 84326c-38942,-82716 -89597,-124148 -152257,-124148 -38649,0 -71004,13323 -96771,40261 -25620,26791 -38357,60463 -38357,100577 0,37039 10541,67637 31184,91940 20203,23717 61635,51826 122976,84473 53730,28109 97503,55193 132640,80081 34550,25181 60902,49484 78617,72762 49776,62952 74664,139227 74664,228678 0,88133 -22692,165725 -67344,232777 -44799,66759 -104384,111557 -178609,134835l0 160602 -115950 0 0 -155771c-86230,-16689 -152549,-51679 -197641,-104823 -45384,-53290 -78910,-135420 -100577,-246831l145522 -35283c19911,78617 44067,134542 72762,168361 30012,31915 69979,47873 119755,47873 48313,0 89159,-18447 121952,-54900 32062,-36161 48020,-83156 48020,-140545 0,-51094 -13469,-92379 -40260,-123270 -13762,-14786 -33965,-31915 -60464,-50801 -26498,-18885 -60463,-39674 -102188,-61634 -85644,-45238 -141862,-86231 -168653,-124148 -42750,-56511 -64124,-123709 -64124,-202473 0,-37332 4831,-71883 15226,-104091 9955,-32208 24595,-61049 43920,-86962 19325,-26206 42749,-48898 71151,-68223 28109,-18885 60317,-33672 95746,-44798l0 -152257 115949 0 -146 0z"/>
   <path class="fil2" d="M4515002 2945438c-124002,0 -227214,29720 -311102,89598 -50069,34697 -95161,84912 -135714,149328 -41138,67198 -65441,130590 -72761,190761l752061 0 -29866 149329 -740056 0c-439,15372 -1025,30158 -1025,43481 0,56803 440,90183 1025,101309l711215 0 -30597 149182 -657047 0c30451,168215 104823,287385 222383,357951 84619,51093 175681,76274 274648,76274 137616,0 244635,-36161 321642,-108629l0 227800c-91793,42456 -193249,63830 -304367,63830 -332769,0 -557348,-138495 -674176,-414753 -23717,-55632 -44067,-123270 -60756,-202473l-167922 0 30598 -149182 115071 0c-2050,-30744 -3221,-64416 -3221,-99992 0,-14640 293,-29426 1171,-44945l-143619 0 30598 -149182 127222 0c45823,-239512 164701,-411679 356632,-516063 118146,-64270 248882,-96771 391915,-96771 136592,0 251663,29719 344921,89597l-44067 204669c-89451,-73786 -191346,-111119 -304806,-111119l0 0z"/>
  </g>
 </g>
</svg>
