<?xml version="1.0" encoding="UTF-8"?>
<!DOCTYPE svg PUBLIC "-//W3C//DTD SVG 1.1//EN" "http://www.w3.org/Graphics/SVG/1.1/DTD/svg11.dtd">
<!-- Creator: CorelDRAW X7 -->
<svg xmlns="http://www.w3.org/2000/svg" xml:space="preserve" width="140px" height="45px" version="1.1" style="shape-rendering:geometricPrecision; text-rendering:geometricPrecision; image-rendering:optimizeQuality; fill-rule:evenodd; clip-rule:evenodd"
viewBox="0 0 125225 40320"
 xmlns:xlink="http://www.w3.org/1999/xlink">
 <defs>
  <style type="text/css">
   <![CDATA[
    .fil1 {fill:#01B9F5}
    .fil0 {fill:#EDEDED}
    .fil2 {fill:white;fill-rule:nonzero}
   ]]>
  </style>
 </defs>
 <g id="Plan_x0020_1">
  <metadata id="CorelCorpID_0Corel-Layer"/>
  <path class="fil0" d="M20160 0l84905 0c11089,0 20160,9070 20160,20159l0 0c0,11091 -9071,20161 -20160,20161l-84905 0c-11089,0 -20160,-9070 -20160,-20161l0 0c0,-11089 9071,-20159 20160,-20159z"/>
  <path class="fil1" d="M20472 4214l84281 0c8771,0 15946,7175 15946,15945l0 0c0,8772 -7175,15947 -15946,15947l-84281 0c-8771,0 -15946,-7175 -15946,-15947l0 0c0,-8770 7175,-15945 15946,-15945z"/>
  <path class="fil2" d="M24556 21956c0,784 -277,1400 -835,1847 -557,447 -1325,669 -2306,669 -981,0 -1780,-154 -2405,-465l0 -1367c397,189 815,337 1259,446 445,109 857,163 1241,163 563,0 975,-109 1243,-326 265,-216 400,-507 400,-871 0,-329 -124,-609 -368,-838 -246,-231 -751,-500 -1517,-816 -790,-325 -1347,-697 -1672,-1116 -324,-418 -485,-921 -485,-1507 0,-738 256,-1317 770,-1739 513,-422 1203,-634 2069,-634 828,0 1654,185 2476,554l-451 1176c-769,-330 -1457,-494 -2062,-494 -460,0 -807,101 -1043,305 -237,203 -356,471 -356,806 0,230 48,425 142,590 97,163 252,315 468,461 218,144 610,336 1176,573 634,270 1100,520 1396,753 298,235 514,499 653,792 137,294 207,640 207,1038z"/>
  <polygon id="1" class="fil2" points="31128,24349 26229,24349 26229,15526 31128,15526 31128,16749 27646,16749 27646,19146 30908,19146 30908,20357 27646,20357 27646,23125 31128,23125 "/>
  <path id="2" class="fil2" d="M39838 16638c-812,0 -1453,294 -1918,882 -467,586 -700,1396 -700,2429 0,1082 225,1899 673,2456 447,553 1096,831 1945,831 369,0 724,-37 1068,-111 344,-74 701,-171 1071,-286l0 1240c-678,261 -1449,393 -2309,393 -1269,0 -2241,-391 -2921,-1174 -679,-782 -1019,-1901 -1019,-3359 0,-917 164,-1720 493,-2408 330,-688 807,-1215 1432,-1580 625,-366 1357,-549 2197,-549 887,0 1705,189 2455,566l-510 1201c-293,-142 -602,-265 -928,-371 -325,-107 -669,-160 -1029,-160z"/>
  <path id="3" class="fil2" d="M51288 19927c0,1437 -355,2554 -1058,3351 -705,797 -1705,1194 -2994,1194 -1306,0 -2311,-395 -3013,-1186 -698,-791 -1051,-1913 -1051,-3369 0,-1459 354,-2577 1057,-3357 706,-781 1710,-1171 3019,-1171 1285,0 2283,396 2984,1189 704,792 1056,1909 1056,3349zm-6610 -2c0,1085 214,1909 646,2469 429,562 1066,842 1912,842 840,0 1475,-278 1905,-831 426,-557 640,-1382 640,-2480 0,-1081 -212,-1902 -637,-2461 -422,-558 -1055,-839 -1896,-839 -849,0 -1491,281 -1922,839 -432,559 -648,1380 -648,2461z"/>
  <path id="4" class="fil2" d="M60363 24349l-1738 0 -4256 -7031 -49 0 32 393c54,747 81,1431 81,2051l0 4587 -1285 0 0 -8823 1719 0 4246 6994 34 0c-9,-93 -24,-429 -47,-1012 -24,-581 -36,-1034 -36,-1359l0 -4623 1299 0 0 8823z"/>
  <path id="5" class="fil2" d="M69863 24349l-1737 0 -4256 -7031 -49 0 31 393c54,747 82,1431 82,2051l0 4587 -1285 0 0 -8823 1718 0 4246 6994 35 0c-9,-93 -24,-429 -47,-1012 -24,-581 -37,-1034 -37,-1359l0 -4623 1299 0 0 8823z"/>
  <polygon id="6" class="fil2" points="77048,24349 72150,24349 72150,15526 77048,15526 77048,16749 73567,16749 73567,19146 76828,19146 76828,20357 73567,20357 73567,23125 77048,23125 "/>
  <path id="7" class="fil2" d="M82606 16638c-812,0 -1454,294 -1917,882 -468,586 -701,1396 -701,2429 0,1082 225,1899 673,2456 447,553 1097,831 1945,831 369,0 724,-37 1068,-111 344,-74 702,-171 1071,-286l0 1240c-678,261 -1449,393 -2308,393 -1270,0 -2242,-391 -2922,-1174 -679,-782 -1019,-1901 -1019,-3359 0,-917 164,-1720 493,-2408 330,-688 807,-1215 1432,-1580 624,-366 1357,-549 2198,-549 886,0 1704,189 2454,566l-510 1201c-293,-142 -602,-265 -927,-371 -326,-107 -670,-160 -1030,-160z"/>
  <polygon id="8" class="fil2" points="89602,24349 88187,24349 88187,16761 85638,16761 85638,15526 92150,15526 92150,16761 89602,16761 "/>
  <polygon id="9" class="fil2" points="98375,24349 93476,24349 93476,15526 98375,15526 98375,16749 94893,16749 94893,19146 98155,19146 98155,20357 94893,20357 94893,23125 98375,23125 "/>
  <path id="10" class="fil2" d="M101665 19628l983 0c658,0 1135,-123 1431,-373 297,-248 445,-620 445,-1108 0,-498 -161,-857 -480,-1073 -319,-216 -802,-325 -1446,-325l-933 0 0 2879zm0 1199l0 3522 -1417 0 0 -8823 2445 0c1119,0 1946,214 2481,640 539,427 807,1071 807,1931 0,1099 -561,1883 -1682,2349l2444 3903 -1610 0 -2071 -3522 -1397 0z"/>
 </g>
</svg>
