<?xml version="1.0" encoding="UTF-8"?>
<!DOCTYPE svg PUBLIC "-//W3C//DTD SVG 1.1//EN" "http://www.w3.org/Graphics/SVG/1.1/DTD/svg11.dtd">
<!-- Creator: CorelDRAW X7 -->
<svg xmlns="http://www.w3.org/2000/svg" xml:space="preserve" width="22px" height="22px" version="1.1" style="shape-rendering:geometricPrecision; text-rendering:geometricPrecision; image-rendering:optimizeQuality; fill-rule:evenodd; clip-rule:evenodd"
viewBox="0 0 728 724"
 xmlns:xlink="http://www.w3.org/1999/xlink">
 <defs>
  <style type="text/css">
   <![CDATA[
    .fil0 {fill:#666666}
    .fil1 {fill:#666666;fill-rule:nonzero}
   ]]>
  </style>
 </defs>
 <g id="Plan_x0020_1">
  <metadata id="CorelCorpID_0Corel-Layer"/>
  <g id="_629798976">
   <g id="_651857736">
    <rect class="fil0" width="727.933" height="98.3308"/>
    <rect class="fil0" y="157" width="727.933" height="98.3308"/>
    <rect class="fil0" y="315" width="727.933" height="98.3308"/>
   </g>
   <path class="fil1" d="M0 721l0 -185 37 0 44 131c4,12 7,21 9,28 2,-7 5,-17 9,-30l45 -129 33 0 0 185 -24 0 0 -155 -54 155 -22 0 -53 -158 0 158 -24 0zm217 0l0 -185 134 0 0 22 -109 0 0 57 102 0 0 21 -102 0 0 64 113 0 0 21 -138 0zm172 0l0 -185 25 0 98 145 0 -145 23 0 0 185 -25 0 -97 -145 0 145 -24 0zm309 -185l25 0 0 107c0,19 -2,33 -7,44 -4,11 -11,20 -22,27 -11,7 -26,10 -44,10 -17,0 -31,-3 -42,-9 -11,-6 -19,-14 -24,-26 -5,-11 -7,-26 -7,-46l0 -107 25 0 0 107c0,16 1,28 4,35 3,8 8,14 16,18 7,4 16,6 26,6 18,0 31,-4 39,-12 7,-8 11,-24 11,-47l0 -107z"/>
  </g>
 </g>
</svg>
