<?xml version="1.0" encoding="UTF-8"?>
<!DOCTYPE svg PUBLIC "-//W3C//DTD SVG 1.1//EN" "http://www.w3.org/Graphics/SVG/1.1/DTD/svg11.dtd">
<!-- Creator: CorelDRAW X7 -->
<svg xmlns="http://www.w3.org/2000/svg" xml:space="preserve" width="119944px" height="119944px" version="1.1" style="shape-rendering:geometricPrecision; text-rendering:geometricPrecision; image-rendering:optimizeQuality; fill-rule:evenodd; clip-rule:evenodd"
viewBox="0 0 6434649 6434649"
 xmlns:xlink="http://www.w3.org/1999/xlink">
 <defs>
  <style type="text/css">
   <![CDATA[
    .fil1 {fill:#0087CF}
    .fil0 {fill:#EDEDED}
   ]]>
  </style>
 </defs>
 <g id="Plan_x0020_1">
  <metadata id="CorelCorpID_0Corel-Layer"/>
  <ellipse class="fil0" cx="3217246" cy="3217331" rx="3217340" ry="3217277"/>
  <path class="fil1" d="M2585108 4756229c219967,0 443084,-88160 613325,-262528l1469636 -1504053 -148419 -152001 -1469635 1504053c-252105,258837 -654583,266871 -897025,18674 -242442,-248196 -234516,-660228 18240,-918956l1395155 -1429029c156995,-160145 411489,-160145 567833,0 156344,160144 156344,421369 0,581405l-1419909 1454435c-64926,66446 -178276,66446 -243745,0 -32029,-33440 -50269,-77521 -50269,-124750 0,-47120 18240,-91200 50269,-124749l1273337 -1303629 -147876 -152001 -1273879 1303628c-72092,73830 -112156,171870 -112156,276751 0,104230 40064,202922 112156,276208 72092,74372 168504,114761 270345,114761 101732,0 198144,-40389 270236,-114218l1444773 -1479841 -2389 -2497c213996,-245699 207916,-622337 -21714,-857505 -230391,-235710 -598234,-241356 -838179,-22257l-2389 -3149 -24863 25406 -1395806 1429030c-333860,342546 -342328,891053 -18131,1223067 159384,162533 369037,243854 581187,243854l-108 -109z"/>
 </g>
</svg>
