<?xml version="1.0" encoding="UTF-8"?>
<!DOCTYPE svg PUBLIC "-//W3C//DTD SVG 1.1//EN" "http://www.w3.org/Graphics/SVG/1.1/DTD/svg11.dtd">
<!-- Creator: CorelDRAW X7 -->
<svg xmlns="http://www.w3.org/2000/svg" xml:space="preserve" width="22px" height="22px" version="1.1" style="shape-rendering:geometricPrecision; text-rendering:geometricPrecision; image-rendering:optimizeQuality; fill-rule:evenodd; clip-rule:evenodd"
viewBox="0 0 628 625"
 xmlns:xlink="http://www.w3.org/1999/xlink">
 <defs>
  <style type="text/css">
   <![CDATA[
    .fil0 {fill:#0087CF}
    .fil1 {fill:#0087CF;fill-rule:nonzero}
   ]]>
  </style>
 </defs>
 <g id="Plan_x0020_1">
  <metadata id="CorelCorpID_0Corel-Layer"/>
  <g id="_699637144">
   <g id="_651857736">
    <rect class="fil0" width="628.252" height="84.868"/>
    <rect class="fil0" y="136" width="628.252" height="84.868"/>
    <rect class="fil0" y="272" width="628.252" height="84.868"/>
   </g>
   <path class="fil1" d="M0 623l0 -161 32 0 38 114c3,10 6,18 7,23 2,-5 5,-14 9,-25l38 -112 29 0 0 161 -21 0 0 -134 -46 134 -19 0 -47 -137 0 137 -20 0zm187 0l0 -161 116 0 0 19 -95 0 0 49 89 0 0 19 -89 0 0 55 99 0 0 19 -120 0zm149 0l0 -161 22 0 84 126 0 -126 20 0 0 161 -22 0 -84 -126 0 126 -20 0zm266 -161l22 0 0 93c0,16 -2,29 -6,38 -3,10 -10,17 -19,23 -10,6 -22,9 -38,9 -15,0 -27,-2 -36,-8 -10,-5 -17,-12 -21,-22 -4,-10 -6,-23 -6,-40l0 -93 21 0 0 93c0,14 2,24 4,31 3,6 7,11 13,15 7,3 14,5 23,5 16,0 27,-3 34,-10 6,-7 9,-21 9,-41l0 -93z"/>
  </g>
 </g>
</svg>
