<?xml version="1.0" encoding="UTF-8"?>
<!DOCTYPE svg PUBLIC "-//W3C//DTD SVG 1.1//EN" "http://www.w3.org/Graphics/SVG/1.1/DTD/svg11.dtd">
<!-- Creator: CorelDRAW X7 -->
<svg xmlns="http://www.w3.org/2000/svg" xml:space="preserve" width="34px" height="34px" version="1.1" style="shape-rendering:geometricPrecision; text-rendering:geometricPrecision; image-rendering:optimizeQuality; fill-rule:evenodd; clip-rule:evenodd"
viewBox="0 0 3077 3077"
 xmlns:xlink="http://www.w3.org/1999/xlink">
 <defs>
  <style type="text/css">
   <![CDATA[
    .fil0 {fill:#01B9F5}
    .fil1 {fill:white}
    .fil2 {fill:#01B9F5;fill-rule:nonzero}
   ]]>
  </style>
 </defs>
 <g id="Plan_x0020_1">
  <metadata id="CorelCorpID_0Corel-Layer"/>
  <g id="_567975368">
   <path class="fil0" d="M1539 0c-850,0 -1539,689 -1539,1539 0,849 689,1538 1539,1538 849,0 1538,-689 1538,-1538 0,-850 -689,-1539 -1538,-1539z"/>
   <path class="fil1" d="M923 1643c49,295 306,520 616,520 309,0 566,-225 615,-520 -119,217 -350,364 -615,364 -266,0 -497,-147 -616,-364l0 0zm0 234c49,295 306,520 616,520 309,0 566,-225 615,-520 -119,217 -350,364 -615,364 -266,0 -497,-147 -616,-364l0 0zm1240 -573c0,-344 -280,-624 -624,-624 -345,0 -625,280 -625,624 0,345 280,625 625,625 344,0 624,-280 624,-625zm-595 -273l0 54c19,4 34,11 46,22 11,11 23,27 33,50l-46 29c-13,-29 -31,-44 -54,-44 -13,0 -25,5 -34,15 -9,9 -13,21 -13,35 0,14 3,24 11,33 7,8 21,18 43,30 19,10 35,20 47,28 13,9 22,18 28,26 18,23 27,50 27,81 0,31 -8,59 -24,83 -16,23 -37,39 -64,48l0 57 -41 0 0 -56c-30,-5 -54,-18 -70,-37 -16,-19 -28,-48 -35,-87l51 -13c7,28 16,48 26,60 11,11 25,17 42,17 18,0 32,-7 44,-20 11,-12 17,-29 17,-50 0,-18 -5,-32 -15,-43 -4,-5 -12,-12 -21,-18 -9,-7 -22,-14 -36,-22 -31,-16 -51,-31 -60,-44 -15,-20 -23,-44 -23,-72 0,-13 2,-25 6,-37 3,-11 8,-22 15,-31 7,-9 15,-17 25,-24 10,-7 22,-12 34,-16l0 -54 42 0 -1 0z"/>
   <path class="fil1" d="M2163 1304c0,-344 -280,-624 -624,-624 -345,0 -625,280 -625,624 0,345 280,625 625,625 344,0 624,-280 624,-625z"/>
   <path class="fil1" d="M923 1877c49,295 306,520 616,520 309,0 566,-225 615,-520 -119,217 -350,364 -615,364 -266,0 -497,-147 -616,-364l0 0z"/>
   <path class="fil1" d="M923 1643c49,295 306,520 616,520 309,0 566,-225 615,-520 -119,217 -350,364 -615,364 -266,0 -497,-147 -616,-364l0 0z"/>
   <path class="fil1" d="M1568 1031l0 54c19,4 34,11 46,22 11,11 23,27 33,50l-46 29c-13,-29 -31,-44 -54,-44 -13,0 -25,5 -34,15 -9,9 -13,21 -13,35 0,14 3,24 11,33 7,8 21,18 43,30 19,10 35,20 47,28 13,9 22,18 28,26 18,22 27,50 27,81 0,32 -8,59 -24,83 -16,23 -37,39 -64,48l0 57 -41 0 0 -56c-30,-6 -54,-18 -70,-37 -16,-19 -28,-48 -35,-87l51 -13c7,28 16,48 26,60 11,11 25,17 42,17 18,0 32,-7 44,-20 11,-12 17,-29 17,-50 0,-18 -5,-32 -15,-43 -4,-5 -12,-12 -21,-18 -9,-7 -21,-14 -36,-22 -31,-16 -51,-31 -60,-44 -15,-20 -23,-44 -23,-72 0,-13 2,-25 6,-37 3,-11 8,-22 15,-31 7,-9 15,-17 25,-24 10,-7 22,-12 34,-16l0 -54 41 0 0 0z"/>
   <path class="fil2" d="M1601 1045c-44,0 -80,10 -110,31 -18,13 -34,31 -48,53 -15,24 -23,47 -26,68l267 0 -11 53 -262 0c0,5 -1,11 -1,15 0,21 0,32 1,36l252 0 -11 53 -233 0c11,60 37,102 79,127 30,18 62,27 97,27 49,0 87,-13 114,-38l0 80c-32,16 -68,23 -108,23 -118,0 -197,-49 -239,-147 -8,-20 -15,-44 -21,-72l-60 0 11 -53 41 0c-1,-11 -1,-23 -1,-35 0,-5 0,-11 0,-16l-51 0 11 -53 45 0c16,-85 59,-146 127,-183 42,-23 88,-34 139,-34 48,0 89,10 122,31l-16 73c-31,-26 -67,-39 -108,-39l0 0z"/>
  </g>
 </g>
</svg>
