<?xml version="1.0" encoding="UTF-8"?>
<!DOCTYPE svg PUBLIC "-//W3C//DTD SVG 1.1//EN" "http://www.w3.org/Graphics/SVG/1.1/DTD/svg11.dtd">
<!-- Creator: CorelDRAW X7 -->
<svg xmlns="http://www.w3.org/2000/svg" xml:space="preserve" width="119944px" height="119944px" version="1.1" style="shape-rendering:geometricPrecision; text-rendering:geometricPrecision; image-rendering:optimizeQuality; fill-rule:evenodd; clip-rule:evenodd"
viewBox="0 0 8676592 8676738"
 xmlns:xlink="http://www.w3.org/1999/xlink">
 <defs>
  <style type="text/css">
   <![CDATA[
    .fil0 {fill:#005DA8}
    .fil1 {fill:white}
   ]]>
  </style>
 </defs>
 <g id="Plan_x0020_1">
  <metadata id="CorelCorpID_0Corel-Layer"/>
  <g id="_567960464">
   <path class="fil0" d="M4338003 0c-2395850,0 -4338003,1942153 -4338003,4338003 0,2396289 1942153,4338735 4338003,4338735 2396289,0 4338589,-1942446 4338589,-4338735 0,-2395850 -1942300,-4338003 -4338589,-4338003z"/>
   <path class="fil1" d="M3021420 6234187l535242 0 0 -1900722 -535242 535387 0 1365335 0 0zm-735810 -629231l0 629231 535241 0 0 -1164619 -369515 369662 -165726 165726zm1471621 628938l535241 0 0 -1469425 -535241 -535095 0 2004520 0 0zm735957 -1406912l0 1407205 535241 0 0 -1942593 -419584 420024 -115657 115510 0 -146zm736103 1407205l534949 0 0 -2678404 -534949 535242 0 2143162zm-212867 -3766894l355022 355461 1757 1757 -948970 949702 -715168 -715314 -1821080 1821373 378446 378446 1442634 -1442927 715168 715168 1327709 -1327709 353265 353412 115218 -1204001 -1204001 114632 0 0z"/>
  </g>
 </g>
</svg>
