<?xml version="1.0" encoding="UTF-8"?>
<!DOCTYPE svg PUBLIC "-//W3C//DTD SVG 1.1//EN" "http://www.w3.org/Graphics/SVG/1.1/DTD/svg11.dtd">
<!-- Creator: CorelDRAW X7 -->
<svg xmlns="http://www.w3.org/2000/svg" xml:space="preserve" width="34px" height="34px" version="1.1" style="shape-rendering:geometricPrecision; text-rendering:geometricPrecision; image-rendering:optimizeQuality; fill-rule:evenodd; clip-rule:evenodd"
viewBox="0 0 2460 2460"
 xmlns:xlink="http://www.w3.org/1999/xlink">
 <defs>
  <style type="text/css">
   <![CDATA[
    .fil0 {fill:#006A77}
    .fil1 {fill:#FEFEFE;fill-rule:nonzero}
   ]]>
  </style>
 </defs>
 <g id="Plan_x0020_1">
  <metadata id="CorelCorpID_0Corel-Layer"/>
  <g id="_569168384">
   <path class="fil0" d="M1230 0c-680,0 -1230,550 -1230,1230 0,679 550,1230 1230,1230 679,0 1230,-551 1230,-1230 0,-680 -551,-1230 -1230,-1230z"/>
   <path class="fil1" d="M1855 1226l-283 -120c-23,-10 -48,-6 -68,7l-156 106 -91 -215c0,0 0,0 0,-1 57,-22 129,-56 198,-120 81,-77 123,-151 125,-154 15,-26 6,-60 -21,-74 -26,-15 -59,-6 -74,20 -1,0 -37,62 -107,129 -59,56 -125,83 -179,104 0,0 -151,59 -212,82 -133,49 -172,38 -180,36 -19,-13 -63,-87 -96,-159 -12,-28 -45,-40 -72,-28 -28,12 -40,45 -28,72 1,2 21,44 46,90 51,91 82,114 104,124 18,8 41,13 67,13 50,0 114,-15 196,-46 0,0 0,0 1,0 29,69 106,246 138,320 0,1 1,2 1,3 8,12 21,21 37,27 25,8 50,6 68,-5 22,-13 283,-185 283,-185l247 105c37,15 79,-1 94,-38 15,-36 -2,-78 -38,-93l0 0z"/>
   <path class="fil1" d="M1079 902c74,-10 127,-78 117,-152 -10,-75 -78,-128 -152,-117 -75,9 -128,78 -117,152 10,74 78,126 152,117z"/>
   <path class="fil1" d="M1584 1502c-8,-16 -22,-30 -39,-37l-130 -55c-49,31 -99,63 -117,74 -11,7 -25,12 -39,15l205 87 99 230c12,27 38,43 65,43 11,0 20,-2 29,-6 37,-16 53,-58 38,-93l-111 -258 0 0z"/>
   <path class="fil1" d="M950 1573c0,0 0,0 0,0 -2,-8 -8,-13 -16,-13 0,0 0,0 0,0 0,0 0,0 0,0l-142 0c0,0 0,0 0,0 -9,0 -17,7 -17,18 0,1 1,2 1,3 0,0 0,0 0,0 0,0 0,0 0,0 46,199 241,304 579,268 -207,-30 -352,-113 -405,-277l0 1z"/>
  </g>
 </g>
</svg>
