<?xml version="1.0" encoding="UTF-8"?>
<!DOCTYPE svg PUBLIC "-//W3C//DTD SVG 1.1//EN" "http://www.w3.org/Graphics/SVG/1.1/DTD/svg11.dtd">
<!-- Creator: CorelDRAW X7 -->
<svg xmlns="http://www.w3.org/2000/svg" xml:space="preserve" width="140px" height="45px" version="1.1" style="shape-rendering:geometricPrecision; text-rendering:geometricPrecision; image-rendering:optimizeQuality; fill-rule:evenodd; clip-rule:evenodd"
viewBox="0 0 104133 33529"
 xmlns:xlink="http://www.w3.org/1999/xlink">
 <defs>
  <style type="text/css">
   <![CDATA[
    .fil1 {fill:#0087CF}
    .fil0 {fill:#EDEDED}
    .fil2 {fill:white;fill-rule:nonzero}
   ]]>
  </style>
 </defs>
 <g id="Plan_x0020_1">
  <metadata id="CorelCorpID_0Corel-Layer"/>
  <path class="fil0" d="M16764 0l70605 0c9221,0 16764,7543 16764,16764l0 0c0,9222 -7543,16765 -16764,16765l-70605 0c-9220,0 -16764,-7543 -16764,-16765l0 0c0,-9221 7544,-16764 16764,-16764z"/>
  <path class="fil1" d="M17025 3504l70084 0c7294,0 13260,5967 13260,13260l0 0c0,7294 -5966,13261 -13260,13261l-70084 0c-7295,0 -13261,-5967 -13261,-13261l0 0c0,-7293 5966,-13260 13261,-13260z"/>
  <path class="fil2" d="M20420 18258c0,652 -230,1164 -694,1535 -463,373 -1102,558 -1918,558 -816,0 -1480,-129 -2000,-388l0 -1137c330,158 677,281 1047,372 370,90 713,135 1032,135 469,0 811,-90 1034,-271 220,-179 332,-421 332,-724 0,-274 -103,-507 -306,-697 -204,-192 -624,-416 -1261,-679 -658,-270 -1120,-579 -1391,-928 -269,-348 -403,-766 -403,-1253 0,-613 213,-1095 640,-1446 427,-351 1001,-527 1721,-527 689,0 1375,154 2059,460l-375 979c-640,-275 -1212,-411 -1715,-411 -382,0 -671,83 -867,253 -197,169 -297,392 -297,671 0,191 41,353 120,490 79,135 209,262 388,384 181,119 507,279 978,476 527,224 915,433 1161,626 248,196 427,415 543,659 114,244 172,532 172,863z"/>
  <polygon id="1" class="fil2" points="25885,20248 21811,20248 21811,12911 25885,12911 25885,13928 22990,13928 22990,15921 25702,15921 25702,16928 22990,16928 22990,19230 25885,19230 "/>
  <path id="2" class="fil2" d="M33128 13836c-675,0 -1209,244 -1595,733 -388,487 -582,1161 -582,2020 0,900 187,1579 560,2042 371,460 911,692 1617,692 307,0 602,-31 888,-93 286,-61 583,-142 891,-238l0 1031c-564,218 -1206,328 -1920,328 -1055,0 -1864,-326 -2429,-977 -565,-651 -848,-1581 -848,-2793 0,-763 137,-1431 411,-2003 273,-572 670,-1010 1190,-1313 519,-305 1128,-457 1827,-457 738,0 1418,157 2042,471l-424 999c-244,-119 -501,-221 -772,-309 -270,-89 -556,-133 -856,-133z"/>
  <path id="3" class="fil2" d="M42649 16571c0,1195 -294,2123 -880,2786 -586,663 -1417,994 -2489,994 -1086,0 -1922,-330 -2506,-987 -580,-658 -873,-1591 -873,-2802 0,-1213 294,-2143 879,-2791 587,-650 1422,-974 2510,-974 1069,0 1899,329 2481,989 585,659 878,1587 878,2785zm-5496 -2c0,902 178,1588 537,2053 357,467 887,701 1590,701 699,0 1227,-232 1584,-692 355,-463 532,-1149 532,-2062 0,-899 -176,-1581 -529,-2047 -352,-464 -878,-697 -1577,-697 -706,0 -1240,233 -1599,697 -359,466 -538,1148 -538,2047z"/>
  <path id="4" class="fil2" d="M50196 20248l-1445 0 -3540 -5847 -40 0 26 327c45,621 68,1190 68,1706l0 3814 -1068 0 0 -7337 1429 0 3530 5816 29 0c-8,-78 -20,-357 -39,-841 -20,-484 -30,-860 -30,-1130l0 -3845 1080 0 0 7337z"/>
  <path id="5" class="fil2" d="M58096 20248l-1444 0 -3540 -5847 -40 0 25 327c45,621 69,1190 69,1706l0 3814 -1069 0 0 -7337 1429 0 3530 5816 29 0c-7,-78 -20,-357 -38,-841 -21,-484 -31,-860 -31,-1130l0 -3845 1080 0 0 7337z"/>
  <polygon id="6" class="fil2" points="64071,20248 59997,20248 59997,12911 64071,12911 64071,13928 61176,13928 61176,15921 63888,15921 63888,16928 61176,16928 61176,19230 64071,19230 "/>
  <path id="7" class="fil2" d="M68693 13836c-676,0 -1209,244 -1595,733 -389,487 -582,1161 -582,2020 0,900 186,1579 559,2042 372,460 912,692 1618,692 306,0 602,-31 888,-93 286,-61 583,-142 890,-238l0 1031c-564,218 -1204,328 -1919,328 -1056,0 -1865,-326 -2430,-977 -565,-651 -847,-1581 -847,-2793 0,-763 136,-1431 410,-2003 275,-572 671,-1010 1191,-1313 519,-305 1128,-457 1827,-457 737,0 1417,157 2041,471l-424 999c-244,-119 -501,-221 -771,-309 -271,-89 -557,-133 -856,-133z"/>
  <polygon id="8" class="fil2" points="74510,20248 73333,20248 73333,13938 71214,13938 71214,12911 76629,12911 76629,13938 74510,13938 "/>
  <polygon id="9" class="fil2" points="81805,20248 77732,20248 77732,12911 81805,12911 81805,13928 78910,13928 78910,15921 81622,15921 81622,16928 78910,16928 78910,19230 81805,19230 "/>
  <path id="10" class="fil2" d="M84541 16322l818 0c547,0 944,-102 1190,-310 247,-207 370,-516 370,-921 0,-415 -134,-713 -399,-893 -265,-179 -668,-270 -1203,-270l-776 0 0 2394zm0 997l0 2929 -1178 0 0 -7337 2034 0c930,0 1617,178 2062,532 448,355 672,891 672,1606 0,914 -467,1566 -1399,1953l2032 3246 -1339 0 -1722 -2929 -1162 0z"/>
 </g>
</svg>
