<?xml version="1.0" encoding="UTF-8"?>
<!DOCTYPE svg PUBLIC "-//W3C//DTD SVG 1.1//EN" "http://www.w3.org/Graphics/SVG/1.1/DTD/svg11.dtd">
<!-- Creator: CorelDRAW X7 -->
<svg xmlns="http://www.w3.org/2000/svg" xml:space="preserve" width="138px" height="77px" version="1.1" style="shape-rendering:geometricPrecision; text-rendering:geometricPrecision; image-rendering:optimizeQuality; fill-rule:evenodd; clip-rule:evenodd"
viewBox="0 0 72376 40601"
 xmlns:xlink="http://www.w3.org/1999/xlink">
 <defs>
  <style type="text/css">
   <![CDATA[
    .fil2 {fill:none}
    .fil1 {fill:#144D14}
    .fil9 {fill:#645000}
    .fil7 {fill:#D3A900}
    .fil8 {fill:#D4AA00}
    .fil5 {fill:#FEDC52}
    .fil4 {fill:#FEFEFE}
    .fil3 {fill:#FFBC00}
    .fil6 {fill:#9E7D0A}
    .fil11 {fill:#FEFEFE;fill-rule:nonzero}
    .fil10 {fill:#FECC00;fill-rule:nonzero}
    .fil0 {fill:url(#id3)}
   ]]>
  </style>
   <clipPath id="id0">
    <path d="M0 0l72376 0 0 40601 -72376 0 0 -40601z"/>
   </clipPath>
     <clipPath id="id1">
      <path d="M58427 1461l-52631 14102c-691,185 -1374,1043 -919,1597l19211 23441 29415 0 14379 -3852c691,-186 1105,-904 919,-1598l-8780 -32767c-186,-693 -903,-1109 -1594,-923z"/>
     </clipPath>
     <clipPath id="id2">
      <path d="M0 0l72376 0 0 40601 -72376 0 0 -40601z"/>
     </clipPath>
  <linearGradient id="id3" gradientUnits="userSpaceOnUse" x1="12022.4" y1="46236.7" x2="61599.1" y2="6090.18">
   <stop offset="0" style="stop-opacity:1; stop-color:#238223"/>
   <stop offset="1" style="stop-opacity:1; stop-color:#176117"/>
  </linearGradient>
 </defs>
 <g id="Plan_x0020_1">
  <metadata id="CorelCorpID_0Corel-Layer"/>
  <g>
  </g>
  <g style="clip-path:url(#id0)">
   <g>
    <g id="_606238152">
     <path class="fil0" d="M58427 1461l-52631 14102c-691,185 -1374,1043 -919,1597l24507 29904 38498 -10315c691,-186 1105,-904 919,-1598l-8780 -32767c-186,-693 -903,-1109 -1594,-923z"/>
    </g>
    <g style="clip-path:url(#id1)">
     <g>
      <path id="1" class="fil1" d="M4815 16389c-183,-224 -125,543 62,771l24507 29904 451 -121 -25020 -30554z"/>
     </g>
    </g>
    <g style="clip-path:url(#id2)">
     <path class="fil2" d="M58427 1461l-52631 14102c-691,185 -1374,1043 -919,1597l24507 29904 38498 -10315c691,-186 1105,-904 919,-1598l-8780 -32767c-186,-693 -903,-1109 -1594,-923z"/>
     <path class="fil3" d="M29296 47014l-4 -16 -294 -345 -1228 -1540 -1426 -1746 -1215 -1492 -1223 -1499 -1265 -1548c-5477,-6713 -8961,-10974 -14895,-18259l-1216 -1473c-203,-257 -1756,-2190 -1850,-2232 18,357 272,1138 378,1530l8343 31141c153,569 246,888 636,1167 112,80 364,168 563,180 248,16 456,-49 711,-118l10890 -2918c1006,-269 2113,-521 3095,-832z"/>
     <path class="fil3" d="M17911 41618c446,-284 872,402 431,672 -481,294 -855,-401 -431,-672z"/>
     <path class="fil3" d="M18250 42938c199,-148 458,-77 555,81 137,220 67,460 -99,568 -430,280 -882,-333 -456,-649z"/>
     <path class="fil3" d="M18649 44208c482,-265 805,496 381,692 -526,244 -823,-448 -381,-692z"/>
     <path class="fil3" d="M20003 43948c476,-274 801,497 385,693 -517,244 -837,-432 -385,-693z"/>
     <path class="fil3" d="M16749 46356l292 387 -1367 1098c85,42 1570,263 1744,267l-78 493c-463,-55 -964,-136 -1426,-210l-1417 -223c-4,-7 -12,-4 -23,-14l2275 -1798z"/>
     <g>
      <path class="fil4" d="M14474 48154c11,10 19,7 23,14l1417 223c462,74 963,154 1426,210l79 -493c-175,-4 -1660,-225 -1745,-267l1367 -1098 -292 -387 -2275 1798z"/>
      <path class="fil5" d="M17911 41618c-424,271 -50,966 431,672 441,-270 15,-956 -431,-672z"/>
      <path class="fil5" d="M18250 42938c-426,316 26,929 456,649 166,-108 236,-348 99,-568 -97,-158 -356,-229 -555,-81z"/>
      <path class="fil5" d="M20003 43948c-452,261 -132,937 385,693 416,-196 91,-967 -385,-693z"/>
      <path class="fil5" d="M18649 44208c-442,244 -145,936 381,692 424,-196 101,-957 -381,-692z"/>
     </g>
     <path class="fil6" d="M13482 25282c-30,58 -120,134 -168,202 -56,79 -97,157 -140,228 -76,127 -155,377 -153,566 -96,213 575,2459 685,2870 261,976 517,1955 793,2926 204,629 1022,1095 1696,905l6117 -1640c225,-115 291,-154 467,-309 202,-189 355,-461 427,-742 92,-357 10,-634 -94,-1022l-1221 -4558c-142,-530 -264,-889 -763,-1189 -71,-42 -341,-138 -375,-167 -119,1 -242,-36 -378,-36 -146,-1 -268,21 -418,57l-711 191 -718 192 -711 191 -711 190 -716 192 -675 181 -619 165 -940 253c-374,104 -407,186 -674,354z"/>
     <polygon class="fil7" points="17104,30983 20093,30182 18369,23751 15373,24554 "/>
     <polygon class="fil7" points="23109,29363 22354,26575 19459,27354 20194,30145 "/>
     <polygon class="fil7" points="16999,30990 16274,28274 13655,28976 14383,31692 "/>
     <polygon class="fil8" points="22334,26473 21770,24368 18856,25149 19421,27254 "/>
     <polygon class="fil7" points="13615,28890 16250,28184 15694,26106 15664,26011 13035,26724 "/>
     <polygon class="fil7" points="17515,32565 20516,31761 20144,30365 20110,30274 17125,31073 17146,31169 "/>
     <path class="fil7" d="M20606 31737c478,-129 1798,-422 2130,-645 250,-167 412,-412 480,-662 81,-295 36,-621 -87,-966l-2922 784 399 1489z"/>
     <path class="fil7" d="M14401 31811c124,579 410,1106 1042,1195 460,65 1466,-279 1987,-418l-404 -1489 -2625 712z"/>
     <path class="fil7" d="M18846 25044l2890 -774c-127,-683 -635,-1046 -1183,-1054 -287,-4 -1731,391 -2070,508 22,164 301,1241 363,1320z"/>
     <path class="fil7" d="M13008 26627l2635 -707 -363 -1341c-457,122 -1522,351 -1851,576 -411,280 -611,763 -444,1385l23 87z"/>
     <path class="fil9" d="M22334 26473l-2913 781 -565 -2105 2914 -781c-6,-1 -15,-4 -19,-5 -139,-9 -2747,720 -2885,757l-20 -76c-62,-79 -341,-1156 -363,-1320 -36,57 -32,16 26,224 149,539 818,3132 897,3317 150,12 1235,-311 1472,-374 109,-29 1374,-336 1456,-418z"/>
     <path class="fil9" d="M23109 29363l-2915 782 -735 -2791c-35,48 -30,36 9,175 163,579 603,2371 712,2625 161,15 1228,-308 1472,-373l1407 -379c41,-18 37,-26 50,-39z"/>
     <g>
      <polygon class="fil10" points="34397,17571 32494,10471 34012,10064 35915,17165 "/>
      <path class="fil10" d="M21266 14440l1526 -422 376 1403 1643 -440 281 1050 -1642 440 476 1778c99,369 217,602 356,697 137,96 344,107 621,32 136,-35 274,-93 414,-174 139,-78 286,-182 435,-309l315 1130c-220,158 -447,290 -677,401 -233,108 -469,196 -710,260 -612,164 -1092,124 -1437,-122 -345,-246 -617,-753 -827,-1522l-1150 -4202z"/>
      <path class="fil10" d="M17666 15226c-61,-227 -35,-440 81,-640 115,-200 285,-329 512,-390 230,-62 444,-35 640,80 197,114 327,285 388,515 62,229 35,441 -79,638 -113,198 -284,327 -515,389 -227,61 -438,34 -638,-82 -200,-115 -329,-285 -389,-510z"/>
      <polygon class="fil10" points="19425,21583 18135,16770 19653,16363 20943,21176 "/>
      <polygon class="fil10" points="14495,22971 9353,16671 11256,16162 14117,19819 14884,15189 16807,14674 15265,22764 "/>
      <path class="fil10" d="M30588 18115c-178,244 -378,442 -600,597 -220,154 -472,267 -753,343 -464,124 -844,105 -1142,-57 -298,-161 -505,-464 -624,-907 -104,-387 -13,-751 269,-1094 284,-344 972,-845 2066,-1504 -2,-18 -5,-38 -8,-57 -4,-21 -10,-50 -19,-85 -61,-228 -185,-377 -367,-445 -183,-68 -435,-60 -758,26 -270,73 -529,213 -780,421 -249,208 -475,473 -679,794l-299 -1201c238,-273 520,-505 844,-695 325,-189 705,-344 1141,-460 695,-186 1233,-188 1615,-4 383,183 653,567 811,1155l514 1918c30,113 66,185 108,222 42,35 99,44 169,25 66,-18 130,-44 195,-80 65,-34 150,-92 251,-170l226 842c-239,206 -457,368 -652,485 -195,117 -388,202 -576,253 -242,65 -442,70 -604,17 -160,-53 -276,-166 -348,-339zm-265 -685l-316 -1178c-469,321 -773,574 -910,758 -138,183 -181,369 -130,559 42,155 121,266 241,332 120,66 262,77 428,32 111,-30 224,-88 341,-173 114,-84 230,-195 346,-330z"/>
      <path class="fil10" d="M42049 14956c-270,301 -574,553 -910,753 -336,202 -711,357 -1123,468 -828,222 -1539,169 -2130,-159 -591,-326 -995,-892 -1209,-1695 -199,-739 -127,-1395 212,-1964 342,-569 896,-955 1660,-1159 753,-203 1414,-121 1980,243 565,365 962,972 1188,1818l14 50 -3409 914 5 20c102,381 313,648 634,799 319,153 706,168 1160,46 304,-82 595,-217 871,-408 274,-188 538,-431 789,-727l268 1001zm-3915 -1472l1870 -507c-111,-303 -270,-522 -478,-654 -208,-131 -440,-164 -693,-97 -262,70 -454,217 -579,438 -123,220 -164,496 -120,820z"/>
     </g>
     <path class="fil11" d="M23466 23998l59 223c-51,34 -99,63 -149,86 -49,24 -99,42 -151,56 -178,48 -338,34 -481,-42 -143,-77 -236,-197 -280,-363 -43,-162 -23,-312 64,-451 83,-140 212,-232 383,-279 54,-14 107,-22 161,-25 54,-2 110,1 165,10l62 233c-59,-17 -114,-26 -168,-28 -52,-1 -104,5 -156,19 -112,31 -194,88 -248,174 -52,86 -64,181 -35,286 28,107 87,185 177,233 89,48 193,57 309,25 53,-15 104,-35 152,-60 48,-26 93,-58 136,-97zm757 -164l-86 -319c-134,85 -224,154 -270,208 -44,53 -61,105 -47,156 12,45 36,76 71,93 36,16 79,18 131,3 39,-10 75,-26 109,-51 33,-23 63,-53 92,-90zm44 131c-44,53 -90,95 -135,126 -44,29 -94,52 -151,68 -98,26 -181,23 -249,-9 -67,-33 -113,-90 -134,-172 -21,-76 -10,-153 36,-227 42,-75 120,-148 229,-220l237 -157c-2,-7 -3,-13 -3,-19 -2,-6 -3,-15 -7,-28 -17,-65 -46,-108 -86,-127 -39,-20 -96,-21 -169,-1 -61,16 -120,45 -178,88 -57,44 -113,99 -163,167l-59 -215c45,-62 98,-112 161,-154 63,-42 133,-73 212,-95 140,-37 250,-32 331,11 80,45 139,136 175,274l125 462c10,39 21,65 32,80 11,14 23,19 40,14 13,-3 25,-9 39,-21 12,-11 32,-34 58,-69l36 133c-31,45 -64,81 -100,108 -35,26 -75,46 -119,57 -41,11 -75,11 -100,-1 -25,-12 -45,-37 -58,-73zm529 -46l-292 -1091 217 -59 65 238c34,-112 70,-194 109,-244 38,-51 87,-84 143,-99 40,-11 82,-12 127,-6 45,7 96,21 151,46l-67 224c-44,-20 -83,-33 -119,-38 -36,-5 -72,-3 -107,6 -59,17 -105,54 -135,116 -31,62 -45,139 -39,232l165 617 -218 58zm1499 -437c-29,28 -62,51 -98,70 -36,20 -77,35 -122,47 -122,33 -217,28 -283,-17 -65,-46 -118,-145 -159,-300l-139 -517 -187 50 -6 -21 269 -524 25 -7 68 254 341 -91 50 189 -340 91 134 501c25,91 51,146 81,167 29,20 74,22 136,5 33,-8 64,-22 93,-38 30,-18 56,-39 81,-65l56 206zm1112 -386c-61,66 -124,120 -196,164 -70,44 -146,77 -228,98 -172,47 -324,31 -456,-49 -132,-79 -220,-207 -268,-385 -44,-163 -29,-310 42,-438 71,-128 187,-213 345,-256 159,-42 297,-24 416,55 120,78 204,205 250,381l9 31 -817 219c34,103 89,175 166,215 76,42 167,50 270,22 69,-19 137,-51 207,-97 68,-46 136,-106 201,-179l59 219zm-945 -333l578 -156c-28,-78 -74,-134 -138,-169 -63,-34 -132,-41 -208,-21 -84,23 -145,63 -184,122 -40,57 -56,132 -48,224zm2495 -219l-164 -614c-42,-16 -83,-25 -123,-28 -41,-3 -82,2 -124,14 -111,29 -190,88 -235,172 -46,85 -53,186 -22,306 33,119 90,204 172,254 81,52 179,63 290,33 42,-11 80,-28 114,-51 33,-22 64,-51 92,-86zm49 182c-32,38 -69,71 -112,97 -42,25 -92,46 -149,61 -157,42 -300,24 -428,-55 -127,-78 -214,-202 -258,-370 -45,-168 -32,-318 38,-450 72,-133 186,-220 344,-262 55,-15 108,-22 157,-21 50,2 101,12 148,30l-166 -622 218 -59 443 1653 -219 58 -16 -60zm194 -1805l176 655 -165 45 -176 -656 165 -44zm1173 1265l-85 -319c-135,85 -224,154 -270,207 -45,54 -61,106 -47,157 12,45 36,76 71,93 36,16 79,18 131,3 39,-10 75,-26 109,-51 32,-23 63,-54 91,-90zm44 131c-44,53 -89,95 -134,126 -45,30 -94,52 -151,68 -98,25 -181,23 -249,-10 -68,-32 -113,-89 -134,-171 -21,-77 -10,-153 35,-227 43,-75 120,-148 230,-221l237 -156c-2,-6 -3,-13 -3,-19 -2,-6 -4,-15 -7,-27 -18,-65 -46,-109 -86,-128 -40,-20 -97,-21 -170,-1 -61,16 -119,45 -178,88 -57,44 -113,99 -163,167l-58 -215c45,-61 98,-112 161,-154 63,-42 133,-73 212,-95 140,-37 249,-32 330,11 81,45 139,136 176,274l124 462c11,39 21,65 32,80 11,14 24,19 40,15 13,-4 26,-10 40,-22 12,-11 32,-34 57,-68l36 132c-30,45 -63,81 -99,107 -36,27 -75,47 -119,58 -41,11 -75,11 -100,-1 -26,-12 -46,-37 -59,-73zm438 -101l-63 -233c77,26 149,42 215,49 66,6 125,3 176,-11 56,-15 96,-37 123,-67 25,-29 35,-61 25,-98 -13,-45 -86,-82 -220,-109 -40,-8 -70,-15 -92,-20 -116,-24 -199,-56 -249,-94 -52,-38 -87,-93 -105,-163 -25,-91 -11,-172 39,-244 51,-71 134,-121 248,-152 62,-17 123,-25 183,-26 61,0 122,7 185,24l57 212c-76,-19 -145,-30 -206,-33 -59,-3 -114,2 -164,16 -45,12 -79,29 -99,51 -21,23 -27,49 -19,79 15,55 108,100 280,134l22 4c136,28 227,61 276,96 48,36 81,89 101,157 25,97 9,183 -48,260 -56,77 -144,131 -263,163 -68,18 -135,28 -201,28 -66,2 -133,-6 -201,-23zm909 -244l-63 -233c77,27 149,42 216,49 67,6 125,3 175,-11 57,-15 97,-37 124,-67 26,-29 34,-61 24,-98 -12,-45 -85,-81 -220,-109 -39,-8 -69,-15 -90,-20 -118,-24 -201,-56 -251,-94 -51,-38 -86,-93 -105,-163 -24,-91 -11,-172 40,-244 51,-71 133,-120 248,-151 61,-17 123,-25 183,-27 61,0 122,7 184,24l58 213c-76,-20 -145,-31 -206,-34 -60,-3 -114,3 -164,16 -46,12 -79,29 -100,52 -20,23 -27,48 -19,79 14,55 108,99 280,133l23 4c135,28 227,61 275,96 48,36 82,88 101,158 26,96 9,182 -47,260 -56,76 -144,130 -263,162 -68,18 -135,28 -201,29 -67,1 -134,-7 -202,-24zm1677 -513c-40,67 -85,119 -131,158 -48,39 -102,67 -164,83 -120,32 -223,23 -310,-27 -87,-51 -146,-134 -178,-255l-194 -723 220 -59 179 668c24,88 59,148 109,181 48,31 112,37 190,16 57,-15 103,-39 139,-72 37,-33 68,-80 94,-141l-210 -786 218 -58 293 1090 -219 59 -36 -134zm532 1l-292 -1091 218 -59 63 238c35,-112 72,-194 110,-244 39,-51 87,-84 144,-99 39,-11 82,-13 126,-6 46,7 96,21 151,46l-66 225c-44,-21 -84,-34 -120,-40 -36,-4 -71,-3 -107,7 -59,16 -105,54 -134,115 -31,62 -45,140 -39,233l165 617 -219 58zm1384 -609l-87 -319c-134,85 -224,154 -269,208 -46,52 -62,105 -48,156 13,46 37,77 71,93 36,16 80,18 132,4 38,-11 75,-28 108,-51 33,-23 64,-54 93,-91zm43 131c-45,53 -89,95 -134,125 -45,30 -95,53 -152,69 -97,26 -181,23 -248,-10 -67,-32 -113,-90 -134,-171 -22,-76 -10,-153 34,-228 44,-74 121,-147 231,-219l236 -156c-1,-8 -2,-14 -3,-20 -2,-6 -4,-16 -6,-28 -17,-65 -47,-107 -87,-127 -39,-20 -96,-21 -170,-1 -60,16 -119,45 -177,88 -57,44 -112,99 -163,167l-58 -215c44,-62 97,-112 160,-155 64,-41 133,-73 212,-93 140,-38 250,-34 331,10 80,46 139,136 176,274l124 462c10,39 21,65 32,80 11,14 24,19 40,14 13,-3 26,-10 39,-21 13,-11 32,-34 59,-69l35 133c-30,45 -63,80 -99,108 -36,26 -76,45 -119,57 -42,11 -75,11 -100,-1 -26,-12 -45,-37 -59,-73zm527 -45l-293 -1092 219 -58 34 133c42,-67 85,-119 133,-157 48,-39 103,-67 164,-83 119,-32 221,-22 307,28 87,50 147,135 178,254l195 724 -218 58 -179 -668c-24,-88 -61,-148 -109,-180 -48,-33 -112,-38 -190,-17 -57,15 -103,39 -139,72 -37,33 -69,79 -96,140l212 787 -218 59zm1993 -811l59 222c-51,34 -100,63 -149,86 -49,24 -99,42 -151,55 -178,49 -338,35 -481,-42 -143,-75 -236,-196 -280,-362 -43,-162 -23,-312 62,-451 85,-140 214,-233 385,-279 54,-13 107,-22 161,-25 55,-2 109,1 164,10l63 233c-59,-17 -115,-27 -167,-28 -54,-1 -106,6 -157,19 -112,30 -194,88 -248,174 -52,86 -64,182 -36,286 29,107 88,185 178,233 90,48 193,56 309,25 53,-14 104,-34 152,-60 48,-25 93,-58 136,-96zm1206 -170c-60,65 -124,121 -195,165 -71,43 -147,76 -229,98 -172,46 -323,29 -455,-50 -131,-79 -221,-208 -269,-386 -43,-163 -29,-309 42,-437 72,-128 187,-214 347,-257 157,-42 296,-24 415,56 121,78 203,205 251,381l7 32 -817 219c34,101 89,173 167,214 77,42 167,50 269,22 71,-19 139,-52 208,-97 67,-47 135,-105 201,-179l58 219zm-945 -334l580 -155c-30,-78 -76,-134 -139,-168 -64,-35 -133,-42 -209,-22 -83,23 -145,63 -184,121 -39,58 -56,133 -48,224zm1809 226l-292 -1091 217 -59 36 132c40,-65 84,-118 132,-157 47,-37 103,-65 165,-81 79,-21 151,-26 213,-11 62,16 119,50 175,104 48,-85 99,-148 150,-193 50,-43 109,-74 175,-91 119,-33 221,-24 309,26 87,51 146,135 178,254l194 724 -219 59 -180 -668c-23,-89 -59,-150 -107,-181 -47,-32 -111,-38 -188,-17 -58,16 -105,39 -141,73 -38,33 -69,79 -96,139l211 789 -214 57 -179 -668c-23,-89 -60,-150 -107,-181 -49,-32 -113,-37 -191,-17 -57,16 -103,39 -139,73 -37,32 -68,79 -95,139l211 787 -218 59zm2399 -882l-86 -319c-134,85 -225,155 -270,208 -44,53 -61,106 -48,156 13,46 37,77 72,93 36,17 80,18 131,5 40,-11 76,-28 109,-52 33,-23 63,-54 92,-91zm43 132c-44,52 -88,94 -134,125 -44,30 -94,53 -151,68 -98,26 -182,23 -248,-9 -68,-33 -113,-90 -135,-171 -21,-77 -9,-154 35,-228 44,-74 121,-148 230,-220l237 -156c-2,-7 -2,-14 -4,-20 -1,-6 -3,-15 -6,-27 -17,-65 -46,-108 -87,-128 -38,-20 -95,-21 -168,-1 -62,16 -120,46 -178,89 -57,43 -113,98 -164,166l-57 -215c44,-60 97,-112 161,-154 62,-41 132,-73 211,-94 140,-38 250,-33 331,10 80,46 139,136 175,274l125 464c9,37 20,63 31,78 11,15 25,20 40,16 14,-4 27,-11 40,-22 13,-11 33,-35 58,-69l35 133c-29,44 -63,80 -99,107 -35,27 -75,46 -119,58 -41,11 -74,10 -100,-2 -25,-12 -45,-35 -59,-72zm535 -48l-444 -1652 219 -59 443 1653 -218 58zm980 -501l-85 -320c-135,85 -224,155 -271,209 -44,53 -61,105 -46,156 11,45 36,76 70,93 37,17 80,17 132,4 39,-10 75,-28 108,-52 33,-23 64,-54 92,-90zm43 131c-43,53 -88,95 -133,125 -45,30 -95,53 -152,69 -98,26 -180,23 -248,-10 -68,-32 -113,-89 -135,-171 -20,-77 -9,-153 36,-227 44,-75 120,-148 229,-220l237 -157c-1,-7 -2,-13 -3,-19 -2,-6 -4,-16 -7,-28 -17,-65 -45,-108 -86,-127 -39,-20 -96,-21 -169,-1 -60,15 -120,46 -178,89 -57,42 -112,98 -164,166l-57 -215c44,-62 98,-113 161,-155 62,-41 133,-72 211,-93 140,-38 250,-33 331,10 80,45 139,136 176,274l124 462c10,39 21,65 32,79 11,15 24,20 40,16 14,-4 26,-11 40,-21 12,-12 32,-35 57,-70l36 133c-30,45 -64,81 -99,107 -36,28 -75,46 -119,59 -42,11 -75,10 -101,-2 -25,-12 -45,-36 -59,-73zm1215 -490l-164 -615c-42,-15 -83,-24 -124,-26 -40,-3 -81,2 -124,13 -111,29 -189,87 -235,172 -45,84 -53,187 -20,306 32,119 89,204 170,255 82,52 180,62 290,32 43,-11 81,-27 115,-50 33,-23 65,-51 92,-87zm48 183c-31,38 -68,70 -111,96 -42,26 -93,46 -148,62 -158,41 -300,23 -429,-55 -127,-80 -214,-204 -259,-370 -45,-169 -32,-319 40,-450 71,-133 185,-220 343,-262 54,-15 108,-23 157,-21 50,1 100,11 148,29l-166 -622 217 -58 443 1653 -218 58 -17 -60zm130 -1485c-9,-34 -5,-67 12,-98 18,-30 44,-49 79,-58 34,-9 67,-6 98,12 29,17 49,43 58,78 10,35 5,68 -12,97 -17,30 -43,50 -77,60 -36,9 -68,4 -98,-13 -30,-17 -50,-43 -60,-78zm394 1409l-293 -1091 218 -58 292 1091 -217 58zm1430 -507c-61,66 -125,121 -196,165 -70,44 -147,77 -229,98 -171,48 -323,31 -455,-49 -131,-79 -220,-208 -268,-386 -44,-163 -30,-309 42,-437 70,-128 186,-213 345,-257 158,-41 297,-23 416,56 120,78 203,205 250,380l9 32 -818 219c34,103 90,174 167,215 76,41 167,49 270,22 69,-19 137,-52 207,-97 67,-46 135,-106 201,-179l59 218zm-945 -334l578 -154c-29,-78 -75,-135 -138,-169 -63,-34 -133,-41 -208,-21 -84,22 -146,63 -185,120 -39,59 -55,134 -47,224z"/>
    </g>
   </g>
  </g>
  <polygon class="fil2" points="0,0 72376,0 72376,40601 0,40601 "/>
 </g>
</svg>
