<?xml version="1.0" encoding="UTF-8"?>
<!DOCTYPE svg PUBLIC "-//W3C//DTD SVG 1.1//EN" "http://www.w3.org/Graphics/SVG/1.1/DTD/svg11.dtd">
<!-- Creator: CorelDRAW X7 -->
<svg xmlns="http://www.w3.org/2000/svg" xml:space="preserve" width="40px" height="30px" version="1.1" style="shape-rendering:geometricPrecision; text-rendering:geometricPrecision; image-rendering:optimizeQuality; fill-rule:evenodd; clip-rule:evenodd"
viewBox="0 0 2315 1735"
 xmlns:xlink="http://www.w3.org/1999/xlink">
 <defs>
  <style type="text/css">
   <![CDATA[
    .fil0 {fill:#0092A8}
   ]]>
  </style>
 </defs>
 <g id="Plan_x0020_1">
  <metadata id="CorelCorpID_0Corel-Layer"/>
  <path class="fil0" d="M2088 21c-28,-28 -75,-28 -103,0l-1078 1073c-28,31 -75,31 -103,0l-472 -479c-14,-16 -33,-23 -51,-23 -19,0 -38,7 -52,23l-208 187c-14,14 -21,33 -21,52 0,18 7,37 21,51l477 500c28,28 75,75 103,103l203 206c28,28 75,28 103,0l1387 -1382c28,-28 28,-75 0,-103l-206 -208 0 0z"/>
 </g>
</svg>
