<?xml version="1.0" encoding="UTF-8"?>
<!DOCTYPE svg PUBLIC "-//W3C//DTD SVG 1.1//EN" "http://www.w3.org/Graphics/SVG/1.1/DTD/svg11.dtd">
<!-- Creator: CorelDRAW X7 -->
<svg xmlns="http://www.w3.org/2000/svg" xml:space="preserve" width="33px" height="46px" version="1.1" style="shape-rendering:geometricPrecision; text-rendering:geometricPrecision; image-rendering:optimizeQuality; fill-rule:evenodd; clip-rule:evenodd"
viewBox="0 0 1170 1638"
 xmlns:xlink="http://www.w3.org/1999/xlink">
 <defs>
  <style type="text/css">
   <![CDATA[
    .fil1 {fill:#CCCCCC}
    .fil0 {fill:#E3E3E3}
    .fil2 {fill:white}
   ]]>
  </style>
 </defs>
 <g id="Plan_x0020_1">
  <metadata id="CorelCorpID_0Corel-Layer"/>
  <g id="_677919120">
   <path class="fil0" d="M1170 390l-351 0c-22,0 -39,-18 -39,-39l0 -351 -702 0c-43,0 -78,35 -78,78l0 1482c0,43 35,78 78,78l1014 0c43,0 78,-35 78,-78l0 -1170z"/>
   <polygon class="fil1" points="858,54 858,312 1116,312 "/>
   <path class="fil2" d="M936 780l-702 0c-22,0 -39,-18 -39,-39 0,-22 17,-39 39,-39l702 0c22,0 39,17 39,39 0,21 -17,39 -39,39z"/>
   <path class="fil2" d="M936 1092l-702 0c-22,0 -39,-18 -39,-39 0,-22 17,-39 39,-39l702 0c22,0 39,17 39,39 0,21 -17,39 -39,39z"/>
   <path class="fil2" d="M936 1404l-702 0c-22,0 -39,-18 -39,-39 0,-22 17,-39 39,-39l702 0c22,0 39,17 39,39 0,21 -17,39 -39,39z"/>
  </g>
 </g>
</svg>
