<?xml version="1.0" encoding="UTF-8"?>
<!DOCTYPE svg PUBLIC "-//W3C//DTD SVG 1.1//EN" "http://www.w3.org/Graphics/SVG/1.1/DTD/svg11.dtd">
<!-- Creator: CorelDRAW X7 -->
<svg xmlns="http://www.w3.org/2000/svg" xml:space="preserve" width="116px" height="65px" version="1.1" style="shape-rendering:geometricPrecision; text-rendering:geometricPrecision; image-rendering:optimizeQuality; fill-rule:evenodd; clip-rule:evenodd"
viewBox="0 0 21709 12183"
 xmlns:xlink="http://www.w3.org/1999/xlink">
 <defs>
  <style type="text/css">
   <![CDATA[
    .fil0 {fill:#546E7A}
    .fil1 {fill:#87BE2E}
    .fil2 {fill:#B0BEC5}
    .fil3 {fill:#2B2A29;fill-rule:nonzero}
   ]]>
  </style>
 </defs>
 <g id="Plan_x0020_1">
  <metadata id="CorelCorpID_0Corel-Layer"/>
  <g id="_527787952">
   <g>
    <path class="fil0" d="M4180 7588c-1207,0 -2184,-968 -2184,-2164 0,-1195 977,-2164 2184,-2164 1207,0 2185,969 2185,2164 0,1196 -978,2164 -2185,2164zm0 -5100c-1637,0 -2965,1314 -2965,2936 0,1623 1328,2937 2965,2937 1638,0 2965,-1314 2965,-2937 0,-1622 -1327,-2936 -2965,-2936z"/>
    <polygon class="fil1" points="6014,5061 5998,4993 5013,5137 3592,5344 3645,5568 3699,5791 5066,5360 "/>
    <polygon class="fil2" points="741,3070 1817,2005 2203,2387 1127,3453 "/>
    <polygon class="fil2" points="1441,3232 1979,2698 2322,3038 1784,3571 "/>
    <polygon class="fil2" points="7635,3072 6559,2006 6173,2389 7249,3454 "/>
    <polygon class="fil2" points="6934,3233 6396,2700 6053,3040 6591,3573 "/>
    <polygon class="fil2" points="4520,2414 3786,2414 3786,1679 4520,1679 "/>
    <path class="fil2" d="M4180 0c-646,0 -1170,519 -1170,1160 0,477 291,887 707,1065l0 -383c-221,-148 -367,-398 -367,-682 0,-455 372,-823 830,-823 459,0 831,368 831,823 0,307 -170,574 -422,715l0 372c445,-165 762,-589 762,-1087 0,-641 -524,-1160 -1171,-1160l0 0z"/>
   </g>
   <g>
    <path class="fil3" d="M0 12155l0 -1654 740 0c149,0 262,15 340,44 77,30 139,82 185,158 46,74 69,158 69,249 0,117 -38,216 -115,296 -76,81 -194,132 -355,154 59,27 103,55 134,82 64,59 125,132 182,220l289 451 -275 0 -221 -344c-65,-100 -118,-176 -159,-229 -42,-52 -80,-89 -113,-110 -32,-21 -66,-36 -101,-44 -24,-5 -65,-8 -122,-8l-256 0 0 735 -222 0 0 0zm222 -924l474 0c101,0 180,-11 236,-31 57,-21 100,-54 129,-100 30,-45 45,-95 45,-148 0,-78 -28,-143 -86,-193 -57,-51 -147,-76 -270,-76l-528 0 0 548z"/>
    <path id="_1" class="fil3" d="M1497 12155l641 -1654 243 0 680 1654 -252 0 -193 -502 -704 0 -181 502 -234 0zm480 -679l570 0 -174 -459c-53,-139 -92,-255 -120,-346 -23,108 -54,214 -92,319l-184 486 0 0z"/>
    <path id="_2" class="fil3" d="M3236 12155l0 -1654 631 0c111,0 195,5 254,15 82,14 151,40 207,78 56,37 100,91 134,159 34,68 51,143 51,225 0,140 -45,259 -136,356 -90,98 -254,146 -490,146l-429 0 0 675 -222 0 0 0zm222 -869l431 0c143,0 244,-26 305,-79 60,-53 90,-126 90,-222 0,-69 -17,-128 -53,-178 -36,-49 -82,-82 -140,-98 -37,-9 -106,-14 -206,-14l-427 0 0 591 0 0z"/>
    <polygon id="_3" class="fil3" points="4830,12155 4830,10501 5051,10501 5051,12155 "/>
    <path id="_4" class="fil3" d="M5440 12155l0 -1654 576 0c130,0 229,7 298,23 95,22 177,62 244,119 89,74 155,168 198,283 44,115 66,246 66,393 0,126 -15,237 -45,334 -29,97 -67,178 -113,241 -47,64 -98,114 -153,150 -55,37 -121,64 -199,83 -78,19 -168,28 -269,28l-603 0 0 0zm222 -194l356 0c110,0 197,-10 259,-31 63,-20 113,-48 150,-85 52,-52 93,-123 122,-210 29,-88 44,-194 44,-319 0,-174 -29,-307 -86,-400 -57,-94 -126,-156 -209,-188 -59,-22 -154,-33 -285,-33l-351 0 0 1266 0 0z"/>
    <polygon id="_5" class="fil3" points="7130,12155 7130,10501 8336,10501 8336,10695 7352,10695 7352,11203 8273,11203 8273,11397 7352,11397 7352,11961 8376,11961 8376,12155 "/>
   </g>
   <g>
    <path class="fil2" d="M19597 5265c136,-288 212,-611 212,-950 0,-1243 -1017,-2251 -2272,-2251 -1255,0 -2272,1008 -2272,2251 0,1242 1017,2250 2272,2250 344,0 670,-76 962,-211l-218 -569c-224,112 -476,175 -744,175 -916,0 -1661,-738 -1661,-1645 0,-908 745,-1646 1661,-1646 917,0 1661,738 1661,1646 0,263 -63,512 -175,733l574 217z"/>
    <path class="fil0" d="M16773 4315c0,418 342,756 764,756 422,0 765,-338 765,-756 0,-418 -343,-757 -765,-757 -422,0 -764,339 -764,757z"/>
    <path class="fil2" d="M17537 7493c-1769,0 -3209,-1426 -3209,-3178 0,-1753 1440,-3179 3209,-3179 1769,0 3209,1426 3209,3179 0,456 -98,890 -274,1283l573 217c201,-460 313,-967 313,-1500 0,-2090 -1711,-3784 -3821,-3784 -2110,0 -3820,1694 -3820,3784 0,2089 1710,3783 3820,3783 538,0 1049,-110 1513,-308l-218 -568c-396,173 -834,271 -1295,271l0 0z"/>
    <path class="fil1" d="M21364 7638c18,-17 18,-46 0,-64l-824 -819c-18,-18 -15,-43 7,-55l735 -432c21,-13 20,-31 -4,-40l-2884 -1095c-24,-9 -36,2 -27,26l1098 2859c9,24 27,26 40,4l438 -726c13,-22 38,-25 56,-7l824 820c18,18 47,18 65,0l476 -471 0 0z"/>
   </g>
   <g>
    <path class="fil3" d="M13385 11624l208 -19c10,83 32,152 69,205 36,53 92,96 167,129 76,33 162,50 257,50 84,0 158,-12 223,-38 65,-25 113,-59 144,-102 31,-44 47,-91 47,-142 0,-52 -15,-97 -45,-135 -30,-39 -81,-71 -151,-98 -44,-17 -143,-44 -297,-80 -154,-37 -261,-71 -323,-104 -79,-41 -138,-93 -177,-154 -40,-61 -59,-130 -59,-206 0,-84 24,-162 72,-235 48,-73 118,-127 209,-166 93,-37 195,-56 307,-56 124,0 233,20 328,59 94,40 167,98 218,175 51,76 78,163 81,261l-212 16c-11,-105 -49,-183 -115,-237 -66,-53 -163,-80 -291,-80 -134,0 -232,24 -293,73 -61,49 -92,107 -92,176 0,59 22,108 65,146 43,38 154,78 333,118 180,41 303,75 370,106 97,44 169,100 215,168 46,68 70,146 70,234 0,89 -26,171 -77,249 -51,78 -123,138 -219,181 -95,44 -202,65 -321,65 -151,0 -277,-22 -379,-66 -102,-43 -182,-109 -240,-196 -59,-88 -89,-187 -92,-297l0 0z"/>
    <polygon id="_1_0" class="fil3" points="15051,12155 15051,10501 15272,10501 15272,12155 "/>
    <path id="_2_1" class="fil3" d="M15657 12155l0 -1654 331 0 395 1171c37,109 63,191 80,245 19,-60 49,-149 90,-266l402 -1150 295 0 0 1654 -212 0 0 -1384 -488 1384 -198 0 -483 -1409 0 1409 -212 0 0 0z"/>
    <path id="_3_2" class="fil3" d="M17605 12155l0 -1654 631 0c111,0 195,5 254,15 82,14 151,40 206,78 56,37 101,91 135,159 34,68 50,143 50,225 0,140 -45,259 -136,356 -90,98 -254,146 -490,146l-428 0 0 675 -222 0 0 0zm222 -869l431 0c143,0 244,-26 305,-79 60,-53 90,-126 90,-222 0,-69 -18,-128 -53,-178 -36,-49 -82,-82 -140,-98 -37,-9 -106,-14 -206,-14l-427 0 0 591 0 0z"/>
    <polygon id="_4_3" class="fil3" points="19152,12155 19152,10501 19374,10501 19374,11961 20195,11961 20195,12155 "/>
    <polygon id="_5_4" class="fil3" points="20463,12155 20463,10501 21670,10501 21670,10695 20685,10695 20685,11203 21607,11203 21607,11397 20685,11397 20685,11961 21709,11961 21709,12155 "/>
   </g>
  </g>
 </g>
</svg>
