<?xml version="1.0" encoding="UTF-8"?>
<!DOCTYPE svg PUBLIC "-//W3C//DTD SVG 1.1//EN" "http://www.w3.org/Graphics/SVG/1.1/DTD/svg11.dtd">
<!-- Creator: CorelDRAW X7 -->
<svg xmlns="http://www.w3.org/2000/svg" xml:space="preserve" width="60px" height="46px" version="1.1" style="shape-rendering:geometricPrecision; text-rendering:geometricPrecision; image-rendering:optimizeQuality; fill-rule:evenodd; clip-rule:evenodd"
viewBox="0 0 5872 4580"
 xmlns:xlink="http://www.w3.org/1999/xlink">
 <defs>
  <style type="text/css">
   <![CDATA[
    .str0 {stroke:white;stroke-width:98.5685}
    .fil4 {fill:none}
    .fil10 {fill:#FEFEFE}
    .fil0 {fill:#009EBA}
    .fil8 {fill:#3397CC}
    .fil7 {fill:#4FAFE3}
    .fil3 {fill:#7B6ECF}
    .fil2 {fill:#8591D9}
    .fil6 {fill:#8BB315}
    .fil5 {fill:#A3CC29}
    .fil9 {fill:white}
    .fil1 {fill:white;fill-rule:nonzero}
   ]]>
  </style>
    <clipPath id="id0">
     <path d="M3299 1368l0 0c363,0 660,-297 660,-659l0 0c0,-363 -297,-660 -660,-660l0 0c-362,0 -659,297 -659,660l0 0c0,362 297,659 659,659z"/>
    </clipPath>
    <clipPath id="id1">
     <path d="M1049 2479l0 0c549,0 999,-450 999,-1000l0 0c0,-549 -450,-999 -999,-999l0 0c-550,0 -1000,450 -1000,999l0 0c0,550 450,1000 1000,1000z"/>
    </clipPath>
    <clipPath id="id2">
     <path d="M5822 2473c0,-419 -339,-758 -757,-758 -418,0 -757,339 -757,758 0,418 339,757 757,757 418,0 757,-339 757,-757z"/>
    </clipPath>
 </defs>
 <g id="popin">
  <metadata id="CorelCorpID_0Corel-Layer"/>
  <g id="_648760200">
   <path class="fil0" d="M3193 1082c-942,-165 -1842,479 -2010,1438 -167,959 460,1870 1402,2034 942,165 1842,-479 2009,-1438 15,-85 24,-170 26,-254 -120,-97 -186,-257 -157,-422 11,-67 37,-127 73,-179 -192,-595 -693,-1065 -1343,-1179z"/>
   <g>
    <path class="fil1" d="M1426 2923l361 -212 43 74 -277 163 98 174 199 -116 42 73 -199 116 114 200 290 -170 44 76 -375 220 -340 -598zm842 -319l-61 70c-28,-24 -57,-38 -86,-42 -29,-3 -58,3 -87,20 -25,15 -41,34 -49,57 -7,22 -5,45 7,67 14,23 33,39 57,46 24,7 63,7 116,0 7,-1 16,-2 28,-4 61,-8 106,-10 135,-5 29,5 54,15 75,30 20,14 38,34 52,60 29,50 35,101 19,153 -17,51 -54,94 -111,127 -52,31 -104,44 -155,39 -51,-5 -99,-27 -144,-67l61 -78c33,28 66,45 100,50 34,5 67,-1 98,-20 31,-18 50,-41 59,-69 9,-28 6,-56 -9,-84 -14,-22 -32,-37 -57,-43 -24,-7 -72,-5 -145,6 -76,10 -133,9 -171,-3 -37,-12 -66,-37 -88,-75 -26,-46 -31,-94 -15,-143 17,-50 51,-90 103,-121 48,-27 95,-39 141,-34 46,5 89,26 127,63zm97 -135l112 197 92 -55c48,-27 77,-55 88,-82 11,-27 6,-58 -14,-94 -20,-35 -44,-54 -73,-56 -29,-3 -67,9 -115,37l-90 53zm-126 -23l188 -110c70,-41 129,-57 179,-49 50,8 91,41 123,98 32,56 40,108 24,157 -16,49 -55,92 -116,128l-119 69 146 256 -84 49 -341 -598z"/>
    <polygon class="fil1" points="2871,2679 2848,2601 3028,2496 2708,2180 2787,2134 3318,2637 3229,2689 3088,2552 "/>
    <path class="fil1" d="M3477 1961l-68 66c-30,-33 -61,-53 -93,-60 -32,-7 -65,-1 -98,18 -44,26 -67,67 -68,122 -1,56 20,121 63,197 43,75 88,125 135,150 47,24 95,23 142,-5 34,-20 56,-47 67,-81 11,-35 9,-73 -5,-116l89 -26c19,68 18,126 0,177 -19,50 -55,92 -110,124 -74,43 -146,50 -216,21 -69,-30 -132,-95 -188,-194 -56,-97 -78,-185 -69,-263 10,-78 51,-138 122,-180 54,-32 106,-43 156,-35 50,9 97,37 141,85zm-52 -183l363 -213 42 75 -278 163 99 174 199 -117 42 73 -199 117 114 200 291 -171 43 77 -375 220 -341 -598z"/>
    <path class="fil1" d="M2998 3463l100 -58c60,-36 99,-71 116,-107 18,-36 15,-75 -9,-115 -24,-43 -55,-66 -92,-70 -37,-3 -87,14 -150,51l-101 59 -51 -89 98 -58c98,-57 179,-82 244,-76 65,7 117,46 158,117 27,48 38,96 32,142 -7,45 -30,89 -69,131l362 245 -114 68 -333 -231 -139 82 -52 -91z"/>
    <path class="fil1" d="M2409 3493l138 243 115 -67c59,-35 95,-69 109,-102 14,-33 8,-72 -17,-117 -25,-42 -55,-66 -90,-69 -36,-4 -84,12 -143,47l-112 65zm-155 -28l233 -137c86,-50 159,-70 221,-60 61,10 112,50 153,121 39,69 48,133 28,194 -19,60 -67,113 -144,158l-146 86 180 316 -105 61 -420 -739z"/>
    <path class="fil1" d="M3484 3148c24,91 73,159 145,205 74,46 152,57 237,34 83,-23 145,-72 185,-149 40,-76 48,-160 24,-252 -24,-93 -73,-162 -146,-206 -73,-45 -153,-55 -241,-31 -79,21 -139,71 -179,148 -41,77 -49,160 -25,251zm-104 30c-31,-116 -18,-225 39,-328 56,-103 138,-170 245,-199 112,-30 218,-16 319,43 100,59 165,145 195,256 31,118 18,228 -37,332 -56,105 -139,172 -249,202 -113,30 -219,16 -318,-45 -99,-60 -164,-147 -194,-261z"/>
   </g>
   <path class="fil2" d="M3299 1368l0 0c363,0 660,-297 660,-659l0 0c0,-363 -297,-660 -660,-660l0 0c-362,0 -659,297 -659,660l0 0c0,362 297,659 659,659z"/>
   <g style="clip-path:url(#id0)">
    <g>
     <path id="1" class="fil3" d="M3959 1001l-427 -567c-519,1 -494,-28 -440,26l-14 510 398 398 483 0 0 -367z"/>
    </g>
   </g>
   <path class="fil4 str0" d="M3299 1368l0 0c363,0 660,-297 660,-659l0 0c0,-363 -297,-660 -660,-660l0 0c-362,0 -659,297 -659,660l0 0c0,362 297,659 659,659z"/>
   <path class="fil5" d="M1049 2479l0 0c549,0 999,-450 999,-1000l0 0c0,-549 -450,-999 -999,-999l0 0c-550,0 -1000,450 -1000,999l0 0c0,550 450,1000 1000,1000z"/>
   <g style="clip-path:url(#id1)">
    <g>
     <polygon id="1" class="fil6" points="2000,1880 1172,1052 932,1607 646,1886 1238,2479 2000,2479 "/>
    </g>
   </g>
   <path class="fil4 str0" d="M1049 2479l0 0c549,0 999,-450 999,-1000l0 0c0,-549 -450,-999 -999,-999l0 0c-550,0 -1000,450 -1000,999l0 0c0,550 450,1000 1000,1000z"/>
   <path class="fil7" d="M5822 2473c0,-419 -339,-758 -757,-758 -418,0 -757,339 -757,758 0,418 339,757 757,757 418,0 757,-339 757,-757z"/>
   <g style="clip-path:url(#id2)">
    <g>
     <path id="1" class="fil8" d="M5804 2635l-419 -452 -250 -39 -300 324 -128 378 398 429c345,-20 628,-287 699,-640z"/>
    </g>
   </g>
   <path class="fil4 str0" d="M5822 2473c0,-419 -339,-758 -757,-758 -418,0 -757,339 -757,758 0,418 339,757 757,757 418,0 757,-339 757,-757z"/>
   <path class="fil9" d="M1451 1775c0,-96 -83,-138 -144,-157 -56,-18 -147,-43 -147,-43 -18,-19 -22,-58 -23,-109 57,-48 107,-133 107,-222 0,-137 -87,-231 -195,-231 -108,0 -196,94 -196,231 0,89 50,174 107,222 -1,51 -5,90 -23,109 0,0 -91,25 -146,43 -61,19 -145,61 -145,157l0 171 805 0 0 -171z"/>
   <path class="fil9" d="M5395 2208l-65 -65c-26,-26 -60,-38 -93,-38 -34,0 -68,12 -93,38l0 0 -17 17 -318 320 -112 361 361 -112 320 -318 17 -17c25,-25 38,-59 38,-93 0,-33 -13,-67 -38,-93zm-357 489l-140 43 -101 -100 44 -140 197 197zm226 -225l-199 -199 87 -87 200 199 -88 87z"/>
   <g>
    <rect class="fil10" x="3046" y="918" width="507.519" height="86.7563" rx="18" ry="43"/>
    <rect class="fil10" x="3046" y="750" width="424.119" height="86.7563" rx="15" ry="43"/>
    <rect class="fil10" x="3046" y="581" width="418.796" height="86.7563" rx="15" ry="43"/>
    <rect class="fil10" x="3046" y="412" width="506.502" height="86.7563" rx="18" ry="43"/>
   </g>
  </g>
 </g>
</svg>
