<?xml version="1.0" encoding="UTF-8"?>
<!DOCTYPE svg PUBLIC "-//W3C//DTD SVG 1.1//EN" "http://www.w3.org/Graphics/SVG/1.1/DTD/svg11.dtd">
<!-- Creator: CorelDRAW X7 -->
<svg xmlns="http://www.w3.org/2000/svg" xml:space="preserve" width="34px" height="34px" version="1.1" style="shape-rendering:geometricPrecision; text-rendering:geometricPrecision; image-rendering:optimizeQuality; fill-rule:evenodd; clip-rule:evenodd"
viewBox="0 0 2035 2035"
 xmlns:xlink="http://www.w3.org/1999/xlink">
 <defs>
  <style type="text/css">
   <![CDATA[
    .fil1 {fill:none}
    .fil0 {fill:#BD6902}
    .fil2 {fill:white}
   ]]>
  </style>
    <clipPath id="id0">
     <path d="M1018 0l0 0c559,0 1017,458 1017,1018l0 0c0,559 -458,1017 -1017,1017l0 0c-560,0 -1018,-458 -1018,-1017l0 0c0,-560 458,-1018 1018,-1018z"/>
    </clipPath>
 </defs>
 <g id="Plan_x0020_1">
  <metadata id="CorelCorpID_0Corel-Layer"/>
  <g id="_528648672">
   <path class="fil0" d="M1018 0l0 0c559,0 1017,458 1017,1018l0 0c0,559 -458,1017 -1017,1017l0 0c-560,0 -1018,-458 -1018,-1017l0 0c0,-560 458,-1018 1018,-1018z"/>
   <g>
   </g>
   <g style="clip-path:url(#id0)">
   </g>
   <path class="fil1" d="M1018 0l0 0c559,0 1017,458 1017,1018l0 0c0,559 -458,1017 -1017,1017l0 0c-560,0 -1018,-458 -1018,-1017l0 0c0,-560 458,-1018 1018,-1018z"/>
   <g id="Icon">
    <path class="fil2" d="M1129 1430l41 103c-49,14 -100,21 -152,21 -304,0 -551,-246 -551,-551 0,-304 247,-550 551,-550 304,0 551,246 551,550 0,53 -8,104 -22,153l-103 -42c9,-35 14,-72 14,-111 0,-243 -197,-440 -440,-440 -244,0 -441,197 -441,440 0,244 197,441 441,441 38,0 75,-5 111,-14l0 0zm-111 -207c-122,0 -221,-98 -221,-220 0,-121 99,-220 221,-220 121,0 220,99 220,220 0,10 -1,19 -2,28l105 42c5,-22 7,-46 7,-70 0,-182 -148,-330 -330,-330 -183,0 -331,148 -331,330 0,183 148,331 331,331 24,0 47,-3 70,-8l-42 -104c-10,1 -19,1 -28,1zm0 -109c61,0 109,-50 109,-111 0,-60 -48,-110 -109,-110 -61,0 -111,50 -111,110 0,61 50,111 111,111zm338 136l139 -63 -477 -184 183 478 64 -139 157 157 91 -92 -157 -157 0 0z"/>
   </g>
  </g>
 </g>
</svg>
