<?xml version="1.0" encoding="UTF-8"?>
<!DOCTYPE svg PUBLIC "-//W3C//DTD SVG 1.1//EN" "http://www.w3.org/Graphics/SVG/1.1/DTD/svg11.dtd">
<!-- Creator: CorelDRAW X7 -->
<svg xmlns="http://www.w3.org/2000/svg" xml:space="preserve" width="34px" height="34px" version="1.1" style="shape-rendering:geometricPrecision; text-rendering:geometricPrecision; image-rendering:optimizeQuality; fill-rule:evenodd; clip-rule:evenodd"
viewBox="0 0 2431 2432"
 xmlns:xlink="http://www.w3.org/1999/xlink">
 <defs>
  <style type="text/css">
   <![CDATA[
    .fil1 {fill:none}
    .fil0 {fill:#1CB0B9}
    .fil2 {fill:white}
   ]]>
  </style>
    <clipPath id="id0">
     <path d="M1215 0l0 0c670,0 1216,547 1216,1215l0 0c0,670 -546,1217 -1216,1217l0 0c-668,0 -1215,-547 -1215,-1217l0 0c0,-668 547,-1215 1215,-1215z"/>
    </clipPath>
 </defs>
 <g id="Plan_x0020_1">
  <metadata id="CorelCorpID_0Corel-Layer"/>
  <g id="_485768424">
   <path class="fil0" d="M1215 0l0 0c670,0 1216,547 1216,1215l0 0c0,670 -546,1217 -1216,1217l0 0c-668,0 -1215,-547 -1215,-1217l0 0c0,-668 547,-1215 1215,-1215z"/>
   <g>
   </g>
   <g style="clip-path:url(#id0)">
   </g>
   <path class="fil1" d="M1215 0l0 0c670,0 1216,547 1216,1215l0 0c0,670 -546,1217 -1216,1217l0 0c-668,0 -1215,-547 -1215,-1217l0 0c0,-668 547,-1215 1215,-1215z"/>
   <g id="_573118216">
    <path class="fil2" d="M1270 1142c-17,0 -36,0 -53,0 -19,1 -37,1 -55,1l0 355 0 3c0,1 2,49 -28,80 -18,19 -47,29 -84,29l-75 0c-31,0 -55,25 -55,54 0,30 24,54 55,54l75 0c69,0 123,-21 162,-62 59,-61 58,-143 58,-159l0 -355 0 0z"/>
    <path class="fil2" d="M1597 787c-90,-69 -206,-109 -334,-117l-28 -108c0,0 -4,-22 -20,-22 -15,0 -18,23 -18,23l-27 107c-129,8 -246,48 -336,117 -135,89 -216,231 -216,402 0,19 14,33 32,33 18,0 33,-14 33,-33 0,-8 0,-17 1,-25 26,-18 65,-37 116,-44 73,-11 125,1 144,7 0,8 0,16 0,24 0,18 14,33 32,33 17,0 31,-15 31,-33 0,-10 0,-21 1,-32 13,-12 50,-36 154,-43 7,0 16,-1 25,-1 9,0 19,0 28,0 11,0 20,0 29,0 10,0 17,1 26,1 128,9 149,44 151,49 1,1 1,1 2,1 0,9 1,16 1,25 0,18 14,33 32,33 17,0 31,-15 31,-33 0,-8 0,-16 0,-24 19,-6 71,-18 144,-7 51,7 91,26 117,44 0,8 1,17 1,25 0,19 14,33 32,33 18,0 33,-14 33,-33 0,-171 -82,-313 -217,-402l0 0z"/>
   </g>
  </g>
 </g>
</svg>
