<?xml version="1.0" encoding="UTF-8"?>
<!DOCTYPE svg PUBLIC "-//W3C//DTD SVG 1.1//EN" "http://www.w3.org/Graphics/SVG/1.1/DTD/svg11.dtd">
<!-- Creator: CorelDRAW X7 -->
<svg xmlns="http://www.w3.org/2000/svg" xml:space="preserve" width="50px" height="61px" version="1.1" style="shape-rendering:geometricPrecision; text-rendering:geometricPrecision; image-rendering:optimizeQuality; fill-rule:evenodd; clip-rule:evenodd"
viewBox="0 0 2912 3577"
 xmlns:xlink="http://www.w3.org/1999/xlink">
 <defs>
  <style type="text/css">
   <![CDATA[
    .fil1 {fill:none}
    .fil0 {fill:#1CB0B9}
    .fil2 {fill:white}
   ]]>
  </style>
    <clipPath id="id0">
     <path d="M1456 0l0 0c801,0 1456,655 1456,1456l0 0c0,801 -655,1456 -1456,1456l0 0c-801,0 -1456,-655 -1456,-1456l0 0c0,-801 655,-1456 1456,-1456z"/>
    </clipPath>
 </defs>
 <g id="Plan_x0020_1">
  <metadata id="CorelCorpID_0Corel-Layer"/>
  <g id="_521390144">
   <path class="fil0" d="M1456 0l0 0c801,0 1456,655 1456,1456l0 0c0,801 -655,1456 -1456,1456l0 0c-801,0 -1456,-655 -1456,-1456l0 0c0,-801 655,-1456 1456,-1456z"/>
   <g style="clip-path:url(#id0)">
   </g>
   <path id="1" class="fil1" d="M1456 0l0 0c801,0 1456,655 1456,1456l0 0c0,801 -655,1456 -1456,1456l0 0c-801,0 -1456,-655 -1456,-1456l0 0c0,-801 655,-1456 1456,-1456z"/>
   <g>
    <path class="fil2" d="M1521 1368c-21,-1 -42,-1 -63,-1 -23,1 -45,2 -67,2l0 425 0 4c0,1 2,59 -33,96 -21,23 -56,35 -101,35l-90 0c-35,0 -65,29 -65,65 0,35 30,64 65,64l90 0c83,0 148,-25 196,-75 69,-73 69,-171 68,-190l0 -425z"/>
    <path class="fil2" d="M1913 942c-107,-82 -246,-129 -400,-139l-33 -130c0,0 -6,-26 -24,-26 -18,0 -23,27 -23,27l-32 129c-154,9 -294,57 -402,139 -162,108 -259,278 -259,483 0,22 18,39 39,39 22,0 39,-17 39,-39 0,-10 0,-21 1,-32 31,-19 79,-43 139,-52 88,-13 150,2 173,9 0,10 0,20 0,29 0,21 17,38 38,38 21,0 38,-17 38,-38 0,-13 0,-26 0,-39 16,-14 61,-43 184,-50 10,-1 20,-1 30,-2 11,0 23,0 35,0 12,0 24,0 34,0 11,1 21,1 31,2 154,9 178,52 181,58 1,0 2,0 3,1 0,10 1,20 1,30 0,21 16,38 37,38 21,0 38,-17 38,-38 0,-10 0,-19 0,-29 23,-7 85,-22 173,-9 61,9 108,33 139,52 1,11 1,22 1,32 0,22 18,39 39,39 22,0 39,-17 39,-39 0,-205 -97,-375 -259,-483z"/>
   </g>
  </g>
  <polygon class="fil0" points="1456,3577 1569,3382 1682,3186 1456,3186 1230,3186 1343,3382 "/>
 </g>
</svg>
