<?xml version="1.0" encoding="UTF-8"?>
<!DOCTYPE svg PUBLIC "-//W3C//DTD SVG 1.1//EN" "http://www.w3.org/Graphics/SVG/1.1/DTD/svg11.dtd">
<!-- Creator: CorelDRAW X7 -->
<svg xmlns="http://www.w3.org/2000/svg" xml:space="preserve" width="34px" height="34px" version="1.1" style="shape-rendering:geometricPrecision; text-rendering:geometricPrecision; image-rendering:optimizeQuality; fill-rule:evenodd; clip-rule:evenodd"
viewBox="0 0 2035 2035"
 xmlns:xlink="http://www.w3.org/1999/xlink">
 <defs>
  <style type="text/css">
   <![CDATA[
    .fil1 {fill:none}
    .fil0 {fill:#098A91}
    .fil2 {fill:white}
   ]]>
  </style>
    <clipPath id="id0">
     <path d="M1017 0l0 0c560,0 1018,458 1018,1017l0 0c0,560 -458,1018 -1018,1018l0 0c-559,0 -1017,-458 -1017,-1018l0 0c0,-559 458,-1017 1017,-1017z"/>
    </clipPath>
 </defs>
 <g id="Plan_x0020_1">
  <metadata id="CorelCorpID_0Corel-Layer"/>
  <g id="_528651888">
   <path class="fil0" d="M1017 0l0 0c560,0 1018,458 1018,1017l0 0c0,560 -458,1018 -1018,1018l0 0c-559,0 -1017,-458 -1017,-1018l0 0c0,-559 458,-1017 1017,-1017z"/>
   <g>
   </g>
   <g style="clip-path:url(#id0)">
   </g>
   <path class="fil1" d="M1017 0l0 0c560,0 1018,458 1018,1017l0 0c0,560 -458,1018 -1018,1018l0 0c-559,0 -1017,-458 -1017,-1018l0 0c0,-559 458,-1017 1017,-1017z"/>
   <g id="_567983912">
    <path class="fil2" d="M1063 955c-15,0 -30,0 -44,0 -16,1 -32,1 -47,2l0 297 0 2c0,1 2,42 -23,67 -15,16 -39,24 -71,24l-62 0c-26,0 -46,21 -46,46 0,25 20,45 46,45l62 0c58,0 104,-18 137,-52 49,-51 48,-119 48,-133l0 -297 0 -1z"/>
    <path class="fil2" d="M1337 659c-75,-58 -172,-91 -280,-98l-23 -90c0,0 -4,-19 -17,-19 -13,0 -15,19 -15,19l-23 90c-108,6 -206,40 -281,98 -113,74 -181,193 -181,337 0,15 12,27 27,27 15,0 27,-12 27,-27 0,-8 0,-15 1,-22 22,-15 55,-31 97,-37 62,-9 105,2 121,6 0,7 0,14 0,20 0,16 12,28 27,28 14,0 26,-12 26,-28 0,-8 0,-17 1,-27 10,-9 42,-29 128,-35 7,0 14,-1 21,-1 8,0 16,0 24,0 9,0 17,0 24,0 8,0 15,1 22,1 107,7 125,37 127,41 0,1 0,1 1,1 0,7 1,13 1,20 0,16 12,28 26,28 15,0 27,-12 27,-28 0,-6 0,-13 0,-20 16,-4 59,-15 120,-6 43,6 76,22 98,37 0,7 1,14 1,22 0,15 12,27 27,27 14,0 27,-12 27,-27 0,-144 -68,-263 -181,-337l0 0z"/>
   </g>
  </g>
 </g>
</svg>
