<?xml version="1.0" encoding="UTF-8"?>
<!DOCTYPE svg PUBLIC "-//W3C//DTD SVG 1.1//EN" "http://www.w3.org/Graphics/SVG/1.1/DTD/svg11.dtd">
<!-- Creator: CorelDRAW X7 -->
<svg xmlns="http://www.w3.org/2000/svg" xml:space="preserve" width="44px" height="44px" version="1.1" style="shape-rendering:geometricPrecision; text-rendering:geometricPrecision; image-rendering:optimizeQuality; fill-rule:evenodd; clip-rule:evenodd"
viewBox="0 0 2418 2418"
 xmlns:xlink="http://www.w3.org/1999/xlink">
 <defs>
  <style type="text/css">
   <![CDATA[
    .fil1 {fill:none}
    .fil0 {fill:#839E29}
    .fil2 {fill:#FEFEFE;fill-rule:nonzero}
   ]]>
  </style>
    <clipPath id="id0">
     <path d="M1209 0c-668,0 -1209,541 -1209,1209 0,668 541,1209 1209,1209 668,0 1209,-541 1209,-1209 0,-668 -541,-1209 -1209,-1209z"/>
    </clipPath>
 </defs>
 <g id="popin">
  <metadata id="CorelCorpID_0Corel-Layer"/>
  <g id="_643061088">
   <path class="fil0" d="M1209 0c-668,0 -1209,541 -1209,1209 0,668 541,1209 1209,1209 668,0 1209,-541 1209,-1209 0,-668 -541,-1209 -1209,-1209z"/>
   <g style="clip-path:url(#id0)">
   </g>
   <path id="1" class="fil1" d="M1209 0c-668,0 -1209,541 -1209,1209 0,668 541,1209 1209,1209 668,0 1209,-541 1209,-1209 0,-668 -541,-1209 -1209,-1209z"/>
   <g>
    <path class="fil2" d="M1824 1205l-279 -118c-22,-9 -47,-6 -66,7l-154 104 -89 -211c0,0 0,0 0,-1 56,-22 127,-55 194,-118 80,-76 121,-148 123,-151 15,-26 6,-59 -20,-73 -26,-15 -58,-6 -73,20 -1,0 -36,61 -105,126 -58,56 -123,82 -176,103 0,0 -149,58 -209,80 -130,48 -169,38 -177,36 -18,-13 -62,-86 -94,-157 -12,-27 -44,-39 -71,-27 -27,12 -39,44 -27,71 1,2 20,43 45,88 50,90 81,112 102,122 18,8 40,13 66,13 49,0 112,-15 193,-45 0,0 0,0 1,0 28,67 104,241 135,314 0,1 1,2 1,3 8,12 21,21 37,27 24,8 49,6 67,-5 21,-13 278,-182 278,-182l243 103c36,15 77,-1 92,-37 15,-36 -2,-77 -37,-92z"/>
    <path class="fil2" d="M1061 887c73,-10 125,-77 115,-150 -10,-73 -77,-125 -150,-115 -73,9 -125,77 -115,150 10,73 77,124 150,115z"/>
    <path class="fil2" d="M1557 1477c-8,-16 -21,-30 -38,-37l-128 -54c-48,31 -97,62 -115,73 -11,7 -24,12 -38,15l201 85 98 226c11,27 37,43 64,43 10,0 19,-2 28,-6 36,-16 52,-57 37,-92l-109 -253z"/>
    <path class="fil2" d="M934 1546c0,0 0,0 0,0 -2,-7 -8,-12 -16,-12 0,0 0,0 0,0 0,0 0,0 0,0l-139 0c0,0 0,0 0,0 -9,0 -17,7 -17,17 0,1 1,2 1,3 0,0 0,0 0,0 0,0 0,0 0,0 45,196 237,299 569,264 -203,-30 -346,-111 -398,-272z"/>
   </g>
  </g>
 </g>
</svg>
