<?xml version="1.0" encoding="UTF-8"?>
<!DOCTYPE svg PUBLIC "-//W3C//DTD SVG 1.1//EN" "http://www.w3.org/Graphics/SVG/1.1/DTD/svg11.dtd">
<!-- Creator: CorelDRAW X7 -->
<svg xmlns="http://www.w3.org/2000/svg" xml:space="preserve" width="44px" height="44px" version="1.1" style="shape-rendering:geometricPrecision; text-rendering:geometricPrecision; image-rendering:optimizeQuality; fill-rule:evenodd; clip-rule:evenodd"
viewBox="0 0 32098 32098"
 xmlns:xlink="http://www.w3.org/1999/xlink">
 <defs>
  <style type="text/css">
   <![CDATA[
    .fil1 {fill:none}
    .fil0 {fill:#01B9F5}
    .fil2 {fill:white}
    .fil3 {fill:#01B9F5;fill-rule:nonzero}
   ]]>
  </style>
   <clipPath id="id0">
    <path d="M16049 0c-8864,0 -16049,7185 -16049,16049 0,8863 7185,16049 16049,16049 8864,0 16049,-7186 16049,-16049 0,-8864 -7185,-16049 -16049,-16049z"/>
   </clipPath>
 </defs>
 <g id="popin">
  <metadata id="CorelCorpID_0Corel-Layer"/>
  <path class="fil0" d="M16049 0c-8864,0 -16049,7185 -16049,16049 0,8863 7185,16049 16049,16049 8864,0 16049,-7186 16049,-16049 0,-8864 -7185,-16049 -16049,-16049z"/>
  <g style="clip-path:url(#id0)">
  </g>
  <path id="1" class="fil1" d="M16049 0c-8864,0 -16049,7185 -16049,16049 0,8863 7185,16049 16049,16049 8864,0 16049,-7186 16049,-16049 0,-8864 -7185,-16049 -16049,-16049z"/>
  <g id="_645428488">
   <path class="fil2" d="M9627 17136c517,3080 3195,5426 6422,5426 3227,0 5904,-2346 6422,-5426 -1246,2264 -3656,3797 -6422,3797 -2767,0 -5176,-1533 -6422,-3797l0 0zm0 2442c517,3079 3195,5427 6422,5427 3227,0 5904,-2348 6422,-5427 -1246,2264 -3656,3798 -6422,3798 -2767,0 -5176,-1534 -6422,-3798l0 0zm12935 -5971c0,-3597 -2916,-6512 -6513,-6512 -3597,0 -6512,2915 -6512,6512 0,3597 2915,6513 6512,6513 3597,0 6513,-2916 6513,-6513zm-6202 -2850l0 563c192,36 350,111 472,224 122,113 239,286 350,520l-478 312c-143,-306 -330,-459 -562,-459 -143,0 -263,49 -358,149 -95,99 -141,223 -141,373 0,136 38,249 114,339 75,88 228,192 455,313 198,105 361,204 491,296 128,93 225,183 290,269 184,233 277,515 277,846 0,325 -83,613 -249,861 -166,246 -386,413 -661,500l0 593 -428 0 0 -576c-320,-61 -564,-191 -732,-388 -168,-197 -292,-501 -372,-912l538 -132c74,290 163,498 269,622 111,119 259,178 443,178 180,0 330,-68 451,-204 119,-133 178,-307 178,-519 0,-189 -50,-342 -149,-456 -51,-55 -126,-118 -224,-188 -98,-70 -225,-146 -378,-228 -317,-167 -525,-319 -624,-459 -159,-209 -238,-458 -238,-749 0,-138 19,-266 57,-385 37,-118 91,-226 163,-323 70,-96 158,-180 263,-251 104,-70 223,-125 355,-166l0 -563 428 0z"/>
   <path class="fil2" d="M22562 13607c0,-3597 -2916,-6512 -6513,-6512 -3598,0 -6513,2915 -6513,6512 0,3597 2915,6513 6513,6513 3597,0 6513,-2916 6513,-6513z"/>
   <path class="fil2" d="M9626 19578c518,3080 3197,5427 6423,5427 3227,0 5904,-2347 6422,-5427 -1246,2264 -3656,3798 -6422,3798 -2767,0 -5176,-1534 -6423,-3798l0 0z"/>
   <path class="fil2" d="M9626 17136c518,3080 3197,5426 6423,5426 3227,0 5904,-2346 6422,-5426 -1246,2264 -3656,3797 -6422,3797 -2767,0 -5176,-1533 -6423,-3797l0 0z"/>
   <path class="fil2" d="M16360 10757l0 563c192,36 350,111 472,224 122,113 239,286 350,520l-477 312c-144,-306 -331,-459 -563,-459 -143,0 -263,49 -358,149 -95,99 -142,224 -142,372 0,137 39,250 115,340 75,88 228,192 455,313 199,104 361,204 491,296 128,93 225,183 291,269 184,233 276,515 276,846 0,326 -84,613 -249,861 -166,247 -386,413 -661,499l0 594 -429 0 0 -576c-319,-62 -564,-191 -731,-388 -168,-197 -292,-501 -372,-913l538 -131c74,291 163,498 269,623 111,118 259,177 443,177 179,0 330,-68 451,-203 119,-134 178,-308 178,-520 0,-189 -50,-342 -149,-456 -51,-55 -126,-118 -224,-188 -98,-70 -224,-147 -378,-228 -317,-167 -525,-319 -624,-459 -158,-209 -237,-458 -237,-749 0,-138 18,-266 56,-385 37,-119 91,-226 163,-322 71,-97 158,-181 263,-252 104,-70 223,-125 354,-166l0 -563 429 0z"/>
   <path class="fil3" d="M16703 10896c-459,0 -841,110 -1151,332 -185,128 -352,314 -502,552 -152,249 -242,483 -269,706l2782 0 -110 552 -2738 0c-2,57 -4,112 -4,161 0,210 2,334 4,375l2631 0 -113 552 -2431 0c113,622 388,1063 823,1324 313,189 650,282 1016,282 509,0 905,-134 1190,-402l0 843c-340,157 -715,236 -1126,236 -1231,0 -2062,-512 -2494,-1534 -88,-206 -163,-456 -225,-749l-621 0 113 -552 426 0c-8,-114 -12,-238 -12,-370 0,-54 1,-109 4,-166l-531 0 113 -552 471 0c169,-886 609,-1523 1319,-1909 437,-238 921,-358 1450,-358 505,0 931,110 1276,331l-163 757c-331,-273 -708,-411 -1128,-411z"/>
  </g>
 </g>
</svg>
