<?xml version="1.0" encoding="UTF-8"?>
<!DOCTYPE svg PUBLIC "-//W3C//DTD SVG 1.1//EN" "http://www.w3.org/Graphics/SVG/1.1/DTD/svg11.dtd">
<!-- Creator: CorelDRAW X7 -->
<svg xmlns="http://www.w3.org/2000/svg" xml:space="preserve" width="44px" height="44px" version="1.1" style="shape-rendering:geometricPrecision; text-rendering:geometricPrecision; image-rendering:optimizeQuality; fill-rule:evenodd; clip-rule:evenodd"
viewBox="0 0 32101 32101"
 xmlns:xlink="http://www.w3.org/1999/xlink">
 <defs>
  <style type="text/css">
   <![CDATA[
    .fil1 {fill:none}
    .fil0 {fill:#D46E00}
    .fil2 {fill:white}
   ]]>
  </style>
   <clipPath id="id0">
    <path d="M16050 0c-8864,0 -16050,7187 -16050,16051 0,8864 7186,16050 16050,16050 8864,0 16051,-7186 16051,-16050 0,-8864 -7187,-16051 -16051,-16051z"/>
   </clipPath>
 </defs>
 <g id="popin">
  <metadata id="CorelCorpID_0Corel-Layer"/>
  <path class="fil0" d="M16050 0c-8864,0 -16050,7187 -16050,16051 0,8864 7186,16050 16050,16050 8864,0 16051,-7186 16051,-16050 0,-8864 -7187,-16051 -16051,-16051z"/>
  <g style="clip-path:url(#id0)">
  </g>
  <path id="1" class="fil1" d="M16050 0c-8864,0 -16050,7187 -16050,16051 0,8864 7186,16050 16050,16050 8864,0 16051,-7186 16051,-16050 0,-8864 -7187,-16051 -16051,-16051z"/>
  <g id="_645428560">
   <g>
    <path class="fil2" d="M16048 16539c-218,0 -440,-75 -622,-227 -415,-345 -470,-960 -125,-1374l4877 -5854c346,-414 960,-470 1376,-124 413,345 469,960 125,1373l-4880 5855c-192,231 -470,351 -751,351zm7807 -976l0 976c0,539 -437,975 -976,975l-976 5854 -11707 0 -976 -5854c-538,0 -976,-436 -976,-975l0 -976c0,-538 438,-976 976,-976l5738 0 -32 39c-517,620 -433,1545 188,2062 263,219 595,338 937,338 436,0 845,-191 1125,-525l1594 -1913 4112 -1c539,0 976,438 976,976l-3 0zm-11220 3415c0,-270 -218,-488 -489,-488 -269,0 -487,218 -487,488l0 2927c0,270 218,488 487,488 271,0 489,-218 489,-488l0 -2927zm1951 0c0,-270 -217,-488 -488,-488 -269,0 -487,218 -487,488l0 2927c0,270 218,488 487,488 271,0 488,-218 488,-488l0 -2927zm1952 0c0,-270 -218,-488 -488,-488 -270,0 -489,218 -489,488l0 2927c0,270 219,488 489,488 270,0 488,-218 488,-488l0 -2927zm1951 0c0,-270 -218,-488 -488,-488 -270,0 -488,218 -488,488l0 2927c0,270 218,488 488,488 270,0 488,-218 488,-488l0 -2927zm1951 0c0,-270 -218,-488 -487,-488 -271,0 -489,218 -489,488l0 2927c0,270 218,488 489,488 269,0 487,-218 487,-488l0 -2927z"/>
   </g>
  </g>
 </g>
</svg>
