<?xml version="1.0" encoding="UTF-8"?>
<!DOCTYPE svg PUBLIC "-//W3C//DTD SVG 1.1//EN" "http://www.w3.org/Graphics/SVG/1.1/DTD/svg11.dtd">
<!-- Creator: CorelDRAW X7 -->
<svg xmlns="http://www.w3.org/2000/svg" xml:space="preserve" width="44px" height="44px" version="1.1" style="shape-rendering:geometricPrecision; text-rendering:geometricPrecision; image-rendering:optimizeQuality; fill-rule:evenodd; clip-rule:evenodd"
viewBox="0 0 9382 9382"
 xmlns:xlink="http://www.w3.org/1999/xlink">
 <defs>
  <style type="text/css">
   <![CDATA[
    .fil1 {fill:none}
    .fil0 {fill:#F26864}
    .fil2 {fill:#FEFEFE;fill-rule:nonzero}
   ]]>
  </style>
    <clipPath id="id0">
     <path d="M4691 0c-2591,0 -4691,2100 -4691,4691 0,2591 2100,4691 4691,4691 2591,0 4691,-2100 4691,-4691 0,-2591 -2100,-4691 -4691,-4691z"/>
    </clipPath>
 </defs>
 <g id="popin">
  <metadata id="CorelCorpID_0Corel-Layer"/>
  <g id="_640802888">
   <path class="fil0" d="M4691 0c-2591,0 -4691,2100 -4691,4691 0,2591 2100,4691 4691,4691 2591,0 4691,-2100 4691,-4691 0,-2591 -2100,-4691 -4691,-4691z"/>
   <g style="clip-path:url(#id0)">
   </g>
   <path id="1" class="fil1" d="M4691 0c-2591,0 -4691,2100 -4691,4691 0,2591 2100,4691 4691,4691 2591,0 4691,-2100 4691,-4691 0,-2591 -2100,-4691 -4691,-4691z"/>
   <path class="fil2" d="M4057 3754c130,-58 194,-149 222,-242 131,74 283,112 443,101 439,-30 770,-409 741,-847 -30,-439 -409,-770 -847,-741 -438,30 -770,409 -741,847 3,33 8,65 14,97 -12,452 -360,414 -360,414 0,0 119,553 528,371zm1088 3386c117,0 230,-64 287,-176 80,-158 16,-351 -142,-431l-1280 -673 521 -1144 110 42 -479 1049 1180 622c105,52 183,142 219,253 37,111 28,230 -25,334 -75,149 -224,241 -391,241 -67,0 -135,-16 -197,-47l-983 -496c24,338 59,611 107,869l1009 0 0 -3c16,1 31,3 46,3 560,0 1013,-454 1013,-1013 0,-323 -151,-609 -386,-795l-1 0 -4 -3c-31,-24 -64,-47 -99,-68 -176,-126 -304,-259 -394,-417 219,-76 378,-282 378,-527 -271,-161 -456,-386 -586,-575 -30,-116 -82,-208 -146,-281 0,-1 0,-1 0,-1 -23,-26 -47,-49 -72,-69 -1,-1 -2,-2 -3,-3 -24,-19 -50,-36 -76,-50 -3,-2 -5,-3 -8,-4 -25,-14 -50,-25 -77,-34 -4,-1 -9,-3 -13,-4 -20,-6 -40,-12 -61,-15 2,0 3,1 4,2 -114,-22 -233,-4 -338,54 -91,25 -170,90 -209,184l-24 56c-21,40 -40,83 -55,132l-838 2012 1869 942c47,23 96,34 144,34z"/>
  </g>
 </g>
</svg>
