<?xml version="1.0" encoding="UTF-8"?>
<!DOCTYPE svg PUBLIC "-//W3C//DTD SVG 1.1//EN" "http://www.w3.org/Graphics/SVG/1.1/DTD/svg11.dtd">
<!-- Creator: CorelDRAW X7 -->
<svg xmlns="http://www.w3.org/2000/svg" xml:space="preserve" width="44px" height="44px" version="1.1" style="shape-rendering:geometricPrecision; text-rendering:geometricPrecision; image-rendering:optimizeQuality; fill-rule:evenodd; clip-rule:evenodd"
viewBox="0 0 4787 4787"
 xmlns:xlink="http://www.w3.org/1999/xlink">
 <defs>
  <style type="text/css">
   <![CDATA[
    .fil1 {fill:none}
    .fil0 {fill:#1CB0BA}
    .fil2 {fill:#FEFEFE;fill-rule:nonzero}
   ]]>
  </style>
    <clipPath id="id0">
     <path d="M2393 0c-1322,0 -2393,1072 -2393,2393 0,1322 1071,2394 2393,2394 1322,0 2394,-1072 2394,-2394 0,-1321 -1072,-2393 -2394,-2393z"/>
    </clipPath>
 </defs>
 <g id="popin">
  <metadata id="CorelCorpID_0Corel-Layer"/>
  <g id="_640807640">
   <path class="fil0" d="M2393 0c-1322,0 -2393,1072 -2393,2393 0,1322 1071,2394 2393,2394 1322,0 2394,-1072 2394,-2394 0,-1321 -1072,-2393 -2394,-2393z"/>
   <g style="clip-path:url(#id0)">
   </g>
   <path id="1" class="fil1" d="M2393 0c-1322,0 -2393,1072 -2393,2393 0,1322 1071,2394 2393,2394 1322,0 2394,-1072 2394,-2394 0,-1321 -1072,-2393 -2394,-2393z"/>
   <g>
    <path class="fil2" d="M1023 1715l23 -14 23 -15 24 -17 24 -17 24 -18 25 -19 25 -19 25 -21 26 -21 25 -22 26 -22 26 -24 26 -24 26 -24 26 -25 26 -26 26 -26 25 -26 24 -26 24 -26 24 -26 22 -26 22 -25 21 -26 21 -25 20 -25 18 -25 18 -24 18 -24 16 -24 15 -23 14 -22 2 -4 2 -2 2 -3 3 -3 2 -2 3 -3 2 -2 3 -2 3 -2 3 -1 3 -2 3 -2 6 -2 7 -2 6 -1 7 -1 3 0 4 0 3 0 3 1 4 0 3 1 4 1 3 1 3 1 3 2 3 2 3 1 3 2 3 3 3 2 3 2 2 2 2 3 3 3 2 2 2 3 1 3 2 3 2 3 2 6 2 7 1 6 1 7 0 3 0 4 -1 3 0 4 0 3 -1 3 -1 4 -1 3 -2 3 -1 3 -2 4 -2 3 -12 19 -13 21 -14 20 -14 20 -15 22 -16 21 -16 21 -17 22 175 174 18 -21 17 -21 17 -21 17 -21 16 -21 16 -20 16 -21 15 -20 15 -20 14 -20 14 -20 14 -19 13 -20 12 -19 13 -19 11 -18 2 -4 3 -2 2 -3 2 -3 2 -2 3 -2 2 -3 3 -2 3 -2 3 -1 3 -2 3 -1 6 -3 7 -2 6 -1 7 -1 3 0 4 0 3 1 3 0 4 0 3 1 3 1 4 1 3 2 3 1 3 2 4 2 3 1 2 3 3 2 3 2 2 3 2 2 3 3 2 3 2 2 1 3 2 3 2 3 2 7 2 6 1 7 1 6 0 4 0 3 -1 3 0 4 0 3 -1 3 -1 4 -1 3 -2 3 -1 4 -2 3 -2 3 -9 15 -9 14 -10 16 -10 15 -11 15 -10 16 -11 15 -11 16 -11 16 -12 16 -11 16 -12 16 -13 16 -12 16 -13 17 -13 16 985 985 12 13 12 14 11 14 10 14 9 15 7 15 8 15 6 15 6 16 5 15 3 16 3 16 3 15 2 16 1 15 0 15 0 16 -1 15 -1 14 -2 15 -3 13 -3 14 -4 13 -4 13 -4 13 -5 11 -6 12 -6 10 -6 10 -7 10 -7 8 -7 8 -12 12 120 120 6 5 4 6 4 5 4 6 3 5 3 6 3 6 3 6 2 6 2 6 2 7 1 6 1 6 1 7 1 6 0 6 0 7 -1 6 -1 7 -1 6 -1 6 -2 7 -2 6 -2 6 -3 6 -3 6 -3 6 -3 5 -4 6 -4 5 -4 5 -6 5 -1 1 340 340 3 2 2 3 1 3 2 4 1 3 1 3 0 3 0 4 0 3 0 3 -1 4 -1 3 -2 3 -1 3 -2 3 -3 2 -2 3 -3 2 -3 2 -3 1 -3 1 -4 1 -3 1 -4 0 -3 0 -3 -1 -3 -1 -4 -1 -3 -1 -3 -2 -3 -2 -2 -3 -340 -339 -1 1 -5 4 -5 5 -5 4 -6 4 -5 3 -6 4 -6 2 -6 3 -6 2 -7 2 -6 2 -6 2 -6 0 -7 1 -6 1 -7 0 -6 0 -7 -1 -6 -1 -6 0 -7 -2 -6 -2 -6 -2 -6 -2 -6 -3 -6 -2 -6 -4 -6 -3 -5 -4 -5 -4 -6 -5 -5 -4 -120 -121 -12 12 -8 7 -8 7 -10 7 -10 6 -11 6 -11 6 -12 5 -12 4 -13 4 -13 4 -14 3 -14 3 -14 2 -15 1 -15 1 -15 0 -15 0 -15 -1 -16 -2 -15 -2 -16 -4 -16 -4 -15 -4 -16 -6 -15 -6 -15 -7 -15 -9 -15 -8 -14 -10 -14 -11 -14 -12 -13 -12 -10 -10 -26 -26 -42 -41 -53 -54 -65 -65 -73 -73 -80 -80 -83 -83 -85 -85 -85 -85 -83 -83 -78 -78 -71 -71 -62 -62 -51 -51 -38 -38 -16 13 -17 13 -16 12 -16 12 -16 13 -16 11 -16 12 -16 11 -16 11 -15 11 -16 11 -15 10 -16 10 -15 10 -14 9 -15 10 -3 1 -4 2 -3 2 -3 1 -3 1 -4 1 -3 1 -3 0 -4 1 -3 0 -4 0 -3 0 -7 -1 -6 -1 -7 -2 -6 -2 -3 -2 -3 -2 -3 -1 -3 -2 -2 -2 -3 -2 -3 -3 -2 -2 -2 -3 -2 -3 -3 -2 -1 -3 -2 -3 -2 -3 -2 -4 -1 -3 -1 -3 -1 -4 -1 -3 0 -3 -1 -4 0 -3 0 -4 0 -3 1 -7 1 -6 2 -7 2 -6 2 -3 2 -3 1 -3 2 -3 2 -2 2 -3 3 -2 2 -3 3 -2 2 -2 3 -3 4 -1 18 -12 19 -12 19 -13 20 -13 19 -14 20 -14 20 -14 20 -15 21 -15 20 -15 21 -17 20 -16 21 -17 21 -17 21 -17 21 -18 -174 -175 -22 17 -21 16 -21 16 -22 15 -20 14 -21 14 -20 13 -19 13 -4 1 -3 2 -3 1 -3 2 -4 1 -3 1 -3 0 -4 1 -3 0 -3 1 -4 0 -3 0 -7 -1 -6 -1 -7 -2 -6 -2 -3 -2 -3 -2 -3 -1 -3 -2 -3 -2 -2 -2 -3 -3 -2 -2 -2 -3 -3 -3 -2 -2 -2 -3 -2 -4 -1 -3 -1 -3 -2 -3 -1 -4 -1 -3 0 -3 -1 -4 -1 -3 0 -3 0 -4 0 -3 1 -7 1 -6 2 -7 2 -6 2 -3 1 -3 2 -3 2 -3 2 -2 2 -3 3 -3 2 -2 3 -2 2 -3 3 -2 3 -2zm1451 1291l11 10 11 10 11 8 12 8 11 7 12 6 12 6 13 5 12 4 12 4 12 3 13 2 12 2 12 2 12 1 12 0 12 0 12 -1 11 -1 11 -1 11 -2 10 -2 10 -3 10 -3 9 -3 9 -4 8 -3 8 -4 7 -5 6 -4 7 -5 5 -5 264 -264 5 -5 5 -6 4 -7 5 -7 4 -8 4 -8 3 -9 3 -9 3 -9 2 -11 3 -10 2 -11 1 -11 1 -11 1 -12 0 -12 -1 -11 0 -12 -2 -13 -2 -12 -2 -12 -3 -13 -4 -12 -4 -12 -5 -13 -6 -12 -6 -12 -7 -11 -8 -12 -8 -11 -10 -11 -10 -11 -10 -10 -28 -28 -44 -44 -56 -57 -69 -67 -76 -77 -82 -82 -86 -86 -88 -88 -86 -86 -82 -82 -76 -76 -68 -68 -57 -57 -44 -44 -27 -27 -16 18 -15 18 -16 19 -16 18 -16 19 -17 18 -16 19 -17 19 -17 18 -18 19 -17 19 -18 18 -18 19 -18 18 -18 19 -18 19 -19 18 -19 18 -18 18 -19 18 -19 18 -18 18 -19 17 -18 17 -19 17 -19 16 -18 17 -19 16 -18 16 -19 16 -18 16 -18 15 27 28 44 43 57 57 68 68 76 76 82 82 86 87 88 87 86 86 82 82 76 77 68 67 57 58 44 43 28 28 10 10zm-984 -1160l26 -22 25 -23 25 -23 25 -23 26 -24 25 -25 26 -24 25 -25 25 -26 24 -25 25 -25 23 -25 24 -26 23 -25 23 -25 22 -25 -19 -19 -20 -21 -23 -23 -24 -24 -24 -23 -23 -23 -21 -22 -19 -19 -21 26 -22 25 -23 26 -23 26 -24 25 -24 26 -25 26 -25 25 -26 25 -25 25 -26 24 -26 24 -25 23 -26 23 -25 22 -26 21 19 19 22 21 23 23 23 24 24 24 23 22 21 22 18 18z"/>
    <polygon class="fil2" points="2559,2697 2512,2650 2382,2781 2249,2648 2380,2518 2334,2472 2203,2602 2070,2470 2201,2339 2155,2293 2024,2423 1762,2161 2627,2156 2976,2504 2982,2512 2989,2519 2994,2527 3000,2534 3004,2542 3008,2550 3012,2558 3015,2566 3018,2574 3020,2581 3022,2589 3023,2597 3024,2605 3025,2613 3026,2620 3026,2628 3026,2635 3025,2642 3025,2649 3024,2655 3023,2662 3022,2668 3021,2673 3020,2679 3018,2684 3017,2688 3015,2693 3014,2697 3012,2700 3011,2703 3009,2706 3007,2707 2743,2972 2741,2973 2739,2975 2736,2977 2733,2978 2728,2979 2724,2981 2720,2983 2715,2984 2709,2985 2704,2986 2697,2988 2691,2988 2685,2989 2678,2990 2671,2990 2663,2990 2656,2990 2649,2989 2641,2988 2633,2987 2625,2986 2617,2984 2609,2981 2602,2979 2594,2976 2586,2972 2578,2968 2570,2963 2563,2958 2555,2953 2548,2947 2541,2940 2428,2827 "/>
   </g>
  </g>
 </g>
</svg>
