<?xml version="1.0" encoding="UTF-8"?>
<!DOCTYPE svg PUBLIC "-//W3C//DTD SVG 1.1//EN" "http://www.w3.org/Graphics/SVG/1.1/DTD/svg11.dtd">
<!-- Creator: CorelDRAW X7 -->
<svg xmlns="http://www.w3.org/2000/svg" xml:space="preserve" width="136px" height="52px" version="1.1" style="shape-rendering:geometricPrecision; text-rendering:geometricPrecision; image-rendering:optimizeQuality; fill-rule:evenodd; clip-rule:evenodd"
viewBox="0 0 498182 190488"
 xmlns:xlink="http://www.w3.org/1999/xlink">
 <defs>
  <style type="text/css">
   <![CDATA[
    .fil0 {fill:none}
    .fil2 {fill:#005DA8}
    .fil1 {fill:white}
    .fil3 {fill:#E6E6E6;fill-rule:nonzero}
   ]]>
  </style>
 </defs>
 <g id="Plan_x0020_1">
  <metadata id="CorelCorpID_0Corel-Layer"/>
  <rect class="fil0" y="1" width="498182" height="190484"/>
  <g id="_461375856">
   <path class="fil1" d="M22580 0l453165 0 0 166402c0,12556 -10271,22827 -22827,22827l-407511 0c-12556,0 -22827,-10271 -22827,-22827l0 -166402z"/>
   <g>
    <path class="fil2" d="M259734 160293l0 -31838 -6182 0 0 10799c-372,-329 -1644,-978 -3410,-978 -7004,0 -9522,4629 -9522,11288l0 8921c0,6663 2518,11284 9522,11284 5274,0 9592,-2579 9592,-9476zm-6200 -657c0,3050 -852,4677 -3392,4677 -2197,0 -3405,-1467 -3405,-4971l0 -10635c0,-3500 1208,-4971 3405,-4971 2194,0 3392,1471 3392,4971l0 10929z"/>
    <polygon class="fil2" points="172529,128455 172529,169197 166420,169197 166420,137354 166303,137354 159649,169197 156352,169197 149693,137354 149581,137354 149581,169197 143472,169197 143472,128455 152592,128455 157944,152250 158057,152250 163404,128455 "/>
    <polygon class="fil2" points="265921,169197 265921,138834 272048,138834 272048,169197 "/>
    <path class="fil2" d="M272562 131648c0,2029 -1592,3677 -3573,3677 -1977,0 -3574,-1648 -3574,-3677 0,-2047 1597,-3687 3574,-3687 1981,0 3573,1640 3573,3687z"/>
    <path class="fil2" d="M234948 165983l0 -19470c0,-5533 -3237,-8242 -8930,-8242 -5755,0 -9532,3336 -9860,9480l6139 0c104,-2592 709,-4275 3504,-4275 2017,0 3012,1350 3012,3885l8 2380c-9111,1276 -13382,6040 -13382,11950 0,4166 2324,8086 6962,8086 3227,0 4244,-835 6719,-2842 43,592 173,1272 342,2262l5871 0c-165,-1012 -385,-2267 -385,-3214zm-6153 -4431c-1289,1294 -2414,2834 -4344,2834 -1734,0 -2968,-1289 -2968,-3578 0,-4283 3206,-5269 7312,-6221l0 6965z"/>
    <path class="fil2" d="M196853 165983l0 -19470c0,-5533 -3241,-8242 -8965,-8242 -5746,0 -9523,3336 -9851,9480l6143 0c104,-2592 705,-4275 3500,-4275 2034,0 3025,1350 3025,3885l0 2380c-9134,1276 -13387,6040 -13387,11950 0,4166 2319,8086 6966,8086 3206,0 4240,-835 6723,-2842 44,584 174,1272 364,2262l5867 0c-169,-1012 -385,-2267 -385,-3214zm-6179 -4431c-1280,1294 -2418,2834 -4348,2834 -1730,0 -2959,-1289 -2959,-3578 0,-4283 3201,-5269 7307,-6221l0 6965z"/>
    <path class="fil2" d="M211757 164425c-3136,-8 -3353,-1804 -3353,-4028l0 -31942 -6143 0 0 31717c0,5132 2219,9449 9544,9449l606 0 0 -5196 -654 0z"/>
    <path class="fil2" d="M296769 155205l0 -5641c0,-6659 -2522,-11293 -9535,-11293 -7009,0 -9506,4634 -9506,11293l0 8921c0,6663 2497,11284 9506,11284 6360,0 9021,-3786 9466,-9476 0,0 43,-540 9,-791l-6083 0 -9 791c-143,2994 -1333,4284 -3383,4284 -2194,0 -3384,-1467 -3384,-4976l0 -4396 12919 0zm-12919 -6775c0,-3496 1190,-4954 3384,-4954 2198,0 3392,1458 3392,4954l0 1584 -6776 0 0 -1584z"/>
    <path class="fil2" d="M227394 122125l-6572 0 7593 -40739 8328 0 8130 40739 -6559 0 -1251 -9320 -8363 0 -1306 9320zm2128 -14667l6706 0 -3314 -17942 -117 0 -3275 17942z"/>
    <path class="fil2" d="M315685 122125l0 -30346 5854 0 0 2574 104 0c1479,-2583 4971,-3150 6961,-3150l1263 0 0 6602c-1103,-285 -2137,-614 -3954,-614 -2064,0 -4097,1350 -4097,4067l0 20867 -6131 0z"/>
    <path class="fil2" d="M309775 91779l0 19629c0,6667 -2518,11284 -9531,11284 -7014,0 -9527,-4617 -9527,-11284l0 -19629 6143 0 0 20758c0,3500 1190,4971 3384,4971 2189,0 3392,-1471 3392,-4971l0 -20758 6139 0z"/>
    <path class="fil2" d="M355658 122121l0 -19626c0,-6455 2522,-11292 9535,-11292 7009,0 9523,4837 9523,11292l0 19626 -6135 0 0 -20716c0,-3253 -1285,-4776 -3388,-4776 -2137,0 -3409,1523 -3409,4776l0 20716 -6126 0z"/>
    <path class="fil2" d="M350297 118919l0 -19478c0,-5534 -3227,-8238 -8921,-8238 -5754,0 -9532,3323 -9856,9475l6135 0c108,-2587 714,-4279 3522,-4279 2003,0 2994,1359 2994,3894l0 2362c-9116,1285 -13374,6053 -13374,11968 0,4166 2328,8086 6966,8086 3206,0 4240,-839 6693,-2838 48,575 178,1267 368,2254l5863 0c-169,-1008 -390,-2254 -390,-3206zm-6144 -4435c-1280,1285 -2427,2838 -4343,2838 -1735,0 -2955,-1298 -2955,-3578 0,-4292 3197,-5278 7298,-6221l0 6961z"/>
    <path class="fil2" d="M211740 117353c-3145,-9 -3375,-1804 -3375,-4020l0 -31947 -6126 0 0 31718c0,5131 2215,9445 9549,9445l584 0 0 -5196 -632 0z"/>
    <path class="fil2" d="M253465 98826c0,-1579 1138,-2427 2808,-2427 2081,0 2933,1168 3284,3782l5486 -494c-563,-3906 -2479,-8484 -9060,-8484 -4811,0 -8588,3323 -8588,8125 0,8294 12041,10272 12041,15520 0,1700 -1199,2660 -2877,2660 -2921,0 -3829,-2254 -4245,-4811l-5676 956c666,5759 4249,9039 9860,9039 5227,0 9004,-2765 9004,-8182 0,-9034 -12037,-10950 -12037,-15684z"/>
    <path class="fil2" d="M274821 98826c0,-1579 1146,-2427 2799,-2427 2064,0 2925,1168 3280,3782l5468 -494c-549,-3906 -2461,-8484 -9020,-8484 -4816,0 -8584,3323 -8584,8125 0,8294 12006,10272 12006,15520 0,1700 -1194,2660 -2860,2660 -2920,0 -3820,-2254 -4231,-4811l-5672 956c662,5759 4248,9039 9847,9039 5205,0 8995,-2765 8995,-8182 0,-9034 -12028,-10950 -12028,-15684z"/>
    <path class="fil2" d="M421728 108133l0 -5638c0,-6658 -2509,-11292 -9531,-11292 -7005,0 -9527,4634 -9527,11292l0 8913c0,6667 2522,11284 9527,11284 6351,0 9025,-3773 9475,-9467 0,0 30,-545 0,-792l-6083 0 -13 784c-156,3011 -1350,4291 -3379,4291 -2194,0 -3397,-1471 -3397,-4971l0 -4404 12928 0zm-12928 -6775c0,-3501 1203,-4959 3397,-4959 2189,0 3396,1458 3396,4959l0 1587 -6793 0 0 -1587z"/>
    <path class="fil2" d="M214648 81386l0 5776 1769 0c-567,1467 -1756,4617 -1756,4617l2994 0 2582 -4617 0 -5776 -5589 0z"/>
    <path class="fil2" d="M392498 112083l-9 1134c-160,3011 -1328,4291 -3370,4291 -2198,0 -3401,-1471 -3401,-4971l0 -11179c0,-3501 1203,-4959 3401,-4959 2176,0 3388,1458 3388,4959l0 1137 6143 0c0,-6658 -2535,-11292 -9531,-11292 -7022,0 -9536,4634 -9536,11292l0 8913c0,6667 2514,11284 9536,11284 7485,0 9488,-5435 9488,-10609l-6109 0z"/>
    <path class="fil2" d="M89256 101345c346,-758 511,-1761 312,-2774 -312,-1492 -1350,-2185 -2639,-1929 -1173,238 -1740,982 -2073,2639 -376,1994 -1242,3357 -3007,3708 -1973,398 -3734,-762 -4175,-2968 -229,-1130 -99,-2047 121,-2601l1415 130c-177,407 -376,1229 -177,2259 311,1536 1471,1916 2336,1739 1172,-229 1622,-1038 1982,-2734 462,-2090 1284,-3250 3145,-3617 1960,-399 3920,527 4456,3197 225,1090 82,2353 -242,3050l-1454 -99z"/>
    <path class="fil2" d="M73555 85423l2319 2150 31 1203 -2306 -1540 -44 -1813zm9808 -541l109 4461 4664 -117 -134 -4997 1397 -43 173 6507 -12915 337 -168 -6239 1397 -39 130 4742 4075 -108 -112 -4461 1384 -43z"/>
    <path class="fil2" d="M90385 72924c225,562 364,1713 152,3102 -476,3219 -3115,5274 -7325,4642 -4019,-614 -6343,-3435 -5815,-6970 212,-1406 692,-2267 978,-2626l1294 584c-390,493 -736,1246 -883,2202 -402,2674 1250,4738 4595,5235 3154,480 5382,-826 5806,-3582 138,-922 61,-1865 -169,-2501l1367 -86z"/>
    <path class="fil2" d="M79387 65659l7156 2596c3778,1372 5798,208 6603,-2007 848,-2350 -31,-4660 -3756,-6010l-7099 -2578 -520 1427 7208 2609c2670,969 3488,2445 2899,4037 -523,1449 -2068,2107 -4772,1125l-7199 -2613 -520 1414z"/>
    <path class="fil2" d="M85436 51776c238,-736 714,-1731 1233,-2601 831,-1354 1666,-2068 2661,-2297 770,-199 1700,-30 2574,493 1436,883 1895,2298 1674,3561l39 30c749,-567 1809,-536 3111,-86 1739,610 2942,1021 3483,1086l-805 1323c-402,-25 -1488,-389 -3028,-960 -1701,-636 -2601,-450 -3353,684l-727 1194 4785 2911 -779 1277 -10868 -6615zm5784 1769l788 -1298c826,-1358 519,-2734 -749,-3491 -1419,-874 -2604,-334 -3418,1016 -376,610 -566,1073 -636,1333l4015 2440z"/>
    <polygon class="fil2" points="93661,39601 103586,47869 102630,49028 92696,40760 "/>
    <polygon class="fil2" points="107756,43464 108860,42439 101037,34019 103616,31610 102647,30571 96395,36386 97355,37424 99934,35032 "/>
    <path class="fil2" d="M115016 30286l-3712 2466 2579 3881 4158 -2769 778 1168 -5416 3600 -7157 -10756 5201 -3457 770 1164 -3946 2622 2259 3400 3725 -2470 761 1151zm-5659 -8026l-592 3111 -1009 666 87 -2773 1514 -1004z"/>
    <path class="fil2" d="M126417 29156c787,238 1813,286 2782,-34 1449,-476 2020,-1588 1609,-2851 -381,-1121 -1185,-1605 -2864,-1735 -2025,-139 -3479,-831 -4050,-2536 -631,-1921 312,-3807 2441,-4508 1111,-363 2037,-346 2608,-190l39 1428c-424,-130 -1267,-234 -2258,95 -1497,489 -1731,1678 -1454,2518 377,1146 1225,1484 2960,1644 2115,212 3370,882 3967,2687 623,1899 -69,3963 -2657,4811 -1051,354 -2331,363 -3054,117l-69 -1446z"/>
    <path class="fil2" d="M139928 27988c-3041,442 -5516,-1877 -6078,-5741 -580,-4063 1272,-7044 4318,-7485 3141,-450 5538,1934 6083,5724 631,4387 -1419,7078 -4314,7502l-9 0zm-134 -1354c2341,-329 3314,-2938 2895,-5841 -368,-2544 -1934,-5031 -4392,-4672 -2453,350 -3305,3089 -2903,5862 385,2687 2060,4989 4387,4651l13 0z"/>
    <path class="fil2" d="M155642 27023c-545,286 -1670,541 -3071,476 -3250,-155 -5573,-2565 -5378,-6810 190,-4058 2764,-6671 6338,-6502 1415,60 2319,454 2713,705l-450 1337c-528,-333 -1324,-597 -2280,-636 -2704,-134 -4586,1722 -4746,5114 -143,3171 1388,5261 4170,5386 922,44 1865,-125 2471,-419l233 1349z"/>
    <polygon class="fil2" points="161185,15355 158783,28062 160255,28330 162660,15645 "/>
    <path class="fil2" d="M167250 25907l-2461 3444 -1450 -506 7944 -10916 1691 597 -523 13486 -1501 -524 168 -4244 -3868 -1337zm4007 13l138 -3894c52,-869 139,-1657 225,-2410l-47 -21c-394,662 -831,1358 -1303,2029l-2297 3150 3284 1146z"/>
    <polygon class="fil2" points="181351,22122 182666,22853 177015,32899 181307,35309 180619,36529 175017,33379 "/>
    <polygon class="fil2" points="191306,37078 187801,34305 184911,37952 188827,41059 187953,42153 182861,38112 190882,27988 195784,31874 194914,32972 191198,30017 188658,33215 192163,35992 "/>
    <path class="fil2" d="M111200 65992l0 1493 9493 0 26 -21c458,-559 744,-1013 1064,-1472l-10583 0z"/>
    <path class="fil2" d="M115194 70509c995,2211 220,5378 -1168,6962 2483,3149 8705,1843 12045,943 913,-190 1626,-1822 2487,-1190 230,186 1727,-1397 1532,100 0,900 -389,1877 -1337,2223 -692,260 -2717,861 -2717,861 -3574,1130 -5503,1627 -9077,3341 -1644,869 -1220,4036 -986,5187 216,1164 1315,5287 346,7351 -783,1687 -3565,3240 -3604,5317 0,904 1492,1990 627,2739 -554,476 -978,549 -1311,229 0,0 -2691,-2760 -2358,-3708 -22,-363 3024,-4720 1718,-6684 -727,683 -796,2514 -2263,3184 -701,333 -1687,-480 -2289,-134 -229,134 -199,1064 -432,1281 -217,233 -1177,203 -1398,-217 -549,-1138 -333,-3067 -130,-4023 307,-1415 3254,129 2298,-1878 -346,-731 -801,-1700 -770,-3241 30,-1189 1016,-2557 43,-3171 -1090,-536 -3678,-1683 -3721,-3033 -303,-3232 5668,-3232 7035,-6113 0,-1402 -1744,-2579 -1398,-4785 174,-1121 1035,-2397 2475,-2592 1804,-247 2908,-39 4353,1051z"/>
    <path class="fil2" d="M179347 120446c-1860,-441 -3971,-1765 -5014,-3392 -740,-1129 -1263,-2418 -1860,-3734 -2025,-4430 -3180,-9284 -4504,-10907 -2315,-2873 -6819,-6866 -9869,-8843 -896,-584 -1731,-1008 -2488,-1333 740,-3586 571,-7390 571,-7390 0,-739 13,-757 273,-1064 783,-619 1298,-1371 1064,-2548 -17,-169 -670,-1575 -861,-1874 1095,433 5902,1575 7299,1467 2393,-160 8078,-4114 8947,-4711 628,-373 991,-459 1311,-554 320,-91 1147,-610 1337,-1121 74,-229 -160,-1878 -740,-1981 -246,-18 -904,380 -1120,311 -147,-43 -290,-294 -407,-294 -320,-9 -640,493 -783,740 -203,320 -277,895 -498,1164 -389,497 -5910,2063 -7740,2924 -324,147 -657,269 -982,165 -1449,-446 -7290,-3795 -9600,-3314 -727,155 -1865,562 -2371,30 -264,-294 -407,-757 -186,-1207 246,-519 1466,-584 1696,-1181 276,-662 -156,-1969 -143,-2038 0,-255 290,-381 259,-597 -30,-229 -333,-489 -666,-969 -350,-481 -454,-1705 -770,-2241 69,-161 290,-1281 -999,-2034 -1316,-757 -3453,-926 -4660,134 -675,602 -1592,381 -2306,749 -1376,722 -493,2163 -2761,4209 -986,896 -406,2605 -177,2994 -960,1796 744,3907 2272,3552 488,481 822,688 1362,662 18,57 31,117 61,169 -350,126 -1077,502 -1410,666 -874,450 -1368,1008 -2164,1779 -2574,2492 -6381,6360 -15450,10907 -1029,631 -3997,359 -3997,1004 203,302 843,631 843,631 13,364 -1103,519 -1700,645 -524,294 493,718 869,1069 2025,367 3068,-87 4786,-1523 6883,-2674 12019,-5292 17609,-8926 1181,-774 1860,61 2803,3608 381,1376 -1449,2497 -2146,4444 -787,2180 -696,3816 -117,5079 -640,1410 -2613,3288 -2613,3288 0,0 -4707,3885 -7082,6239 -2047,2038 -4548,1562 -6447,2475 -1951,939 -3725,2427 -5382,3794 -1203,995 -2410,1891 -4024,2553 -623,255 -917,333 -1583,419 -831,109 -1324,879 -1251,1584 57,645 641,2094 1264,3349 337,688 1094,2275 2081,2487 683,139 2090,420 2405,-194 429,-809 -1375,-1043 -1492,-2107 -87,-671 -160,-1787 56,-2436 389,-1121 2007,-1895 2968,-2419 2977,-1609 11768,-3686 14403,-4473 3786,-1662 6801,-3025 9254,-4638 2181,-1329 3955,-3418 5322,-5153 3241,1609 8034,3625 11219,4846 1873,713 856,1920 1903,4612 740,1925 2077,3335 6512,8583 636,866 -48,1467 99,2428 160,1051 671,1081 1623,1060 904,-22 1808,0 2708,0 1151,0 2587,8 3721,-9 424,-4 1250,-134 1250,-749 0,-683 -1224,-731 -1787,-865z"/>
    <path class="fil2" d="M196874 62228c-3621,-2327 -7762,-6446 -11841,-5767 -2155,-164 -394,-2453 -978,-3344 -991,-1748 -1104,-2401 -4911,-2038 -1064,108 -1904,493 -2302,1406 -346,1021 -26,775 -272,1744 -303,956 -1441,1393 -351,2107 91,316 74,830 0,1825 -56,688 801,632 1164,848 -4344,3180 -12149,2618 -15965,135 -718,-481 -3175,-381 -3193,-104 18,640 1601,796 2198,1471 -277,86 -740,-35 -536,385 203,398 3123,926 3141,926 2237,1518 5724,2250 8454,2786 5525,813 7091,1004 7822,4564 740,3587 -134,6893 -934,11799 -667,4378 -273,7104 424,11392 129,800 553,2111 160,2444 -770,688 -2791,1263 -3660,2029 -381,1255 3136,446 5490,571 1116,91 1384,-1103 1384,-1812 199,-6720 896,-8814 1973,-13010 623,3617 1701,9717 2501,13382 -917,1077 -3344,2050 -2752,2647 701,680 1939,554 2562,399 1514,-351 2358,-831 3448,-1822 0,0 1220,-14706 822,-21983 -216,-4045 4755,-6896 6775,-10518 493,-921 476,-1752 -623,-2462zm-6234 7741c203,-1510 -714,-5547 -238,-7001l3721 1406c-593,931 -2743,3552 -3483,5595z"/>
    <path class="fil2" d="M150022 49902c1597,351 4889,1943 5318,2094 432,134 1384,1281 1713,1406 186,52 246,83 407,-173 203,-264 765,256 1436,160 441,-91 978,-1176 904,-1315 -363,-532 -2427,-1367 -3474,-1519 -1147,-553 -3764,-2241 -5854,-2994 -4772,-1683 -9786,-4170 -14390,-1423 -1921,-809 -1960,-3292 -5300,-3041 -1588,125 -2734,1354 -3115,2444 -394,1103 -545,2470 165,3838 389,739 1155,1103 1925,1354 376,143 796,225 1185,346 532,203 628,645 1259,549 463,-56 844,-142 1329,-112 445,26 1570,208 1743,-394 26,0 35,0 52,13 43,1090 -173,4232 -731,4521 -783,165 -1112,-320 -2977,-861 -1847,-523 -6187,-1064 -6260,2263 -143,5339 493,7057 -3198,11578 -636,792 -1717,822 -1090,1644 493,511 1320,126 1713,-177 935,2375 4106,-1168 4786,-1718 1436,-1116 -173,-2107 501,-3189 1160,-2254 2955,-3193 3354,-4889 1847,1450 4105,2596 6416,2406 960,-182 1830,-532 2894,-1631 1091,-1099 1380,-6083 1467,-8480 203,-4880 3431,-3673 7822,-2700z"/>
    <path class="fil2" d="M155179 47834l524 268c0,0 1423,770 896,606l1272 627 22463 0 0 -1501 -25155 0zm-43979 0l0 1501 14940 0c-22,-424 -48,-947 -69,-1501l-14871 0z"/>
    <path class="fil2" d="M169985 121268c0,0 30,-437 91,-839l-46900 0c320,549 385,1073 307,1497l46753 0c-74,-221 -208,-368 -251,-658zm-58785 -839l0 1497 5179 0c-381,-537 -675,-1077 -874,-1497l-4305 0z"/>
    <path class="fil2" d="M169885 102283l671 1497 9700 0 0 -1497 -10371 0zm-54449 1497l18011 0c295,-264 922,-804 1696,-1497l-20205 0c247,520 476,1047 498,1497z"/>
    <path class="fil2" d="M176267 84155l-17717 0c-156,204 -294,463 -511,610 0,0 -26,346 -69,870l18236 0c-13,-130 -30,-260 -30,-407 0,-333 74,-740 91,-1073zm-58408 1220c-43,48 -74,173 -104,260l11154 0c869,-511 1666,-1017 2405,-1497l-10154 0c-1679,645 -3288,1237 -3301,1237z"/>
    <path class="fil2" d="M171118 66425c-610,-117 -1220,-303 -1825,-433l-15831 0c99,303 203,585 203,585 0,0 191,631 394,895l13 13 22134 0c-813,-376 -2280,-640 -5088,-1060zm-41301 -411l0 9c91,303 221,830 169,1462l9644 0 943 -1493 -10743 0 -13 22z"/>
   </g>
   <path class="fil3" d="M23818 255l0 164586c0,6208 2859,11872 7454,15973 4634,4136 11046,6711 18098,6711l399442 0c7057,0 13469,-2575 18098,-6711 4599,-4101 7459,-9765 7459,-15973l0 -164586 3003 0 0 164586c0,7069 -3241,13507 -8442,18154 -5170,4612 -12300,7485 -20118,7485l-399442 0c-7814,0 -14944,-2873 -20114,-7485 -5201,-4647 -8441,-11085 -8441,-18154l0 -164586 3003 0z"/>
  </g>
 </g>
</svg>
