<?xml version="1.0" encoding="UTF-8"?>
<!DOCTYPE svg PUBLIC "-//W3C//DTD SVG 1.1//EN" "http://www.w3.org/Graphics/SVG/1.1/DTD/svg11.dtd">
<!-- Creator: CorelDRAW X7 -->
<svg xmlns="http://www.w3.org/2000/svg" xml:space="preserve" width="53px" height="18px" version="1.1" style="shape-rendering:geometricPrecision; text-rendering:geometricPrecision; image-rendering:optimizeQuality; fill-rule:evenodd; clip-rule:evenodd"
viewBox="0 0 278047 93757"
 xmlns:xlink="http://www.w3.org/1999/xlink">
 <defs>
  <style type="text/css">
   <![CDATA[
    .fil1 {fill:#089E93}
    .fil0 {fill:#C4DEF2}
    .fil2 {fill:white}
    .fil5 {fill:white}
    .fil3 {fill:#397BAD;fill-rule:nonzero}
    .fil4 {fill:white;fill-rule:nonzero}
   ]]>
  </style>
 </defs>
 <g id="Plan_x0020_1">
  <metadata id="CorelCorpID_0Corel-Layer"/>
  <g id="_769666256">
   <path class="fil0" d="M278047 46885l0 0zm-278047 -7c0,-25776 19518,-46878 43363,-46878l95664 0 95658 0c23851,0 43362,21102 43362,46885 0,25776 -19511,46872 -43362,46872l-95658 0 -95664 0c-23845,0 -43363,-21096 -43363,-46879z"/>
   <path class="fil1" d="M139027 4744l92946 0c23178,0 42135,18963 42135,42134l0 7c0,23171 -18957,42128 -42135,42128l-92946 0 0 -84269z"/>
   <path class="fil2" d="M139027 4744l-92953 0c-23171,0 -42134,18963 -42134,42134l0 7c0,23171 18963,42128 42134,42128l92953 0 0 -84269z"/>
   <path class="fil3" d="M24006 52682l2806 -305c124,1377 436,2506 929,3391 486,885 1240,1596 2262,2144 1023,543 2176,817 3460,817 1141,0 2138,-206 3011,-617 873,-418 1515,-985 1945,-1702 418,-723 636,-1509 636,-2350 0,-854 -206,-1602 -611,-2244 -411,-636 -1091,-1172 -2032,-1615 -605,-281 -1945,-723 -4015,-1328 -2076,-611 -3522,-1178 -4351,-1714 -1078,-686 -1870,-1540 -2394,-2556 -536,-1016 -798,-2157 -798,-3410 0,-1390 324,-2687 973,-3884 642,-1209 1583,-2119 2830,-2742 1234,-624 2618,-936 4133,-936 1671,0 3148,325 4420,979 1271,649 2256,1615 2942,2886 686,1272 1054,2712 1110,4321l-2868 268c-149,-1727 -673,-3036 -1558,-3915 -886,-885 -2201,-1328 -3934,-1328 -1801,0 -3117,405 -3946,1203 -823,804 -1234,1777 -1234,2911 0,985 293,1789 873,2431 579,630 2075,1285 4500,1952 2425,667 4084,1246 4987,1745 1310,736 2282,1658 2905,2787 624,1122 935,2418 935,3883 0,1459 -342,2824 -1034,4115 -686,1290 -1665,2287 -2955,3004 -1278,711 -2724,1073 -4339,1073 -2032,0 -3740,-368 -5112,-1085 -1377,-723 -2456,-1808 -3235,-3260 -792,-1447 -1197,-3086 -1241,-4919z"/>
   <polygon id="1" class="fil3" points="51716,61484 51716,37303 44279,37303 44279,34087 62133,34087 62133,37303 54702,37303 54702,61484 "/>
   <path id="2" class="fil3" d="M63741 48150c0,-4538 1004,-8098 3011,-10672 2013,-2569 4600,-3847 7786,-3847 2082,0 3952,605 5629,1808 1671,1203 2949,2887 3815,5050 879,2157 1322,4607 1322,7343 0,2774 -462,5262 -1384,7450 -923,2194 -2232,3852 -3921,4974 -1696,1128 -3522,1690 -5480,1690 -2119,0 -4021,-630 -5691,-1871 -1671,-1246 -2943,-2942 -3803,-5093 -854,-2150 -1284,-4426 -1284,-6832zm3079 62c0,3298 730,5891 2188,7786 1459,1896 3292,2843 5499,2843 2244,0 4089,-954 5535,-2867 1447,-1914 2176,-4632 2176,-8148 0,-2226 -312,-4171 -929,-5829 -617,-1658 -1527,-2948 -2718,-3858 -1197,-911 -2531,-1372 -4021,-1372 -2107,0 -3921,879 -5448,2637 -1521,1764 -2282,4694 -2282,8808z"/>
   <path id="3" class="fil3" d="M89137 61484l0 -27397 8516 0c1490,0 2637,93 3429,261 1109,225 2038,649 2786,1278 748,630 1353,1509 1808,2637 461,1129 686,2375 686,3734 0,2319 -611,4289 -1833,5897 -1216,1615 -3429,2419 -6614,2419l-5785 0 0 11171 -2993 0zm2993 -14387l5822 0c1933,0 3298,-431 4108,-1310 811,-872 1216,-2094 1216,-3684 0,-1141 -237,-2125 -717,-2936 -474,-816 -1103,-1359 -1883,-1621 -505,-162 -1433,-243 -2780,-243l-5766 0 0 9794z"/>
   <path id="4" class="fil3" d="M110139 61484l0 -27397 8509 0c1497,0 2644,93 3435,261 1110,225 2039,649 2787,1278 748,630 1353,1509 1808,2637 455,1129 685,2375 685,3734 0,2319 -611,4289 -1832,5897 -1216,1615 -3429,2419 -6621,2419l-5779 0 0 11171 -2992 0zm2992 -14387l5823 0c1932,0 3298,-431 4108,-1310 810,-872 1216,-2094 1216,-3684 0,-1141 -237,-2125 -717,-2936 -480,-816 -1104,-1359 -1883,-1621 -505,-162 -1434,-243 -2780,-243l-5767 0 0 9794z"/>
   <path class="fil4" d="M153047 52682l2811 -305c125,1377 437,2506 929,3391 486,885 1241,1596 2263,2144 1022,543 2175,817 3460,817 1140,0 2138,-206 3011,-617 872,-418 1514,-985 1945,-1702 417,-723 635,-1509 635,-2350 0,-854 -205,-1602 -611,-2244 -411,-636 -1090,-1172 -2032,-1615 -604,-281 -1945,-723 -4014,-1328 -2076,-611 -3522,-1178 -4352,-1714 -1078,-686 -1870,-1540 -2393,-2556 -536,-1016 -798,-2157 -798,-3410 0,-1390 324,-2687 972,-3884 642,-1209 1584,-2119 2830,-2742 1235,-624 2612,-936 4133,-936 1665,0 3142,325 4420,979 1272,649 2257,1615 2943,2886 685,1272 1053,2712 1109,4321l-2867 268c-150,-1727 -674,-3036 -1559,-3915 -885,-885 -2200,-1328 -3933,-1328 -1802,0 -3117,405 -3946,1203 -823,804 -1235,1777 -1235,2911 0,985 293,1789 873,2431 580,630 2076,1285 4501,1952 2425,667 4083,1246 4987,1745 1309,736 2281,1658 2905,2787 623,1122 935,2418 935,3883 0,1459 -343,2824 -1035,4115 -686,1290 -1664,2287 -2955,3004 -1278,711 -2724,1073 -4338,1073 -2033,0 -3741,-368 -5112,-1085 -1384,-723 -2456,-1808 -3236,-3260 -791,-1447 -1196,-3086 -1246,-4919z"/>
   <polygon id="1" class="fil4" points="180762,61484 180762,37303 173325,37303 173325,34087 191179,34087 191179,37303 183748,37303 183748,61484 "/>
   <path id="2" class="fil4" d="M189452 61484l8653 -27397 3279 0 9176 27397 -3397 0 -2606 -8303 -9494 0 -2444 8303 -3167 0zm6490 -11252l7680 0 -2350 -7593c-711,-2306 -1247,-4214 -1615,-5722 -312,1789 -729,3541 -1247,5274l-2468 8041z"/>
   <path id="3" class="fil4" d="M212991 61484l0 -27397 9993 0c2007,0 3535,249 4582,741 1041,493 1876,1359 2500,2600 623,1247 935,2624 935,4127 0,1945 -518,3584 -1553,4918 -1041,1334 -2630,2176 -4793,2537 798,462 1390,917 1801,1366 873,966 1690,2188 2469,3646l3896 7462 -3728 0 -2980 -5704c-866,-1652 -1589,-2905 -2144,-3777 -567,-873 -1072,-1484 -1521,-1833 -443,-343 -898,-586 -1359,-723 -330,-88 -879,-131 -1658,-131l-3448 0 0 12168 -2992 0zm2992 -15304l6396 0c1366,0 2432,-174 3192,-517 767,-337 1353,-885 1746,-1646 392,-754 598,-1571 598,-2456 0,-1297 -380,-2363 -1160,-3198 -766,-835 -1982,-1253 -3653,-1253l-7119 0 0 9070z"/>
   <polygon id="4" class="fil4" points="240831,61484 240831,37303 233394,37303 233394,34087 251248,34087 251248,37303 243817,37303 243817,61484 "/>
   <path class="fil5" d="M148371 11084l80086 0c19967,0 36300,16339 36300,36306l0 6 -19 1190c-636,-18184 -16713,-32877 -36281,-32877l-80086 0 0 -4625z"/>
  </g>
 </g>
</svg>
