<?xml version="1.0" encoding="UTF-8"?>
<!DOCTYPE svg PUBLIC "-//W3C//DTD SVG 1.1//EN" "http://www.w3.org/Graphics/SVG/1.1/DTD/svg11.dtd">
<!-- Creator: CorelDRAW X7 -->
<svg xmlns="http://www.w3.org/2000/svg" xml:space="preserve" width="110px" height="49px" version="1.1" style="shape-rendering:geometricPrecision; text-rendering:geometricPrecision; image-rendering:optimizeQuality; fill-rule:evenodd; clip-rule:evenodd"
viewBox="0 0 12420 5551"
 xmlns:xlink="http://www.w3.org/1999/xlink">
 <defs>
  <style type="text/css">
   <![CDATA[
    .fil0 {fill:white}
   ]]>
  </style>
 </defs>
 <g id="Plan_x0020_1">
  <metadata id="CorelCorpID_0Corel-Layer"/>
  <g id="_629206648">
   <path class="fil0" d="M6641 5212l0 -1135 -220 0 0 385c-14,-12 -59,-35 -122,-35 -250,0 -340,165 -340,403l0 318c0,237 90,402 340,402 188,0 342,-92 342,-338zm-221 -23c0,109 -30,167 -121,167 -78,0 -121,-53 -121,-178l0 -379c0,-125 43,-177 121,-177 78,0 121,52 121,177l0 390z"/>
   <polygon class="fil0" points="3531,4077 3531,5530 3313,5530 3313,4394 3308,4394 3071,5530 2954,5530 2716,4394 2712,4394 2712,5530 2494,5530 2494,4077 2819,4077 3010,4925 3014,4925 3205,4077 "/>
   <polygon class="fil0" points="6862,5530 6862,4447 7081,4447 7081,5530 "/>
   <path class="fil0" d="M7099 4190c0,73 -57,131 -128,131 -70,0 -127,-58 -127,-131 0,-73 57,-131 127,-131 71,0 128,58 128,131z"/>
   <path class="fil0" d="M5757 5415l0 -694c0,-198 -115,-294 -318,-294 -206,0 -340,119 -352,338l219 0c3,-93 25,-153 125,-153 72,0 107,49 107,139l1 85c-325,45 -478,215 -478,426 0,149 83,289 248,289 116,0 152,-30 240,-102 2,21 6,46 12,81l210 0c-6,-36 -14,-81 -14,-115zm-219 -158c-46,46 -86,101 -155,101 -62,0 -106,-46 -106,-127 0,-153 114,-188 261,-222l0 248z"/>
   <path class="fil0" d="M4398 5415l0 -694c0,-198 -115,-294 -320,-294 -205,0 -339,119 -351,338l219 0c4,-93 25,-153 125,-153 73,0 108,49 108,139l0 85c-326,45 -478,215 -478,426 0,149 83,289 249,289 114,0 151,-30 240,-102 1,21 6,46 13,81l209 0c-6,-36 -14,-81 -14,-115zm-220 -158c-46,46 -87,101 -155,101 -62,0 -106,-46 -106,-127 0,-153 114,-188 261,-222l0 248z"/>
   <path class="fil0" d="M4930 5360c-112,-1 -120,-65 -120,-144l0 -1139 -219 0 0 1131c0,183 79,337 341,337l21 0 0 -185 -23 0z"/>
   <path class="fil0" d="M7962 5031l0 -201c0,-238 -90,-403 -340,-403 -250,0 -339,165 -339,403l0 318c0,237 89,402 339,402 227,0 322,-135 338,-338 0,0 2,-19 0,-28l-217 0 0 28c-5,107 -48,153 -121,153 -78,0 -120,-52 -120,-177l0 -157 460 0zm-460 -242c0,-125 42,-177 120,-177 79,0 121,52 121,177l0 57 -241 0 0 -57z"/>
   <path class="fil0" d="M5488 3851l-235 0 271 -1454 297 0 290 1454 -234 0 -44 -333 -299 0 -46 333zm76 -523l239 0 -118 -641 -5 0 -116 641z"/>
   <path class="fil0" d="M8637 3851l0 -1083 209 0 0 92 4 0c52,-92 177,-112 248,-112l45 0 0 235c-39,-10 -76,-22 -141,-22 -74,0 -146,48 -146,145l0 745 -219 0z"/>
   <path class="fil0" d="M8426 2768l0 701c0,237 -90,402 -340,402 -250,0 -340,-165 -340,-402l0 -701 220 0 0 741c0,125 42,177 120,177 78,0 121,-52 121,-177l0 -741 219 0z"/>
   <path class="fil0" d="M10063 3850l0 -700c0,-230 90,-402 340,-402 250,0 340,172 340,402l0 700 -219 0 0 -738c0,-117 -46,-171 -121,-171 -76,0 -121,54 -121,171l0 738 -219 0z"/>
   <path class="fil0" d="M9872 3736l0 -694c0,-198 -115,-294 -318,-294 -206,0 -340,118 -352,338l219 0c4,-93 25,-153 125,-153 72,0 107,49 107,139l0 84c-325,46 -477,216 -477,427 0,149 83,289 249,289 114,0 151,-30 239,-102 1,21 6,46 13,81l209 0c-6,-36 -14,-81 -14,-115zm-219 -158c-46,46 -87,101 -155,101 -62,0 -106,-46 -106,-127 0,-153 114,-188 261,-222l0 248z"/>
   <path class="fil0" d="M4929 3680c-112,0 -120,-64 -120,-143l0 -1140 -219 0 0 1132c0,183 79,337 341,337l21 0 0 -186 -23 0z"/>
   <path class="fil0" d="M6418 3020c0,-57 40,-87 100,-87 74,0 105,42 117,135l196 -18c-20,-139 -89,-302 -324,-302 -171,0 -306,118 -306,289 0,296 430,367 430,554 0,61 -43,95 -103,95 -104,0 -137,-80 -151,-172l-203 35c24,205 152,322 352,322 186,0 321,-99 321,-292 0,-322 -429,-390 -429,-559z"/>
   <path class="fil0" d="M7179 3020c0,-57 41,-87 100,-87 74,0 105,42 117,135l195 -18c-19,-139 -87,-302 -321,-302 -172,0 -307,118 -307,289 0,296 429,367 429,554 0,61 -43,95 -102,95 -104,0 -137,-80 -151,-172l-203 35c24,205 152,322 352,322 185,0 321,-99 321,-292 0,-322 -430,-390 -430,-559z"/>
   <path class="fil0" d="M12420 3352l0 -202c0,-237 -90,-402 -340,-402 -250,0 -340,165 -340,402l0 319c0,237 90,402 340,402 226,0 322,-135 338,-338 0,0 1,-19 0,-28l-217 0 -1 28c-5,107 -48,153 -120,153 -78,0 -121,-52 -121,-177l0 -157 461 0zm-461 -242c0,-125 43,-177 121,-177 78,0 121,52 121,177l0 56 -242 0 0 -56z"/>
   <path class="fil0" d="M5033 2397l0 207 63 0c-20,52 -62,164 -62,164l106 0 92 -164 0 -207 -199 0z"/>
   <path class="fil0" d="M11377 3493l0 40c-6,107 -48,153 -120,153 -79,0 -122,-52 -122,-177l0 -399c0,-125 43,-177 122,-177 77,0 121,52 121,177l0 40 219 0c0,-237 -91,-402 -340,-402 -251,0 -340,165 -340,402l0 319c0,237 89,402 340,402 267,0 338,-194 338,-378l-218 0z"/>
   <path class="fil0" d="M560 3109c12,-27 18,-62 11,-99 -11,-53 -48,-77 -94,-68 -42,8 -62,35 -74,94 -13,71 -44,119 -107,132 -71,14 -133,-27 -149,-106 -8,-40 -4,-73 4,-92l51 4c-7,15 -14,44 -7,81 11,54 53,68 84,62 42,-9 58,-37 70,-98 17,-74 46,-116 113,-129 69,-14 139,19 158,114 9,39 3,84 -8,109l-52 -4z"/>
   <path class="fil0" d="M0 2541l83 77 1 43 -83 -55 -1 -65zm350 -19l4 159 166 -4 -5 -178 50 -2 6 233 -460 11 -6 -222 49 -1 5 169 146 -4 -5 -159 50 -2z"/>
   <path class="fil0" d="M600 2096c8,20 13,61 6,110 -17,115 -111,188 -262,166 -143,-22 -226,-123 -207,-249 8,-50 25,-81 35,-93l46 20c-14,18 -26,45 -32,79 -14,95 45,169 164,187 113,17 192,-30 208,-128 5,-33 2,-67 -6,-89l48 -3z"/>
   <path class="fil0" d="M208 1837l255 92c135,49 207,7 236,-72 30,-83 -1,-166 -134,-214l-254 -92 -18 51 257 93c95,35 125,87 104,144 -19,52 -74,75 -171,40l-256 -93 -19 51z"/>
   <path class="fil0" d="M424 1341c8,-26 25,-62 44,-93 29,-48 59,-73 95,-82 27,-7 60,-1 92,18 51,31 67,82 59,127l2 1c26,-20 64,-19 111,-3 62,22 104,37 124,39l-29 47c-14,-1 -53,-14 -108,-34 -61,-23 -93,-16 -120,24l-26 43 171 104 -28 45 -387 -236zm206 63l28 -46c30,-48 19,-98 -26,-125 -51,-31 -93,-11 -123,37 -13,21 -20,38 -22,47l143 87z"/>
   <polygon class="fil0" points="717,907 1071,1202 1037,1243 683,948 "/>
   <polygon class="fil0" points="1220,1045 1259,1008 980,708 1072,622 1038,585 815,792 849,829 941,744 "/>
   <path class="fil0" d="M1479 574l-133 89 93 138 148 -99 28 42 -194 128 -255 -383 186 -124 27 42 -141 93 81 122 133 -89 27 41zm-202 -286l-21 111 -36 24 3 -99 54 -36z"/>
   <path class="fil0" d="M1886 534c28,9 64,11 99,-1 52,-17 72,-57 57,-102 -13,-40 -42,-57 -102,-62 -72,-4 -124,-29 -144,-90 -23,-68 11,-136 87,-161 39,-13 72,-12 93,-7l1 51c-15,-4 -45,-8 -80,4 -54,17 -62,60 -52,90 13,40 44,52 105,58 76,8 120,32 142,96 22,68 -3,141 -95,172 -37,12 -83,13 -109,4l-2 -52z"/>
   <path class="fil0" d="M2368 493c-109,15 -197,-67 -217,-205 -21,-145 45,-251 154,-267 112,-16 197,69 217,204 22,157 -51,252 -154,268l0 0zm-5 -49c83,-11 118,-104 103,-208 -13,-91 -69,-180 -157,-167 -87,13 -118,111 -103,209 14,96 73,178 156,166l1 0z"/>
   <path class="fil0" d="M2928 458c-19,10 -60,19 -109,17 -116,-5 -199,-91 -192,-243 7,-145 98,-238 226,-232 50,3 83,17 97,25l-17 48c-18,-12 -47,-21 -81,-23 -96,-4 -163,62 -169,183 -5,113 49,188 149,192 33,2 66,-4 88,-15l8 48z"/>
   <polygon class="fil0" points="3126,42 3040,495 3093,505 3178,52 "/>
   <path class="fil0" d="M3342 418l-88 123 -51 -18 283 -389 60 21 -18 481 -54 -19 6 -151 -138 -48zm143 1l5 -139c2,-31 5,-59 8,-86l-2 -1c-14,24 -29,49 -46,73l-82 112 117 41z"/>
   <polygon class="fil0" points="3845,283 3892,309 3691,668 3844,754 3819,797 3619,685 "/>
   <polygon class="fil0" points="4200,817 4075,718 3972,848 4112,959 4081,998 3899,854 4185,493 4360,631 4329,670 4197,565 4106,679 4231,778 "/>
   <path class="fil0" d="M1343 1848l0 54 338 0 1 -1c17,-20 27,-36 38,-53l-377 0z"/>
   <path class="fil0" d="M1485 2009c36,79 8,192 -41,249 88,112 310,66 429,33 33,-6 58,-64 89,-42 8,7 62,-50 55,4 0,32 -14,66 -48,79 -25,9 -97,31 -97,31 -127,40 -196,58 -324,119 -58,31 -43,144 -35,185 8,41 47,188 12,262 -28,60 -127,116 -128,190 0,32 53,71 22,97 -20,17 -35,20 -47,9 0,0 -96,-99 -84,-133 0,-13 108,-168 62,-238 -26,24 -29,90 -81,113 -25,12 -60,-17 -82,-4 -8,4 -7,38 -15,45 -8,9 -42,8 -50,-7 -20,-41 -12,-110 -5,-144 11,-50 116,5 82,-67 -12,-26 -28,-60 -27,-115 1,-43 36,-92 1,-114 -39,-19 -131,-60 -132,-108 -11,-115 202,-115 251,-218 0,-50 -63,-92 -50,-171 6,-39 37,-85 88,-92 64,-9 104,-1 155,37z"/>
   <path class="fil0" d="M3774 3791c-67,-16 -142,-63 -179,-121 -27,-40 -45,-86 -66,-133 -73,-158 -114,-332 -161,-389 -83,-103 -243,-245 -352,-316 -32,-21 -62,-36 -89,-47 27,-128 20,-264 20,-264 0,-26 1,-27 10,-38 28,-22 47,-49 38,-91 0,-6 -24,-56 -30,-67 39,16 210,56 260,53 85,-6 288,-147 319,-169 22,-13 35,-16 47,-19 11,-4 41,-22 47,-40 3,-8 -5,-67 -26,-71 -9,-1 -32,14 -40,11 -5,-1 -10,-10 -14,-10 -12,-1 -23,17 -28,26 -8,11 -10,32 -18,42 -14,17 -211,73 -276,104 -12,5 -24,9 -35,6 -52,-16 -260,-135 -343,-118 -26,5 -66,20 -84,1 -10,-11 -15,-27 -7,-43 9,-19 52,-21 60,-42 10,-24 -5,-71 -5,-73 0,-9 11,-14 10,-21 -1,-9 -12,-18 -24,-35 -13,-17 -16,-61 -28,-80 3,-6 11,-46 -35,-73 -47,-27 -123,-33 -166,5 -25,22 -57,14 -83,27 -49,26 -17,77 -98,150 -35,32 -15,93 -6,107 -35,64 26,139 80,127 18,17 30,24 49,23 1,2 1,4 2,6 -12,5 -38,18 -50,24 -31,16 -49,36 -77,64 -92,88 -228,226 -551,389 -37,22 -143,12 -143,35 7,11 30,23 30,23 1,13 -39,18 -60,23 -19,10 17,25 31,38 72,13 109,-3 170,-54 246,-96 429,-189 628,-319 42,-28 67,2 100,129 14,49 -51,89 -76,159 -28,77 -25,136 -4,181 -23,50 -94,117 -94,117 0,0 -168,138 -252,223 -73,72 -162,55 -230,88 -70,33 -133,86 -192,135 -43,36 -86,68 -144,91 -22,9 -32,12 -56,15 -30,4 -47,31 -45,57 2,23 23,74 45,119 12,25 39,81 75,89 24,5 74,15 85,-7 16,-29 -49,-37 -53,-75 -3,-24 -6,-64 2,-87 14,-40 72,-68 106,-86 106,-58 420,-132 514,-160 135,-59 242,-108 330,-166 78,-47 141,-121 190,-183 115,57 286,129 400,173 67,25 30,68 68,164 26,69 74,119 232,306 23,31 -2,53 4,87 5,37 24,39 58,38 32,-1 64,0 96,0 41,0 93,0 133,-1 15,0 44,-4 44,-26 0,-25 -43,-26 -63,-31z"/>
   <path class="fil0" d="M4399 1714c-129,-83 -277,-230 -422,-206 -77,-5 -15,-87 -35,-119 -36,-62 -40,-86 -176,-73 -37,4 -67,18 -82,50 -12,37 -1,28 -9,63 -11,34 -52,49 -13,75 3,11 3,30 0,65 -2,25 29,23 42,30 -155,114 -434,94 -570,5 -25,-17 -113,-14 -114,-4 1,23 57,29 79,53 -10,3 -27,-1 -19,14 7,14 111,33 112,33 79,54 204,80 301,99 197,29 253,36 279,163 26,128 -5,246 -33,421 -24,156 -10,253 15,406 5,29 20,75 6,87 -28,25 -100,45 -131,73 -13,44 112,16 196,20 40,3 49,-39 49,-65 8,-239 32,-314 71,-464 22,129 60,347 89,478 -33,38 -119,73 -98,94 25,24 69,20 91,14 54,-12 84,-29 123,-65 0,0 44,-524 29,-784 -7,-144 170,-246 242,-375 18,-33 17,-63 -22,-88zm-222 276c7,-54 -26,-198 -9,-250l133 51c-21,33 -98,126 -124,199z"/>
   <path class="fil0" d="M2728 1274c57,13 174,70 189,75 16,5 50,46 61,50 7,2 9,3 15,-6 7,-9 27,9 51,6 16,-3 35,-42 32,-47 -13,-19 -86,-49 -124,-54 -40,-20 -134,-80 -208,-107 -171,-60 -349,-149 -514,-51 -68,-29 -70,-117 -189,-108 -56,4 -97,48 -111,87 -14,39 -19,88 6,137 14,26 41,39 69,48 13,5 28,8 42,12 19,8 22,23 45,20 17,-2 30,-5 47,-4 16,1 56,7 63,-14 0,0 1,0 1,0 2,39 -6,151 -26,162 -28,6 -39,-12 -106,-31 -66,-19 -221,-38 -223,81 -5,190 17,251 -114,413 -23,28 -61,29 -39,58 17,18 47,5 61,-6 33,85 146,-42 171,-61 51,-40 -7,-75 18,-114 41,-80 105,-114 119,-174 66,51 147,92 229,85 34,-6 65,-19 103,-58 39,-39 50,-217 53,-302 7,-174 122,-131 279,-97z"/>
   <path class="fil0" d="M2912 1201l18 9c0,0 51,28 32,22l46 22 801 0 0 -53 -897 0zm-1569 0l0 53 533 0c-1,-15 -2,-34 -3,-53l-530 0z"/>
   <path class="fil0" d="M3440 3820c0,0 1,-15 3,-30l-1673 0c11,20 14,38 11,54l1668 0c-3,-8 -8,-13 -9,-24zm-2097 -30l0 54 184 0c-13,-20 -23,-39 -31,-54l-153 0z"/>
   <path class="fil0" d="M3436 3143l24 53 346 0 0 -53 -370 0zm-1942 53l642 0c11,-9 33,-28 61,-53l-721 0c9,18 17,37 18,53z"/>
   <path class="fil0" d="M3664 2496l-632 0c-6,7 -11,17 -18,22 0,0 -1,12 -3,31l651 0c-1,-5 -1,-9 -1,-14 0,-12 2,-27 3,-39zm-2084 44c-1,1 -2,6 -3,9l398 0c30,-18 59,-36 85,-53l-362 0c-60,23 -117,44 -118,44z"/>
   <path class="fil0" d="M3480 1864c-22,-4 -43,-11 -65,-16l-565 0c4,11 8,21 8,21 0,0 6,23 14,32l0 1 790 0c-29,-14 -82,-23 -182,-38zm-1473 -15l0 0c3,11 8,30 6,53l344 0 34 -54 -384 0 0 1z"/>
  </g>
 </g>
</svg>
