<?xml version="1.0" encoding="UTF-8"?>
<!DOCTYPE svg PUBLIC "-//W3C//DTD SVG 1.1//EN" "http://www.w3.org/Graphics/SVG/1.1/DTD/svg11.dtd">
<!-- Creator: CorelDRAW X7 -->
<svg xmlns="http://www.w3.org/2000/svg" xml:space="preserve" width="34px" height="34px" version="1.1" style="shape-rendering:geometricPrecision; text-rendering:geometricPrecision; image-rendering:optimizeQuality; fill-rule:evenodd; clip-rule:evenodd"
viewBox="0 0 2423 2431"
 xmlns:xlink="http://www.w3.org/1999/xlink">
 <defs>
  <style type="text/css">
   <![CDATA[
    .fil1 {fill:none}
    .fil0 {fill:#F7B512}
    .fil2 {fill:white}
   ]]>
  </style>
    <clipPath id="id0">
     <path d="M1211 0l0 0c667,0 1212,547 1212,1215l0 0c0,669 -545,1216 -1212,1216l0 0c-666,0 -1211,-547 -1211,-1216l0 0c0,-668 545,-1215 1211,-1215z"/>
    </clipPath>
 </defs>
 <g id="Plan_x0020_1">
  <metadata id="CorelCorpID_0Corel-Layer"/>
  <g id="_555478320">
   <path class="fil0" d="M1211 0l0 0c667,0 1212,547 1212,1215l0 0c0,669 -545,1216 -1212,1216l0 0c-666,0 -1211,-547 -1211,-1216l0 0c0,-668 545,-1215 1211,-1215z"/>
   <g>
   </g>
   <g style="clip-path:url(#id0)">
   </g>
   <path class="fil1" d="M1211 0l0 0c667,0 1212,547 1212,1215l0 0c0,669 -545,1216 -1212,1216l0 0c-666,0 -1211,-547 -1211,-1216l0 0c0,-668 545,-1215 1211,-1215z"/>
   <g id="_530054272">
    <path class="fil2" d="M1089 1556l-90 -91c0,-1 0,-2 1,-3l241 -241 -84 -72 266 -19 -18 267 -72 -84 -241 241c-1,1 -2,2 -3,2 0,0 0,0 0,0l0 0z"/>
    <path class="fil2" d="M1015 1581l72 84 240 -241c1,-1 2,-2 3,-2 0,0 0,0 0,0l90 91c0,0 0,2 -1,3l-241 241 84 72 -266 19 19 -267 0 0z"/>
    <path class="fil2" d="M1473 1550l0 -127 47 0c135,0 245,-110 245,-246 0,-135 -110,-245 -245,-246l-45 0 -15 -42c-38,-107 -140,-179 -254,-179 -114,0 -217,72 -255,180l-14 40 -43 2c-133,4 -237,112 -237,245 0,136 110,246 245,246l40 0 0 127 -40 0c-50,0 -98,-10 -144,-29 -44,-19 -84,-46 -118,-80 -34,-34 -61,-74 -80,-118 -19,-46 -29,-95 -29,-146 0,-97 37,-189 104,-259 33,-34 71,-61 114,-80 32,-15 65,-24 99,-29 11,-24 25,-47 41,-68 25,-32 53,-60 86,-84 67,-48 147,-74 231,-74 83,0 163,26 231,74 32,23 61,52 85,83 16,21 29,44 41,67 35,4 69,13 102,27 44,19 84,46 118,80 34,34 61,74 80,118 19,46 29,95 29,145 0,51 -10,100 -29,146 -19,44 -46,84 -80,118 -34,34 -74,61 -118,80 -46,19 -95,29 -145,29l-47 0 0 0 0 0z"/>
   </g>
  </g>
 </g>
</svg>
