<?xml version="1.0" encoding="UTF-8"?>
<!DOCTYPE svg PUBLIC "-//W3C//DTD SVG 1.1//EN" "http://www.w3.org/Graphics/SVG/1.1/DTD/svg11.dtd">
<!-- Creator: CorelDRAW X7 -->
<svg xmlns="http://www.w3.org/2000/svg" xml:space="preserve" width="34px" height="34px" version="1.1" style="shape-rendering:geometricPrecision; text-rendering:geometricPrecision; image-rendering:optimizeQuality; fill-rule:evenodd; clip-rule:evenodd"
viewBox="0 0 2028 2035"
 xmlns:xlink="http://www.w3.org/1999/xlink">
 <defs>
  <style type="text/css">
   <![CDATA[
    .fil1 {fill:none}
    .fil0 {fill:#C78F00}
    .fil2 {fill:white}
   ]]>
  </style>
    <clipPath id="id0">
     <path d="M1014 0l0 0c558,0 1014,458 1014,1017l0 0c0,560 -456,1018 -1014,1018l0 0c-558,0 -1014,-458 -1014,-1018l0 0c0,-559 456,-1017 1014,-1017z"/>
    </clipPath>
 </defs>
 <g id="Plan_x0020_1">
  <metadata id="CorelCorpID_0Corel-Layer"/>
  <g id="_570637656">
   <path class="fil0" d="M1014 0l0 0c558,0 1014,458 1014,1017l0 0c0,560 -456,1018 -1014,1018l0 0c-558,0 -1014,-458 -1014,-1018l0 0c0,-559 456,-1017 1014,-1017z"/>
   <g>
   </g>
   <g style="clip-path:url(#id0)">
   </g>
   <path class="fil1" d="M1014 0l0 0c558,0 1014,458 1014,1017l0 0c0,560 -456,1018 -1014,1018l0 0c-558,0 -1014,-458 -1014,-1018l0 0c0,-559 456,-1017 1014,-1017z"/>
   <g id="_555473928">
    <path class="fil2" d="M912 1302l-76 -76c0,0 0,-1 1,-2l202 -202 -70 -61 223 -15 -16 223 -60 -70 -202 202c-1,1 -1,1 -2,1 0,0 0,0 0,0l0 0z"/>
    <path class="fil2" d="M849 1323l61 71 201 -202c1,-1 2,-2 2,-2 0,0 0,0 0,0l76 76c0,1 0,2 -1,3l-202 202 71 60 -223 16 15 -224 0 0z"/>
    <path class="fil2" d="M1233 1298l0 -107 39 0c114,0 206,-92 206,-205 0,-114 -92,-206 -205,-206l-38 0 -13 -35c-32,-90 -117,-151 -213,-151 -95,0 -181,61 -213,151l-12 34 -36 1c-111,4 -198,94 -198,206 0,113 92,205 205,205l34 0 0 107 -34 0c-41,0 -82,-9 -121,-25 -37,-16 -70,-38 -98,-67 -29,-28 -51,-62 -67,-99 -16,-38 -25,-79 -25,-121 0,-82 32,-159 88,-217 27,-29 59,-51 95,-68 27,-12 54,-20 83,-24 9,-20 21,-39 34,-57 21,-27 45,-50 72,-70 57,-41 123,-62 193,-62 70,0 137,21 193,62 28,20 52,43 72,70 13,17 25,36 34,55 30,4 58,11 86,23 37,16 70,38 98,67 29,29 51,62 67,99 16,39 24,79 24,122 0,42 -8,83 -24,121 -16,37 -38,71 -67,99 -28,29 -61,51 -98,67 -39,16 -80,25 -122,25l-39 0 0 0 0 0z"/>
   </g>
  </g>
 </g>
</svg>
