<?xml version="1.0" encoding="UTF-8"?>
<!DOCTYPE svg PUBLIC "-//W3C//DTD SVG 1.1//EN" "http://www.w3.org/Graphics/SVG/1.1/DTD/svg11.dtd">
<!-- Creator: CorelDRAW X7 -->
<svg xmlns="http://www.w3.org/2000/svg" xml:space="preserve" width="34px" height="34px" version="1.1" style="shape-rendering:geometricPrecision; text-rendering:geometricPrecision; image-rendering:optimizeQuality; fill-rule:evenodd; clip-rule:evenodd"
viewBox="0 0 2431 2431"
 xmlns:xlink="http://www.w3.org/1999/xlink">
 <defs>
  <style type="text/css">
   <![CDATA[
    .fil1 {fill:none}
    .fil0 {fill:#CF5329}
    .fil2 {fill:white}
   ]]>
  </style>
    <clipPath id="id0">
     <path d="M1216 0l0 0c668,0 1215,547 1215,1216l0 0c0,668 -547,1215 -1215,1215l0 0c-669,0 -1216,-547 -1216,-1215l0 0c0,-669 547,-1216 1216,-1216z"/>
    </clipPath>
 </defs>
 <g id="Plan_x0020_1">
  <metadata id="CorelCorpID_0Corel-Layer"/>
  <g id="_527781400">
   <path class="fil0" d="M1216 0l0 0c668,0 1215,547 1215,1216l0 0c0,668 -547,1215 -1215,1215l0 0c-669,0 -1216,-547 -1216,-1215l0 0c0,-669 547,-1216 1216,-1216z"/>
   <g>
   </g>
   <g style="clip-path:url(#id0)">
   </g>
   <path class="fil1" d="M1216 0l0 0c668,0 1215,547 1215,1216l0 0c0,668 -547,1215 -1215,1215l0 0c-669,0 -1216,-547 -1216,-1215l0 0c0,-669 547,-1216 1216,-1216z"/>
   <g id="_530045704">
    <path class="fil2" d="M1419 811c27,-20 45,-48 53,-79 41,7 72,8 79,-2 23,-37 -134,-231 -223,-231 -53,0 -102,95 -118,131 -1,1 -1,1 -1,2 -24,46 -21,104 12,149 46,63 135,76 198,30z"/>
    <path class="fil2" d="M896 1838c-28,97 117,131 143,41l52 -180 -84 -244 -111 383z"/>
    <path class="fil2" d="M1598 1227c-134,-58 -185,-73 -271,-252 -17,-36 -88,-213 -217,-83 -135,156 -124,334 -82,461 1,2 183,530 183,530 16,44 62,57 95,45 38,-13 59,-55 46,-94l-138 -398c-15,-51 -28,-114 -16,-184 7,-43 23,-89 54,-136 53,86 115,151 241,181l0 596c0,52 78,52 78,0l0 -585 12 0c42,1 62,-64 15,-81l0 0z"/>
   </g>
  </g>
 </g>
</svg>
