<?xml version="1.0" encoding="UTF-8"?>
<!DOCTYPE svg PUBLIC "-//W3C//DTD SVG 1.1//EN" "http://www.w3.org/Graphics/SVG/1.1/DTD/svg11.dtd">
<!-- Creator: CorelDRAW X7 -->
<svg xmlns="http://www.w3.org/2000/svg" xml:space="preserve" width="34px" height="34px" version="1.1" style="shape-rendering:geometricPrecision; text-rendering:geometricPrecision; image-rendering:optimizeQuality; fill-rule:evenodd; clip-rule:evenodd"
viewBox="0 0 2035 2035"
 xmlns:xlink="http://www.w3.org/1999/xlink">
 <defs>
  <style type="text/css">
   <![CDATA[
    .fil1 {fill:none}
    .fil0 {fill:#098A91}
    .fil2 {fill:white}
   ]]>
  </style>
    <clipPath id="id0">
     <path d="M1017 0l0 0c560,0 1018,458 1018,1017l0 0c0,560 -458,1018 -1018,1018l0 0c-559,0 -1017,-458 -1017,-1018l0 0c0,-559 458,-1017 1017,-1017z"/>
    </clipPath>
 </defs>
 <g id="Plan_x0020_1">
  <metadata id="CorelCorpID_0Corel-Layer"/>
  <g id="_528651888">
   <path class="fil0" d="M1017 0l0 0c560,0 1018,458 1018,1017l0 0c0,560 -458,1018 -1018,1018l0 0c-559,0 -1017,-458 -1017,-1018l0 0c0,-559 458,-1017 1017,-1017z"/>
   <g>
   </g>
   <g style="clip-path:url(#id0)">
   </g>
   <path class="fil1" d="M1017 0l0 0c560,0 1018,458 1018,1017l0 0c0,560 -458,1018 -1018,1018l0 0c-559,0 -1017,-458 -1017,-1018l0 0c0,-559 458,-1017 1017,-1017z"/>
  </g>
  <g>
   <path class="fil2" d="M1432 1152c-25,-19 -280,-114 -280,-114l-93 435 0 -228 -33 -62 33 -41 -41 -42 -42 42 33 41 -33 62 0 228 -93 -435c0,0 -255,95 -280,114 -34,27 -83,301 -83,363l995 0c0,-62 -49,-336 -83,-363z"/>
   <path class="fil2" d="M1127 567c-17,-36 -58,-47 -109,-47 -113,0 -208,83 -208,166 0,53 0,62 0,62 0,166 83,311 208,311 124,0 207,-145 207,-311 0,0 0,-9 0,-62 0,-59 -47,-119 -98,-119l0 0z"/>
   <polygon class="fil0" points="1328,1183 1266,1183 1266,1266 1183,1266 1183,1328 1266,1328 1266,1411 1328,1411 1328,1328 1411,1328 1411,1266 1328,1266 "/>
  </g>
 </g>
</svg>
