<?xml version="1.0" encoding="UTF-8"?>
<!DOCTYPE svg PUBLIC "-//W3C//DTD SVG 1.1//EN" "http://www.w3.org/Graphics/SVG/1.1/DTD/svg11.dtd">
<!-- Creator: CorelDRAW X7 -->
<svg xmlns="http://www.w3.org/2000/svg" xml:space="preserve" width="119944px" height="119944px" version="1.1" style="shape-rendering:geometricPrecision; text-rendering:geometricPrecision; image-rendering:optimizeQuality; fill-rule:evenodd; clip-rule:evenodd"
viewBox="0 0 7179376 7179376"
 xmlns:xlink="http://www.w3.org/1999/xlink">
 <defs>
  <style type="text/css">
   <![CDATA[
    .fil1 {fill:none}
    .fil0 {fill:#A33510}
    .fil2 {fill:white}
   ]]>
  </style>
    <clipPath id="id0">
     <path d="M3589170 0l0 0c1974071,0 3590206,1615098 3590206,3589170l0 0c0,1974071 -1616135,3590206 -3590206,3590206l0 0c-1974072,0 -3589170,-1616135 -3589170,-3590206l0 0c0,-1974072 1615098,-3589170 3589170,-3589170z"/>
    </clipPath>
 </defs>
 <g id="Plan_x0020_1">
  <metadata id="CorelCorpID_0Corel-Layer"/>
  <g id="_570611856">
   <path class="fil0" d="M3589170 0l0 0c1974071,0 3590206,1615098 3590206,3589170l0 0c0,1974071 -1616135,3590206 -3590206,3590206l0 0c-1974072,0 -3589170,-1616135 -3589170,-3590206l0 0c0,-1974072 1615098,-3589170 3589170,-3589170z"/>
   <g>
   </g>
   <g style="clip-path:url(#id0)">
   </g>
   <path class="fil1" d="M3589170 0l0 0c1974071,0 3590206,1615098 3590206,3589170l0 0c0,1974071 -1616135,3590206 -3590206,3590206l0 0c-1974072,0 -3589170,-1616135 -3589170,-3590206l0 0c0,-1974072 1615098,-3589170 3589170,-3589170z"/>
   <g id="_571611832">
    <path class="fil2" d="M4189532 2394476c80462,-59358 133790,-142836 156874,-233380 121730,21199 213217,23178 232343,-6972 67367,-107598 -395247,-680825 -658683,-680825 -155932,0 -300746,280583 -348986,387145 0,1978 -1037,4051 -1037,4993 -70381,136806 -62278,306777 35238,439531 136711,186082 398263,226219 584251,89508l0 0z"/>
    <path class="fil2" d="M2646888 5425493c-83478,286708 343898,388182 421346,121731l153859 -531959 -248455 -718041 -326844 1128364 94 -95z"/>
    <path class="fil2" d="M4719512 3623371c-396190,-171949 -548070,-216232 -801519,-745176 -51255,-106656 -260421,-627591 -640593,-245440 -398263,460635 -365098,986565 -241389,1362686 1979,4994 540062,1562807 540062,1562807 45225,130681 182031,168934 278605,135769 114570,-40232 174964,-164977 135769,-279641l-406365 -1175568c-45225,-150844 -81405,-336926 -48240,-542041 21105,-127760 69345,-263529 160925,-401277 155838,252412 337869,445466 710975,534974l0 1758876c0,153859 230365,153859 230365,0l0 -1727690 36180 1037c122673,1978 182031,-188061 45225,-239316l0 0z"/>
   </g>
  </g>
 </g>
</svg>
