<?xml version="1.0" encoding="UTF-8"?>
<!DOCTYPE svg PUBLIC "-//W3C//DTD SVG 1.1//EN" "http://www.w3.org/Graphics/SVG/1.1/DTD/svg11.dtd">
<!-- Creator: CorelDRAW X7 -->
<svg xmlns="http://www.w3.org/2000/svg" xml:space="preserve" width="30px" height="30px" version="1.1" style="shape-rendering:geometricPrecision; text-rendering:geometricPrecision; image-rendering:optimizeQuality; fill-rule:evenodd; clip-rule:evenodd"
viewBox="0 0 4976 4941"
 xmlns:xlink="http://www.w3.org/1999/xlink">
 <defs>
  <style type="text/css">
   <![CDATA[
    .fil0 {fill:#0092A8}
   ]]>
  </style>
 </defs>
 <g id="Plan_x0020_1">
  <metadata id="CorelCorpID_0Corel-Layer"/>
  <path class="fil0" d="M2526 1968c324,0 586,263 586,587 0,323 -262,586 -586,586 -324,0 -587,-263 -587,-586 0,-324 263,-587 587,-587l0 0zm636 -716l214 -381c-39,-44 -62,-102 -62,-165 0,-139 112,-252 251,-252 139,0 251,113 251,252 0,138 -112,251 -251,251 -15,0 -29,-1 -43,-4l-214 381c71,46 139,98 201,155l787 -759c-15,-32 -23,-68 -23,-105 0,-139 113,-251 251,-251 139,0 251,112 251,251 1,139 -112,251 -251,251 -40,0 -78,-9 -112,-26l-787 759c202,235 329,534 348,862l515 0c34,-98 127,-168 236,-168 139,0 252,113 252,252 0,138 -113,251 -252,251 -109,0 -202,-70 -236,-168l-515 0c-19,332 -149,634 -354,869l399 390c50,-31 109,-48 173,-48 185,0 335,150 335,335 0,185 -150,335 -335,335 -185,0 -335,-150 -335,-335 0,-61 16,-118 45,-167l-399 -390c-180,163 -401,282 -645,339l13 77c78,23 135,95 135,180 0,104 -84,189 -188,189 -104,0 -189,-85 -189,-189 0,-62 31,-117 77,-152l-13 -76c-55,6 -110,10 -166,10 -128,0 -253,-17 -371,-49l-175 535c60,46 99,118 99,199 0,139 -113,251 -252,251 -138,0 -251,-112 -251,-251 0,-137 110,-248 246,-251l174 -534c-187,-74 -355,-185 -495,-325 -59,-59 -113,-123 -161,-192l-685 425c10,31 15,65 15,100 0,185 -150,335 -335,335 -185,0 -335,-150 -335,-335 0,-185 150,-335 335,-335 90,0 172,35 232,93l685 -424c-112,-206 -176,-442 -176,-692 0,-61 4,-121 11,-179l-163 -30c-43,75 -124,126 -218,126 -138,0 -251,-113 -251,-251 0,-139 113,-251 251,-251 126,0 230,91 249,211l162 30c52,-215 153,-411 289,-577l-193 -177c-21,8 -43,12 -67,12 -104,0 -189,-84 -189,-188 0,-105 85,-189 189,-189 104,0 188,84 188,189 0,18 -2,36 -7,53l192 177c178,-171 400,-298 647,-361l-94 -480c-179,-8 -321,-155 -321,-335 0,-185 150,-335 335,-335 185,0 335,150 335,335 0,132 -76,245 -186,300l95 483c64,-9 129,-13 196,-13 228,0 444,53 636,147l0 0z"/>
 </g>
</svg>
