<?xml version="1.0" encoding="utf-8"?>
<!-- Generator: Adobe Illustrator 16.0.0, SVG Export Plug-In . SVG Version: 6.00 Build 0)  -->
<!DOCTYPE svg PUBLIC "-//W3C//DTD SVG 1.1//EN" "http://www.w3.org/Graphics/SVG/1.1/DTD/svg11.dtd">
<svg version="1.1" id="Calque_1" xmlns="http://www.w3.org/2000/svg" xmlns:xlink="http://www.w3.org/1999/xlink" x="0px" y="0px"
	 width="32px" height="32px" viewBox="0 0 32 32" enable-background="new 0 0 32 32" xml:space="preserve">
<path fill-rule="evenodd" clip-rule="evenodd" fill="#EDEDED" d="M31.918,15.99c0-8.767-7.11-15.878-15.879-15.878
	c-8.767,0-15.878,7.111-15.878,15.878c0,8.772,7.111,15.879,15.878,15.879C24.808,31.869,31.918,24.763,31.918,15.99"/>
<path fill-rule="evenodd" clip-rule="evenodd" fill="#1887C9" d="M17.385,18.854c2.325,0,4.211-1.891,4.211-4.211
	c0-2.321-1.886-4.213-4.211-4.213c-2.322,0-4.207,1.892-4.207,4.213C13.178,16.963,15.063,18.854,17.385,18.854 M8.567,22.109
	l3.866-3.871c-0.734-1.009-1.174-2.251-1.174-3.595c0-3.384,2.748-6.125,6.126-6.125c3.382,0,6.127,2.741,6.127,6.125
	c0,3.383-2.745,6.125-6.127,6.125c-1.346,0-2.584-0.438-3.596-1.175l-3.868,3.87L8.567,22.109z"/>
</svg>
