<?xml version="1.0" encoding="utf-8"?>
<!-- Generator: Adobe Illustrator 21.0.2, SVG Export Plug-In . SVG Version: 6.00 Build 0)  -->
<svg version="1.1" id="Layer_1" xmlns="http://www.w3.org/2000/svg" xmlns:xlink="http://www.w3.org/1999/xlink" x="0px" y="0px"
	 viewBox="0 0 90 90" style="enable-background:new 0 0 90 90;" xml:space="preserve">
<style type="text/css">
	.st0{fill:#FEFEFE;}
	.st1{fill:#01B9F5;}
	.st2{clip-path:url(#SVGID_2_);fill:#00B9F5;}
</style>
<g id="Plan_x0020_1">
	<g id="_782695648">
		<circle class="st0" cx="45" cy="45" r="44"/>
		<path class="st1" d="M45,2C33.1,2,22.3,6.8,14.6,14.6C6.8,22.3,2,33.1,2,45s4.8,22.7,12.6,30.5c7.8,7.8,18.5,12.6,30.4,12.6
			s22.7-4.8,30.4-12.6c7.8-7.8,12.6-18.6,12.6-30.5s-4.8-22.7-12.6-30.4C67.7,6.8,56.9,2,45,2z M13.2,13.2C21.3,5,32.6,0,45,0
			s23.7,5,31.8,13.2C85,21.3,90,32.6,90,45s-5,23.7-13.2,31.8C68.7,85,57.4,90,45,90s-23.7-5-31.8-13.2C5,68.7,0,57.4,0,45
			S5,21.3,13.2,13.2z"/>
	</g>
</g>
<g>
	<defs>
		<path id="SVGID_1_" d="M48,38.8c-0.5-0.3-1-0.4-1.5-0.3c-0.5,0.1-0.9,0.4-1.2,0.9c-0.3,0.5-0.4,1-0.3,1.5c0.1,0.5,0.4,0.9,0.9,1.2
			c1.9,1.2,3,3.3,3,5.5c0,1.8-0.7,3.4-1.9,4.6l-7.9,7.9c-1.2,1.2-2.9,1.9-4.6,1.9c-3.6,0-6.6-2.9-6.6-6.6c0-1.7,0.7-3.4,1.9-4.6
			l3.7-3.7c0.4-0.4,0.6-0.9,0.6-1.4c0-0.5-0.2-1-0.6-1.4c-0.4-0.4-0.9-0.6-1.4-0.6c-0.5,0-1,0.2-1.4,0.6l-3.7,3.7
			c-2,2-3.1,4.6-3.1,7.4C24,61.3,28.7,66,34.5,66c2.8,0,5.4-1.1,7.4-3.1l7.9-7.9c2-2,3.1-4.6,3.1-7.4C52.9,44,51.1,40.7,48,38.8
			 M55.5,24c-2.8,0-5.4,1.1-7.4,3.1L40.2,35c-2,2-3.1,4.6-3.1,7.4c0,3.6,1.8,6.9,4.8,8.8c0.5,0.3,1,0.4,1.5,0.3
			c0.5-0.1,0.9-0.4,1.2-0.9c0.3-0.5,0.4-1,0.3-1.5c-0.1-0.5-0.4-0.9-0.9-1.2c-1.9-1.2-3-3.3-3-5.5c0-1.8,0.7-3.4,1.9-4.6l7.9-7.9
			c1.2-1.2,2.9-1.9,4.6-1.9c3.6,0,6.6,2.9,6.6,6.6c0,1.8-0.7,3.4-1.9,4.6l-3.7,3.7c-0.4,0.4-0.6,0.9-0.6,1.4c0,0.5,0.2,1,0.6,1.4
			c0.4,0.4,0.9,0.6,1.4,0.6c0.5,0,1-0.2,1.4-0.6l3.7-3.7c2-2,3.1-4.6,3.1-7.4C66,28.7,61.3,24,55.5,24"/>
	</defs>
	<clipPath id="SVGID_2_">
		<use xlink:href="#SVGID_1_"  style="overflow:visible;"/>
	</clipPath>
	<rect x="15.8" y="15.8" class="st2" width="58.4" height="58.4"/>
</g>
</svg>
