<?xml version="1.0" encoding="UTF-8"?>
<!DOCTYPE svg PUBLIC "-//W3C//DTD SVG 1.1//EN" "http://www.w3.org/Graphics/SVG/1.1/DTD/svg11.dtd">
<!-- Creator: CorelDRAW X7 -->
<svg xmlns="http://www.w3.org/2000/svg" xml:space="preserve" width="100px" height="86px" version="1.1" style="shape-rendering:geometricPrecision; text-rendering:geometricPrecision; image-rendering:optimizeQuality; fill-rule:evenodd; clip-rule:evenodd"
viewBox="0 0 99999 85589"
 xmlns:xlink="http://www.w3.org/1999/xlink">
 <defs>
  <style type="text/css">
   <![CDATA[
    .fil0 {fill:#EDEDED}
   ]]>
  </style>
 </defs>
 <g id="Plan_x0020_1">
  <metadata id="CorelCorpID_0Corel-Layer"/>
  <g id="_687835952">
   <path class="fil0" d="M88501 34946c-4709,-3432 -10249,-5281 -16047,-5368 2823,-8990 -170,-19229 -8113,-25112 -4873,-3611 -10860,-5107 -16861,-4213 -5998,893 -11290,4068 -14899,8942l-28115 37954c-3610,4873 -5106,10861 -4213,16859 894,6000 4069,11291 8943,14902 4056,3004 8790,4452 13487,4452 6956,0 13826,-3177 18275,-9182l4895 -6608c1863,4897 5107,9329 9648,12639 4825,3519 10523,5378 16479,5378 8930,0 17398,-4303 22653,-11510 9097,-12479 6347,-30034 -6132,-39133zm-50677 -21866c2573,-3473 6343,-5736 10618,-6373 4276,-637 8541,430 12015,3003 6528,4836 8366,13798 4561,20763 -6219,1611 -11799,5324 -15650,10606 -1289,1769 -2332,3642 -3151,5576l-21479 -15910 13086 -17665zm-2111 57215c-5309,7170 -15462,8682 -22632,3371 -3473,-2573 -5736,-6343 -6373,-10618 -637,-4275 430,-8542 3003,-12014l13085 -17667 22277 16502c-857,3006 -1191,6109 -1026,9177l-8334 11249zm18929 -25371c4031,-5529 10527,-8829 17378,-8829 4020,0 7887,1108 11281,3214l-25234 34612c-8464,-7207 -10080,-19869 -3425,-28997zm34718 25310c-4031,5528 -10528,8829 -17380,8829 -4020,0 -7886,-1107 -11279,-3214l25233 -34612c8465,7207 10079,19870 3426,28997z"/>
   <path class="fil0" d="M43085 14887c403,0 806,-149 1121,-448 4277,-4051 10176,-1449 10435,-1332 819,375 1785,18 2162,-800 376,-817 20,-1787 -799,-2165 -329,-151 -8141,-3662 -14042,1929 -653,619 -682,1652 -62,2307 320,338 752,509 1185,509z"/>
  </g>
 </g>
</svg>
