<?xml version="1.0" encoding="utf-8"?>
<!-- Generator: Adobe Illustrator 16.0.0, SVG Export Plug-In . SVG Version: 6.00 Build 0)  -->
<!DOCTYPE svg PUBLIC "-//W3C//DTD SVG 1.1//EN" "http://www.w3.org/Graphics/SVG/1.1/DTD/svg11.dtd">
<svg version="1.1" id="Calque_1" xmlns="http://www.w3.org/2000/svg" xmlns:xlink="http://www.w3.org/1999/xlink" x="0px" y="0px"
	 width="30.125px" height="23px" viewBox="0 0 30.125 23" enable-background="new 0 0 30.125 23" xml:space="preserve">
<g id="Plan_x0020_1">
	<g id="_415704360">
		<path fill="#005DA8" d="M18.688,2.875v1.472c0,1.589-1.287,2.874-2.875,2.874c-1.59,0-2.875-1.285-2.875-2.874V2.875h-2.876v1.472
			c0,1.589-1.285,2.874-2.874,2.874c-1.589,0-2.875-1.285-2.875-2.874V2.875H0V23h23V2.875H18.688z M7.188,20.125H4.313V17.25h2.875
			V20.125z M7.188,14.375H4.313V11.5h2.875V14.375z M12.938,20.125h-2.876V17.25h2.876V20.125z M12.938,14.381h-2.876v-2.875h2.876
			V14.381z M15.813,20.125V17.25h2.875L15.813,20.125z M18.688,14.375h-2.875V11.5h2.875V14.375z"/>
		<path fill="#005DA8" d="M5.959,4.313V1.438C5.959,0.643,6.603,0,7.397,0C8.19,0,8.833,0.643,8.833,1.438v2.875
			c0,0.793-0.643,1.438-1.436,1.438C6.603,5.75,5.959,5.106,5.959,4.313z"/>
		<path fill="#005DA8" d="M14.168,4.313V1.438C14.168,0.643,14.811,0,15.605,0s1.438,0.643,1.438,1.438v2.875
			c0,0.793-0.643,1.438-1.438,1.438S14.168,5.106,14.168,4.313z"/>
	</g>
</g>
</svg>
