<?xml version="1.0" encoding="UTF-8"?>
<!DOCTYPE svg PUBLIC "-//W3C//DTD SVG 1.1//EN" "http://www.w3.org/Graphics/SVG/1.1/DTD/svg11.dtd">
<!-- Creator: CorelDRAW X7 -->
<svg xmlns="http://www.w3.org/2000/svg" xml:space="preserve" width="37px" height="30px" version="1.1" style="shape-rendering:geometricPrecision; text-rendering:geometricPrecision; image-rendering:optimizeQuality; fill-rule:evenodd; clip-rule:evenodd"
viewBox="0 0 11827 9615"
 xmlns:xlink="http://www.w3.org/1999/xlink">
 <defs>
  <style type="text/css">
   <![CDATA[
    .fil0 {fill:#0092A8}
   ]]>
  </style>
 </defs>
 <g id="Plan_x0020_1">
  <metadata id="CorelCorpID_0Corel-Layer"/>
  <path class="fil0" d="M10886 3051c-1052,-2171 -2706,-1951 -3090,-1063 -107,247 -197,573 -272,946 -495,-215 -927,-637 -927,-1004 0,-864 0,-1107 0,-1930 -241,0 -1126,0 -1367,0 0,823 0,1066 0,1930 0,362 -445,750 -935,965 -73,-357 -161,-668 -264,-907 -383,-888 -2038,-1108 -3090,1063 -964,1987 -1105,4604 -790,6416 30,167 203,175 278,110 1150,-995 2685,-1507 3715,-1640 413,-53 490,-408 490,-862 0,-932 -51,-2130 -179,-3178 495,-208 1251,-638 1437,-931 185,290 975,750 1476,963 -125,1041 -175,2224 -175,3146 0,454 77,809 490,862 1030,133 2565,645 3715,1640 75,65 248,57 278,-110 315,-1812 174,-4429 -790,-6416z"/>
 </g>
</svg>
