<?xml version="1.0" encoding="UTF-8"?>
<!DOCTYPE svg PUBLIC "-//W3C//DTD SVG 1.1//EN" "http://www.w3.org/Graphics/SVG/1.1/DTD/svg11.dtd">
<!-- Creator: CorelDRAW X7 -->
<svg xmlns="http://www.w3.org/2000/svg" xml:space="preserve" width="18px" height="30px" version="1.1" style="shape-rendering:geometricPrecision; text-rendering:geometricPrecision; image-rendering:optimizeQuality; fill-rule:evenodd; clip-rule:evenodd"
viewBox="0 0 655 1088"
 xmlns:xlink="http://www.w3.org/1999/xlink">
 <defs>
  <style type="text/css">
   <![CDATA[
    .fil0 {fill:white}
   ]]>
  </style>
 </defs>
 <g id="Plan_x0020_1">
  <metadata id="CorelCorpID_0Corel-Layer"/>
  <path class="fil0" d="M387 787l0 0 33 0 0 0 3 0c11,0 21,-5 29,-13l1 0 0 -1c9,-9 13,-19 13,-31l0 -1 0 0c0,-8 -2,-20 -13,-32l0 0 -1 0c-8,-8 -17,-13 -28,-14 0,0 -7,-1 -16,3 -2,1 -5,2 -7,4 -6,3 -14,9 -35,28l-2 2c-8,7 -18,15 -29,24 -14,10 -32,23 -57,31 -14,4 -28,7 -43,7l0 0 0 0c-40,0 -79,-16 -107,-45 -28,-28 -44,-67 -44,-106 0,-40 16,-79 44,-107 28,-29 67,-45 107,-45l0 0 269 0 0 0 0 0c12,0 23,-4 32,-13l1 0 0 -1c9,-9 13,-19 13,-32l0 0 0 0c0,-8 -2,-21 -13,-32l0 0 -1 0c-8,-9 -20,-14 -32,-14 0,0 0,0 0,0 -8,0 -22,2 -36,6l0 0c-15,3 -34,9 -56,16 -22,8 -46,16 -71,25 -20,7 -41,15 -62,22 -26,9 -55,18 -83,24 -13,3 -28,6 -45,6 -40,0 -79,-17 -107,-45 -28,-28 -44,-67 -44,-107 0,-39 16,-78 44,-106 28,-29 67,-45 107,-45l0 0 0 0 160 0 0 0 0 0c12,0 23,-4 32,-13l1 0 0 -1c9,-9 13,-19 13,-32l0 0 0 0 0 -149 105 0 0 149c0,40 -16,79 -44,107 -28,28 -67,44 -107,44l0 0 0 0 -160 0 0 0 0 0c-12,0 -23,5 -32,13l0 1 -1 0c-8,9 -13,20 -13,32l0 0 0 1c0,12 5,23 13,32l1 0 0 1c9,8 19,12 31,13 0,0 1,0 2,0 5,0 19,-2 33,-6l0 0c14,-3 33,-9 55,-17 20,-6 41,-14 63,-22 23,-8 47,-17 69,-24 26,-9 57,-19 86,-25 13,-2 29,-5 46,-5 40,0 78,16 106,44 29,28 45,67 45,107 0,40 -16,79 -44,107 -28,28 -67,44 -107,44l0 0 -41 0c24,7 45,20 63,38 29,28 45,67 45,107 0,40 -16,79 -44,107 -28,28 -65,44 -104,44l-3 0 0 0 -33 0 0 0 0 0c-12,0 -23,5 -32,13l0 1 -1 0c-9,9 -13,20 -13,32l0 0 0 1 0 149 -105 0 0 -149c0,-40 16,-79 44,-107 28,-29 67,-45 107,-45l0 0zm-152 -191l0 0 0 0c-12,0 -23,5 -32,13l0 1 -1 0c-8,9 -13,20 -13,32l0 0 0 1c0,12 4,23 13,32l1 0 0 1c9,8 20,13 32,13l2 0c3,0 6,-1 8,-2l1 0 0 0c4,-1 8,-3 13,-6 5,-3 14,-9 35,-27l4 -4c7,-7 16,-14 25,-22 14,-11 32,-23 55,-31l2 -1 -145 0 0 0z"/>
 </g>
</svg>
