<?xml version="1.0" encoding="UTF-8"?>
<!DOCTYPE svg PUBLIC "-//W3C//DTD SVG 1.1//EN" "http://www.w3.org/Graphics/SVG/1.1/DTD/svg11.dtd">
<!-- Creator: CorelDRAW X7 -->
<svg xmlns="http://www.w3.org/2000/svg" xml:space="preserve" width="35px" height="30px" version="1.1" style="shape-rendering:geometricPrecision; text-rendering:geometricPrecision; image-rendering:optimizeQuality; fill-rule:evenodd; clip-rule:evenodd"
viewBox="0 0 2560 2219"
 xmlns:xlink="http://www.w3.org/1999/xlink">
 <defs>
  <style type="text/css">
   <![CDATA[
    .fil0 {fill:white}
   ]]>
  </style>
 </defs>
 <g id="Plan_x0020_1">
  <metadata id="CorelCorpID_0Corel-Layer"/>
  <path class="fil0" d="M2523 505c-125,-398 -401,-494 -661,-504 -295,-12 -533,200 -582,200 -50,0 -287,-212 -583,-200 -260,10 -535,106 -660,504 -56,179 -44,349 10,509l554 0c26,0 51,9 71,26l130 112 155 -147c20,-19 46,-30 74,-30 6,0 12,1 17,2 33,5 62,26 78,55l47 87 79 -272c14,-46 55,-77 102,-78 49,0 90,30 105,74l90 278 88 -267c-24,-36 -36,-76 -36,-119 0,-118 96,-214 214,-214 118,0 214,96 214,214 0,100 -70,186 -166,208l-186 617c-7,46 -48,83 -98,86l-7 0c-47,0 -88,-30 -103,-74l-107 -329 -56 189c-12,43 -48,73 -92,78 -4,0 -7,0 -11,0 -40,0 -77,-22 -96,-57l-104 -194 -124 116c-20,20 -46,30 -74,30 -26,0 -51,-9 -70,-26l-174 -149 -413 0c335,560 1127,987 1132,989 4,-2 764,-415 1111,-955l85 -155c84,-186 114,-390 47,-604z"/>
 </g>
</svg>
