<?xml version="1.0" encoding="UTF-8"?>
<!DOCTYPE svg PUBLIC "-//W3C//DTD SVG 1.1//EN" "http://www.w3.org/Graphics/SVG/1.1/DTD/svg11.dtd">
<!-- Creator: CorelDRAW X7 -->
<svg xmlns="http://www.w3.org/2000/svg" xml:space="preserve" width="25px" height="19px" version="1.1" style="shape-rendering:geometricPrecision; text-rendering:geometricPrecision; image-rendering:optimizeQuality; fill-rule:evenodd; clip-rule:evenodd"
viewBox="0 0 819 614"
 xmlns:xlink="http://www.w3.org/1999/xlink">
 <defs>
  <style type="text/css">
   <![CDATA[
    .fil0 {fill:#EDEDED}
   ]]>
  </style>
 </defs>
 <g id="Plan_x0020_1">
  <metadata id="CorelCorpID_0Corel-Layer"/>
  <path class="fil0" d="M739 7c-10,-9 -27,-9 -37,0l-381 380c-10,11 -26,11 -36,0l-168 -169c-4,-6 -11,-9 -18,-9 -6,0 -13,3 -18,9l-74 66c-5,5 -7,11 -7,18 0,7 2,13 7,18l169 177c10,10 27,27 37,37l72 72c10,10 26,10 36,0l491 -489c10,-9 10,-26 0,-36l-73 -74 0 0z"/>
 </g>
</svg>
