<?xml version="1.0" encoding="UTF-8"?>
<!DOCTYPE svg PUBLIC "-//W3C//DTD SVG 1.1//EN" "http://www.w3.org/Graphics/SVG/1.1/DTD/svg11.dtd">
<!-- Creator: CorelDRAW X7 -->
<svg xmlns="http://www.w3.org/2000/svg" xml:space="preserve" width="60px" height="60px" version="1.1" style="shape-rendering:geometricPrecision; text-rendering:geometricPrecision; image-rendering:optimizeQuality; fill-rule:evenodd; clip-rule:evenodd"
viewBox="0 0 5663 5663"
 xmlns:xlink="http://www.w3.org/1999/xlink">
 <defs>
  <style type="text/css">
   <![CDATA[
    .fil0 {fill:#01B9F5;fill-rule:nonzero}
   ]]>
  </style>
 </defs>
 <g id="Plan_x0020_1">
  <metadata id="CorelCorpID_0Corel-Layer"/>
  <g id="_634335232">
   <path class="fil0" d="M2002 2659c-31,0 -56,27 -56,59 0,33 25,59 56,59l1289 0c31,0 56,-26 56,-59 0,-32 -25,-59 -56,-59l-1289 0z"/>
   <path class="fil0" d="M2002 2378c-31,0 -56,27 -56,60 0,32 25,59 56,59l1289 0c31,0 56,-27 56,-59 0,-33 -25,-60 -56,-60l-1289 0z"/>
   <path class="fil0" d="M3291 2939l-1289 0c-31,0 -56,26 -56,60 0,32 25,58 56,58l1289 0c31,0 56,-26 56,-58 0,-34 -25,-60 -56,-60z"/>
   <path class="fil0" d="M3291 3220l-1289 0c-31,0 -56,26 -56,59 0,32 25,59 56,59l1289 0c31,0 56,-27 56,-59 0,-33 -25,-59 -56,-59z"/>
   <path class="fil0" d="M3282 3500l-645 0c-30,0 -55,26 -55,59 0,33 25,59 55,59l645 0c31,0 56,-26 56,-59 0,-33 -25,-59 -56,-59z"/>
   <path class="fil0" d="M3271 1911l-451 0c-31,0 -57,26 -57,59 0,33 26,59 57,59l451 0c31,0 56,-26 56,-59 0,-33 -25,-59 -56,-59z"/>
   <path class="fil0" d="M3848 4477l-2170 0c-102,0 -185,-79 -185,-176l0 -2839c0,-98 83,-177 185,-177l2170 0c102,0 185,79 185,177l0 825c0,34 -27,61 -61,61 -34,0 -62,-27 -62,-61l0 -825c0,-29 -28,-53 -62,-53l-2170 0c-33,0 -61,24 -61,53l0 2839c0,28 28,53 61,53l2170 0c34,0 62,-25 62,-53l0 -844c0,-34 28,-62 62,-62 34,0 61,28 61,62l0 844c0,97 -83,176 -185,176z"/>
   <path class="fil0" d="M2832 5663c-1562,0 -2832,-1270 -2832,-2831 0,-1562 1270,-2832 2832,-2832 1561,0 2831,1270 2831,2832 0,1561 -1270,2831 -2831,2831zm0 -5539l0 0c-1494,0 -2708,1214 -2708,2708 0,1493 1214,2708 2708,2708 1493,0 2708,-1215 2708,-2708 0,-1494 -1215,-2708 -2708,-2708z"/>
   <path class="fil0" d="M4881 2375l-699 699 -131 131c-17,18 -41,27 -65,27 -25,0 -49,-9 -66,-27l-131 -131 -350 -350c-17,-17 -27,-41 -27,-65 0,-24 10,-49 27,-66l131 -131c18,-18 42,-27 66,-27 24,0 48,9 66,27l284 285 633 -635c17,-17 41,-27 66,-27 24,0 48,10 65,27l131 132c18,17 27,41 27,65 0,24 -9,49 -27,66z"/>
  </g>
 </g>
</svg>
