<?xml version="1.0" encoding="utf-8"?>
<!-- Generator: Adobe Illustrator 16.0.0, SVG Export Plug-In . SVG Version: 6.00 Build 0)  -->
<!DOCTYPE svg PUBLIC "-//W3C//DTD SVG 1.1//EN" "http://www.w3.org/Graphics/SVG/1.1/DTD/svg11.dtd">
<svg version="1.1" id="Calque_1" xmlns="http://www.w3.org/2000/svg" xmlns:xlink="http://www.w3.org/1999/xlink" x="0px" y="0px"
	 width="32px" height="32px" viewBox="0 0 32 32" enable-background="new 0 0 32 32" xml:space="preserve">
<path fill-rule="evenodd" clip-rule="evenodd" fill="#1887C9" d="M31.944,15.972C31.944,7.151,24.792,0,15.972,0
	C7.153,0,0,7.151,0,15.972c0,8.824,7.153,15.972,15.972,15.972C24.792,31.944,31.944,24.796,31.944,15.972"/>
<path fill-rule="evenodd" clip-rule="evenodd" fill="#FFFFFF" d="M17.325,18.854c2.34,0,4.236-1.904,4.236-4.238
	c0-2.335-1.896-4.237-4.236-4.237c-2.335,0-4.231,1.902-4.231,4.237C13.094,16.951,14.99,18.854,17.325,18.854 M8.457,22.127
	l3.888-3.892c-0.738-1.017-1.181-2.267-1.181-3.619c0-3.404,2.764-6.162,6.162-6.162c3.402,0,6.163,2.758,6.163,6.162
	c0,3.405-2.761,6.161-6.163,6.161c-1.353,0-2.599-0.439-3.616-1.181l-3.892,3.892L8.457,22.127z"/>
</svg>
