<?xml version="1.0" encoding="UTF-8"?>
<!DOCTYPE svg PUBLIC "-//W3C//DTD SVG 1.1//EN" "http://www.w3.org/Graphics/SVG/1.1/DTD/svg11.dtd">
<!-- Creator: CorelDRAW X7 -->
<svg xmlns="http://www.w3.org/2000/svg" xml:space="preserve" width="24px" height="24px" version="1.1" style="shape-rendering:geometricPrecision; text-rendering:geometricPrecision; image-rendering:optimizeQuality; fill-rule:evenodd; clip-rule:evenodd"
viewBox="0 0 1014 1014"
 xmlns:xlink="http://www.w3.org/1999/xlink">
 <defs>
  <style type="text/css">
   <![CDATA[
    .fil2 {fill:#01B9F5}
    .fil0 {fill:white}
    .fil1 {fill:#01B9F5;fill-rule:nonzero}
   ]]>
  </style>
 </defs>
 <g id="Plan_x0020_1">
  <metadata id="CorelCorpID_0Corel-Layer"/>
  <g id="_601362424">
   <circle class="fil0" cx="507" cy="507" r="495"/>
   <path class="fil1" d="M990 507c0,-134 -55,-253 -142,-341 -87,-87 -207,-141 -341,-141 -133,0 -253,54 -341,141 -87,88 -141,207 -141,341 0,134 54,254 141,341 88,87 208,142 341,142 134,0 254,-55 341,-142 87,-87 142,-207 142,-341zm-124 -358c92,91 148,218 148,358 0,140 -56,267 -148,359 -92,92 -219,148 -359,148 -140,0 -267,-56 -358,-148 -92,-92 -149,-219 -149,-359 0,-140 57,-267 149,-358 91,-92 218,-149 358,-149 140,0 267,57 359,149z"/>
   <path class="fil2" d="M563 617c0,0 44,-24 56,-30 11,-6 23,-8 30,-4 11,7 102,69 110,74 7,4 11,20 0,35 -9,15 -58,75 -79,74 -20,0 -106,-3 -267,-164 -162,-162 -164,-248 -165,-268 0,-21 59,-68 74,-79 15,-11 31,-7 36,0 6,9 66,99 73,110 4,7 2,19 -3,30 -7,13 -31,56 -31,56 0,0 17,30 77,90 59,59 89,76 89,76l0 0z"/>
  </g>
 </g>
</svg>
