<?xml version="1.0" encoding="UTF-8"?>
<!DOCTYPE svg PUBLIC "-//W3C//DTD SVG 1.1//EN" "http://www.w3.org/Graphics/SVG/1.1/DTD/svg11.dtd">
<!-- Creator: CorelDRAW X7 -->
<svg xmlns="http://www.w3.org/2000/svg" xml:space="preserve" width="80px" height="80px" version="1.1" style="shape-rendering:geometricPrecision; text-rendering:geometricPrecision; image-rendering:optimizeQuality; fill-rule:evenodd; clip-rule:evenodd"
viewBox="0 0 5209 5209"
 xmlns:xlink="http://www.w3.org/1999/xlink">
 <defs>
  <style type="text/css">
   <![CDATA[
    .fil1 {fill:#01B9F5}
    .fil0 {fill:#01B9F5;fill-rule:nonzero}
   ]]>
  </style>
 </defs>
 <g id="Plan_x0020_1">
  <metadata id="CorelCorpID_0Corel-Layer"/>
  <g id="_571607800">
   <path class="fil0" d="M5082 2604c0,-684 -277,-1303 -725,-1752 -449,-448 -1068,-725 -1753,-725 -684,0 -1303,277 -1751,726 -449,448 -726,1067 -726,1751 0,685 277,1304 725,1752 449,449 1068,726 1752,726 685,0 1304,-277 1752,-726 449,-448 726,-1067 726,-1752zm-636 -1841c471,471 763,1123 763,1841 0,720 -292,1371 -763,1842 -471,471 -1122,763 -1842,763 -718,0 -1369,-292 -1841,-763 -471,-472 -763,-1123 -763,-1842 0,-719 292,-1370 763,-1841 471,-471 1122,-763 1841,-763 719,0 1371,292 1842,763z"/>
   <path class="fil1" d="M3138 2678l0 0c30,22 53,54 63,93l225 836c-92,77 -195,141 -306,190l-89 -332 0 367c-133,48 -277,73 -427,73 -149,0 -293,-25 -426,-73l0 -367 -89 332c-111,-49 -214,-113 -306,-190l224 -836c21,-78 93,-129 171,-128l0 0 266 0 151 278 151 -278 285 0 0 0c39,-1 77,12 107,35l0 0zm1130 436c-92,77 -195,141 -306,190l-89 -333 0 368c-129,46 -268,71 -412,73l-178 -663c-15,-56 -48,-103 -90,-136 -2,-1 -3,-2 -4,-3l0 0 0 0 0 0c-43,-32 -95,-50 -150,-51 -3,0 -5,0 -8,0l-230 0c37,-21 71,-46 101,-76 81,-82 132,-195 132,-319 0,-5 0,-10 0,-14l252 0 151 277 151 -277 285 0 0 0c78,-2 150,49 171,127l224 837zm-3327 0c92,77 194,141 305,190l90 -333 0 368c129,46 268,71 412,73l178 -663c15,-57 49,-105 94,-138l50 67 -50 -68c1,-1 2,-2 3,-2 42,-31 93,-48 147,-49 3,0 5,0 8,0l187 0c-37,-21 -71,-46 -101,-76 -82,-82 -132,-195 -132,-319 0,-5 0,-10 0,-14l-209 0 -151 277 -151 -277 -285 0 0 0c-78,-2 -150,49 -171,127l-224 837zm843 -1810c-203,0 -367,164 -367,366 0,203 164,367 367,367 202,0 366,-164 366,-367 0,-202 -164,-366 -366,-366l0 0zm1641 0c203,0 367,164 367,366 0,203 -164,367 -367,367 -202,0 -366,-164 -366,-367 0,-202 164,-366 366,-366l0 0zm-842 493c202,0 366,164 366,367 0,202 -164,366 -366,366 -202,0 -367,-164 -367,-366 0,-203 165,-367 367,-367l0 0z"/>
  </g>
 </g>
</svg>
