<?xml version="1.0" encoding="UTF-8"?>
<!DOCTYPE svg PUBLIC "-//W3C//DTD SVG 1.1//EN" "http://www.w3.org/Graphics/SVG/1.1/DTD/svg11.dtd">
<!-- Creator: CorelDRAW X7 -->
<svg xmlns="http://www.w3.org/2000/svg" xml:space="preserve" width="24px" height="30px" version="1.1" style="shape-rendering:geometricPrecision; text-rendering:geometricPrecision; image-rendering:optimizeQuality; fill-rule:evenodd; clip-rule:evenodd"
viewBox="0 0 4485 5609"
 xmlns:xlink="http://www.w3.org/1999/xlink">
 <defs>
  <style type="text/css">
   <![CDATA[
    .fil0 {fill:#0092A8}
   ]]>
  </style>
 </defs>
 <g id="Plan_x0020_1">
  <metadata id="CorelCorpID_0Corel-Layer"/>
  <g id="_601327424">
   <path class="fil0" d="M218 527c-150,271 -346,774 -104,1256 164,338 911,317 921,-197 9,-432 76,-571 416,-840 433,-341 -14,-820 -510,-736 -437,74 -723,517 -723,517z"/>
   <path class="fil0" d="M4266 527c151,271 347,774 105,1256 -164,338 -911,317 -921,-197 -9,-432 -76,-571 -416,-840 -433,-341 14,-820 510,-736 437,74 722,517 722,517z"/>
   <path class="fil0" d="M3776 3093c-151,-406 -517,-365 -669,-517 -255,-255 -206,-696 24,-847 230,-152 -64,-535 -194,-517 -190,26 -532,591 -447,1025 47,241 74,499 708,769 549,227 112,702 -52,843 -179,-327 -639,-395 -904,-395 -265,0 -724,68 -903,395 -165,-141 -601,-616 -53,-843 635,-270 661,-528 709,-769 85,-434 -257,-999 -448,-1025 -129,-18 -423,365 -193,517 230,151 279,592 24,847 -153,152 -518,111 -670,517 -168,584 498,948 562,981 -8,64 -9,134 1,211 75,574 765,949 765,949 28,16 51,54 51,86l0 211c0,43 66,78 146,78 4,0 7,0 9,0 4,0 6,0 9,0 81,0 146,-35 146,-79l1 -210c0,-32 23,-70 51,-86 0,0 690,-375 764,-949 10,-77 9,-147 2,-211 64,-33 730,-397 561,-981z"/>
  </g>
 </g>
</svg>
