<?xml version="1.0" encoding="UTF-8"?>
<!DOCTYPE svg PUBLIC "-//W3C//DTD SVG 1.1//EN" "http://www.w3.org/Graphics/SVG/1.1/DTD/svg11.dtd">
<!-- Creator: CorelDRAW X7 -->
<svg xmlns="http://www.w3.org/2000/svg" xml:space="preserve" width="24px" height="24px" version="1.1" style="shape-rendering:geometricPrecision; text-rendering:geometricPrecision; image-rendering:optimizeQuality; fill-rule:evenodd; clip-rule:evenodd"
viewBox="0 0 1013 1013"
 xmlns:xlink="http://www.w3.org/1999/xlink">
 <defs>
  <style type="text/css">
   <![CDATA[
    .fil0 {fill:none}
    .fil2 {fill:#01B9F5}
    .fil1 {fill:#01B9F5;fill-rule:nonzero}
   ]]>
  </style>
 </defs>
 <g id="Plan_x0020_1">
  <metadata id="CorelCorpID_0Corel-Layer"/>
  <g id="_832033776">
   <circle class="fil0" cx="507" cy="507" r="494"/>
   <path class="fil1" d="M988 507c0,-134 -54,-254 -141,-341 -87,-87 -207,-141 -340,-141 -134,0 -254,54 -341,141 -87,87 -141,207 -141,341 0,133 54,253 141,340 87,87 207,141 341,141 133,0 253,-54 340,-141 87,-87 141,-207 141,-340zm-124 -358c92,91 149,217 149,358 0,139 -57,266 -149,357 -91,92 -218,149 -357,149 -141,0 -267,-57 -358,-149 -92,-91 -149,-218 -149,-357 0,-141 57,-267 149,-358 91,-92 217,-149 358,-149 139,0 266,57 357,149z"/>
  </g>
  <path class="fil2" d="M619 630c0,0 1,0 1,1 11,19 4,45 -15,56 -20,11 -46,5 -57,-15 0,0 0,-1 0,-1 -117,63 -157,61 -170,39 -4,-7 -5,-16 -1,-26 20,-91 46,-84 -6,-173 -34,-59 -64,-115 3,-166 -4,-3 -7,-6 -9,-10 -8,-14 -3,-33 11,-42 15,-8 34,-3 43,11 2,4 3,8 4,12 77,-31 111,22 146,81 51,90 58,63 147,93 11,1 18,6 22,13 13,23 -7,58 -119,127z"/>
 </g>
</svg>
