<?xml version="1.0" encoding="UTF-8"?>
<!DOCTYPE svg PUBLIC "-//W3C//DTD SVG 1.1//EN" "http://www.w3.org/Graphics/SVG/1.1/DTD/svg11.dtd">
<!-- Creator: CorelDRAW X7 -->
<svg xmlns="http://www.w3.org/2000/svg" xml:space="preserve" width="19px" height="19px" version="1.1" style="shape-rendering:geometricPrecision; text-rendering:geometricPrecision; image-rendering:optimizeQuality; fill-rule:evenodd; clip-rule:evenodd"
viewBox="0 0 536 536"
 xmlns:xlink="http://www.w3.org/1999/xlink">
 <defs>
  <style type="text/css">
   <![CDATA[
    .fil0 {fill:white}
   ]]>
  </style>
 </defs>
 <g id="Plan_x0020_1">
  <metadata id="CorelCorpID_0Corel-Layer"/>
  <path class="fil0" d="M326 383c0,0 46,-26 57,-33 12,-6 24,-7 32,-3 11,7 106,70 114,75 7,6 11,22 0,38 -11,15 -61,77 -82,76 -21,-1 -110,-3 -277,-170 -167,-167 -169,-256 -170,-277 -1,-21 61,-71 77,-82 15,-11 31,-7 37,1 6,8 68,102 75,113 5,8 3,20 -3,32 -7,12 -32,57 -32,57 0,0 18,31 79,93 62,61 93,80 93,80z"/>
 </g>
</svg>
