<?xml version="1.0" encoding="UTF-8"?>
<!DOCTYPE svg PUBLIC "-//W3C//DTD SVG 1.1//EN" "http://www.w3.org/Graphics/SVG/1.1/DTD/svg11.dtd">
<!-- Creator: CorelDRAW X7 -->
<svg xmlns="http://www.w3.org/2000/svg" xml:space="preserve" width="84666.7px" height="84666.7px" version="1.1" style="shape-rendering:geometricPrecision; text-rendering:geometricPrecision; image-rendering:optimizeQuality; fill-rule:evenodd; clip-rule:evenodd"
viewBox="0 0 3577568 3577568"
 xmlns:xlink="http://www.w3.org/1999/xlink">
 <defs>
  <style type="text/css">
   <![CDATA[
    .fil2 {fill:#01B9F5}
    .fil0 {fill:white}
    .fil1 {fill:#01B9F5;fill-rule:nonzero}
   ]]>
  </style>
 </defs>
 <g id="Plan_x0020_1">
  <metadata id="CorelCorpID_0Corel-Layer"/>
  <g id="_601374616">
   <ellipse class="fil0" cx="1788804" cy="1788759" rx="1745517" ry="1745518"/>
   <path class="fil1" d="M3491087 1788784c0,-471281 -192400,-894392 -500085,-1202147 -307756,-307756 -730937,-500085 -1202148,-500085 -471210,0 -894392,192329 -1202147,500085 -307685,307755 -500014,730866 -500014,1202147 0,471211 192329,894392 500014,1202077 307755,307755 730937,500085 1202147,500085 471211,0 894392,-192330 1202148,-500085 307685,-307685 500085,-730866 500085,-1202077zm-437619 -1264684c326982,322122 524100,769388 524100,1264684 0,495226 -197118,942422 -524100,1264614 -322192,326981 -769388,524170 -1264684,524170 -495296,0 -942422,-197189 -1264614,-524170 -322192,-322122 -524170,-769388 -524170,-1264614 0,-495296 201978,-942492 524170,-1264684 322122,-322122 769318,-524100 1264614,-524100 495296,0 942492,201978 1264684,524100z"/>
   <path class="fil2" d="M1865758 1981113l0 -923266c0,-91340 -72115,-163455 -163526,-163455 -91340,0 -168244,72115 -168244,163455l0 995381c0,0 0,0 0,0 0,9648 0,19226 4789,28804 0,9648 4789,9648 4789,19226 0,4789 0,9648 4789,14437 0,4789 4788,9648 9648,14437 0,4789 0,9648 4789,14437 4788,9578 14366,19155 19155,24015l471281 471210c62537,62537 168245,62537 230782,0 67325,-67325 67325,-173103 0,-235570l-418322 -423181 70 70z"/>
  </g>
 </g>
</svg>
