<?xml version="1.0" encoding="UTF-8"?>
<!DOCTYPE svg PUBLIC "-//W3C//DTD SVG 1.1//EN" "http://www.w3.org/Graphics/SVG/1.1/DTD/svg11.dtd">
<!-- Creator: CorelDRAW X7 -->
<svg xmlns="http://www.w3.org/2000/svg" xml:space="preserve" width="30px" height="30px" version="1.1" style="shape-rendering:geometricPrecision; text-rendering:geometricPrecision; image-rendering:optimizeQuality; fill-rule:evenodd; clip-rule:evenodd"
viewBox="0 0 1897 1884"
 xmlns:xlink="http://www.w3.org/1999/xlink">
 <defs>
  <style type="text/css">
   <![CDATA[
    .fil0 {fill:white}
   ]]>
  </style>
 </defs>
 <g id="Plan_x0020_1">
  <metadata id="CorelCorpID_0Corel-Layer"/>
  <path class="fil0" d="M963 751c124,0 224,100 224,223 0,124 -100,224 -224,224 -123,0 -223,-100 -223,-224 0,-123 100,-223 223,-223l0 0zm243 -274l81 -145c-14,-17 -23,-39 -23,-63 0,-53 42,-96 95,-96 53,0 96,43 96,96 0,53 -43,96 -96,96 -5,0 -11,-1 -16,-2l-82 146c28,17 53,37 77,59l300 -290c-6,-12 -9,-25 -9,-40 0,-53 43,-95 96,-95 53,0 96,42 96,95 0,53 -43,96 -96,96 -15,0 -30,-3 -43,-10l-300 290c77,89 126,203 133,328l196 0c13,-37 49,-64 90,-64 53,0 96,43 96,96 0,53 -43,96 -96,96 -41,0 -77,-27 -90,-64l-196 0c-7,127 -57,242 -135,331l152 149c19,-12 42,-18 66,-18 71,0 128,57 128,127 0,71 -57,128 -128,128 -70,0 -128,-57 -128,-128 0,-23 7,-45 17,-63l-152 -149c-68,62 -152,108 -246,129l5 29c30,9 52,37 52,69 0,40 -32,72 -72,72 -40,0 -72,-32 -72,-72 0,-23 12,-44 30,-58l-5 -29c-21,3 -42,4 -64,4 -49,0 -96,-6 -141,-18l-67 203c23,18 38,45 38,76 0,53 -43,96 -96,96 -53,0 -96,-43 -96,-96 0,-52 42,-94 94,-95l66 -204c-71,-28 -135,-71 -189,-124 -22,-22 -43,-47 -61,-73l-261 162c3,12 5,25 5,38 0,71 -57,128 -127,128 -71,0 -128,-57 -128,-128 0,-71 57,-128 128,-128 34,0 65,14 88,36l261 -162c-42,-78 -67,-168 -67,-264 0,-23 2,-46 5,-68l-62 -12c-17,29 -48,49 -84,49 -52,0 -95,-43 -95,-96 0,-53 43,-96 95,-96 48,0 88,35 95,81l62 11c20,-82 58,-157 110,-220l-73 -68c-8,4 -17,5 -26,5 -40,0 -72,-32 -72,-72 0,-39 32,-72 72,-72 40,0 72,33 72,72 0,7 -1,14 -3,21l73 67c68,-65 153,-113 247,-137l-36 -184c-68,-2 -122,-59 -122,-127 0,-71 57,-128 127,-128 71,0 128,57 128,128 0,50 -29,93 -71,114l36 184c25,-3 50,-5 75,-5 87,0 170,20 243,56l0 0z"/>
 </g>
</svg>
