<?xml version="1.0" encoding="UTF-8"?>
<!DOCTYPE svg PUBLIC "-//W3C//DTD SVG 1.1//EN" "http://www.w3.org/Graphics/SVG/1.1/DTD/svg11.dtd">
<!-- Creator: CorelDRAW X7 -->
<svg xmlns="http://www.w3.org/2000/svg" xml:space="preserve" width="36px" height="30px" version="1.1" style="shape-rendering:geometricPrecision; text-rendering:geometricPrecision; image-rendering:optimizeQuality; fill-rule:evenodd; clip-rule:evenodd"
viewBox="0 0 2845 2338"
 xmlns:xlink="http://www.w3.org/1999/xlink">
 <defs>
  <style type="text/css">
   <![CDATA[
    .fil0 {fill:white}
   ]]>
  </style>
 </defs>
 <g id="Plan_x0020_1">
  <metadata id="CorelCorpID_0Corel-Layer"/>
  <path class="fil0" d="M2560 526c-5,-17 -10,-35 -18,-54 -48,-118 -165,-243 -348,-249 -80,-113 -222,-171 -351,-171 -40,0 -79,5 -114,15 -67,-44 -152,-67 -230,-67 -73,0 -140,18 -196,51 -54,-23 -116,-34 -175,-34 -122,0 -227,47 -296,126 -8,0 -15,0 -23,0 -135,0 -273,66 -338,183 -74,14 -144,54 -194,112 -36,41 -60,90 -72,142 -42,27 -83,65 -113,117 -25,45 -58,127 -35,235 -43,60 -63,137 -55,219 8,81 43,151 97,200 1,56 16,111 47,158 40,63 216,178 443,110 5,154 235,424 629,374 56,-13 274,199 344,345 72,0 322,0 322,0 0,0 -166,-140 -183,-220 111,47 725,-3 874,-427 189,-108 256,-320 265,-436 26,-325 -61,-553 -280,-729zm103 715c-1,1 -17,174 -142,271 -41,31 -90,47 -148,47 -109,0 -213,-57 -240,-89l-27 -32c0,0 -25,41 -27,45 -14,28 -48,92 -194,92 -32,0 -139,-15 -139,-15 0,0 -7,142 -173,156 -38,0 -151,-12 -151,-12 -76,106 -215,94 -297,94 -11,0 -19,0 -26,0 -170,-12 -266,-102 -285,-185 -12,-53 7,-99 50,-123 72,-41 146,20 182,-7 168,-117 352,-104 352,-104l8 -14c5,-7 111,-183 348,-190l67 -2c0,0 44,-314 192,-398 -2,-73 -84,-111 -146,-125 -7,-50 -121,-190 -121,-190 23,38 -59,201 -59,201 0,0 91,43 76,140 -13,74 -104,116 -197,139 -28,101 -120,219 -215,222 -103,2 -213,10 -296,54 -119,61 -205,142 -371,191 -165,49 -436,24 -394,-121l15 -34 -36 -8c-72,-15 -86,-86 -89,-107 -5,-41 6,-94 41,-122 4,4 9,7 13,11 7,5 87,98 258,116 198,20 390,-64 466,-116 240,-164 385,-176 464,-256 126,-127 0,-342 -193,-346 -8,0 -81,13 -81,13 0,0 99,78 85,215 -6,65 -197,227 -407,141 -82,130 -540,184 -519,-6 7,-69 71,-109 71,-109 -12,-81 33,-140 91,-166 11,142 179,175 179,175 -40,-67 -96,-187 2,-303 96,-115 274,-24 274,-24 0,0 15,-133 204,-165 141,-4 185,101 185,101 0,0 48,-130 186,-117 137,12 179,127 179,127 0,0 69,-77 173,-77 104,0 219,54 224,154 12,207 109,236 109,236 0,0 -2,-116 35,-215 60,11 100,47 124,77 34,44 61,150 61,150 40,13 65,35 77,67 15,43 1,89 -5,98 -34,55 -157,139 -343,163 -11,37 -2,164 -56,301 120,0 179,-168 179,-168 199,38 377,-153 383,-153 19,0 -5,-5 4,11 21,77 29,174 20,291z"/>
 </g>
</svg>
