<?xml version="1.0" encoding="UTF-8"?>
<!DOCTYPE svg PUBLIC "-//W3C//DTD SVG 1.1//EN" "http://www.w3.org/Graphics/SVG/1.1/DTD/svg11.dtd">
<!-- Creator: CorelDRAW X7 -->
<svg xmlns="http://www.w3.org/2000/svg" xml:space="preserve" width="18px" height="30px" version="1.1" style="shape-rendering:geometricPrecision; text-rendering:geometricPrecision; image-rendering:optimizeQuality; fill-rule:evenodd; clip-rule:evenodd"
viewBox="0 0 1910 3170"
 xmlns:xlink="http://www.w3.org/1999/xlink">
 <defs>
  <style type="text/css">
   <![CDATA[
    .fil0 {fill:#0092A8}
   ]]>
  </style>
 </defs>
 <g id="Plan_x0020_1">
  <metadata id="CorelCorpID_0Corel-Layer"/>
  <path class="fil0" d="M1128 2295l0 0 96 0 0 0 8 0c32,-2 61,-15 86,-38l1 -2 2 -1c24,-26 37,-57 38,-93l0 -1 0 0c-1,-24 -7,-60 -39,-93l-1 -1 -1 -1c-23,-22 -51,-36 -81,-39 0,0 -20,-3 -47,8 -8,3 -14,7 -22,12 -15,9 -41,27 -102,81l-5 5c-25,22 -53,46 -85,71 -39,30 -94,67 -166,91 -40,12 -82,19 -124,19l0 0 -1 0c-116,0 -229,-47 -311,-129 -82,-82 -129,-195 -129,-311 0,-117 47,-230 129,-312 82,-82 195,-129 311,-129l0 0 784 0 0 0 1 0c35,0 66,-13 92,-38l2 -1 2 -2c24,-26 37,-57 37,-93l0 -1 0 0c0,-24 -7,-60 -39,-93l0 -1 -1 -1c-26,-25 -59,-39 -93,-39 -1,0 -2,0 -2,0 -23,0 -65,6 -105,16l1 0c-44,11 -99,27 -164,48 -65,22 -134,47 -206,73 -59,21 -121,43 -180,63 -78,27 -162,54 -244,72 -38,8 -81,15 -130,15 -116,0 -229,-47 -311,-129 -82,-82 -129,-195 -129,-311 0,-117 47,-230 129,-312 82,-82 195,-129 311,-129l1 0 0 0 465 0 1 0 0 0c36,0 67,-13 93,-38l1 -1 2 -2c25,-26 37,-57 38,-93l0 0 0 -1 0 -434 306 0 0 434c0,117 -47,230 -129,312 -82,82 -196,129 -311,129l0 0 -1 0 -465 0 -1 0 0 0c-36,0 -67,13 -93,38l-2 1 -1 2c-25,26 -38,57 -38,93l0 1 0 1c0,35 13,66 38,92l1 2 2 1c25,24 56,37 90,38 1,0 3,0 5,0 16,0 55,-5 97,-16l-1 0c42,-10 96,-27 161,-48 58,-20 120,-42 185,-66 66,-24 135,-48 201,-71 76,-25 165,-53 250,-71 38,-7 83,-15 134,-15 116,0 226,45 309,128 84,82 131,196 131,312 1,117 -47,230 -129,312 -81,82 -195,129 -311,129l0 0 -120 0c69,20 132,58 185,110 83,82 131,196 131,312 0,116 -47,230 -129,312 -80,80 -191,127 -304,129l-8 0 0 0 -96 0 0 0 -1 0c-35,0 -66,13 -92,38l-2 1 -1 2c-25,26 -38,57 -38,92l0 1 0 0 0 435 -306 0 0 -435c0,-116 47,-229 129,-311 82,-82 195,-129 311,-129l0 0zm-443 -557l0 0 -1 0c-35,0 -66,13 -92,38l-2 1 -1 2c-25,25 -38,58 -38,93l0 0 0 1c0,36 13,67 38,93l1 2 2 1c26,25 57,38 92,38l5 0c11,0 19,-2 26,-4l1 0 1 -1c11,-3 24,-9 37,-17 15,-9 43,-27 102,-80l11 -10c22,-20 47,-42 76,-64 40,-32 91,-68 159,-91l6 -2 -423 0 0 0z"/>
 </g>
</svg>
