<?xml version="1.0" encoding="UTF-8"?>
<!DOCTYPE svg PUBLIC "-//W3C//DTD SVG 1.1//EN" "http://www.w3.org/Graphics/SVG/1.1/DTD/svg11.dtd">
<!-- Creator: CorelDRAW X7 -->
<svg xmlns="http://www.w3.org/2000/svg" xml:space="preserve" width="24px" height="24px" version="1.1" style="shape-rendering:geometricPrecision; text-rendering:geometricPrecision; image-rendering:optimizeQuality; fill-rule:evenodd; clip-rule:evenodd"
viewBox="0 0 1014 1014"
 xmlns:xlink="http://www.w3.org/1999/xlink">
 <defs>
  <style type="text/css">
   <![CDATA[
    .fil0 {fill:white}
    .fil1 {fill:#01B9F5;fill-rule:nonzero}
   ]]>
  </style>
 </defs>
 <g id="Plan_x0020_1">
  <metadata id="CorelCorpID_0Corel-Layer"/>
  <g id="_569519096">
   <circle class="fil0" cx="507" cy="507" r="495"/>
   <path class="fil1" d="M990 507c0,-134 -55,-253 -142,-341 -87,-87 -207,-141 -341,-141 -134,0 -253,54 -341,141 -87,88 -141,207 -141,341 0,134 54,254 141,341 88,87 207,142 341,142 134,0 254,-55 341,-142 87,-87 142,-207 142,-341zm-124 -358c92,91 148,218 148,358 0,140 -56,267 -148,359 -92,92 -219,148 -359,148 -140,0 -267,-56 -358,-148 -92,-92 -149,-219 -149,-359 0,-140 57,-267 149,-358 91,-92 218,-149 358,-149 140,0 267,57 359,149z"/>
   <path class="fil1" d="M552 613c-12,18 -26,32 -42,40 -15,8 -33,12 -55,12 -35,0 -62,-9 -80,-28 -19,-20 -27,-48 -27,-85 0,-52 15,-97 46,-132 30,-36 68,-53 113,-53 18,0 31,4 45,11 12,6 22,16 30,30l18 -30 67 0 -51 199c0,0 0,1 0,1 0,4 0,7 0,9 0,7 1,11 4,14 4,4 10,6 17,6 28,0 55,-17 77,-47 23,-31 34,-68 34,-110 0,-52 -19,-94 -58,-127 -40,-33 -90,-49 -153,-49 -33,0 -63,4 -90,11 -27,8 -52,20 -75,37 -34,23 -60,53 -78,88 -19,37 -27,75 -27,117 0,66 22,118 66,157 45,40 103,59 178,59 36,0 70,-6 104,-15 32,-11 62,-26 91,-47l31 45c-34,26 -69,45 -107,58 -38,12 -78,19 -119,19 -42,0 -80,-6 -116,-17 -35,-10 -66,-25 -94,-47 -34,-26 -60,-58 -76,-92 -18,-35 -26,-75 -26,-118 0,-37 5,-71 18,-105 11,-33 28,-63 50,-90 33,-40 72,-71 117,-91 47,-21 97,-30 153,-30 38,0 72,4 105,15 33,9 61,23 85,42 30,23 51,50 66,79 15,30 22,64 22,101 0,35 -7,69 -22,99 -13,32 -34,58 -61,79 -15,13 -33,21 -50,28 -20,6 -39,9 -58,9 -23,0 -41,-4 -53,-12 -12,-10 -18,-22 -19,-40zm12 -141c-2,-17 -8,-29 -16,-39 -10,-8 -22,-12 -37,-12 -22,0 -42,12 -58,40 -18,26 -26,57 -26,92 0,19 4,33 11,43 8,9 19,15 32,15 18,0 34,-7 48,-19 15,-14 24,-30 29,-52l17 -68 0 0z"/>
  </g>
 </g>
</svg>
