<?xml version="1.0" encoding="UTF-8"?>
<!DOCTYPE svg PUBLIC "-//W3C//DTD SVG 1.1//EN" "http://www.w3.org/Graphics/SVG/1.1/DTD/svg11.dtd">
<!-- Creator: CorelDRAW X7 -->
<svg xmlns="http://www.w3.org/2000/svg" xml:space="preserve" width="36px" height="30px" version="1.1" style="shape-rendering:geometricPrecision; text-rendering:geometricPrecision; image-rendering:optimizeQuality; fill-rule:evenodd; clip-rule:evenodd"
viewBox="0 0 11341 9322"
 xmlns:xlink="http://www.w3.org/1999/xlink">
 <defs>
  <style type="text/css">
   <![CDATA[
    .fil0 {fill:#0092A8}
   ]]>
  </style>
 </defs>
 <g id="Plan_x0020_1">
  <metadata id="CorelCorpID_0Corel-Layer"/>
  <path class="fil0" d="M10204 2096c-17,-67 -40,-139 -71,-216 -192,-469 -656,-969 -1385,-992 -319,-449 -887,-681 -1401,-681 -160,0 -313,21 -456,62 -264,-178 -604,-269 -917,-269 -290,0 -555,72 -781,204 -215,-92 -461,-136 -695,-136 -489,0 -908,186 -1182,503 -30,-2 -61,-2 -92,-2 -537,0 -1089,265 -1348,731 -294,57 -571,214 -771,445 -143,166 -240,358 -286,567 -171,107 -332,261 -451,467 -103,178 -231,505 -142,936 -169,238 -252,547 -219,872 33,323 173,602 386,798 4,225 66,444 187,632 161,250 865,709 1767,438 22,612 937,1689 2509,1489 223,-51 1093,795 1372,1378 286,0 1284,0 1284,0 0,0 -662,-559 -733,-880 445,191 2892,-9 3487,-1702 754,-431 1021,-1273 1057,-1738 102,-1297 -244,-2205 -1119,-2906zm410 2850c0,7 -64,696 -565,1083 -161,123 -359,185 -587,185 -438,0 -851,-228 -959,-355l-107 -126c0,0 -99,164 -108,180 -57,109 -190,364 -774,364 -127,0 -553,-58 -553,-58 0,0 -27,567 -691,622 -152,0 -600,-48 -600,-48 -305,425 -857,376 -1186,376 -41,0 -76,-1 -102,-2 -679,-48 -1061,-405 -1136,-737 -48,-210 26,-393 197,-490 287,-164 582,78 727,-29 668,-465 1404,-413 1404,-413l33 -56c18,-30 440,-730 1384,-757l267 -7c0,0 176,-1253 766,-1587 -7,-294 -332,-443 -582,-499 -29,-198 -480,-759 -480,-759 90,151 -236,800 -236,800 0,0 362,175 303,559 -53,297 -417,462 -786,557 -110,401 -478,873 -858,882 -410,10 -847,42 -1181,215 -472,243 -814,566 -1476,762 -661,196 -1738,97 -1572,-480l61 -136 -146 -31c-287,-60 -343,-343 -354,-429 -20,-164 25,-372 163,-484 18,14 36,28 54,42 27,21 347,390 1029,461 786,82 1552,-252 1855,-460 957,-656 1538,-701 1852,-1020 502,-509 0,-1365 -770,-1381 -34,0 -323,50 -323,50 0,0 393,312 340,860 -26,260 -785,903 -1626,560 -325,520 -2151,734 -2069,-21 30,-278 284,-435 284,-435 -46,-325 134,-561 365,-662 45,564 711,695 711,695 -157,-264 -381,-743 8,-1207 384,-457 1095,-93 1095,-93 0,0 58,-534 813,-658 563,-18 737,400 737,400 0,0 193,-517 739,-467 546,49 715,507 715,507 0,0 276,-304 691,-304 415,0 871,214 893,613 45,823 435,940 435,940 0,0 -10,-464 136,-857 242,43 402,187 496,308 137,175 246,596 246,596 156,52 258,142 303,266 63,173 4,354 -19,391 -135,219 -626,557 -1367,653 -42,144 -8,651 -224,1196 480,0 715,-668 715,-668 792,151 1503,-610 1526,-610 76,0 -19,-18 15,44 86,308 116,694 79,1159z"/>
 </g>
</svg>
