<?xml version="1.0" encoding="UTF-8"?>
<!DOCTYPE svg PUBLIC "-//W3C//DTD SVG 1.1//EN" "http://www.w3.org/Graphics/SVG/1.1/DTD/svg11.dtd">
<!-- Creator: CorelDRAW X7 -->
<svg xmlns="http://www.w3.org/2000/svg" xml:space="preserve" width="43px" height="43px" version="1.1" style="shape-rendering:geometricPrecision; text-rendering:geometricPrecision; image-rendering:optimizeQuality; fill-rule:evenodd; clip-rule:evenodd"
viewBox="0 0 1991 1991"
 xmlns:xlink="http://www.w3.org/1999/xlink">
 <defs>
  <style type="text/css">
   <![CDATA[
    .fil1 {fill:#0092A8}
    .fil0 {fill:#0092A8;fill-rule:nonzero}
   ]]>
  </style>
 </defs>
 <g id="Plan_x0020_1">
  <metadata id="CorelCorpID_0Corel-Layer"/>
  <g id="_718371056">
   <path class="fil0" d="M1943 996c0,-262 -106,-499 -278,-670 -171,-171 -408,-277 -669,-277 -262,0 -499,106 -670,277 -171,171 -277,408 -277,670 0,261 106,498 277,669 171,172 408,278 670,278 261,0 498,-106 669,-278 172,-171 278,-408 278,-669zm-243 -704c180,180 291,429 291,704 0,275 -111,524 -291,704 -180,180 -429,291 -704,291 -275,0 -524,-111 -704,-291 -181,-181 -292,-430 -292,-704 0,-275 111,-524 292,-704 180,-181 429,-292 704,-292 274,0 523,111 704,292z"/>
   <g>
    <path class="fil1" d="M935 832c82,0 148,66 148,148 0,81 -66,147 -148,147 -81,0 -147,-66 -147,-147 0,-82 66,-148 147,-148zm-237 493c0,-110 106,-174 237,-174 131,0 237,64 237,174l0 68 501 0 0 -145c0,-166 -158,-261 -353,-261 -67,0 -130,12 -183,33 2,-13 4,-27 4,-40 0,-114 -92,-206 -206,-206 -13,0 -26,2 -39,4 14,-29 21,-60 21,-94 0,-121 -98,-219 -219,-219 -122,0 -220,98 -220,219 0,122 98,220 220,220 16,0 33,-2 49,-6 -9,20 -14,40 -16,62 -11,-1 -22,-1 -33,-1 -210,0 -380,102 -380,279l0 155 380 0 0 -68z"/>
    <path class="fil1" d="M1320 936c113,0 204,-91 204,-205 0,-113 -91,-204 -204,-204 -113,0 -205,91 -205,204 0,114 92,205 205,205z"/>
   </g>
  </g>
 </g>
</svg>
