<?xml version="1.0" encoding="UTF-8"?>
<!DOCTYPE svg PUBLIC "-//W3C//DTD SVG 1.1//EN" "http://www.w3.org/Graphics/SVG/1.1/DTD/svg11.dtd">
<!-- Creator: CorelDRAW X7 -->
<svg xmlns="http://www.w3.org/2000/svg" xml:space="preserve" width="46px" height="30px" version="1.1" style="shape-rendering:geometricPrecision; text-rendering:geometricPrecision; image-rendering:optimizeQuality; fill-rule:evenodd; clip-rule:evenodd"
viewBox="0 0 135737 89272"
 xmlns:xlink="http://www.w3.org/1999/xlink">
 <defs>
  <style type="text/css">
   <![CDATA[
    .fil0 {fill:white}
   ]]>
  </style>
 </defs>
 <g id="Plan_x0020_1">
  <metadata id="CorelCorpID_0Corel-Layer"/>
  <g id="_451679376">
   <g>
    <path class="fil0" d="M123486 81020c190,-197 376,-397 559,-601l63 -67c179,-200 358,-404 534,-611l39 -42c179,-211 355,-426 530,-647 32,-35 60,-70 88,-106 172,-217 345,-439 517,-664l35 -53c169,-217 330,-442 492,-667l53 -78c165,-228 327,-464 485,-699 24,-39 53,-77 77,-116 162,-239 320,-481 478,-731l7 -14c155,-243 309,-492 457,-742 21,-35 42,-70 63,-105 151,-246 295,-496 440,-749 21,-38 42,-80 66,-119 292,-520 577,-1047 851,-1589 21,-38 42,-81 63,-123 134,-263 264,-530 394,-798 17,-38 35,-77 52,-115 131,-268 257,-538 380,-812l14 -32c127,-278 250,-559 369,-840 21,-49 42,-95 63,-144 120,-278 236,-559 348,-840 14,-35 28,-67 42,-102 109,-274 218,-552 324,-829 10,-25 24,-53 31,-81 113,-288 218,-577 324,-868 21,-53 38,-106 56,-158 105,-292 207,-584 309,-883l25 -73c95,-285 190,-573 285,-861 10,-39 24,-81 38,-120 95,-299 187,-597 278,-896 14,-53 32,-109 46,-162 91,-306 182,-611 270,-921l7 -28c85,-302 165,-608 250,-913 14,-53 24,-102 38,-155 81,-302 159,-608 236,-914 10,-56 24,-109 39,-165 77,-316 151,-633 224,-949l0 0c74,-320 145,-640 211,-959 14,-60 28,-116 39,-176 67,-309 130,-622 193,-935 11,-53 18,-102 28,-155 60,-305 120,-611 176,-917l14 -74c56,-320 113,-639 165,-963 11,-63 21,-126 32,-190 53,-316 102,-636 151,-952 7,-46 14,-91 21,-137 46,-302 88,-601 130,-907 7,-42 11,-88 18,-130 46,-320 84,-639 123,-963 10,-63 17,-130 24,-197 39,-323 78,-646 113,-970 3,-35 7,-66 10,-98 32,-306 64,-615 95,-924 4,-57 11,-109 14,-165 32,-320 57,-640 85,-963 7,-67 10,-130 14,-197 28,-331 53,-657 74,-988l3 -42c21,-320 39,-640 56,-959 4,-67 7,-127 11,-194 17,-320 32,-639 46,-959 3,-64 3,-127 7,-190 10,-320 21,-640 31,-959l0 -46c11,-327 14,-657 21,-984 0,-67 0,-137 0,-204 7,-320 7,-640 7,-960 0,-59 0,-116 0,-172 0,-306 -3,-608 -7,-914 0,-35 0,-73 0,-108 -3,-324 -10,-644 -21,-967 0,-70 -3,-141 -3,-207 -11,-320 -21,-640 -35,-960 0,-45 -4,-95 -4,-140 -14,-299 -28,-594 -42,-893 -4,-49 -7,-102 -11,-151 -14,-316 -35,-633 -56,-946 -3,-70 -10,-137 -14,-207 -21,-320 -46,-636 -70,-952 -4,-32 -7,-67 -7,-99 -25,-298 -53,-597 -81,-892 -4,-60 -11,-120 -14,-176 -32,-309 -63,-619 -95,-928 -7,-67 -14,-130 -21,-197 -39,-316 -74,-632 -113,-945l-3 -32c-39,-309 -77,-615 -120,-921 -10,-63 -17,-126 -24,-189 -46,-303 -88,-605 -134,-904 -10,-59 -17,-119 -28,-179 -46,-295 -91,-587 -140,-879l-11 -66c-49,-306 -105,-608 -158,-911 -14,-63 -25,-126 -35,-189 -57,-296 -113,-591 -169,-882 -11,-53 -21,-102 -32,-152 -56,-277 -112,-551 -172,-826 -7,-35 -14,-73 -21,-112 -63,-292 -130,-583 -197,-872 -14,-59 -28,-123 -42,-182 -67,-289 -137,-577 -207,-858 -11,-42 -21,-81 -32,-119 -63,-264 -133,-528 -204,-791 -10,-46 -24,-92 -35,-137 -74,-281 -151,-555 -228,-830 -18,-59 -35,-119 -53,-179 -81,-278 -162,-555 -246,-829l-21 -67c-81,-260 -162,-520 -246,-780 -14,-49 -32,-99 -46,-148 -88,-267 -176,-527 -267,-787 -18,-53 -35,-106 -56,-158 -92,-271 -186,-538 -285,-802 -119,-319 -242,-636 -365,-945 -28,-67 -53,-134 -78,-197 -123,-299 -246,-594 -376,-885 -21,-53 -45,-106 -70,-159 -116,-267 -235,-527 -359,-783 -21,-46 -42,-92 -63,-137 -133,-278 -270,-549 -407,-819 -36,-64 -67,-130 -102,-197 -141,-267 -282,-531 -426,-787 -17,-36 -35,-64 -56,-99 -130,-232 -263,-464 -401,-689 -38,-63 -73,-126 -112,-189 -144,-239 -292,-475 -443,-707 -38,-60 -81,-123 -123,-183 -130,-203 -263,-400 -400,-597 -32,-46 -60,-91 -92,-134 -154,-221 -313,-435 -467,-646 -53,-67 -102,-134 -151,-197 -10558,-13903 -29508,-11521 -39103,-6266 -11187,6122 -9893,22141 -1529,28267 1290,5588 5321,7549 6021,7848 7254,-9662 7925,-16273 1929,-23983 0,0 3652,1943 6421,-2063 193,3908 1058,10308 5300,9991 4239,-312 5655,-2513 7381,-4554 -598,3704 2259,4839 3142,5025 -3142,1100 -10994,7068 -7775,12881 3220,5809 11152,-2123 12171,-3377 -372,1560 -1226,4533 236,5574 -2749,706 -6119,404 -5810,2119 313,1757 4945,1729 4945,1729 0,0 -706,1571 -235,2671 -3374,-394 -9971,1884 -7774,8635 2200,6755 5025,8013 5025,8013 0,-3 -2277,548 -2196,3532 -2278,-2590 -7774,-9658 -3300,5261 -1336,-354 -4984,-77 -6516,1807 1100,-2907 -629,-13352 -3849,-5578 -38,-1057 -667,-2590 -2200,-3138 2513,-1100 8091,-12093 -2432,-11700 -942,35 -1845,218 -2713,538 -11767,11116 -4808,39183 17565,34020 4116,-949 7662,-3033 10667,-5950 197,-190 394,-386 587,-587 28,-31 60,-63 88,-91z"/>
    <path class="fil0" d="M90906 44666c0,0 -31,-14 -88,-39 -618,823 -1289,1670 -2020,2548 -10540,12688 -8611,36885 -8056,42097l2879 0c-2822,-15805 -81,-32478 8916,-37306 -387,-2183 -1631,-7300 -1631,-7300z"/>
   </g>
   <g>
    <path class="fil0" d="M12252 81020c-190,-197 -376,-397 -559,-601l-63 -67c-180,-200 -359,-404 -535,-611l-38 -42c-180,-211 -355,-426 -531,-647 -32,-35 -60,-70 -88,-106 -172,-217 -344,-439 -517,-664l-35 -53c-168,-217 -330,-442 -492,-667l-52 -78c-166,-228 -327,-464 -485,-699 -25,-39 -53,-77 -78,-116 -161,-239 -320,-481 -478,-731l-7 -14c-154,-243 -309,-492 -457,-742 -21,-35 -42,-70 -63,-105 -151,-246 -295,-496 -439,-749 -21,-38 -46,-80 -67,-119 -292,-520 -576,-1047 -851,-1589 -21,-38 -42,-81 -63,-123 -133,-263 -263,-530 -393,-798 -18,-38 -36,-77 -53,-115 -130,-268 -257,-538 -380,-812l-14 -32c-126,-278 -249,-559 -369,-840 -21,-49 -42,-95 -63,-144 -120,-278 -235,-559 -348,-840 -14,-35 -28,-67 -42,-102 -109,-274 -218,-552 -323,-829 -11,-25 -22,-53 -32,-81 -113,-288 -218,-577 -323,-868 -22,-53 -39,-106 -57,-158 -105,-292 -207,-584 -309,-883l-25 -73c-98,-285 -189,-573 -284,-861 -11,-39 -25,-81 -39,-120 -95,-299 -186,-597 -278,-896 -14,-53 -31,-109 -45,-162 -92,-306 -183,-611 -271,-921l-7 -28c-84,-302 -169,-608 -249,-913 -14,-53 -25,-102 -39,-155 -81,-302 -158,-608 -236,-914 -10,-56 -24,-109 -38,-165 -77,-316 -155,-633 -225,-949l0 0c-74,-320 -144,-640 -214,-959 -11,-60 -25,-116 -36,-176 -66,-309 -130,-622 -193,-935 -10,-53 -18,-102 -28,-155 -60,-305 -120,-611 -176,-917l-14 -74c-56,-320 -112,-639 -165,-963 -11,-63 -21,-126 -32,-190 -52,-316 -102,-636 -151,-952 -7,-46 -14,-91 -21,-137 -46,-302 -88,-601 -130,-907 -7,-42 -10,-88 -17,-130 -46,-320 -85,-639 -123,-963 -11,-63 -18,-130 -25,-197 -39,-323 -77,-646 -113,-970 -3,-35 -7,-66 -10,-98 -32,-306 -63,-615 -95,-924 -3,-57 -11,-109 -14,-165 -32,-320 -56,-640 -84,-963 -7,-67 -11,-130 -14,-197 -29,-331 -53,-657 -74,-988l-4 -42c-21,-320 -38,-640 -56,-959 -4,-67 -7,-127 -11,-194 -17,-320 -31,-639 -45,-959 0,-64 -4,-127 -7,-190 -11,-320 -21,-640 -32,-959l0 -46c-10,-327 -14,-657 -21,-984 0,-67 0,-137 0,-204 -7,-320 -7,-640 -7,-960 0,-59 0,-116 0,-172 0,-306 4,-608 7,-914 0,-35 0,-73 0,-108 4,-324 11,-644 21,-967 0,-70 4,-141 4,-207 10,-320 21,-640 31,-960 4,-45 7,-95 7,-140 14,-299 28,-594 42,-893 4,-49 7,-102 7,-151 18,-316 39,-633 60,-946 4,-70 7,-137 14,-207 21,-320 46,-636 71,-952 3,-32 7,-67 7,-99 24,-298 52,-597 80,-892 4,-60 11,-120 15,-176 31,-309 63,-619 94,-928 7,-67 14,-130 21,-197 36,-316 74,-632 113,-945l3 -32c39,-309 78,-615 120,-921 11,-63 18,-126 28,-189 39,-303 84,-605 130,-904 7,-59 18,-119 28,-179 46,-295 92,-587 141,-879l10 -66c53,-306 106,-608 159,-911 14,-63 24,-126 35,-189 56,-296 112,-591 168,-882 11,-53 21,-102 32,-152 56,-277 112,-551 172,-826 7,-35 14,-73 21,-112 64,-292 130,-583 197,-872 14,-59 28,-123 42,-182 67,-289 137,-577 208,-858 10,-42 21,-81 28,-119 67,-264 137,-528 207,-791 11,-46 25,-92 35,-137 74,-281 151,-555 229,-830 17,-59 35,-119 52,-179 81,-278 162,-555 246,-829l21 -67c81,-260 162,-520 247,-780 14,-49 31,-99 45,-148 88,-267 176,-527 267,-787 18,-53 35,-106 57,-158 91,-271 186,-538 284,-802 120,-319 243,-636 366,-945 28,-67 52,-134 77,-197 123,-299 246,-594 376,-885 21,-53 46,-106 70,-159 116,-267 236,-527 359,-783 21,-46 42,-92 63,-137 134,-278 271,-549 408,-819 35,-64 67,-130 102,-197 140,-267 281,-531 425,-787 18,-36 35,-64 53,-99 133,-232 267,-464 404,-689 39,-63 74,-126 112,-189 144,-239 292,-475 443,-707 39,-60 81,-123 120,-183 133,-203 267,-400 404,-597 31,-46 60,-91 91,-134 155,-221 313,-435 471,-646 49,-67 99,-134 148,-197 10557,-13903 29508,-11521 39102,-6266 11190,6122 9894,22141 1529,28267 -1290,5588 -5321,7549 -6020,7848 -7254,-9662 -7929,-16273 -1930,-23983 0,0 -3651,1943 -6421,-2063 -197,3908 -1058,10308 -5300,9991 -4238,-312 -5655,-2513 -7380,-4554 597,3704 -2260,4839 -3142,5025 3142,1100 10993,7068 7774,12881 -3219,5809 -11152,-2123 -12171,-3377 373,1560 1227,4533 -235,5574 2748,706 6115,404 5809,2119 -313,1757 -4945,1729 -4945,1729 0,0 707,1571 236,2671 3374,-394 9970,1884 7774,8635 -2200,6755 -5026,8013 -5026,8013 0,-3 2278,548 2197,3532 2277,-2590 7774,-9658 3300,5261 1335,-354 4987,-77 6516,1807 -1100,-2907 629,-13352 3848,-5578 39,-1057 668,-2590 2200,-3138 -2513,-1100 -8090,-12093 2432,-11700 942,35 1845,218 2710,538 11770,11116 4811,39183 -17562,34020 -4116,-949 -7662,-3033 -10667,-5950 -196,-190 -393,-386 -587,-587 -28,-31 -59,-63 -87,-91z"/>
    <path class="fil0" d="M44828 44666c0,0 35,-14 91,-39 618,823 1290,1670 2021,2548 10540,12688 8610,36885 8055,42097l-2878 0c2822,-15805 80,-32478 -8917,-37306 387,-2183 1628,-7300 1628,-7300z"/>
   </g>
  </g>
 </g>
</svg>
