<?xml version="1.0" encoding="UTF-8"?>
<!DOCTYPE svg PUBLIC "-//W3C//DTD SVG 1.1//EN" "http://www.w3.org/Graphics/SVG/1.1/DTD/svg11.dtd">
<!-- Creator: CorelDRAW X7 -->
<svg xmlns="http://www.w3.org/2000/svg" xml:space="preserve" width="70px" height="38px" version="1.1" style="shape-rendering:geometricPrecision; text-rendering:geometricPrecision; image-rendering:optimizeQuality; fill-rule:evenodd; clip-rule:evenodd"
viewBox="0 0 56694 30723"
 xmlns:xlink="http://www.w3.org/1999/xlink">
 <defs>
  <style type="text/css">
   <![CDATA[
    .fil3 {fill:none}
    .fil2 {fill:#01B9F5}
    .fil1 {fill:white}
    .fil0 {fill:#01B9F5;fill-rule:nonzero}
   ]]>
  </style>
 </defs>
 <g id="Plan_x0020_1">
  <metadata id="CorelCorpID_0Corel-Layer"/>
  <path class="fil0" d="M5062 8223c-658,0 -1180,219 -1562,658 -381,440 -572,1042 -572,1806 0,786 183,1393 552,1820 367,430 893,644 1575,644 418,0 896,-76 1433,-226l0 612c-416,158 -929,236 -1540,236 -885,0 -1567,-268 -2047,-804 -481,-537 -722,-1300 -722,-2288 0,-620 117,-1162 347,-1628 232,-465 566,-824 1003,-1075 436,-252 950,-378 1542,-378 631,0 1180,115 1651,343l-295 600c-455,-215 -909,-320 -1365,-320z"/>
  <path id="1" class="fil0" d="M10462 13689l-137 -641 -33 0c-224,283 -447,474 -670,575 -224,99 -502,150 -836,150 -446,0 -795,-114 -1049,-344 -253,-232 -380,-558 -380,-984 0,-910 727,-1387 2180,-1430l764 -26 0 -278c0,-352 -77,-613 -227,-781 -153,-168 -396,-253 -730,-253 -375,0 -798,115 -1272,345l-209 -521c221,-121 464,-216 728,-285 264,-68 529,-103 794,-103 537,0 934,120 1193,358 260,238 388,620 388,1145l0 3073 -504 0zm-1540 -480c424,0 758,-116 999,-349 242,-232 364,-558 364,-976l0 -406 -682 28c-541,19 -933,103 -1172,253 -240,149 -359,381 -359,695 0,247 74,435 224,562 149,130 358,193 626,193z"/>
  <polygon id="2" class="fil0" points="13054,13689 12372,13689 12372,7298 13054,7298 "/>
  <path id="3" class="fil0" d="M16298 13773c-651,0 -1155,-200 -1513,-601 -358,-402 -536,-970 -536,-1703 0,-754 181,-1336 544,-1747 363,-410 879,-616 1550,-616 217,0 432,24 650,69 215,47 385,101 508,166l-210 579c-150,-61 -314,-110 -492,-151 -178,-39 -335,-58 -472,-58 -915,0 -1371,583 -1371,1749 0,553 110,977 333,1274 224,295 554,442 993,442 374,0 759,-81 1153,-242l0 605c-301,156 -680,234 -1137,234z"/>
  <path id="4" class="fil0" d="M19144 9190l0 2919c0,366 83,641 251,822 167,180 429,270 785,270 471,0 814,-129 1034,-385 216,-258 326,-679 326,-1262l0 -2364 681 0 0 4499 -562 0 -98 -602 -38 0c-139,223 -333,392 -582,510 -246,117 -529,176 -848,176 -547,0 -957,-131 -1230,-389 -272,-261 -408,-677 -408,-1249l0 -2945 689 0z"/>
  <polygon id="5" class="fil0" points="24347,13689 23666,13689 23666,7298 24347,7298 "/>
  <path id="6" class="fil0" d="M14093 19792c0,992 -268,1750 -807,2273 -538,525 -1312,787 -2323,787l-1662 0 0 -6005 1839 0c934,0 1659,259 2177,777 517,517 776,1240 776,2168zm-740 25c0,-783 -196,-1372 -588,-1769 -393,-396 -978,-596 -1751,-596l-1015 0 0 4794 849 0c834,0 1458,-205 1878,-614 419,-409 627,-1014 627,-1815z"/>
  <polygon id="7" class="fil0" points="16131,22852 15432,22852 15432,16847 18778,16847 18778,17469 16131,17469 16131,19665 18619,19665 18619,20287 16131,20287 "/>
  <path id="8" class="fil0" d="M22414 19707l2041 0 0 2921c-318,101 -641,177 -970,230 -328,51 -709,78 -1141,78 -910,0 -1618,-270 -2123,-812 -507,-540 -760,-1298 -760,-2273 0,-624 126,-1170 376,-1641 250,-469 611,-827 1082,-1075 470,-249 1023,-372 1655,-372 640,0 1237,118 1790,352l-270 615c-543,-230 -1065,-344 -1565,-344 -732,0 -1302,216 -1713,653 -410,434 -615,1038 -615,1811 0,810 197,1425 593,1844 395,419 977,628 1743,628 415,0 822,-48 1220,-144l0 -1849 -1343 0 0 -622z"/>
  <g id="_345707928">
   <g>
    <circle class="fil1" cx="41347" cy="15116" r="13358"/>
    <path class="fil0" d="M54374 15116c0,-3606 -1473,-6844 -3827,-9199 -2355,-2355 -5593,-3827 -9199,-3827 -3606,0 -6845,1472 -9199,3827 -2355,2355 -3828,5593 -3828,9199 0,3606 1473,6844 3828,9199 2354,2356 5593,3827 9199,3827 3606,0 6844,-1471 9199,-3827 2354,-2355 3827,-5593 3827,-9199zm-3349 -9678c2502,2465 4011,5888 4011,9678 0,3791 -1509,7212 -4011,9678 -2466,2502 -5887,4011 -9677,4011 -3791,0 -7213,-1509 -9678,-4011 -2466,-2466 -4011,-5887 -4011,-9678 0,-3790 1545,-7212 4011,-9678 2465,-2465 5887,-4010 9678,-4010 3790,0 7211,1545 9677,4010z"/>
   </g>
   <path class="fil2" d="M47670 7231l-12645 0c-491,0 -894,402 -894,893l0 13984c0,491 403,894 894,894l12645 0c491,0 893,-403 893,-894l0 -13984c0,-491 -402,-893 -893,-893zm-10063 14009c0,232 -189,422 -421,422l-1293 0c-232,0 -422,-190 -422,-422l0 -1293c0,-232 190,-421 422,-421l1293 0c232,0 421,189 421,421l0 1293zm0 -3205c0,233 -189,422 -421,422l-1293 0c-232,0 -422,-189 -422,-422l0 -1293c0,-232 190,-422 422,-422l1293 0c232,0 421,190 421,422l0 1293zm0 -3205c0,232 -189,422 -421,422l-1293 0c-232,0 -422,-190 -422,-422l0 -1293c0,-232 190,-422 422,-422l1293 0c232,0 421,190 421,422l0 1293zm3206 6410c0,232 -190,422 -422,422l-1293 0c-232,0 -422,-190 -422,-422l0 -1293c0,-232 190,-421 422,-421l1293 0c233,0 422,189 422,421l0 1293 0 0zm0 -3205c0,233 -190,422 -422,422l-1293 0c-232,0 -422,-189 -422,-422l0 -1293c0,-232 190,-422 422,-422l1293 0c233,0 422,190 422,422l0 1293 0 0zm0 -3205c0,232 -190,422 -422,422l-1293 0c-232,0 -422,-190 -422,-422l0 -1293c0,-232 190,-422 422,-422l1293 0c233,0 422,190 422,422l0 1293 0 0zm3205 6410c0,232 -190,422 -422,422l-1293 0c-231,0 -421,-190 -421,-422l0 -1293c0,-232 189,-421 421,-421l1293 0c232,0 422,189 422,421l0 1293zm0 -3205c0,233 -190,422 -422,422l-1293 0c-231,0 -421,-189 -421,-422l0 -1293c0,-232 189,-422 421,-422l1293 0c232,0 422,190 422,422l0 1293zm0 -3205c0,232 -190,422 -422,422l-1293 0c-231,0 -421,-190 -421,-422l0 -1293c0,-232 189,-422 421,-422l1293 0c232,0 422,190 422,422l0 1293zm3205 6410c0,232 -189,422 -421,422l-1293 0c-233,0 -423,-190 -423,-422l0 -4498c0,-232 190,-422 423,-422l1293 0c232,0 421,190 421,422l0 4498zm0 -6410c0,232 -189,422 -421,422l-1293 0c-233,0 -423,-190 -423,-422l1 -1293c0,-232 189,-422 422,-422l1293 0c232,0 421,190 421,422l0 1293zm0 -3476c0,232 -189,422 -421,422l-10909 0c-232,0 -422,-190 -422,-422l0 -2362c0,-232 190,-421 422,-421l10909 0c232,0 421,189 421,421l0 2362z"/>
  </g>
  <rect class="fil3" width="56694" height="30723"/>
 </g>
</svg>
