<svg id="Layer_1" data-name="Layer 1" xmlns="http://www.w3.org/2000/svg" viewBox="0 0 49.83 49.83"><defs><style>.cls-1{fill:#f16667;isolation:isolate;}.cls-2{fill:#fff;}.cls-3{fill:none;stroke:#333;stroke-miterlimit:10;}</style></defs><title>smiley_negatif</title><circle class="cls-1" cx="24.92" cy="24.92" r="24.92"/><ellipse class="cls-2" cx="18.5" cy="17.56" rx="2.34" ry="4.25"/><ellipse class="cls-2" cx="30.99" cy="17.56" rx="2.34" ry="4.25"/><path class="cls-3" d="M37.19,45.05" transform="translate(-0.08 -0.08)"/><path class="cls-3" d="M72.56,45.05" transform="translate(-0.08 -0.08)"/><path class="cls-2" d="M24.9,27a18.86,18.86,0,0,1,17,10.3,1,1,0,1,1-1.8.88A16.84,16.84,0,0,0,24.9,29a16.71,16.71,0,0,0-15,8.8,1,1,0,0,1-1.78-.92A18.72,18.72,0,0,1,24.9,27Z" transform="translate(-0.08 -0.08)"/></svg>