<?xml version="1.0" encoding="UTF-8"?>
<!DOCTYPE svg PUBLIC "-//W3C//DTD SVG 1.1//EN" "http://www.w3.org/Graphics/SVG/1.1/DTD/svg11.dtd">
<!-- Creator: CorelDRAW X7 -->
<svg xmlns="http://www.w3.org/2000/svg" xml:space="preserve" width="70px" height="120px" version="1.1" style="shape-rendering:geometricPrecision; text-rendering:geometricPrecision; image-rendering:optimizeQuality; fill-rule:evenodd; clip-rule:evenodd"
viewBox="0 0 92704 158976"
 xmlns:xlink="http://www.w3.org/1999/xlink">
 <defs>
  <style type="text/css">
   <![CDATA[
    .fil6 {fill:#299BB3}
    .fil0 {fill:#35C7E6}
    .fil16 {fill:#3B4B5F}
    .fil3 {fill:#557691}
    .fil13 {fill:#7D3C4A}
    .fil17 {fill:#924656}
    .fil18 {fill:#964557}
    .fil12 {fill:#B05468}
    .fil15 {fill:#EBEBEB}
    .fil2 {fill:#EBEFF5}
    .fil19 {fill:#F0BB9C}
    .fil14 {fill:#F0C192}
    .fil1 {fill:#F5F9FA}
    .fil20 {fill:#FFD4AC}
    .fil7 {fill:white}
    .fil5 {fill:url(#id0)}
    .fil11 {fill:url(#id1)}
    .fil4 {fill:url(#id2)}
    .fil10 {fill:url(#id3)}
    .fil9 {fill:url(#id4)}
    .fil8 {fill:url(#id5)}
   ]]>
  </style>
  <linearGradient id="id0" gradientUnits="userSpaceOnUse" x1="-3.20004e+006" y1="-129556" x2="-3.19944e+006" y2="-129556">
   <stop offset="0" style="stop-opacity:1; stop-color:#35C7E6"/>
   <stop offset="0.0392157" style="stop-opacity:1; stop-color:#37C1E0"/>
   <stop offset="0.309804" style="stop-opacity:1; stop-color:#44A1BE"/>
   <stop offset="0.568627" style="stop-opacity:1; stop-color:#4D89A5"/>
   <stop offset="0.811765" style="stop-opacity:1; stop-color:#537B96"/>
   <stop offset="1" style="stop-opacity:1; stop-color:#557691"/>
  </linearGradient>
  <linearGradient id="id1" gradientUnits="userSpaceOnUse" x1="-3.13706e+006" y1="-124397" x2="-3.13647e+006" y2="-124397">
   <stop offset="0" style="stop-opacity:1; stop-color:#924656"/>
   <stop offset="0.470588" style="stop-opacity:1; stop-color:#8F4554"/>
   <stop offset="0.819608" style="stop-opacity:1; stop-color:#86404F"/>
   <stop offset="1" style="stop-opacity:1; stop-color:#7D3C4A"/>
  </linearGradient>
  <linearGradient id="id2" gradientUnits="userSpaceOnUse" x1="-3.19994e+006" y1="-129577" x2="-3.19935e+006" y2="-129577">
   <stop offset="0" style="stop-opacity:1; stop-color:#35C7E6"/>
   <stop offset="0.4" style="stop-opacity:1; stop-color:#35C7E6"/>
   <stop offset="1" style="stop-opacity:1; stop-color:#32ABCF"/>
  </linearGradient>
  <radialGradient id="id3" gradientUnits="userSpaceOnUse" gradientTransform="matrix(5.79569E-016 9.46508 9.02261 -2.5559E-015 -415646 -385252)" cx="46109.4" cy="51177.6" r="146382" fx="46109.4" fy="51177.6">
   <stop offset="0" style="stop-opacity:1; stop-color:#FFD4AC"/>
   <stop offset="0.478431" style="stop-opacity:1; stop-color:#FFD1AA"/>
   <stop offset="0.811765" style="stop-opacity:1; stop-color:#FFC8A4"/>
   <stop offset="1" style="stop-opacity:1; stop-color:#FFBF9E"/>
  </radialGradient>
  <radialGradient id="id4" gradientUnits="userSpaceOnUse" gradientTransform="matrix(2.59489E-016 4.23779 8.75258 -5.35941E-016 -464699 -290771)" xlink:href="#id3" cx="83390.6" cy="62620.4" r="22303.6" fx="83390.6" fy="62620.4">
  </radialGradient>
  <radialGradient id="id5" gradientUnits="userSpaceOnUse" gradientTransform="matrix(2.59494E-016 4.23787 8.75254 -5.35938E-016 -537447 22045)" xlink:href="#id3" cx="9544.84" cy="62495.2" r="22303.6" fx="9544.84" fy="62495.2">
  </radialGradient>
 </defs>
 <g id="Plan_x0020_1">
  <metadata id="CorelCorpID_0Corel-Layer"/>
  <g id="_297754360">
   <path class="fil0" d="M28788 96691c0,0 -166,25 -476,72 -155,23 -346,51 -571,86 -271,59 -580,125 -929,200 -171,39 -354,83 -546,127 -174,48 -356,102 -545,153 -379,108 -793,219 -1213,368 -854,278 -1794,629 -2788,1059 -501,212 -1017,440 -1538,700 -529,244 -1064,521 -1609,812 -1093,577 -2212,1248 -3350,1989 -1128,755 -2275,1580 -3389,2522 -1109,956 -2220,1965 -3228,3189 -1011,1214 -1965,2578 -2660,4259 -157,440 -324,864 -449,1324 -107,482 -211,957 -280,1449 -33,516 -61,1031 -50,1546 54,525 128,1051 223,1566 151,501 320,998 504,1480 212,454 463,878 712,1302 121,221 263,396 402,573 144,175 287,352 428,524 145,172 287,347 435,508 150,140 300,277 450,415 298,269 600,545 897,789 302,209 598,414 887,618 593,433 1155,704 1704,1004 548,313 1066,528 1558,736 495,203 972,433 1404,566 870,285 1643,589 2263,737 1245,337 1957,529 1957,529 2103,570 4270,-674 4838,-2779 570,-2104 -676,-4270 -2779,-4838 -75,-20 -148,-39 -222,-55l-205 -42c0,0 -588,-121 -1621,-333 -529,-91 -1092,-287 -1785,-462 -359,-80 -668,-221 -1033,-341 -357,-125 -740,-250 -1072,-424 -341,-163 -742,-311 -1031,-516 -161,-94 -327,-188 -493,-285 -133,-102 -263,-205 -397,-312 -518,-424 -845,-810 -970,-1164 -132,-355 -163,-907 101,-1704 257,-781 772,-1688 1419,-2567 636,-892 1463,-1747 2301,-2563 848,-814 1768,-1564 2683,-2265 926,-685 1851,-1325 2762,-1877 452,-280 896,-548 1336,-784 435,-251 861,-470 1274,-676 823,-418 1593,-759 2273,-1028 341,-147 661,-252 955,-355 149,-54 289,-102 424,-151 124,-36 239,-70 349,-103 219,-66 418,-127 590,-177 220,-47 411,-87 563,-120 307,-66 471,-102 471,-102l8 0c1424,-305 2331,-1705 2028,-3126 -294,-1366 -1606,-2257 -2969,-2055l-1 2z"/>
   <path class="fil1" d="M41454 95686c2158,0 15250,13091 15250,15249 0,2156 -14572,16728 -16728,16728 -2157,-2 -15250,-13095 -15252,-15250 0,-2156 14573,-16728 16730,-16728l0 1z"/>
   <path class="fil0" d="M58039 96691c0,0 166,25 476,72 154,23 345,51 571,86 270,59 580,125 929,200 171,39 354,83 546,127 175,48 355,102 545,153 378,108 793,219 1212,368 855,278 1795,629 2789,1059 500,212 1017,440 1538,700 529,244 1064,521 1608,812 1094,577 2213,1248 3351,1989 1128,755 2275,1580 3389,2522 1109,956 2220,1965 3228,3189 1011,1214 1965,2578 2660,4259 156,440 324,864 449,1324 106,482 211,957 280,1449 33,516 61,1031 50,1546 -55,525 -128,1051 -224,1566 -150,501 -319,998 -504,1480 -211,454 -463,878 -712,1302 -120,221 -261,396 -402,573 -144,175 -286,352 -427,524 -145,172 -288,347 -435,508 -150,140 -300,277 -450,415 -298,269 -600,545 -897,789 -302,209 -598,414 -887,618 -592,433 -1155,704 -1704,1004 -548,313 -1066,528 -1559,736 -494,203 -971,433 -1403,566 -870,285 -1643,589 -2263,737 -1245,337 -1956,529 -1956,529 -2104,570 -4271,-674 -4839,-2779 -570,-2104 675,-4270 2778,-4838 76,-20 149,-39 223,-55l205 -42c0,0 588,-121 1621,-333 529,-91 1092,-287 1785,-462 358,-80 668,-221 1033,-341 357,-125 740,-250 1072,-424 341,-163 741,-311 1032,-516 162,-94 326,-188 492,-285 133,-102 263,-205 397,-312 518,-424 845,-810 970,-1164 132,-355 163,-907 -101,-1704 -257,-781 -772,-1688 -1420,-2567 -635,-892 -1463,-1747 -2300,-2563 -848,-814 -1768,-1564 -2683,-2265 -927,-685 -1851,-1325 -2761,-1877 -453,-280 -898,-548 -1337,-784 -434,-251 -861,-470 -1274,-676 -823,-418 -1591,-759 -2274,-1028 -341,-147 -658,-252 -954,-355 -149,-54 -290,-102 -424,-151 -122,-36 -238,-70 -349,-103 -219,-66 -418,-127 -590,-177 -221,-47 -411,-87 -563,-120 -307,-66 -471,-102 -471,-102l-8 0c-1424,-305 -2332,-1705 -2028,-3126 294,-1366 1605,-2257 2968,-2055l2 2z"/>
   <path class="fil2" d="M48120 154528c-2663,-78 -36615,250 -36931,443 -316,189 2853,1738 3399,1862 548,122 19744,1147 21778,1205 2031,56 18597,81 20395,0 1797,-83 17510,-1036 17457,-1629 -58,-595 -23438,-1803 -26098,-1881z"/>
   <path class="fil3" d="M34352 127621c0,0 -39,1613 -97,4031 -28,1209 -63,2620 -99,4132 -26,1508 -29,3112 -45,4716 -53,6411 -106,12821 -106,12821l-7222 -280c0,0 647,-6459 1291,-12918 165,-1613 318,-3230 482,-4735 174,-1502 337,-2904 474,-4106 280,-2402 465,-4004 465,-4004l4857 343 0 0z"/>
   <path class="fil3" d="M21808 158499c2445,1693 12674,-1635 12890,-1995 216,-361 -549,-4314 -800,-4652 -250,-335 -6446,-386 -7232,-217 -789,169 -7299,5174 -4858,6864z"/>
   <path class="fil3" d="M65357 158499c-2444,1693 -12674,-1635 -12890,-1995 -216,-361 551,-4314 801,-4652 249,-335 6444,-386 7232,-217 789,169 7300,5174 4859,6864l-2 0z"/>
   <path class="fil3" d="M57671 127278c0,0 186,1602 463,4006 140,1200 301,2604 476,4104 163,1507 316,3123 480,4735 647,6459 1291,12918 1291,12918l-7221 280c0,0 -53,-6410 -106,-12821 -14,-1604 -19,-3208 -46,-4716 -36,-1512 -70,-2923 -98,-4132 -58,-2420 -97,-4031 -97,-4031l4858 -343z"/>
   <path class="fil4" d="M43582 93712c7752,0 15465,1168 16851,2408 1386,1242 4536,31570 4536,31570 0,0 -8603,2065 -21387,2065 -12783,0 -21386,-2065 -21386,-2065 0,0 3149,-30328 4536,-31570 1386,-1240 9099,-2408 16850,-2408z"/>
   <path class="fil5" d="M65296 127657l-618 -5106c-102,-851 -199,-1704 -318,-2552l-345 -2546c-485,-3392 -941,-6788 -1454,-10177 322,3414 695,6819 1044,10229l278 2553c99,852 177,1704 261,2556l471 4811c-774,161 -1561,305 -2347,431 -879,156 -1765,272 -2647,406 -883,140 -1775,219 -2660,332 -887,116 -1778,188 -2670,263 -888,67 -1777,180 -2671,211l-2678 141c-891,63 -1784,49 -2679,70l-2681 43 -2682 -43c-895,-21 -1797,-7 -2686,-70l-2670 -141c-892,-31 -1783,-144 -2672,-211 -891,-75 -1782,-147 -2666,-263 -886,-113 -1778,-192 -2661,-332 -884,-134 -1771,-252 -2649,-406 -785,-127 -1572,-270 -2347,-429l468 -4787c83,-848 160,-1696 261,-2542l276 -2538c344,-3391 715,-6777 1033,-10173 -507,3371 -963,6747 -1445,10123l-342 2534c-118,844 -215,1690 -316,2537l-614 5074 -34 288 285 66c887,211 1765,388 2653,552 883,183 1778,296 2665,441 889,148 1785,235 2677,354 892,124 1789,205 2684,288 898,74 1791,191 2691,230l2701 163c903,69 1796,62 2693,91l2699 62 2699 -62c900,-29 1801,-22 2698,-91l2694 -163c900,-39 1793,-156 2691,-232 896,-81 1792,-162 2684,-286 892,-119 1788,-206 2677,-354 889,-145 1784,-258 2665,-441 889,-163 1767,-341 2655,-552l284 -66 -36 -286 1 0z"/>
   <path class="fil6" d="M25957 97497c0,0 7558,9186 8652,9186 1095,0 8856,-7121 8856,-7121 0,0 7763,7121 8858,7121 1094,0 8642,-9186 8642,-9186l-35008 0z"/>
   <path class="fil7" d="M25957 97497c0,0 7558,7811 8652,7811 1095,0 8856,-5746 8856,-5746 0,0 7763,5746 8858,5746 1094,0 8642,-7811 8642,-7811l-35008 0z"/>
   <path class="fil8" d="M10216 57681c0,0 -10814,-3300 -10189,5836 669,9828 11474,4887 11474,4887l-1285 -10723 0 0z"/>
   <path class="fil9" d="M76165 57681c0,0 10814,-3300 10191,5836 -670,9828 -11476,4887 -11476,4887l1285 -10723 0 0z"/>
   <path class="fil10" d="M43345 17417c11280,0 21566,3435 27670,8908 7739,6933 6865,17142 6865,27780 0,17959 -7976,37148 -17491,43897 -670,473 -8504,1738 -16498,1756 -8334,22 -16845,-1227 -17591,-1756 -9517,-6752 -17491,-25940 -17491,-43898 0,-10637 -874,-20846 6862,-27781 6107,-5471 16390,-8906 27674,-8906l0 0z"/>
   <path class="fil11" d="M83153 16747c0,0 9790,-5404 9546,-6534 -245,-1133 -12069,-2122 -12069,-2122 0,0 9423,-6734 8941,-7819 -480,-1087 -16641,1230 -37750,4355 -21109,3128 -36635,7708 -36635,7708 0,0 -5723,-4895 -6378,-4580 -654,313 0,7260 0,7260 0,0 -5306,-4024 -5916,-3686 -611,339 -1445,7260 0,23790 1444,16531 3522,21981 3522,21981 0,0 2705,7409 2934,7312 228,-97 3491,-31191 3491,-31191 10776,-3914 50813,-3460 60844,-670 0,0 3446,31739 3662,31827 212,86 2732,-7278 2732,-7278 0,0 2112,-5450 3555,-21981 306,-3505 482,-6591 569,-9282 5255,-1171 8328,-1250 8497,-2109 169,-861 -9545,-6982 -9545,-6982l0 1z"/>
   <path class="fil12" d="M84209 2618c0,0 -258,76 -746,220 -490,137 -1204,352 -2119,595 -914,244 -2022,551 -3300,867 -1277,327 -2718,693 -4294,1056 -1574,379 -3281,782 -5093,1169 -1812,400 -3719,828 -5700,1228 -1980,409 -4026,822 -6114,1214 -2081,406 -4204,783 -6324,1169 -2124,368 -4247,740 -6342,1078 -2092,346 -4158,667 -6154,964 -1998,307 -3939,559 -5774,809 -1835,262 -3577,468 -5187,659 -1605,202 -3083,352 -4394,487 -1308,144 -2453,237 -3395,322 -942,89 -1687,133 -2194,175 -507,33 -778,50 -778,50 0,0 262,-76 750,-220 486,-135 1202,-351 2115,-592 916,-244 2024,-551 3302,-868 1277,-323 2715,-692 4292,-1055 1577,-375 3283,-781 5096,-1169 1809,-396 3718,-826 5699,-1228 1979,-410 4028,-818 6112,-1216 2083,-404 4203,-785 6325,-1170 2124,-370 4246,-743 6341,-1081 2092,-351 4156,-667 6156,-967 1997,-306 3937,-561 5772,-809 1836,-262 3577,-468 5187,-658 1604,-200 3083,-353 4394,-486 1308,-143 2455,-238 3397,-321 942,-89 1687,-131 2192,-172 509,-33 778,-52 778,-52l0 2z"/>
   <path class="fil13" d="M71641 32089c-15522,-5122 -34773,-8390 -55970,-5766 -5369,665 -11395,-6898 -13382,-12203 -310,3424 -346,10135 604,21000 1444,16530 3521,21982 3521,21982 0,0 2707,7409 2935,7312 227,-97 3493,-31192 3493,-31192 10147,-3688 46258,-3498 58799,-1133l0 0z"/>
   <path class="fil14" d="M38064 55504c0,6292 -3848,11150 -11393,11150 -7544,0 -11393,-4858 -11393,-11150 0,-6292 3849,-11152 11393,-11152 7545,0 11393,4860 11393,11152z"/>
   <path class="fil14" d="M71410 55504c0,6292 -3850,11150 -11393,11150 -7545,0 -11393,-4858 -11393,-11150 0,-6292 3849,-11152 11393,-11152 7543,0 11393,4860 11393,11152z"/>
   <path class="fil7" d="M38064 56843c0,6292 -3848,11151 -11393,11151 -7544,0 -11393,-4859 -11393,-11151 0,-6291 3849,-11150 11393,-11150 7545,0 11393,4859 11393,11150z"/>
   <path class="fil7" d="M71410 56843c0,6292 -3850,11151 -11393,11151 -7545,0 -11393,-4859 -11393,-11151 0,-6291 3849,-11150 11393,-11150 7543,0 11393,4859 11393,11150z"/>
   <path class="fil15" d="M33307 60048c0,3527 -2656,6384 -6384,6384 -3732,0 -6384,-2859 -6384,-6384 0,-3527 2652,-6384 6384,-6384 3730,0 6384,2859 6384,6384z"/>
   <path class="fil15" d="M54163 60048c0,3527 2654,6384 6386,6384 3728,0 6384,-2859 6384,-6384 0,-3527 -2656,-6384 -6384,-6384 -3732,0 -6386,2859 -6386,6384z"/>
   <path class="fil16" d="M33307 59042c0,3527 -2656,6386 -6384,6386 -3732,0 -6384,-2859 -6384,-6386 0,-3525 2652,-6383 6384,-6383 3730,0 6384,2858 6384,6383z"/>
   <path class="fil16" d="M54163 59042c0,3527 2654,6386 6386,6386 3728,0 6384,-2859 6384,-6386 0,-3525 -2656,-6383 -6384,-6383 -3732,0 -6386,2858 -6386,6383z"/>
   <path class="fil7" d="M31454 56444c757,1316 570,2847 -419,3415 -989,568 -1660,-36 -2419,-1354 -758,-1317 -1313,-2844 -327,-3414 990,-570 2408,36 3165,1353z"/>
   <path class="fil7" d="M65016 56444c759,1316 571,2847 -419,3415 -988,568 -1660,-36 -2418,-1354 -757,-1317 -1314,-2844 -325,-3414 989,-570 2405,36 3162,1353z"/>
   <path class="fil17" d="M18814 43706c174,111 3377,-1210 6732,-1313 3334,-308 6817,598 7116,426 700,-382 1070,-4347 312,-4996 -276,-365 -4338,-834 -7865,15 -3603,662 -6675,2642 -6739,2821 -285,451 5,2840 444,3045l0 2z"/>
   <path class="fil17" d="M67102 43706c-174,111 -3378,-1210 -6733,-1313 -3333,-308 -6816,598 -7115,426 -701,-382 -1073,-4347 -313,-4996 277,-365 4337,-834 7866,15 3605,662 6673,2642 6738,2821 284,451 -4,2840 -443,3045l0 2z"/>
   <path class="fil18" d="M43038 84029c-5112,-33 -7900,-640 -7489,-1069 340,-353 3106,-69 7494,-40 4387,25 7132,-116 7368,192 410,529 -2264,948 -7373,917z"/>
   <path class="fil19" d="M42872 87797c-2563,-63 -3530,-836 -3151,-1023 378,-187 1012,-44 3212,9 2202,53 2785,-63 3151,142 367,205 -649,931 -3212,872z"/>
   <path class="fil20" d="M63340 120414c886,-761 4400,-974 4884,4254 468,5068 -2821,4652 -4258,4733 -1164,68 -3168,-1262 -3259,-3381 -247,-5797 993,-4197 2633,-5606z"/>
   <path class="fil20" d="M23487 120414c-886,-761 -4400,-974 -4884,4254 -468,5068 2821,4652 4258,4733 1164,68 3168,-1262 3259,-3381 247,-5797 -994,-4197 -2633,-5606z"/>
  </g>
 </g>
</svg>
