<?xml version="1.0" encoding="UTF-8"?>
<!DOCTYPE svg PUBLIC "-//W3C//DTD SVG 1.1//EN" "http://www.w3.org/Graphics/SVG/1.1/DTD/svg11.dtd">
<!-- Creator: CorelDRAW X7 -->
<svg xmlns="http://www.w3.org/2000/svg" xml:space="preserve" width="110px" height="125px" version="1.1" style="shape-rendering:geometricPrecision; text-rendering:geometricPrecision; image-rendering:optimizeQuality; fill-rule:evenodd; clip-rule:evenodd"
viewBox="0 0 199691 226924"
 xmlns:xlink="http://www.w3.org/1999/xlink">
 <defs>
  <style type="text/css">
   <![CDATA[
    .fil6 {fill:#299BB3}
    .fil1 {fill:#35C7E6}
    .fil16 {fill:#3B4B5F}
    .fil3 {fill:#557691}
    .fil13 {fill:#7D3C4A}
    .fil17 {fill:#924656}
    .fil18 {fill:#964557}
    .fil12 {fill:#B05468}
    .fil21 {fill:#DCEEF7}
    .fil15 {fill:#EBEBEB}
    .fil2 {fill:#EBEFF5}
    .fil19 {fill:#F0BB9C}
    .fil14 {fill:#F0C192}
    .fil0 {fill:#F5F9FA}
    .fil20 {fill:#FFD4AC}
    .fil7 {fill:white}
    .fil5 {fill:url(#id0)}
    .fil4 {fill:url(#id1)}
    .fil11 {fill:url(#id2)}
    .fil9 {fill:url(#id3)}
    .fil8 {fill:url(#id4)}
    .fil10 {fill:url(#id5)}
   ]]>
  </style>
  <linearGradient id="id0" gradientUnits="userSpaceOnUse" x1="-4.44725e+006" y1="-184954" x2="-4.4464e+006" y2="-184954">
   <stop offset="0" style="stop-opacity:1; stop-color:#35C7E6"/>
   <stop offset="0.0392157" style="stop-opacity:1; stop-color:#37C1E0"/>
   <stop offset="0.309804" style="stop-opacity:1; stop-color:#44A1BE"/>
   <stop offset="0.568627" style="stop-opacity:1; stop-color:#4D89A5"/>
   <stop offset="0.811765" style="stop-opacity:1; stop-color:#537B96"/>
   <stop offset="1" style="stop-opacity:1; stop-color:#557691"/>
  </linearGradient>
  <linearGradient id="id1" gradientUnits="userSpaceOnUse" x1="-4.44716e+006" y1="-184946" x2="-4.44632e+006" y2="-184946">
   <stop offset="0" style="stop-opacity:1; stop-color:#35C7E6"/>
   <stop offset="0.4" style="stop-opacity:1; stop-color:#35C7E6"/>
   <stop offset="1" style="stop-opacity:1; stop-color:#32ABCF"/>
  </linearGradient>
  <linearGradient id="id2" gradientUnits="userSpaceOnUse" x1="-4.35839e+006" y1="-177563" x2="-4.35755e+006" y2="-177563">
   <stop offset="0" style="stop-opacity:1; stop-color:#924656"/>
   <stop offset="0.470588" style="stop-opacity:1; stop-color:#8F4554"/>
   <stop offset="0.819608" style="stop-opacity:1; stop-color:#86404F"/>
   <stop offset="1" style="stop-opacity:1; stop-color:#7D3C4A"/>
  </linearGradient>
  <radialGradient id="id3" gradientUnits="userSpaceOnUse" gradientTransform="matrix(2.42561E-016 3.96132 8.18122 -5.00955E-016 -544733 -649589)" cx="186547" cy="89385.3" r="32668.3" fx="186547" fy="89385.3">
   <stop offset="0" style="stop-opacity:1; stop-color:#FFD4AC"/>
   <stop offset="0.478431" style="stop-opacity:1; stop-color:#FFD1AA"/>
   <stop offset="0.811765" style="stop-opacity:1; stop-color:#FFC8A4"/>
   <stop offset="1" style="stop-opacity:1; stop-color:#FFBF9E"/>
  </radialGradient>
  <radialGradient id="id4" gradientUnits="userSpaceOnUse" gradientTransform="matrix(6.39963E-015 3.96129 8.18116 1.31563E-015 -647471 -236932)" xlink:href="#id3" cx="82331" cy="89205.2" r="32668.3" fx="82331" fy="89205.2">
  </radialGradient>
  <radialGradient id="id5" gradientUnits="userSpaceOnUse" gradientTransform="matrix(5.41726E-016 8.84705 8.43358 -5.16408E-016 -482149 -1.11187E+006)" xlink:href="#id3" cx="133934" cy="73051.2" r="214406" fx="133934" fy="73051.2">
  </radialGradient>
 </defs>
 <g id="Plan_x0020_1">
  <metadata id="CorelCorpID_0Corel-Layer"/>
  <g id="_627667272">
   <path class="fil0" d="M80346 59108c4369,-2 30884,26814 30882,31234 2,4417 -29508,34263 -33876,34263 -4367,0 -30884,-26819 -30884,-31236 0,-4415 29510,-34263 33878,-34261z"/>
   <path class="fil0" d="M127362 136582c3047,0 21523,18687 21523,21766 0,3079 -20566,23877 -23609,23877 -3042,-2 -21521,-18691 -21523,-21768 0,-3076 20565,-23875 23609,-23875z"/>
   <path class="fil0" d="M103968 115816c2112,2 14923,12959 14925,15097 -2,2136 -14263,16557 -16373,16557 -2112,-2 -14925,-12961 -14925,-15095 0,-2135 14261,-16557 16373,-16559z"/>
   <path class="fil0" d="M158067 164791c2112,2 14925,12961 14925,15097 0,2135 -14263,16557 -16373,16557 -2112,0 -14923,-12962 -14925,-15095 0,-2136 14263,-16557 16373,-16559z"/>
   <path class="fil1" d="M150770 138017c0,0 234,34 669,103 219,32 491,73 808,122 380,83 820,178 1308,287 245,56 502,118 772,180 247,69 502,142 768,219 538,152 1119,313 1713,525 1205,397 2532,899 3937,1510 705,302 1432,628 2170,999 746,349 1501,744 2268,1160 1546,825 3124,1782 4728,2839 1591,1078 3212,2253 4784,3600 1567,1366 3134,2807 4558,4552 1424,1732 2775,3679 3752,6079 221,628 457,1235 633,1891 148,688 300,1368 396,2069 48,733 84,1471 73,2204 -81,750 -184,1503 -321,2236 -210,716 -448,1426 -708,2114 -300,648 -656,1253 -1003,1859 -172,316 -371,564 -571,815 -201,253 -403,504 -602,751 -204,244 -405,495 -613,722 -213,202 -423,397 -635,594 -422,386 -845,778 -1267,1126 -427,300 -843,592 -1252,883 -837,618 -1630,1004 -2404,1433 -774,448 -1505,752 -2202,1050 -695,292 -1368,618 -1979,806 -1229,410 -2318,841 -3191,1053 -1760,483 -2763,755 -2763,755 -2968,812 -6028,-963 -6830,-3967 -801,-3002 955,-6093 3924,-6906 105,-28 208,-54 311,-75l290 -62c0,0 832,-172 2287,-476 749,-127 1544,-410 2524,-659 502,-115 939,-317 1452,-486 506,-178 1048,-358 1516,-605 482,-232 1046,-446 1453,-738 230,-132 461,-268 697,-405 185,-148 371,-294 562,-446 727,-602 1192,-1155 1366,-1664 186,-504 229,-1293 -144,-2429 -360,-1113 -1087,-2410 -2000,-3669 -899,-1271 -2067,-2489 -3247,-3653 -1198,-1165 -2495,-2234 -3786,-3231 -1308,-982 -2612,-1894 -3898,-2683 -639,-399 -1267,-780 -1887,-1119 -611,-358 -1216,-669 -1801,-965 -1158,-596 -2243,-1083 -3206,-1467 -482,-210 -930,-360 -1346,-508 -210,-75 -408,-145 -601,-214 -169,-52 -332,-99 -488,-148 -311,-92 -590,-178 -832,-253 -316,-67 -581,-124 -798,-169 -433,-95 -665,-146 -665,-146l-10 -2c-2007,-433 -3290,-2432 -2861,-4462 412,-1949 2265,-3219 4188,-2931l4 2z"/>
   <path class="fil1" d="M107671 143092c0,0 -346,15 -993,45 -635,21 -1548,36 -2706,19 -2314,-32 -5605,-203 -9531,-754 -1964,-268 -4087,-637 -6319,-1133 -2238,-465 -4571,-1121 -6977,-1846 -2393,-784 -4863,-1642 -7309,-2721 -2466,-1031 -4895,-2285 -7305,-3604 -2374,-1385 -4719,-2858 -6917,-4492 -1096,-819 -2200,-1621 -3219,-2504 -1044,-858 -2067,-1720 -3012,-2635 -483,-449 -961,-897 -1432,-1338 -470,-451 -901,-922 -1347,-1381 -879,-918 -1758,-1806 -2528,-2749 -776,-931 -1589,-1803 -2268,-2721 -695,-916 -1364,-1797 -2009,-2646 -620,-864 -1171,-1719 -1718,-2526 -545,-806 -1063,-1573 -1486,-2324 -862,-1497 -1692,-2779 -2236,-3889 -1139,-2213 -1791,-3476 -1791,-3476 -2163,-4209 -546,-9394 3611,-11585 4162,-2189 9289,-553 11454,3654 189,366 348,739 481,1119l126 375c0,0 367,1077 1008,2963 296,961 810,2040 1310,3339 244,656 566,1314 903,2013 338,695 671,1448 1061,2207 407,750 834,1526 1278,2332 429,822 975,1591 1481,2434 498,849 1098,1655 1692,2496 300,418 590,860 911,1273 328,414 659,826 995,1248 650,860 1375,1677 2119,2500 718,852 1526,1634 2326,2445 1606,1619 3375,3130 5198,4601 1863,1413 3773,2805 5769,4010 1971,1250 4021,2322 6026,3332 2030,960 4022,1859 5971,2577 1938,748 3812,1368 5560,1882 3497,1038 6494,1649 8589,1995 1049,175 1870,283 2421,345 536,58 823,90 823,90l142 13c1366,145 2356,1385 2213,2766 -131,1256 -1154,2197 -2365,2251z"/>
   <path class="fil2" d="M136769 220575c-3757,-114 -51672,356 -52116,628 -448,270 4025,2483 4797,2659 772,174 27865,1638 30732,1718 2869,81 26246,117 28785,0 2536,-118 24711,-1478 24636,-2323 -81,-849 -33078,-2573 -36834,-2682l0 0z"/>
   <path class="fil3" d="M117341 182165c0,0 -54,2300 -138,5755 -38,1726 -90,3739 -137,5896 -38,2155 -45,4443 -64,6735 -75,9147 -150,18298 -150,18298l-10193 -399c0,0 913,-9222 1822,-18442 232,-2300 448,-4607 680,-6758 244,-2142 474,-4145 671,-5858 392,-3430 656,-5718 656,-5718l6853 491 0 0z"/>
   <path class="fil3" d="M99636 226240c3453,2416 17889,-2333 18191,-2848 305,-514 -774,-6160 -1127,-6638 -354,-480 -9098,-555 -10209,-313 -1110,240 -10302,7385 -6855,9799l0 0z"/>
   <path class="fil3" d="M161099 226240c-3453,2416 -17887,-2333 -18191,-2848 -307,-514 774,-6160 1127,-6638 352,-480 9096,-555 10209,-313 1112,240 10300,7385 6855,9799l0 0z"/>
   <path class="fil3" d="M150251 181676c0,0 262,2288 652,5716 195,1716 427,3716 671,5860 232,2151 446,4456 680,6756 911,9222 1822,18442 1822,18442l-10191 401c0,0 -75,-9149 -150,-18300 -23,-2292 -28,-4580 -64,-6735 -52,-2155 -99,-4170 -140,-5896 -81,-3455 -135,-5755 -135,-5755l6855 -489 0 0z"/>
   <path class="fil4" d="M130366 133763c10940,0 21826,1668 23781,3439 1956,1771 6403,45064 6403,45064 0,0 -12143,2946 -30184,2946 -18040,0 -30181,-2946 -30181,-2946 0,0 4445,-43293 6401,-45064 1957,-1771 12841,-3439 23780,-3439z"/>
   <path class="fil5" d="M161011 182216l-871 -7288c-146,-1215 -281,-2431 -448,-3640l-489 -3635c-684,-4843 -1329,-9689 -2052,-14524 455,4869 982,9730 1471,14597l395 3645c141,1216 250,2432 368,3647l665 6870c-1093,230 -2202,435 -3313,613 -1239,221 -2491,386 -3735,579 -1248,200 -2504,316 -3754,474 -1250,167 -2509,270 -3767,378 -1255,94 -2509,253 -3770,300l-3780 199c-1259,90 -2519,71 -3782,103l-3783 58 -3784 -60c-1263,-30 -2537,-11 -3789,-101l-3769 -199c-1259,-47 -2515,-206 -3772,-300 -1256,-108 -2515,-211 -3763,-376 -1250,-163 -2508,-276 -3754,-476 -1246,-193 -2498,-358 -3739,-579 -1109,-180 -2220,-383 -3311,-613l660 -6831c116,-1212 225,-2423 367,-3630l390 -3624c485,-4839 1008,-9672 1458,-14518 -718,4810 -1359,9630 -2039,14448l-487 3617c-163,1205 -300,2412 -446,3619l-864 7247 -47 410 403 92c1248,304 2490,555 3744,789 1246,262 2509,420 3761,630 1254,211 2519,333 3778,506 1258,176 2523,290 3789,410 1265,105 2523,272 3797,328l3810 234c1274,98 2534,88 3804,128l3806 90 3810 -90c1269,-40 2541,-30 3810,-130l3801 -232c1268,-56 2531,-223 3796,-328 1265,-120 2530,-234 3788,-410 1259,-173 2524,-295 3778,-506 1255,-210 2518,-368 3761,-630 1252,-232 2494,-489 3746,-789l401 -92 -49 -410 0 0z"/>
   <path class="fil6" d="M105494 139168c0,0 10663,13109 12209,13109 1546,0 12498,-10165 12498,-10165 0,0 10955,10165 12501,10165 1546,0 12196,-13109 12196,-13109l-49404 0z"/>
   <path class="fil7" d="M105494 139168c0,0 10663,11148 12209,11148 1546,0 12498,-8202 12498,-8202 0,0 10955,8202 12501,8202 1546,0 12196,-11148 12196,-11148l-49404 0z"/>
   <path class="fil8" d="M83279 82335c0,0 -15260,-4713 -14383,8330 945,14027 16195,6975 16195,6975l-1812 -15305 0 0z"/>
   <path class="fil9" d="M176350 82335c0,0 15260,-4713 14383,8330 -946,14027 -16197,6975 -16197,6975l1814 -15305 0 0z"/>
   <path class="fil10" d="M130032 24861c15918,0 30436,4904 39051,12715 10923,9900 9685,24467 9685,39654 0,25633 -11254,53023 -24683,62656 -943,678 -12001,2483 -23283,2509 -11761,28 -23770,-1750 -24825,-2509 -13431,-9635 -24684,-37025 -24684,-62656 0,-15185 -1235,-29756 9683,-39654 8620,-7811 23131,-12715 39056,-12715z"/>
   <path class="fil11" d="M186211 23905c0,0 13817,-7710 13474,-9325 -348,-1616 -17034,-3029 -17034,-3029 0,0 13299,-9613 12619,-11161 -680,-1550 -23487,1754 -53278,6218 -29789,4462 -51702,11002 -51702,11002 0,0 -8075,-6986 -8997,-6540 -926,448 0,10365 0,10365 0,0 -7491,-5746 -8351,-5262 -862,483 -2037,10363 0,33957 2037,23597 4970,31376 4970,31376 0,0 3819,10574 4140,10437 322,-137 4928,-44523 4928,-44523 15206,-5586 71711,-4940 85868,-956 0,0 4861,45303 5166,45428 302,124 3855,-10386 3855,-10386 0,0 2982,-7779 5019,-31376 431,-5002 680,-9408 804,-13248 7415,-1669 11752,-1784 11990,-3013 241,-1226 -13471,-9964 -13471,-9964l0 0z"/>
   <path class="fil12" d="M187705 3737c0,0 -366,110 -1057,318 -690,193 -1696,501 -2987,844 -1293,350 -2856,789 -4659,1242 -1801,463 -3834,986 -6057,1505 -2226,540 -4631,1117 -7189,1670 -2558,571 -5249,1180 -8045,1754 -2794,581 -5684,1171 -8626,1731 -2940,578 -5935,1119 -8928,1668 -2996,525 -5993,1057 -8948,1539 -2955,493 -5866,952 -8688,1377 -2820,437 -5558,797 -8150,1155 -2588,374 -5047,667 -7316,937 -2266,290 -4352,504 -6201,695 -1846,208 -3462,343 -4794,463 -1329,127 -2382,189 -3096,249 -714,47 -1096,71 -1096,71 0,0 367,-107 1055,-313 688,-195 1698,-502 2987,-847 1293,-348 2858,-787 4659,-1235 1803,-463 3834,-989 6060,-1508 2223,-536 4631,-1115 7189,-1668 2556,-566 5249,-1181 8045,-1754 2794,-583 5684,-1168 8623,-1734 2942,-579 5933,-1122 8929,-1671 2995,-527 5993,-1063 8949,-1545 2953,-498 5865,-948 8686,-1379 2820,-435 5556,-800 8148,-1156 2588,-371 5047,-667 7318,-937 2264,-287 4351,-504 6201,-692 1848,-206 3465,-341 4796,-461 1330,-125 2380,-187 3092,-245 719,-45 1100,-73 1100,-73l0 0z"/>
   <path class="fil13" d="M169967 45805c-21907,-7311 -49076,-11975 -78991,-8231 -7577,950 -16081,-9846 -18885,-17417 -436,4885 -487,14465 853,29973 2037,23597 4970,31376 4970,31376 0,0 3819,10574 4140,10437 322,-137 4930,-44521 4930,-44521 14323,-5264 65283,-4994 82983,-1617l0 0z"/>
   <path class="fil14" d="M122579 79226c0,8980 -5431,15916 -16077,15916 -10648,0 -16079,-6936 -16079,-15916 0,-8982 5431,-15918 16079,-15918 10646,0 16077,6936 16077,15918z"/>
   <path class="fil14" d="M169639 79226c0,8980 -5431,15916 -16077,15916 -10648,0 -16079,-6936 -16079,-15916 0,-8982 5431,-15918 16079,-15918 10646,0 16077,6936 16077,15918z"/>
   <path class="fil7" d="M122579 81139c0,8982 -5431,15918 -16077,15918 -10648,0 -16079,-6936 -16079,-15918 0,-8982 5431,-15918 16079,-15918 10646,0 16077,6936 16077,15918z"/>
   <path class="fil7" d="M169639 81139c0,8982 -5431,15918 -16077,15918 -10648,0 -16079,-6936 -16079,-15918 0,-8982 5431,-15918 16079,-15918 10646,0 16077,6936 16077,15918z"/>
   <path class="fil15" d="M119037 85712c0,5035 -3746,9113 -9008,9113 -5266,0 -9010,-4078 -9010,-9113 0,-5032 3744,-9112 9010,-9112 5262,0 9008,4082 9008,9112z"/>
   <path class="fil15" d="M148472 85712c0,5035 3745,9113 9011,9113 5264,0 9010,-4078 9010,-9113 0,-5032 -3746,-9112 -9010,-9112 -5266,0 -9011,4082 -9011,9112z"/>
   <path class="fil16" d="M115400 84278c0,5032 -3746,9115 -9009,9115 -5264,0 -9010,-4083 -9010,-9115 0,-5032 3746,-9113 9010,-9113 5266,0 9009,4081 9009,9113z"/>
   <path class="fil16" d="M144835 84278c0,5032 3746,9115 9012,9115 5264,0 9008,-4083 9008,-9115 0,-5032 -3744,-9113 -9008,-9113 -5266,0 -9012,4081 -9012,9113z"/>
   <path class="fil7" d="M112789 80569c1067,1880 802,4061 -594,4873 -1396,813 -2344,-51 -3414,-1932 -1068,-1878 -1852,-4059 -461,-4871 1398,-815 3397,49 4469,1932l0 -2z"/>
   <path class="fil7" d="M160153 80569c1070,1880 804,4061 -592,4873 -1396,813 -2343,-51 -3413,-1932 -1068,-1878 -1855,-4059 -459,-4871 1396,-815 3392,49 4464,1932l0 -2z"/>
   <path class="fil17" d="M95410 62386c247,159 4769,-1726 9501,-1874 4706,-439 9623,856 10043,607 991,-545 1514,-6203 442,-7127 -390,-523 -6124,-1194 -11100,19 -5086,944 -9422,3772 -9512,4029 -401,641 7,4055 626,4346l0 0z"/>
   <path class="fil17" d="M163562 62386c-249,159 -4771,-1726 -9503,-1874 -4704,-439 -9623,856 -10041,607 -990,-545 -1516,-6203 -441,-7127 388,-523 6121,-1194 11098,19 5088,944 9419,3772 9513,4029 401,641 -8,4055 -626,4346l0 0z"/>
   <path class="fil18" d="M129618 123089c-8872,-96 -13710,-7118 -12996,-8411 590,-1060 5389,4998 13003,5079 7616,77 12376,-5178 12789,-4256 708,1591 -3932,7683 -12796,7584l0 4z"/>
   <path class="fil19" d="M129363 125767c-3615,-88 -4979,-1192 -4445,-1460 532,-268 1428,-62 4531,15 3107,73 3934,-90 4451,202 515,291 -918,1329 -4537,1243z"/>
   <path class="fil20" d="M46577 80013c2145,811 5850,6726 -2693,12586 -8276,5680 -10684,-448 -12189,-2871 -1218,-1959 -836,-6728 2727,-8919 9745,-6000 8174,-2299 12155,-796l0 0z"/>
   <path class="fil20" d="M158251 171877c1248,-1083 6207,-1385 6889,6075 663,7234 -3981,6638 -6006,6756 -1644,96 -4472,-1801 -4601,-4827 -349,-8274 1402,-5993 3718,-8004z"/>
   <path class="fil21" d="M6604 62380c-311,45 -6643,5729 -6602,6040 43,311 14821,8330 15131,8289 309,-45 1928,-2208 1885,-2521 -43,-311 -10103,-11849 -10414,-11808z"/>
   <path class="fil21" d="M59547 45788c-210,-304 -9869,-1631 -10172,-1426 -298,208 -1389,20170 -1185,20475 206,304 3276,888 3576,677 300,-208 7987,-19421 7781,-19726z"/>
   <path class="fil21" d="M28740 35737c-375,-189 -10540,4374 -10755,4740 -216,369 10382,20155 10759,20346 378,193 3980,-877 4199,-1246 212,-366 -3828,-23650 -4203,-23840l0 0z"/>
  </g>
 </g>
</svg>
